<svg width="18" height="17" viewBox="0 0 18 17" fill="none" xmlns="http://www.w3.org/2000/svg">
<path fill-rule="evenodd" clip-rule="evenodd" d="M8.37099 11.2756C8.29888 11.2495 8.2016 11.2003 8.1548 11.1663C8.108 11.1322 8.03603 11.0385 7.99489 10.958C7.94916 10.8685 7.92035 10.7527 7.92079 10.6605C7.92119 10.5775 7.94956 10.4497 7.98381 10.3766C8.02133 10.2965 8.26589 10.0253 8.59878 9.69476L9.15142 9.14598L5.06846 9.12935C1.34507 9.11418 0.976688 9.10786 0.88569 9.05748C0.830812 9.02711 0.746567 8.95976 0.698507 8.90781C0.650447 8.85589 0.59181 8.77604 0.568262 8.73037C0.544681 8.68474 0.525391 8.56494 0.525391 8.46416C0.525391 8.36339 0.544681 8.24359 0.568262 8.19795C0.59181 8.15229 0.650447 8.07243 0.698507 8.02051C0.746567 7.96856 0.830812 7.90121 0.88569 7.87085C0.976688 7.82046 1.34507 7.81414 5.06846 7.79897L9.15142 7.78234L8.59878 7.23356C8.26589 6.90303 8.02133 6.63187 7.98381 6.55175C7.94956 6.47857 7.92119 6.35462 7.92079 6.27629C7.92039 6.19797 7.94307 6.07876 7.97121 6.01141C7.99935 5.9441 8.04801 5.86065 8.0793 5.82602C8.11063 5.7914 8.19611 5.73197 8.26928 5.69395C8.35579 5.64899 8.46252 5.62534 8.5744 5.62634C8.69763 5.6274 8.78736 5.65208 8.89037 5.71318C8.96949 5.76011 9.39571 6.16258 9.83749 6.60752C10.2792 7.05243 10.6876 7.49132 10.745 7.58279C10.8023 7.67425 10.8787 7.84421 10.9146 7.96045C10.9585 8.10263 10.9799 8.26753 10.9799 8.46416C10.9799 8.66079 10.9585 8.82569 10.9146 8.96788C10.8787 9.08412 10.8023 9.25407 10.745 9.34554C10.6876 9.437 10.2792 9.87589 9.83749 10.3208C9.39571 10.7657 8.97438 11.1647 8.90121 11.2073C8.82804 11.2499 8.7083 11.2934 8.63513 11.304C8.55551 11.3154 8.44944 11.304 8.37099 11.2756Z" fill="#4095DA"/>
<path fill-rule="evenodd" clip-rule="evenodd" d="M14.7167 0.023433C14.8345 0.0390317 15.0362 0.0837655 15.1649 0.122845C15.2936 0.161925 15.4741 0.231903 15.566 0.278333C15.658 0.32473 15.8005 0.408643 15.8828 0.464752C15.9651 0.520861 16.1129 0.642324 16.2111 0.734652C16.3094 0.827014 16.4551 0.993942 16.5349 1.10566C16.6148 1.21735 16.7251 1.40496 16.7801 1.52257C16.8352 1.64017 16.914 1.86308 16.9552 2.01793L17.0303 2.29944V8.50232V14.7052L16.9552 14.9867C16.914 15.1416 16.8352 15.3645 16.7801 15.4821C16.7251 15.5997 16.6148 15.7873 16.5349 15.899C16.4551 16.0107 16.3094 16.1776 16.2111 16.27C16.1129 16.3623 15.9611 16.4867 15.8738 16.5464C15.7866 16.6061 15.6219 16.6986 15.508 16.752C15.394 16.8053 15.1811 16.8829 15.0347 16.9245L14.7686 17H11.0436H7.31853L7.05245 16.9245C6.90611 16.8829 6.69315 16.8053 6.57917 16.752C6.46522 16.6986 6.30059 16.6061 6.21332 16.5464C6.12608 16.4867 5.97428 16.3623 5.87603 16.27C5.77779 16.1776 5.63208 16.0107 5.55225 15.899C5.4724 15.7873 5.36231 15.6002 5.30756 15.4832C5.25285 15.3663 5.17542 15.1509 5.13555 15.0045C5.06969 14.7629 5.06274 14.6545 5.05995 13.8238C5.05825 13.3208 5.06833 12.8683 5.0823 12.8183C5.0963 12.7684 5.15464 12.674 5.21198 12.6088C5.26931 12.5435 5.36264 12.4659 5.41935 12.4365C5.47762 12.4062 5.60214 12.3829 5.70545 12.3829C5.80729 12.3829 5.93261 12.4061 5.98815 12.4352C6.04303 12.464 6.12727 12.53 6.17533 12.582C6.22339 12.6339 6.28323 12.7138 6.30827 12.7595C6.34233 12.8217 6.35846 13.0741 6.37213 13.7573C6.38683 14.4922 6.4011 14.6992 6.44477 14.811C6.47464 14.8874 6.52522 14.9922 6.55719 15.0438C6.58915 15.0954 6.66877 15.1953 6.73409 15.2658C6.79945 15.3364 6.91117 15.4315 6.98241 15.4771C7.05362 15.5228 7.1944 15.5886 7.29525 15.6233C7.47082 15.6837 7.62997 15.6864 11.0436 15.6864C14.4572 15.6864 14.6163 15.6837 14.7919 15.6233C14.8928 15.5886 15.0335 15.5228 15.1048 15.4771C15.176 15.4315 15.2877 15.3364 15.3531 15.2658C15.4184 15.1953 15.4983 15.0949 15.5306 15.0428C15.5629 14.9907 15.6179 14.8649 15.6529 14.7632C15.7146 14.5838 15.7165 14.3986 15.7165 8.50232C15.7165 2.60603 15.7146 2.4208 15.6529 2.24144C15.6179 2.13976 15.5629 2.01394 15.5306 1.96182C15.4983 1.90971 15.4184 1.80936 15.3531 1.73882C15.2877 1.66828 15.176 1.57319 15.1048 1.52752C15.0335 1.48182 14.8928 1.41607 14.7919 1.38138C14.6163 1.32098 14.4572 1.31829 11.0436 1.31829C7.62997 1.31829 7.47082 1.32098 7.29525 1.38138C7.1944 1.41607 7.05362 1.48182 6.98241 1.52752C6.91117 1.57319 6.79945 1.66828 6.73409 1.73882C6.66877 1.80936 6.58915 1.90927 6.55719 1.96086C6.52522 2.01248 6.47464 2.11725 6.44477 2.19368C6.4011 2.30539 6.38683 2.5124 6.37213 3.24733C6.35846 3.93058 6.34233 4.18299 6.30827 4.24512C6.28323 4.29085 6.22339 4.37077 6.17533 4.42269C6.12727 4.47464 6.04303 4.54066 5.98815 4.56943C5.93261 4.59853 5.80729 4.62171 5.70545 4.62171C5.60214 4.62171 5.47762 4.5984 5.41935 4.56816C5.36264 4.5387 5.26931 4.46117 5.21198 4.39588C5.15464 4.33059 5.0963 4.23627 5.0823 4.18631C5.06833 4.13632 5.05825 3.68386 5.05995 3.18081C5.06274 2.35016 5.06969 2.24177 5.13555 2.00011C5.17542 1.85376 5.25285 1.63834 5.30756 1.5214C5.36231 1.40443 5.4724 1.21735 5.55225 1.10566C5.63208 0.993942 5.77779 0.827014 5.87603 0.734652C5.97428 0.642324 6.12608 0.517934 6.21332 0.4582C6.30059 0.398499 6.46522 0.306005 6.57917 0.25269C6.69315 0.199375 6.90611 0.122047 7.05245 0.0808387L7.31853 0.00597175L10.9105 0.000517159C12.8862 -0.00247619 14.5989 0.00783433 14.7167 0.023433Z" fill="#4095DA"/>
</svg>
