<svg width="40" height="41" viewBox="0 0 40 41" fill="none" xmlns="http://www.w3.org/2000/svg">
<circle cx="20" cy="20.5" r="20" fill="#4095DA"/>
<path d="M11.76 25.5C11.6427 25.5 11.552 25.468 11.488 25.404C11.424 25.3293 11.392 25.2387 11.392 25.132V14.684C11.392 14.5667 11.424 14.476 11.488 14.412C11.552 14.3373 11.6427 14.3 11.76 14.3H18.288C18.4053 14.3 18.496 14.3373 18.56 14.412C18.6347 14.476 18.672 14.5667 18.672 14.684V15.324C18.672 15.4413 18.6347 15.532 18.56 15.596C18.496 15.66 18.4053 15.692 18.288 15.692H12.944V19.42H17.968C18.0853 19.42 18.176 19.4573 18.24 19.532C18.3147 19.596 18.352 19.6867 18.352 19.804V20.444C18.352 20.5507 18.3147 20.6413 18.24 20.716C18.176 20.78 18.0853 20.812 17.968 20.812H12.944V25.132C12.944 25.2387 12.9067 25.3293 12.832 25.404C12.768 25.468 12.6773 25.5 12.56 25.5H11.76ZM20.677 25.5C20.5703 25.5 20.4797 25.468 20.405 25.404C20.341 25.3293 20.309 25.2387 20.309 25.132V17.564C20.309 17.4573 20.341 17.3667 20.405 17.292C20.4797 17.2173 20.5703 17.18 20.677 17.18H21.413C21.5197 17.18 21.6103 17.2173 21.685 17.292C21.7597 17.3667 21.797 17.4573 21.797 17.564V18.268C22.0103 17.9053 22.3037 17.6333 22.677 17.452C23.0503 17.2707 23.5037 17.18 24.037 17.18H24.661C24.7677 17.18 24.853 17.2173 24.917 17.292C24.9917 17.356 25.029 17.4413 25.029 17.548V18.204C25.029 18.3107 24.9917 18.396 24.917 18.46C24.853 18.524 24.7677 18.556 24.661 18.556H23.701C23.125 18.556 22.6717 18.7267 22.341 19.068C22.0103 19.3987 21.845 19.852 21.845 20.428V25.132C21.845 25.2387 21.8077 25.3293 21.733 25.404C21.6583 25.468 21.5677 25.5 21.461 25.5H20.677ZM26.7551 25.5C26.6485 25.5 26.5578 25.468 26.4831 25.404C26.4191 25.3293 26.3871 25.2387 26.3871 25.132V17.548C26.3871 17.4413 26.4191 17.356 26.4831 17.292C26.5578 17.2173 26.6485 17.18 26.7551 17.18H27.5231C27.6298 17.18 27.7151 17.2173 27.7791 17.292C27.8538 17.356 27.8911 17.4413 27.8911 17.548V25.132C27.8911 25.2387 27.8538 25.3293 27.7791 25.404C27.7151 25.468 27.6298 25.5 27.5231 25.5H26.7551ZM26.6271 15.628C26.5205 15.628 26.4298 15.596 26.3551 15.532C26.2911 15.4573 26.2591 15.3667 26.2591 15.26V14.396C26.2591 14.2893 26.2911 14.1987 26.3551 14.124C26.4298 14.0493 26.5205 14.012 26.6271 14.012H27.6351C27.7418 14.012 27.8325 14.0493 27.9071 14.124C27.9818 14.1987 28.0191 14.2893 28.0191 14.396V15.26C28.0191 15.3667 27.9818 15.4573 27.9071 15.532C27.8325 15.596 27.7418 15.628 27.6351 15.628H26.6271Z" fill="white"/>
</svg>
