<svg width="19" height="16" viewBox="0 0 19 16" fill="none" xmlns="http://www.w3.org/2000/svg">
<path fill-rule="evenodd" clip-rule="evenodd" d="M6.69371 0.0226187C6.3265 0.0780376 6.02009 0.314552 5.85033 0.673637C5.75956 0.865599 5.75603 0.898778 5.74364 1.67291L5.73083 2.47358L3.90204 2.48773C2.13196 2.50141 2.06455 2.50445 1.80341 2.58293C0.928374 2.84595 0.360249 3.40133 0.0995817 4.24846L0.0164353 4.51866L0.00466567 9.0677C-0.00782614 13.8857 -0.00688744 13.9178 0.161608 14.4036C0.361404 14.9795 0.787137 15.4491 1.34837 15.7127C2.01022 16.0235 1.35259 15.9996 9.23976 15.9996C15.8974 15.9996 16.2394 15.9964 16.5146 15.9331C17.3881 15.732 18.0526 15.1683 18.3179 14.4036C18.4865 13.9176 18.4874 13.8864 18.4742 9.0677C18.4604 4.00097 18.4801 4.39298 18.2111 3.83269C17.9054 3.19586 17.3936 2.7992 16.5693 2.56015C16.402 2.51163 16.0806 2.50004 14.556 2.48769L12.7418 2.47304L12.7415 1.83509C12.7412 1.1332 12.7031 0.808556 12.5962 0.59912C12.4962 0.403005 12.2866 0.209418 12.0558 0.0999163L11.8573 0.00572219L9.36613 0.000487307C7.996 -0.00236487 6.79343 0.00759966 6.69371 0.0226187ZM11.8604 0.865202C11.9465 0.965281 11.9475 0.97539 11.9475 1.72266V2.47881H9.23976H6.532V1.72869C6.532 0.924629 6.54633 0.854407 6.72541 0.781262C6.76797 0.763896 7.92115 0.752848 9.28803 0.756783L11.7733 0.763896L11.8604 0.865202ZM16.4605 3.32367C17.1159 3.51181 17.4963 3.89768 17.6563 4.53671C17.6972 4.70004 17.706 5.5362 17.706 9.24822C17.706 14.1639 17.7151 13.94 17.4991 14.3715C17.3006 14.7683 16.9605 15.0223 16.4471 15.157C16.2063 15.2203 15.8727 15.2234 9.23976 15.2234C2.60679 15.2234 2.27327 15.2203 2.03238 15.157C1.52119 15.0228 1.17666 14.7639 0.976319 14.3635C0.765078 13.9412 0.77349 14.1532 0.77349 9.24822C0.77349 4.37667 0.766341 4.56697 0.96538 4.13957C1.07387 3.90667 1.36353 3.60311 1.58521 3.49004C1.78861 3.38624 2.04549 3.31107 2.32114 3.27461C2.44292 3.2585 5.62129 3.24778 9.38418 3.25081C15.9447 3.25608 16.2354 3.25908 16.4605 3.32367ZM7.88588 5.38092C7.74988 5.44183 7.6693 5.53162 7.59842 5.70119C7.55402 5.80748 7.5429 5.99721 7.5429 6.64761V7.4611L6.68544 7.46124C5.89351 7.46135 5.81899 7.46684 5.71032 7.53312C5.64559 7.57258 5.56038 7.65779 5.52092 7.72252C5.45283 7.83415 5.44915 7.90669 5.44904 9.14056L5.44889 10.4409L5.53695 10.5705C5.69461 10.8025 5.77108 10.8187 6.70894 10.8187H7.5429V11.6414C7.5429 12.4229 7.54698 12.4723 7.62413 12.6253C7.68348 12.743 7.74876 12.8082 7.86646 12.8676C8.02394 12.947 8.05459 12.9488 9.23601 12.9488C10.3845 12.9488 10.4522 12.9451 10.599 12.8741C10.6896 12.8302 10.7875 12.7444 10.836 12.6665C10.915 12.5394 10.9191 12.4966 10.9299 11.6762L10.9414 10.8187L11.7784 10.8181C12.578 10.8176 12.6217 10.8139 12.7561 10.7369C13.0289 10.5805 13.0306 10.5703 13.0306 9.11872C13.0306 7.84195 13.0301 7.83195 12.9487 7.71014C12.7934 7.4777 12.7158 7.46121 11.776 7.46117L10.9366 7.4611V6.63837C10.9366 5.85633 10.9326 5.80777 10.8554 5.65664C10.6936 5.34001 10.7442 5.35016 9.28229 5.34074C8.26768 5.3342 7.97119 5.34272 7.88588 5.38092ZM10.1492 7.01883C10.1615 8.03846 10.1664 8.06276 10.3821 8.16511C10.474 8.20869 10.6698 8.21927 11.3843 8.21927H12.2725V9.13991V10.0605H11.3716C10.4109 10.0605 10.3366 10.072 10.2241 10.2376C10.1682 10.3199 10.159 10.4445 10.1487 11.261L10.137 12.1907H9.23976H8.34255L8.33086 11.261C8.32057 10.4445 8.31136 10.3199 8.25544 10.2376C8.1429 10.072 8.06867 10.0605 7.10796 10.0605H6.20707V9.13991V8.21927H7.09518C7.80974 8.21927 8.00556 8.20869 8.09738 8.16511C8.31302 8.0628 8.318 8.03835 8.33086 7.01883L8.34255 6.08916H9.24023H10.1379L10.1492 7.01883Z" fill="#757575"/>
</svg>
