<svg width="24" height="22" viewBox="0 0 24 22" fill="none" xmlns="http://www.w3.org/2000/svg">
<path fill-rule="evenodd" clip-rule="evenodd" d="M7.8629 1.03849C7.4083 1.06393 6.97358 1.10982 6.89689 1.14043C6.70287 1.21792 6.56046 1.4164 6.56046 1.60941C6.56046 1.7631 6.54843 1.77397 6.34755 1.80132C6.23043 1.8173 5.74016 1.84445 5.25801 1.86168C4.77585 1.87892 4.29805 1.91403 4.19621 1.93973C3.99278 1.99108 3.81324 2.18219 3.77126 2.39198C3.7408 2.54442 3.78985 2.5373 2.15031 2.62667C1.11101 2.68333 1 2.75837 1 3.40453C1 3.75109 1.32932 10.6384 1.37641 11.2765C1.48366 12.7298 1.91933 14.1922 2.61504 15.4344L2.92372 15.9854L3.00778 17.6506C3.1001 19.4791 3.10386 19.497 3.42601 19.6506C3.5801 19.7241 3.82025 19.7187 6.56697 19.5797L9.54106 19.4291L12.6135 20.2289C14.5026 20.7206 15.7311 21.0173 15.8032 20.9992C15.9836 20.9539 16.2178 20.7324 16.2525 20.5743C16.2758 20.4683 16.3331 20.4126 16.4765 20.3562C16.5825 20.3146 16.7036 20.2271 16.7457 20.1618C16.8529 19.995 17.1804 18.7269 17.1804 18.4783C17.1804 18.3323 17.1444 18.2295 17.0564 18.125C16.9395 17.986 16.936 17.9651 16.9959 17.758C17.0583 17.5419 17.1107 17.501 20.2132 15.2464C21.9478 13.9858 23.4291 12.8866 23.5048 12.8035C23.6112 12.687 23.6426 12.6025 23.6426 12.4332C23.6426 12.2483 23.601 12.1559 23.3779 11.8454C22.7703 10.9995 22.2761 10.371 22.1738 10.314C22.1138 10.2805 21.9826 10.2524 21.8822 10.2514C21.7276 10.2499 21.5596 10.3489 20.7801 10.9008C19.649 11.7016 19.666 11.6912 19.7073 11.561C19.8408 11.1404 21.3382 5.31077 21.3382 5.21163C21.3382 5.02568 21.2058 4.80096 21.0493 4.72146C20.9741 4.68319 20.4503 4.53336 19.8855 4.38848C19.3207 4.24361 18.8386 4.10685 18.8141 4.08461C18.7885 4.06137 18.8045 3.90563 18.8517 3.71767C18.9573 3.29723 18.9549 3.14645 18.8393 2.95689C18.7217 2.76413 18.6737 2.74565 17.481 2.43361C16.826 2.26224 16.4479 2.18669 16.3335 2.20438C16.1552 2.23198 15.878 2.4551 15.878 2.57107C15.878 2.60814 15.8478 2.65002 15.8109 2.66414C15.7741 2.67827 15.2691 2.56486 14.6887 2.41212C14.1082 2.25933 13.5653 2.13435 13.4821 2.13435C13.3925 2.13435 13.2681 2.18715 13.1768 2.26394C13.0214 2.39474 12.9635 2.54357 12.7302 3.41175L12.636 3.76241L12.5984 3.16128C12.5565 2.49242 12.4981 2.32681 12.2602 2.20383C12.1161 2.12924 11.9943 2.12678 10.9962 2.17838C10.3888 2.20974 9.85225 2.23524 9.80405 2.23499C9.72891 2.23458 9.71639 2.18419 9.71639 1.88227C9.71639 1.49805 9.6409 1.26196 9.46917 1.10887C9.33242 0.986938 9.02459 0.973463 7.8629 1.03849ZM9.26554 1.43303C9.34344 1.51092 9.36643 1.6029 9.36899 1.8463C9.37074 2.01853 9.42299 3.23016 9.485 4.53887C9.54702 5.84758 9.59631 6.9217 9.59446 6.92586C9.58544 6.94629 7.20381 7.05244 7.18463 7.03321C7.15813 7.00671 6.91202 2.35862 6.91147 1.87431C6.91126 1.66081 6.93386 1.5244 6.97373 1.4986C7.02413 1.46599 7.79753 1.40633 9.02759 1.34025C9.10664 1.33599 9.20803 1.37552 9.26554 1.43303ZM6.56126 2.24706C6.56171 2.30902 6.61716 3.41826 6.68449 4.71204C6.75181 6.00578 6.80221 7.06772 6.7964 7.07193C6.76915 7.09187 4.33903 7.19326 4.32099 7.17527C4.30542 7.15965 4.11045 2.93766 4.10659 2.53214C4.10619 2.48921 4.1364 2.41227 4.17372 2.36122C4.23383 2.27907 4.37019 2.26154 5.36345 2.20859C5.98046 2.17567 6.50225 2.14552 6.52288 2.14156C6.54352 2.1376 6.56081 2.18509 6.56126 2.24706ZM12.1424 2.5637C12.1857 2.60703 12.2211 2.66234 12.2211 2.68668C12.2211 2.71103 12.2668 3.63672 12.3227 4.74385C12.3787 5.85093 12.4152 6.76601 12.4039 6.77723C12.365 6.81615 10.02 6.91303 9.98419 6.87721C9.94808 6.8411 9.74119 2.6434 9.774 2.61164C9.78978 2.59636 11.2434 2.51231 11.8293 2.49282C11.9841 2.48766 12.0904 2.51171 12.1424 2.5637ZM14.6307 2.76859C15.234 2.92453 15.7264 3.07672 15.7249 3.10672C15.7234 3.13673 15.4908 4.0491 15.2081 5.13424L14.694 7.10715L14.5178 7.19757C14.3732 7.27176 14.2637 7.38502 14.0457 7.68583C14.0313 7.70577 12.8637 7.40235 12.8317 7.37034C12.819 7.35757 12.7808 6.80272 12.7468 6.13737L12.6852 4.92765L12.9998 3.77939C13.3002 2.68288 13.3743 2.48501 13.4846 2.48501C13.5116 2.48501 14.0273 2.6126 14.6307 2.76859ZM17.3243 2.76348C18.4882 3.06454 18.5231 3.07652 18.5585 3.18788C18.5838 3.26748 17.2619 8.42527 17.1989 8.493C17.1877 8.50497 17.0617 8.48484 16.9187 8.44817C16.7253 8.39862 16.466 8.24128 15.9052 7.83331C15.4907 7.53179 15.124 7.2696 15.0902 7.25067C15.0446 7.22517 15.1793 6.63376 15.6109 4.96332C16.1491 2.8808 16.2604 2.5351 16.3928 2.5351C16.4195 2.5351 16.8387 2.63789 17.3243 2.76348ZM3.75974 2.89828C3.78869 2.97793 3.94028 7.17698 3.91498 7.19917C3.874 7.23519 1.5864 7.34529 1.55349 7.31283C1.54102 7.30061 1.48566 6.35593 1.43051 5.21364C1.34996 3.5478 1.34254 3.12431 1.39299 3.07386C1.43537 3.03148 1.79354 2.99301 2.49281 2.95579C3.06313 2.92543 3.58045 2.89723 3.64247 2.89317C3.70449 2.88907 3.75723 2.89137 3.75974 2.89828ZM19.7102 4.71294C20.9094 5.01977 20.9328 5.02804 20.9636 5.15643C20.9948 5.28652 19.9678 9.22473 19.9044 9.21797C19.6728 9.19322 17.5812 8.61453 17.5812 8.57521C17.5812 8.54665 17.8235 7.60458 18.1197 6.48177C18.5501 4.85 18.6733 4.44444 18.7333 4.46127C18.7747 4.47284 19.2142 4.58611 19.7102 4.71294ZM12.4418 7.25648C12.4541 7.31849 12.4881 7.9064 12.5175 8.56293C12.5468 9.21952 12.5836 9.77742 12.5993 9.80276C12.6149 9.82811 12.6772 9.84865 12.7375 9.84845C12.8218 9.8481 13.0557 9.57393 13.7442 8.66863C14.5064 7.66635 14.6584 7.49152 14.7571 7.50434C14.8209 7.51266 15.257 7.79779 15.7262 8.13793C16.4319 8.64955 16.5793 8.77769 16.5793 8.87973C16.5793 8.96389 15.8632 9.97123 14.3285 12.0461C13.0906 13.7198 12.0367 15.1393 11.9866 15.2007C11.899 15.308 11.8397 15.3152 10.4678 15.3852C8.92635 15.4637 4.03431 15.7004 3.50897 15.7218L3.18761 15.7349L2.90343 15.2245C2.39828 14.3172 2.03074 13.2682 1.85055 12.2194C1.76354 11.7129 1.51572 7.76348 1.56772 7.71153C1.57804 7.70121 2.95918 7.62422 4.63699 7.54041C6.31484 7.45665 8.69071 7.33613 9.91677 7.27256C11.1428 7.20904 12.2075 7.15408 12.2828 7.15043C12.3874 7.14532 12.4248 7.17032 12.4418 7.25648ZM13.7581 8.01285C13.7724 8.02708 13.5903 8.29047 13.3536 8.5982C13.1102 8.91449 12.9139 9.1282 12.9019 9.08997C12.8902 9.05275 12.869 8.73761 12.8547 8.38971L12.8289 7.75712L13.2806 7.87203C13.529 7.93525 13.7439 7.99862 13.7581 8.01285ZM18.3827 9.20294C19.1404 9.39921 19.7788 9.57684 19.8014 9.59763C19.8239 9.61842 19.6976 10.185 19.5206 10.8567C19.1917 12.105 19.1767 12.2534 19.38 12.2534C19.4306 12.2534 19.9982 11.8805 20.6413 11.4248C21.3982 10.8885 21.8466 10.6013 21.9126 10.6107C21.9776 10.6201 22.2465 10.9326 22.6556 11.4744C23.1472 12.1256 23.2932 12.3533 23.2817 12.4512C23.2677 12.5716 21.6803 13.7583 17.4539 16.8082L16.9008 17.2073L15.7507 16.9095C15.1181 16.7458 14.0596 16.4709 13.3983 16.2986L12.1961 15.9854L12.1806 15.7721C12.1659 15.5687 12.1942 15.52 12.8 14.7061C13.3531 13.9631 13.4487 13.8577 13.5418 13.8873C13.9617 14.0206 15.9213 14.5076 16.0383 14.5076C16.2558 14.5076 16.4788 14.3706 16.5529 14.1912C16.5893 14.1035 16.7815 13.4029 16.9802 12.6343C17.243 11.6176 17.3337 11.1878 17.3128 11.0564C17.2685 10.7778 17.0775 10.6433 16.5292 10.5045C16.2675 10.4383 16.0454 10.3779 16.0358 10.3703C16.0262 10.3628 16.2235 10.0799 16.4741 9.74165C16.7929 9.31169 16.93 9.08466 16.93 8.98688C16.93 8.90994 16.9468 8.84677 16.9675 8.84647C16.9882 8.84622 17.625 9.00662 18.3827 9.20294ZM6.99377 9.14939C5.51013 9.22593 4.22096 9.30267 4.12893 9.31991C4.03055 9.33839 3.90877 9.41413 3.83333 9.50375C3.71445 9.64502 3.70529 9.69166 3.70814 10.1407C3.7098 10.4073 3.7398 11.1529 3.77482 11.7976L3.83844 12.9698L4.02148 13.1376C4.18063 13.2834 4.23904 13.3054 4.46827 13.3055C4.86261 13.3056 9.90895 13.058 10.1519 13.0267C10.3099 13.0062 10.3998 12.9563 10.515 12.8251C10.6599 12.6601 10.668 12.6282 10.6658 12.2391C10.6644 12.0128 10.6346 11.283 10.5994 10.6174C10.5287 9.27878 10.5081 9.20113 10.19 9.06818C10.0966 9.02916 9.94617 9.00016 9.85575 9.00376C9.76533 9.00732 8.47746 9.07289 6.99377 9.14939ZM10.0939 9.41814C10.1819 9.48251 10.196 9.61476 10.262 10.9987C10.3285 12.3943 10.3276 12.5152 10.2512 12.5916C10.1798 12.663 9.77074 12.694 7.25556 12.8184C4.58875 12.9503 4.33587 12.9557 4.26268 12.8826C4.14346 12.7633 4.00315 9.82986 4.1115 9.72151C4.16886 9.66415 4.75822 9.61972 6.98761 9.5046C8.52976 9.425 9.83792 9.35718 9.89467 9.35387C9.95138 9.35061 10.041 9.37952 10.0939 9.41814ZM16.4237 10.8425C16.6834 10.9162 16.9172 11.0125 16.9455 11.0575C16.9836 11.118 16.9036 11.4982 16.6346 12.5353C16.4355 13.3032 16.2611 13.9709 16.2473 14.0191C16.1982 14.1888 15.9957 14.1678 14.8931 13.8786C14.2914 13.7207 13.7704 13.5768 13.7354 13.5586C13.6379 13.5081 15.7205 10.7026 15.8529 10.7062C15.908 10.7077 16.1649 10.769 16.4237 10.8425ZM11.8203 15.8852V16.0605L11.5574 16.0629C11.4127 16.0642 10.5392 16.1057 9.6162 16.1552C7.78716 16.253 7.68818 16.2716 7.37008 16.5766C6.76985 17.1519 6.85551 18.1032 7.54896 18.5625C7.67215 18.6441 7.87092 18.7256 7.99069 18.7436C8.11047 18.7615 9.04357 18.7362 10.0643 18.6872C11.085 18.6383 11.9342 18.6123 11.9514 18.6295C12.007 18.6852 11.9239 18.9039 11.834 18.9384C11.786 18.9568 9.91191 19.0627 7.66939 19.1737C4.10895 19.3499 3.58296 19.3663 3.51959 19.3029C3.46308 19.2464 3.42962 18.8894 3.3688 17.694C3.32582 16.849 3.30368 16.1447 3.31961 16.1288C3.33554 16.1128 4.98985 16.0244 6.99587 15.9322C9.00185 15.8401 10.7897 15.7567 10.9687 15.7469C11.1478 15.7372 11.4127 15.7248 11.5574 15.7195L11.8203 15.7099V15.8852ZM12.2151 16.5002C12.2413 16.549 12.2788 16.9271 12.2984 17.3402C12.3287 17.9759 12.3227 18.101 12.2594 18.1535C12.1467 18.247 8.2047 18.4416 7.95007 18.3662C7.70646 18.2941 7.43209 18.0176 7.3577 17.7692C7.27089 17.4794 7.33712 17.1443 7.52307 16.9325C7.80855 16.6074 7.84141 16.6004 9.54106 16.5087C11.7471 16.3895 12.1552 16.3882 12.2151 16.5002ZM14.7225 17.0113C15.7813 17.2883 16.655 17.5222 16.664 17.5311C16.6986 17.5658 16.6143 17.8639 16.5698 17.8639C16.544 17.8639 15.7058 17.6498 14.7072 17.388C13.7087 17.1263 12.831 16.9121 12.7568 16.9121C12.63 16.9121 12.6219 16.8984 12.6219 16.6834C12.6219 16.4887 12.6349 16.4585 12.7095 16.4811C12.7577 16.4958 13.6636 16.7343 14.7225 17.0113ZM14.8444 17.7966C15.8675 18.0627 16.7327 18.3022 16.7671 18.3288C16.8595 18.4001 16.8443 18.5851 16.7025 19.1163C16.6326 19.378 16.553 19.6763 16.5256 19.7792C16.4363 20.1141 16.4514 20.1153 14.5388 19.6159C13.5809 19.3658 12.6793 19.128 12.5353 19.0876L12.2734 19.0139L12.3045 18.7875C12.3271 18.6222 12.3809 18.5156 12.5037 18.3928C12.67 18.2266 12.6719 18.2193 12.6719 17.7687V17.3129H12.8281C12.914 17.3129 13.8213 17.5306 14.8444 17.7966ZM12.2774 19.3596C12.3979 19.4108 13.2687 19.6521 14.2123 19.8959C16.0204 20.363 16.0631 20.3812 15.8338 20.5887C15.7443 20.6697 15.6142 20.6414 13.2751 20.0329L10.8107 19.3918L11.2779 19.3556C11.535 19.3357 11.7903 19.3106 11.8454 19.2999C12.0329 19.2631 12.0581 19.2666 12.2774 19.3596Z" fill="#757575" stroke="#757575" stroke-width="0.5"/>
</svg>
