<svg width="13" height="22" viewBox="0 0 13 22" fill="none" xmlns="http://www.w3.org/2000/svg">
<path fill-rule="evenodd" clip-rule="evenodd" d="M2.72336 0.060265C2.57835 0.0918115 2.34089 0.165606 2.19566 0.224273C2.05039 0.282939 1.822 0.395801 1.68808 0.475097C1.55416 0.554393 1.28876 0.774961 1.09837 0.965186C0.89048 1.1729 0.671288 1.44767 0.549786 1.65285C0.438471 1.84084 0.289678 2.16868 0.219107 2.38143C0.148535 2.59417 0.0703564 2.93211 0.0453857 3.13244C0.018352 3.34948 0 4.47983 0 5.92998C0 7.92261 0.0111747 8.40053 0.0618038 8.56871C0.0958001 8.68166 0.166543 8.81979 0.21902 8.87567L0.314477 8.97723L0.167962 9.26583L0.0214894 9.55443V10.5022C0.0214894 11.3099 0.0325347 11.4743 0.0961005 11.6149C0.137145 11.7057 0.226971 11.851 0.295738 11.9378L0.420806 12.0957L0.314519 12.2241C0.256068 12.2947 0.166457 12.4396 0.115356 12.5459C0.029054 12.7256 0.0223921 12.8051 0.0219623 13.6634C0.0216185 14.3278 0.0376923 14.6332 0.0791669 14.7505C0.110885 14.8402 0.204279 15.0019 0.286712 15.1099L0.436622 15.3063L0.328058 15.4196C0.26836 15.482 0.174967 15.6297 0.120513 15.7479C0.0268618 15.9511 0.0214894 16.013 0.0214894 16.8868C0.0214894 17.7606 0.0268618 17.8225 0.120513 18.0257C0.174967 18.1439 0.26836 18.2917 0.328058 18.354L0.436622 18.4674L0.286712 18.6637C0.204279 18.7717 0.110885 18.9334 0.0791669 19.0231C0.044311 19.1217 0.022263 19.3646 0.0234234 19.6375C0.0248847 19.9747 0.0489527 20.1652 0.118621 20.3914C0.169938 20.5578 0.286454 20.8092 0.37757 20.9501C0.468685 21.091 0.641202 21.2942 0.760941 21.4017C0.880681 21.5093 1.09386 21.6587 1.2347 21.7337C1.37554 21.8088 1.61467 21.8994 1.76613 21.9351C2.00243 21.9908 2.6726 22 6.48981 22C10.2616 22 10.979 21.9904 11.2072 21.9366C11.3552 21.9017 11.588 21.8167 11.7246 21.7478C11.8613 21.6788 12.0773 21.5287 12.2047 21.4143C12.3321 21.2998 12.5109 21.091 12.6021 20.9501C12.6932 20.8092 12.8097 20.5578 12.861 20.3914C12.9307 20.1652 12.9547 19.9747 12.9562 19.6375C12.9574 19.3646 12.9353 19.1217 12.9005 19.0231C12.8687 18.9334 12.7775 18.7746 12.6978 18.6701L12.5528 18.4801L12.6596 18.3532C12.7184 18.2833 12.8096 18.1327 12.8623 18.0185C12.952 17.8241 12.9581 17.7519 12.9581 16.8868C12.9581 15.9782 12.9562 15.9588 12.8454 15.7264C12.7833 15.5964 12.6912 15.447 12.6406 15.3944L12.5486 15.2989L12.6957 15.1062C12.7766 15.0002 12.8687 14.8402 12.9005 14.7505C12.9417 14.6339 12.9581 14.3303 12.9581 13.6849C12.9581 12.9108 12.947 12.7551 12.88 12.5913C12.8369 12.4863 12.7455 12.3293 12.6768 12.2425C12.5528 12.086 12.5525 12.0841 12.637 12.0077C12.6838 11.9653 12.7752 11.8225 12.8401 11.6903C12.958 11.4502 12.9581 11.4489 12.9581 10.5006V9.55125L12.8178 9.27907L12.6774 9.00684L12.7829 8.8531C12.841 8.76852 12.9102 8.61173 12.9367 8.50467C12.9707 8.36766 12.9804 7.52776 12.9695 5.66806C12.9546 3.1348 12.9502 3.0127 12.863 2.70037C12.813 2.52119 12.7198 2.25043 12.656 2.09867C12.5921 1.94687 12.4527 1.68732 12.3462 1.52185C12.2396 1.35638 12.0126 1.08561 11.8418 0.920144C11.6709 0.754675 11.4224 0.554393 11.2896 0.475097C11.1567 0.395801 10.9302 0.283326 10.7862 0.225175C10.6422 0.166982 10.395 0.0919838 10.237 0.0585032C10.0019 0.00869068 9.31606 -0.00192525 6.46832 0.000266674C3.73461 0.00237264 2.93043 0.0152661 2.72336 0.060265ZM10.2034 0.725664C10.3859 0.772382 10.6545 0.873899 10.8 0.951303C10.9456 1.02871 11.1894 1.2081 11.3417 1.34993C11.4941 1.49176 11.7093 1.74598 11.8199 1.91489C11.9353 2.09115 12.0741 2.38413 12.1457 2.60255C12.2576 2.94381 12.2705 3.04107 12.2705 3.54409V4.10505L12.109 4.43169C11.9824 4.68797 11.8729 4.82864 11.6005 5.08488C11.4096 5.26449 11.2356 5.41144 11.2139 5.41144C11.1917 5.41144 11.1745 5.11291 11.1745 4.72588C11.1745 4.34883 11.153 3.93786 11.1267 3.81258C11.1004 3.68734 11.0164 3.44945 10.9401 3.28398C10.8638 3.11851 10.7126 2.87491 10.6042 2.74266C10.4957 2.61042 10.2751 2.4125 10.1139 2.30282C9.95262 2.19314 9.70463 2.06119 9.5628 2.00957C9.33351 1.92615 9.19684 1.91373 8.32927 1.8974L8.23729 2.53452C9.07796 2.55614 9.20195 2.56886 9.42463 2.65636C9.57737 2.71636 9.76871 2.84242 9.9209 2.98335C10.0571 3.10949 10.2231 3.31286 10.2898 3.43531C10.3564 3.55776 10.4375 3.75752 10.4699 3.87924C10.5103 4.03091 10.529 4.36834 10.5293 4.95096L10.5298 5.8013L10.3257 5.88971C10.2134 5.93832 9.95357 6.03334 9.74826 6.10086C9.54299 6.16843 9.14651 6.27162 8.86719 6.33024C8.58791 6.38886 8.15632 6.46227 7.90812 6.49343C7.65458 6.52528 7.03311 6.55008 6.48981 6.55008C5.94716 6.55008 5.32474 6.52524 5.07151 6.49347C4.82331 6.46236 4.40134 6.39084 4.13384 6.33458C3.86634 6.27832 3.45387 6.17053 3.21727 6.09502L2.78705 5.95779L2.80106 4.91933L2.81512 3.88087L2.97642 3.55471C3.09143 3.32215 3.21121 3.1605 3.39396 2.9913C3.55405 2.84311 3.74355 2.71735 3.89883 2.65636C4.12116 2.56899 4.24588 2.55614 5.07791 2.53452C5.91252 2.51286 8.23729 2.53452 8.23729 2.53452L8.32927 1.8974C8.32927 1.8974 5.97312 1.87905 4.99986 1.89731C4.13865 1.91351 3.98853 1.9268 3.77346 2.00588C3.63868 2.05543 3.4356 2.15033 3.32218 2.21669C3.20876 2.28305 2.99984 2.45367 2.85792 2.59576C2.70874 2.74516 2.53348 2.98111 2.44253 3.15505C2.35602 3.32051 2.25454 3.57473 2.21707 3.71996C2.16648 3.91607 2.14894 4.19539 2.14894 4.80518C2.14894 5.2568 2.13266 5.62633 2.11271 5.62633C2.09277 5.62633 1.9429 5.53212 1.77963 5.41703C1.61635 5.30188 1.3709 5.08987 1.23414 4.94589C1.08694 4.79082 0.92916 4.56501 0.847329 4.39232C0.713793 4.11038 0.709152 4.08184 0.709152 3.54186C0.709152 3.04132 0.722131 2.9435 0.833876 2.60255C0.905479 2.38413 1.0443 2.09115 1.15974 1.91489C1.27037 1.74598 1.48552 1.49176 1.63788 1.34993C1.7902 1.2081 2.03428 1.02858 2.18023 0.95096C2.32623 0.87334 2.58681 0.772898 2.75933 0.727684C3.05503 0.650237 3.26751 0.64538 6.47219 0.643145C9.72092 0.640867 9.88609 0.64452 10.2034 0.725664ZM1.41422 5.96733C1.54647 6.05711 1.83804 6.22258 2.06208 6.3351C2.28618 6.44762 2.69233 6.61265 2.96464 6.70188C3.237 6.7911 3.64783 6.90465 3.87764 6.95425C4.10745 7.00385 4.50071 7.07326 4.75157 7.10846C5.0024 7.14366 5.41878 7.18531 5.67682 7.20099L6.14598 7.22949V7.91066V8.59188H3.51236C1.19825 8.59188 0.867099 8.58375 0.783205 8.52496L0.687662 8.45808V6.90895V5.35982L0.930708 5.58198C1.06437 5.70412 1.28197 5.87754 1.41422 5.96733ZM12.2023 8.51666C12.1171 8.58646 11.9213 8.59188 9.47207 8.59188H6.83364V7.91333V7.23477L7.48907 7.18251C7.84954 7.15376 8.31856 7.10034 8.53131 7.0638C8.74405 7.02727 9.14066 6.94149 9.41268 6.87315C9.68469 6.80486 10.0885 6.67979 10.31 6.59525C10.5316 6.51067 10.8692 6.36015 11.0603 6.26074C11.2514 6.16133 11.5535 5.97102 11.7317 5.83783C11.9098 5.70468 12.1039 5.543 12.163 5.47861L12.2705 5.3615L12.2822 6.90147C12.2939 8.42856 12.2932 8.44209 12.2023 8.51666ZM6.14598 10.5044V11.7723H3.67332C1.68215 11.7723 1.17332 11.7609 1.06033 11.7137C0.983185 11.6815 0.867744 11.5929 0.803834 11.517L0.687662 11.3789V10.5169C0.687662 9.72914 0.695097 9.64301 0.773878 9.51549C0.821326 9.43878 0.922843 9.34504 0.999517 9.30726C1.12239 9.24666 1.43623 9.23841 3.64246 9.23755L6.14598 9.23656V10.5044ZM11.9789 9.30833C12.0621 9.34779 12.1665 9.43968 12.2109 9.51248C12.2829 9.63042 12.2917 9.73941 12.2918 10.5119L12.292 11.3789L12.1758 11.517C12.1119 11.5929 11.9964 11.6815 11.9193 11.7137C11.8063 11.7609 11.2975 11.7723 9.30631 11.7723H6.83364V10.5044V9.23656H9.33067C11.5742 9.23656 11.843 9.24387 11.9789 9.30833ZM6.14598 13.6849V14.9528H3.64895C1.40545 14.9528 1.13658 14.9454 1.00068 14.881C0.917514 14.8415 0.813118 14.7496 0.768721 14.6768C0.696774 14.5589 0.687963 14.4499 0.687834 13.6774L0.687662 12.8104L0.803705 12.6725C0.867572 12.5966 0.978758 12.5088 1.05083 12.4775C1.15467 12.4322 1.69767 12.42 3.66395 12.4187L6.14598 12.417V13.6849ZM11.9193 12.4756C11.9964 12.5079 12.1119 12.5964 12.1758 12.6723L12.292 12.8104L12.2918 13.6774C12.2917 14.4499 12.2829 14.5589 12.2109 14.6768C12.1665 14.7496 12.0621 14.8415 11.9789 14.881C11.843 14.9454 11.5742 14.9528 9.33067 14.9528H6.83364V13.6849V12.417H9.30631C11.2975 12.417 11.8063 12.4284 11.9193 12.4756ZM6.14598 16.8868V18.1762H5.05316L5.11234 18.8209H6.14598V20.0906V21.3604L4.02927 21.3478L1.91256 21.3351L1.62456 21.1987C1.46562 21.1234 1.24742 20.9731 1.13761 20.8633C1.02818 20.7539 0.887084 20.5542 0.824034 20.4195C0.727676 20.2137 0.707003 20.1028 0.694324 19.7238C0.682032 19.3565 0.693121 19.2472 0.75428 19.1337C0.795539 19.057 0.879606 18.9601 0.941151 18.9183C1.03717 18.8531 1.18888 18.8393 2.01313 18.8209C2.95828 18.7997 5.11234 18.8209 5.11234 18.8209L5.05316 18.1762C5.05316 18.1762 2.941 18.1962 2.07197 18.176C1.28322 18.1577 1.11706 18.1424 0.997368 18.0772C0.91949 18.0348 0.818017 17.9382 0.771901 17.8625C0.696344 17.7386 0.687963 17.6423 0.687834 16.8954C0.687705 16.2589 0.702017 16.0382 0.749294 15.9468C0.783205 15.8812 0.841054 15.8026 0.877844 15.7721C0.914634 15.7415 1.01744 15.6906 1.10632 15.6589C1.23397 15.6133 1.77971 15.6008 3.70693 15.5993L6.14598 15.5974V16.8868ZM11.9823 15.6962C12.0601 15.7388 12.1616 15.8355 12.2077 15.9111C12.2834 16.0352 12.2917 16.1312 12.2917 16.8868C12.2917 17.6424 12.2834 17.7384 12.2077 17.8625C12.1616 17.9382 12.0601 18.0349 11.9823 18.0774C11.8513 18.1489 11.6526 18.1556 9.33716 18.1668L6.83364 18.1788V16.8868V15.5948L9.33716 15.6068C11.6526 15.618 11.8513 15.6247 11.9823 15.6962ZM11.9789 18.8926C12.0621 18.9321 12.1674 19.024 12.2129 19.0968C12.2839 19.2105 12.2939 19.2959 12.283 19.7019C12.2718 20.1231 12.2568 20.2026 12.145 20.4302C12.076 20.5708 11.9349 20.7705 11.8313 20.874C11.7277 20.9775 11.5134 21.1237 11.3551 21.1987L11.0671 21.3351L8.95035 21.3478L6.83364 21.3604V20.0906V18.8209H9.33067C11.5742 18.8209 11.843 18.8282 11.9789 18.8926Z" fill="#757575"/>
</svg>
