<svg width="25" height="18" viewBox="0 0 25 18" fill="none" xmlns="http://www.w3.org/2000/svg">
<path fill-rule="evenodd" clip-rule="evenodd" d="M12.2309 0.0453694C12.0661 0.0667884 11.7642 0.129512 11.56 0.184761C11.3557 0.240009 10.9483 0.402257 10.6547 0.545241C10.2114 0.76106 10.0504 0.871796 9.70715 1.19672C9.47624 1.41527 9.17815 1.76176 9.03214 1.98117C8.8883 2.19733 8.71369 2.50175 8.64411 2.65767C8.57449 2.81364 8.46509 3.09213 8.40093 3.27661C8.33682 3.4611 8.24223 3.8061 8.19081 4.04329C8.1394 4.28048 8.08357 4.74523 8.06676 5.07609L8.03618 5.6777L5.10001 7.1488C2.96756 8.21721 2.06116 8.69619 1.7887 8.89859C1.58237 9.05183 1.30378 9.29764 1.16966 9.44485C1.03549 9.592 0.849571 9.82766 0.756468 9.96853C0.663413 10.1094 0.522201 10.354 0.442755 10.5121C0.363308 10.6702 0.222192 11.0559 0.222192 11.0559C0.222192 11.0559 0.639318 11.201 0.906594 11.2941C0.984415 11.0794 1.0537 10.9212 1.15873 10.7184C1.26372 10.5156 1.47283 10.2029 1.62343 10.0236C1.79795 9.81587 2.05287 9.59253 2.32623 9.40785C2.61187 9.21489 2.89056 9.07354 3.16009 8.98479C3.38281 8.91153 3.7568 8.82791 3.99121 8.79907C4.30502 8.76044 4.54092 8.76107 4.88563 8.80151C5.14309 8.8317 5.53457 8.91344 5.75557 8.98316C5.97656 9.05284 6.30829 9.18552 6.49277 9.278C6.67726 9.37043 6.94636 9.5242 7.09078 9.6197C7.23525 9.71519 7.49228 9.92272 7.662 10.0808C7.83172 10.239 8.09138 10.5307 8.23897 10.7291C8.38655 10.9275 8.58656 11.2509 8.68345 11.4478C8.78029 11.6448 8.91815 11.9999 8.98974 12.2371C9.1045 12.6172 9.12031 12.7508 9.12323 13.3632C9.12601 13.9499 9.10953 14.1171 9.01734 14.4381C8.95725 14.6471 8.81259 15.003 8.69586 15.229C8.57913 15.455 8.35915 15.781 8.20696 15.9534C8.05478 16.1259 7.82104 16.3567 7.68754 16.4664C7.55399 16.5761 7.32184 16.7398 7.17162 16.8303C7.0214 16.9208 6.72096 17.0454 6.50394 17.1072C6.17058 17.2022 6.00551 17.2191 5.4386 17.216C4.90868 17.2132 4.68726 17.1906 4.38442 17.1086C4.17358 17.0515 3.78546 16.9003 3.52191 16.7726C3.25837 16.6449 2.86655 16.4074 2.65121 16.2448C2.43592 16.0823 2.15757 15.8364 2.03265 15.6984C1.90777 15.5605 1.70964 15.3182 1.59233 15.1601C1.47508 15.0019 1.29717 14.7098 1.19697 14.5108C1.09682 14.3119 0.969269 13.999 0.913541 13.8156C0.857861 13.6322 0.783159 13.2572 0.747557 12.9823C0.693985 12.5685 0.776694 11.6905 0.906594 11.2941C0.639318 11.201 0.222192 11.0559 0.222192 11.0559C0.222192 11.0559 0 11.7 5.0687e-07 12.7558C5.0687e-07 12.8721 0.0316263 13.148 0.0702955 13.3689C0.108917 13.5898 0.185823 13.9106 0.241167 14.0819C0.296511 14.2532 0.436143 14.5893 0.551479 14.8288C0.666816 15.0682 0.895236 15.4456 1.05911 15.6673C1.22299 15.8891 1.49918 16.2076 1.67284 16.3751C1.84649 16.5426 2.11847 16.7729 2.27721 16.8867C2.43601 17.0006 2.70555 17.1727 2.87618 17.2692C3.04686 17.3657 3.30911 17.4964 3.459 17.5596C3.60883 17.6227 3.91464 17.7275 4.13856 17.7923C4.36247 17.8572 4.77293 17.9359 5.05076 17.9671C5.43692 18.0106 5.65815 18.0109 5.99022 17.9683C6.22909 17.9377 6.59153 17.8598 6.79571 17.7953C7.03127 17.7209 7.61279 17.4298 8.38718 16.9985C9.05831 16.6247 12.1626 14.8811 15.2856 13.124C18.4086 11.3668 21.5756 9.58591 22.3234 9.16645C23.1808 8.68545 23.7774 8.3186 23.9385 8.17327C24.0847 8.04135 24.2452 7.83646 24.3139 7.6941C24.3869 7.54277 24.4559 7.27659 24.4901 7.01415C24.5241 6.75329 24.535 6.33675 24.5176 5.95998C24.5019 5.61737 24.4448 5.12789 24.391 4.8723C24.3371 4.61671 24.226 4.2178 24.1442 3.98584C24.0624 3.75387 23.9093 3.39162 23.8041 3.18078C23.6989 2.96994 23.4928 2.61589 23.346 2.39403C23.1993 2.17217 22.8836 1.79157 22.6444 1.54829C22.3705 1.2696 22.0411 0.997388 21.7544 0.812619C21.504 0.65133 21.1318 0.454726 20.9272 0.375758C20.7226 0.296791 20.41 0.198129 20.2324 0.156489C20.0253 0.107949 19.7807 0.0883515 19.5502 0.101912C19.1984 0.122564 19.1604 0.138281 17.7416 0.849276C16.9446 1.24871 16.2684 1.57556 16.239 1.57556C16.2096 1.57556 16.0668 1.46707 15.9217 1.33444C15.7766 1.20185 15.5256 0.998921 15.3639 0.883585C15.2022 0.7682 14.8974 0.587936 14.6866 0.482997C14.4758 0.378059 14.1576 0.247389 13.9795 0.192619C13.8014 0.13785 13.4785 0.0708136 13.262 0.0436446C13.0454 0.0165235 12.7922 -0.00297878 12.6993 0.000375425C12.6064 0.00372963 12.3955 0.0239504 12.2309 0.0453694ZM13.6324 0.858045C13.8169 0.906681 14.041 0.977358 14.1304 1.01516C14.2844 1.08028 14.2566 1.08517 13.6033 1.10774C13.0236 1.12772 12.8487 1.15254 12.5064 1.26333C12.2824 1.33583 11.9686 1.45859 11.8093 1.53617C11.6499 1.61375 11.3722 1.78745 11.1923 1.92224C11.0123 2.05703 10.7379 2.32733 10.5825 2.52293C10.427 2.71852 10.203 3.07747 10.0848 3.3206C9.96653 3.56373 9.81429 3.97673 9.74649 4.23836C9.65823 4.57886 9.61568 4.89252 9.5968 5.34156L9.5704 5.96894L9.37451 5.8743C9.26679 5.82226 9.0848 5.73946 8.97014 5.6903L8.7616 5.60088L8.79246 5.15751C8.80942 4.91366 8.8548 4.53085 8.89333 4.30683C8.9318 4.08282 9.01921 3.72704 9.08753 3.5162C9.15586 3.30537 9.28218 2.99271 9.36823 2.8214C9.45429 2.65005 9.62804 2.37242 9.7543 2.20437C9.88061 2.03638 10.1229 1.78428 10.2927 1.64422C10.4625 1.50421 10.7443 1.3145 10.919 1.22269C11.0937 1.13093 11.4057 0.999065 11.6123 0.929681C11.819 0.860344 12.1532 0.786552 12.355 0.765708C12.5569 0.744864 12.8514 0.737245 13.0095 0.748745C13.1676 0.760245 13.4479 0.809457 13.6324 0.858045ZM20.1774 0.899828C20.3727 0.949902 20.6586 1.04665 20.8127 1.11493C20.9668 1.18316 21.24 1.33678 21.4198 1.45629C21.5995 1.5758 21.8991 1.82463 22.0856 2.00921C22.272 2.19383 22.5345 2.5006 22.6689 2.69092C22.8033 2.8813 23.0091 3.22688 23.1263 3.45889C23.2434 3.69091 23.4017 4.06825 23.478 4.29744C23.5544 4.52663 23.6555 4.89741 23.7027 5.12143C23.7648 5.41583 23.7881 5.73462 23.7867 6.27144C23.7856 6.70499 23.7606 7.09801 23.7267 7.21564C23.6947 7.32643 23.6139 7.48202 23.5472 7.56137C23.4804 7.64072 23.1757 7.84676 22.87 8.01921C22.5644 8.19167 22.3105 8.32718 22.3059 8.32033C22.3013 8.31352 22.2723 8.03838 22.2414 7.70895C22.2106 7.37952 22.1516 6.94827 22.1104 6.75061C22.0693 6.55295 21.9512 6.13717 21.8482 5.82667C21.7451 5.51617 21.562 5.06335 21.4413 4.82041C21.3206 4.57747 21.1539 4.2709 21.0708 4.13912C20.9878 4.00735 20.798 3.73782 20.649 3.54016C20.5001 3.3425 20.1641 2.97593 19.9024 2.72557C19.6408 2.4752 19.2766 2.17026 19.0931 2.04788C18.9097 1.92554 18.6252 1.75304 18.4609 1.66454C18.2966 1.57608 18.1618 1.49184 18.1614 1.47733C18.1609 1.46285 18.4549 1.3065 18.8146 1.12993C19.2628 0.909891 19.5242 0.808882 19.6455 0.808882C19.7428 0.808882 19.9822 0.849803 20.1774 0.899828ZM13.8513 1.98649C13.9945 2.02804 14.2248 2.12962 14.3632 2.21223C14.5015 2.29489 14.6147 2.37419 14.6147 2.38857C14.6147 2.40289 13.6768 2.88345 12.5303 3.4565C10.9217 4.26055 10.4463 4.47924 10.4475 4.41455C10.4484 4.3685 10.519 4.14751 10.6044 3.9235C10.6898 3.69948 10.8412 3.39358 10.9409 3.2437C11.0406 3.09376 11.2563 2.84579 11.4202 2.69265C11.5842 2.53946 11.8573 2.34022 12.0271 2.24989C12.197 2.15957 12.4552 2.04754 12.6009 2.00092C12.7528 1.95228 13.0203 1.91505 13.2284 1.91356C13.4279 1.91213 13.7082 1.94495 13.8513 1.98649ZM17.4738 2.01069C17.6012 2.06556 17.7809 2.14237 17.8731 2.18142L18.0408 2.25234L17.5866 2.48747C17.2624 2.65537 17.1232 2.70592 17.0998 2.66419C17.0818 2.63208 16.992 2.50874 16.9003 2.39015L16.7335 2.17452L16.9799 2.045C17.1153 1.9738 17.2298 1.91447 17.2342 1.91323C17.2386 1.91198 17.3464 1.95587 17.4738 2.01069ZM19.1797 3.03516C19.3792 3.20541 19.6771 3.50111 19.8416 3.69225C20.0061 3.88339 20.2531 4.21306 20.3905 4.42485C20.5279 4.63665 20.6868 4.90206 20.7436 5.01462C20.8005 5.12722 20.9182 5.39676 21.0053 5.61358C21.0924 5.83045 21.2112 6.18523 21.2694 6.40201C21.3275 6.61879 21.4065 6.97457 21.4448 7.19264C21.4832 7.41071 21.5285 7.8493 21.5455 8.16723L21.5764 8.7453L21.0951 9.01776C20.8305 9.1676 20.6043 9.29022 20.5926 9.29022C20.5808 9.29022 20.5574 8.99375 20.5405 8.63136C20.5236 8.26901 20.48 7.83378 20.4436 7.6642C20.398 7.45197 20.3375 6.94865 20.25 6.75C20.25 6.75 19.486 6.17212 19.1685 6.13099C19.382 6.53199 19.6792 7.43731 19.7451 7.88677C19.7828 8.14476 19.8116 8.65364 19.809 9.01766C19.8054 9.54518 19.7894 9.69445 19.7306 9.75329C19.69 9.79387 18.2797 10.6005 16.5967 11.5458L13.5366 13.2646L13.5073 12.6071C13.4912 12.2455 13.4522 11.7771 13.4206 11.5663C13.389 11.3554 13.3003 10.9436 13.2236 10.6511C13.1468 10.3586 12.9968 9.90576 12.8903 9.64485C12.7838 9.38389 12.5977 8.99792 12.4766 8.78709C12.3555 8.57625 12.1075 8.20638 11.9253 7.96512C11.7432 7.7239 11.398 7.33975 11.1581 7.11147C10.9182 6.88319 10.6412 6.64299 10.5424 6.57767C10.3835 6.47245 10.3595 6.43033 10.333 6.20943C10.3165 6.07224 10.3028 5.8305 10.3026 5.67228L10.3022 5.38454L12.8148 4.12853L15.3274 2.87248L15.6299 2.97133C15.7963 3.02572 16.0917 3.1435 16.2862 3.23315C16.4808 3.32276 16.8258 3.51946 17.0529 3.67021C17.28 3.821 17.6713 4.1499 17.9225 4.40113C18.1773 4.65591 18.5129 5.05803 18.6814 5.31055C18.8476 5.55948 19.0668 5.92873 19.1685 6.13099C19.486 6.17212 20.25 6.75 20.25 6.75C20.188 6.54073 19.9044 5.98781 19.8102 5.79092C19.7161 5.59398 19.4969 5.21726 19.3231 4.95371C19.1036 4.62093 18.8149 4.28244 18.378 3.84563L17.749 3.21677L18.2304 2.97397C18.4951 2.84043 18.7353 2.72988 18.7642 2.72835C18.7932 2.72681 18.9801 2.86486 19.1797 3.03516ZM8.83535 6.46761C9.00957 6.54916 9.15218 6.62296 9.15218 6.63163C9.15218 6.6403 8.94676 6.75554 8.69572 6.8877L8.23921 7.128L7.8748 6.95493L7.51034 6.7819L7.9599 6.55305C8.20715 6.42722 8.43399 6.32314 8.46399 6.3218C8.49394 6.32046 8.66107 6.38605 8.83535 6.46761ZM10.4514 7.43688C10.6521 7.60832 10.9415 7.89597 11.0947 8.07619C11.2478 8.25636 11.4791 8.56547 11.6087 8.76313C11.7383 8.96079 11.9371 9.31657 12.0505 9.55376C12.1639 9.79095 12.3219 10.1831 12.4017 10.4251C12.4814 10.6672 12.5805 11.0337 12.6218 11.2397C12.6631 11.4457 12.7185 11.8083 12.745 12.0455C12.7715 12.2826 12.7917 12.66 12.79 12.884C12.7882 13.108 12.7722 13.3873 12.7544 13.5047C12.7223 13.7161 12.7174 13.7208 12.2428 13.9947C11.9793 14.1469 11.7509 14.2719 11.7353 14.2725C11.7197 14.2731 11.7238 14.1712 11.7444 14.046C11.765 13.9208 11.7831 13.5812 11.7845 13.2913C11.7859 13.0014 11.7559 12.5594 11.7179 12.309C11.6799 12.0586 11.5924 11.6599 11.5234 11.4229C11.4544 11.1859 11.315 10.7934 11.2135 10.5505C11.112 10.3077 10.9091 9.90528 10.7625 9.65621C10.6159 9.40714 10.3698 9.04502 10.2157 8.85149C10.0615 8.65795 9.78607 8.35641 9.60365 8.18146C9.42123 8.00647 9.19861 7.7999 9.109 7.72242L8.94604 7.58154L9.44442 7.31488C9.7773 7.13677 9.96667 7.06102 10.0147 7.0867C10.0542 7.10783 10.2507 7.26538 10.4514 7.43688ZM7.50493 7.58825C7.74533 7.7008 8.06925 7.8793 8.22469 7.98486C8.38014 8.09042 8.64497 8.29181 8.81316 8.43235C8.9814 8.57294 9.25774 8.85038 9.42727 9.04895C9.5968 9.24752 9.83361 9.55755 9.95359 9.73791C10.0736 9.91822 10.2745 10.274 10.4002 10.5285C10.5258 10.783 10.6952 11.2056 10.7765 11.4675C10.8579 11.7294 10.9597 12.1822 11.0028 12.4737C11.0586 12.8517 11.0726 13.155 11.0515 13.5309C11.0353 13.8208 10.9837 14.2187 10.9369 14.4151L10.852 14.7722L10.4214 15.0152C10.1845 15.1488 9.86988 15.3261 9.7222 15.4092L9.45367 15.5603L9.56853 15.2759C9.63168 15.1196 9.72915 14.8246 9.78511 14.6206C9.86796 14.3185 9.88713 14.1118 9.88852 13.5069C9.88991 12.8974 9.87127 12.6883 9.78463 12.3406C9.72656 12.1076 9.61323 11.7519 9.53283 11.55C9.45243 11.3481 9.29794 11.032 9.18955 10.8475C9.08121 10.663 8.89366 10.3827 8.77286 10.2246C8.65207 10.0665 8.43131 9.8152 8.28229 9.66622C8.13331 9.5172 7.853 9.27666 7.65936 9.13166C7.46578 8.98671 7.16721 8.79202 6.9959 8.69911C6.8246 8.60615 6.52272 8.46647 6.32506 8.3887C6.12741 8.31089 5.79318 8.21117 5.58235 8.16709C5.37151 8.123 5.1451 8.07542 5.07922 8.06138C4.98219 8.04068 5.11425 7.96095 5.77402 7.64192L6.58861 7.24804L6.82819 7.31579C6.95997 7.35307 7.26448 7.47564 7.50493 7.58825ZM3.73754 9.5564C3.56623 9.5932 3.25147 9.70949 3.03809 9.81481C2.76741 9.94845 2.55729 10.0989 2.34329 10.3122C2.17453 10.4804 1.96489 10.7379 1.87735 10.8845C1.78985 11.031 1.66359 11.3081 1.59679 11.5002C1.51361 11.7393 1.46751 11.9937 1.4506 12.3068C1.43387 12.6157 1.44992 12.891 1.5 13.1546C1.54078 13.3694 1.64044 13.7106 1.72142 13.9129C1.80245 14.1152 1.96877 14.4354 2.09106 14.6245C2.21334 14.8137 2.46673 15.1217 2.65413 15.3091C2.84149 15.4965 3.14955 15.7499 3.33868 15.8722C3.5278 15.9944 3.84736 16.1605 4.04886 16.2412C4.2503 16.3219 4.57724 16.4189 4.77538 16.4568C4.97346 16.4947 5.27923 16.5253 5.45479 16.5249C5.63036 16.5244 5.92496 16.4926 6.10944 16.4543C6.29392 16.4158 6.62354 16.2945 6.8419 16.1846C7.08671 16.0614 7.34603 15.8816 7.51844 15.7155C7.67221 15.5674 7.88731 15.308 7.99646 15.1392C8.10557 14.9703 8.25239 14.658 8.32273 14.445C8.43212 14.1139 8.45081 13.9748 8.45211 13.483C8.45326 13.0301 8.43102 12.8288 8.34736 12.5349C8.2889 12.3297 8.15746 11.9955 8.05521 11.7922C7.953 11.5889 7.76957 11.2898 7.64767 11.1276C7.52572 10.9655 7.29817 10.7145 7.14196 10.5698C6.98575 10.4252 6.70006 10.2085 6.50705 10.0882C6.31409 9.96791 6.01494 9.81635 5.8423 9.75137C5.6697 9.6864 5.36361 9.59919 5.16212 9.55755C4.96062 9.51595 4.62774 9.48361 4.42237 9.48567C4.217 9.48778 3.90884 9.5196 3.73754 9.5564ZM5.40515 10.3712C5.60803 10.439 5.92726 10.5897 6.11452 10.706C6.30178 10.8224 6.59781 11.059 6.77232 11.2318C6.94689 11.4047 7.17492 11.6908 7.27914 11.8676C7.38336 12.0445 7.51681 12.3294 7.5757 12.5007C7.64868 12.7128 7.68955 12.9661 7.70388 13.2949C7.71576 13.5679 7.70053 13.8953 7.66876 14.0482C7.6379 14.1969 7.54892 14.4461 7.471 14.6021C7.39309 14.758 7.22567 14.9908 7.09897 15.1195C6.97228 15.2482 6.736 15.4243 6.57385 15.5107C6.4117 15.5971 6.13306 15.6988 5.95466 15.7366C5.77622 15.7744 5.52245 15.8053 5.39068 15.8053C5.25891 15.8053 5.00154 15.7736 4.81874 15.7349C4.63598 15.6962 4.30751 15.5758 4.08882 15.4676C3.83198 15.3403 3.57146 15.1596 3.35272 14.9571C3.16651 14.7847 2.92079 14.5119 2.8067 14.3508C2.69256 14.1897 2.55571 13.9716 2.50252 13.866C2.44933 13.7604 2.35925 13.534 2.30232 13.3628C2.2454 13.1917 2.18651 12.8684 2.17146 12.6444C2.15172 12.3505 2.16547 12.1539 2.22086 11.9384C2.26313 11.7741 2.35096 11.5345 2.41608 11.406C2.48115 11.2775 2.6423 11.0544 2.77412 10.9102C2.90805 10.7636 3.14193 10.5796 3.30437 10.493C3.46422 10.4078 3.72949 10.3074 3.89389 10.27C4.08709 10.2259 4.34182 10.21 4.61452 10.2248C4.88678 10.2397 5.16705 10.2916 5.40515 10.3712ZM4.02269 10.9847C3.90276 11.017 3.72695 11.0915 3.63198 11.1502C3.537 11.2089 3.37931 11.3454 3.28156 11.4536C3.18381 11.5619 3.06301 11.7427 3.01313 11.8554C2.96324 11.9682 2.90943 12.1865 2.89362 12.3405C2.87776 12.4945 2.88854 12.7498 2.91753 12.908C2.94652 13.0661 3.04911 13.3572 3.14543 13.5548C3.27538 13.8214 3.41467 14.007 3.68478 14.2736C3.89116 14.4772 4.17593 14.7002 4.34192 14.788C4.50302 14.8733 4.77255 14.9784 4.94088 15.0215C5.15354 15.076 5.34775 15.0915 5.57736 15.0723C5.78973 15.0546 5.99865 15.0002 6.1621 14.9203C6.30192 14.8519 6.51242 14.689 6.62986 14.5584C6.74726 14.4278 6.87836 14.2187 6.9212 14.0936C6.96404 13.9686 7.01129 13.7477 7.02619 13.6028C7.04329 13.436 7.02475 13.2178 6.97573 13.0087C6.93309 12.827 6.82872 12.5467 6.74386 12.3858C6.65382 12.2151 6.43973 11.9436 6.22971 11.7335C6.02026 11.5241 5.74805 11.3094 5.57847 11.2199C5.41818 11.1353 5.16029 11.0331 5.00533 10.9928C4.85041 10.9524 4.615 10.9208 4.48217 10.9226C4.34934 10.9244 4.14258 10.9523 4.02269 10.9847ZM5.14199 11.82C5.30515 11.8971 5.53563 12.047 5.65422 12.1532C5.77282 12.2593 5.94412 12.4698 6.03488 12.6207C6.12563 12.7718 6.22693 13.0265 6.25994 13.1867C6.30427 13.4019 6.30681 13.5395 6.26958 13.713C6.24164 13.8433 6.16229 14.0116 6.09137 14.091C6.00747 14.1849 5.87651 14.2566 5.71057 14.2997C5.51656 14.35 5.39413 14.3536 5.18459 14.3153C5.03442 14.2878 4.78616 14.1988 4.63297 14.1174C4.47978 14.0361 4.25691 13.861 4.13765 13.7284C4.01843 13.5958 3.86869 13.3844 3.80496 13.2586C3.74123 13.1327 3.66504 12.9178 3.63567 12.7808C3.59594 12.5956 3.59647 12.4685 3.63777 12.2839C3.67371 12.1233 3.74137 11.9899 3.82978 11.9052C3.90486 11.8332 4.04962 11.7433 4.1514 11.7055C4.26434 11.6635 4.43569 11.6451 4.59094 11.6582C4.73239 11.6702 4.97715 11.742 5.14199 11.82Z" fill="#757575"/>
</svg>
