<svg width="17" height="19" viewBox="0 0 17 19" fill="none" xmlns="http://www.w3.org/2000/svg">
<path fill-rule="evenodd" clip-rule="evenodd" d="M12.5959 1.54349C11.623 1.75469 10.8274 2.46796 10.5014 3.42099C10.3435 3.88265 10.3274 4.56269 10.4626 5.05301C10.5019 5.19562 10.5289 5.31716 10.5225 5.3231C10.5161 5.32901 9.47948 5.95466 8.21887 6.71341L5.92685 8.09297L5.73366 7.91622C5.17432 7.40446 4.53995 7.15331 3.80933 7.1544C2.99077 7.15562 2.32733 7.43678 1.77168 8.01785C1.2374 8.57657 0.993164 9.18818 0.993164 9.96732C0.993164 10.7803 1.27567 11.4462 1.85605 12.0012C2.41173 12.5326 3.02541 12.779 3.79567 12.7802C4.63648 12.7815 5.33637 12.4708 5.90469 11.8439L6.10316 11.6251L8.15072 12.6744C9.27688 13.2515 10.2633 13.7571 10.3428 13.7979L10.4874 13.8719L10.429 14.1157C10.3575 14.4146 10.3517 14.9547 10.4168 15.2619C10.5369 15.8286 10.8094 16.3153 11.2342 16.7215C11.7929 17.2558 12.4045 17.5 13.1837 17.5C13.9628 17.5 14.5744 17.2558 15.1331 16.7215C15.7135 16.1665 15.996 15.5006 15.996 14.6876C15.996 13.8747 15.7135 13.2088 15.1331 12.6538C14.5774 12.1224 13.9638 11.876 13.1935 11.8747C12.3666 11.8735 11.6451 12.1906 11.0995 12.7951L10.9167 12.9977L8.74439 11.8864C7.54961 11.2752 6.56022 10.7637 6.54575 10.7497C6.53127 10.7358 6.54362 10.6155 6.57319 10.4826C6.65006 10.137 6.62393 9.55039 6.51542 9.18593C6.47191 9.03988 6.43874 8.9185 6.44168 8.91621C6.44462 8.9139 7.47887 8.29144 8.74001 7.53291L11.033 6.15379L11.2409 6.34598C11.808 6.87037 12.4483 7.1233 13.2058 7.12208C13.9631 7.12086 14.5808 6.87118 15.1331 6.34301C15.7135 5.78801 15.996 5.12216 15.996 4.30917C15.996 3.49618 15.7135 2.83033 15.1331 2.27533C14.7265 1.88651 14.2938 1.65584 13.7579 1.5423C13.4892 1.48538 12.8605 1.48603 12.5959 1.54349Z" stroke="#757575" stroke-width="1.25"/>
</svg>
