<svg width="15" height="20" viewBox="0 0 15 20" fill="none" xmlns="http://www.w3.org/2000/svg">
<path fill-rule="evenodd" clip-rule="evenodd" d="M0.40998 0.048928C0.374951 0.0758426 0.325219 0.137344 0.29951 0.18559C0.267976 0.244842 0.252791 0.567977 0.252791 1.18083V2.08833L0.393068 2.36683C0.470196 2.52005 0.573877 2.78622 0.623448 2.95839C0.698086 3.21765 0.713672 3.37131 0.714154 3.85384C0.714717 4.38856 0.702505 4.48738 0.565522 5.05897C0.483453 5.40143 0.370452 5.94354 0.314373 6.26366C0.258294 6.58378 0.175542 7.16947 0.130511 7.5652C0.0854387 7.96092 0.0331359 8.67062 0.0142556 9.14235C-0.00478546 9.61789 -0.00474503 10.3803 0.0143362 10.8536C0.0332969 11.3232 0.0772038 11.9694 0.111952 12.2897C0.1467 12.6101 0.220373 13.1524 0.275648 13.4949C0.330923 13.8373 0.45232 14.4429 0.545437 14.8406C0.70371 15.5165 0.714717 15.6017 0.714154 16.1462C0.713672 16.6287 0.698086 16.7823 0.623448 17.0416C0.573877 17.2138 0.470196 17.48 0.393068 17.6332L0.252791 17.9117V18.8192C0.252791 19.432 0.267976 19.7552 0.29951 19.8144C0.325219 19.8627 0.374951 19.9242 0.40998 19.9511C0.459511 19.9891 1.94045 20 7.04168 20C12.1429 20 13.6239 19.9891 13.6734 19.9511C13.7084 19.9242 13.7582 19.8627 13.7839 19.8144C13.8154 19.7552 13.8306 19.432 13.8306 18.8192V17.9117L13.6903 17.6332C13.6132 17.48 13.5093 17.2138 13.4595 17.0416C13.3829 16.7766 13.3693 16.6364 13.3713 16.1261C13.3734 15.5647 13.3849 15.4752 13.5396 14.8179C13.6309 14.4298 13.7417 13.8965 13.7858 13.6329C13.8299 13.3692 13.8938 12.9275 13.9277 12.6513C13.9617 12.3751 14.0093 11.9141 14.0336 11.6269C14.0579 11.3397 14.0778 10.6076 14.0778 10C14.0778 9.39241 14.0579 8.6603 14.0336 8.37308C14.0093 8.08585 13.9617 7.62489 13.9277 7.34872C13.8938 7.07254 13.83 6.62966 13.786 6.36453C13.742 6.0994 13.6301 5.55709 13.5373 5.1594C13.3799 4.48445 13.3687 4.39756 13.3692 3.85384C13.3697 3.37131 13.3853 3.21765 13.4599 2.95839C13.5095 2.78622 13.6132 2.52005 13.6903 2.36683L13.8306 2.08833V1.18083C13.8306 0.567977 13.8154 0.244842 13.7839 0.18559C13.7582 0.137344 13.7084 0.0758426 13.6734 0.048928C13.6239 0.0109263 12.1429 0 7.04168 0C1.94045 0 0.459511 0.0109263 0.40998 0.048928ZM13.1878 1.16239V1.68461H7.04168H0.895526V1.16239V0.640164H7.04168H13.1878V1.16239ZM12.967 2.41773C12.9508 2.46746 12.8916 2.67081 12.8353 2.86965C12.7461 3.18479 12.7328 3.31113 12.7314 3.85384C12.7298 4.44668 12.7379 4.51164 12.8999 5.2105C12.9935 5.61421 13.1133 6.20171 13.1662 6.51605C13.2191 6.83039 13.2908 7.33498 13.3255 7.6373C13.3601 7.93967 13.4098 8.59494 13.4358 9.0935C13.472 9.7883 13.472 10.2117 13.4358 10.9065C13.4098 11.4051 13.3601 12.0603 13.3255 12.3627C13.2908 12.665 13.2191 13.1696 13.1662 13.4839C13.1133 13.7983 12.9935 14.3858 12.8999 14.7895C12.7379 15.4884 12.7298 15.5533 12.7314 16.1462C12.7328 16.6889 12.7461 16.8152 12.8353 17.1303C12.8916 17.3292 12.9508 17.5325 12.967 17.5823L12.9963 17.6727H7.04168H1.08702L1.11639 17.5823C1.13254 17.5325 1.19179 17.3292 1.24807 17.1303C1.33725 16.8152 1.35058 16.6889 1.35199 16.1462C1.35356 15.5533 1.34548 15.4884 1.18347 14.7895C1.08987 14.3858 0.970044 13.7983 0.917138 13.4839C0.864273 13.1696 0.792608 12.665 0.757901 12.3627C0.723233 12.0603 0.673582 11.4051 0.647591 10.9065C0.611397 10.2117 0.611397 9.7883 0.647591 9.0935C0.673582 8.59494 0.723233 7.93967 0.757901 7.6373C0.792608 7.33498 0.864273 6.83039 0.917138 6.51605C0.970044 6.20171 1.08987 5.61421 1.18347 5.2105C1.34548 4.51164 1.35356 4.44668 1.35199 3.85384C1.35058 3.31113 1.33725 3.18479 1.24807 2.86965C1.19179 2.67081 1.13254 2.46746 1.11639 2.41773L1.08702 2.32735H7.04168H12.9963L12.967 2.41773ZM4.99847 5.23203C4.92415 5.26027 4.79074 5.34435 4.70193 5.4189C4.60917 5.49679 4.4979 5.64748 4.44037 5.77313C4.38305 5.89834 4.33163 6.09952 4.32002 6.24381C4.30889 6.3824 4.32231 6.59282 4.34983 6.71136C4.37735 6.82991 4.45479 7.04442 4.52192 7.18803C4.60323 7.36189 4.72776 7.53153 4.89463 7.69575C5.0721 7.87042 5.21137 7.96711 5.3719 8.02716C5.49715 8.074 5.69319 8.11196 5.81008 8.11196C5.95683 8.11196 6.08517 8.08031 6.22907 8.00861C6.35384 7.94642 6.48556 7.83848 6.55963 7.73777C6.6274 7.64566 6.70931 7.481 6.74173 7.37185C6.77415 7.26275 6.80046 7.07278 6.80018 6.94974C6.79994 6.82673 6.77386 6.62901 6.74229 6.51039C6.71072 6.3918 6.63411 6.19384 6.57205 6.07056C6.50998 5.94727 6.36798 5.75272 6.2565 5.63828C6.14503 5.52383 5.95554 5.38038 5.83547 5.31956C5.68889 5.24524 5.53776 5.20427 5.37535 5.19479C5.24022 5.18691 5.07399 5.20334 4.99847 5.23203ZM8.48784 5.21704C8.4326 5.23392 8.30675 5.28891 8.20817 5.33928C8.10959 5.38962 7.93786 5.52431 7.82654 5.6386C7.71523 5.75288 7.57339 5.94727 7.51132 6.07056C7.44926 6.19384 7.37265 6.3918 7.34108 6.51039C7.3095 6.62901 7.28343 6.82673 7.28319 6.94974C7.28291 7.07278 7.30966 7.26416 7.34256 7.37503C7.3755 7.4859 7.45553 7.64988 7.5204 7.73946C7.59548 7.8431 7.72029 7.9424 7.8635 8.01246C8.06082 8.10899 8.12232 8.12016 8.36251 8.10297C8.56127 8.08875 8.6942 8.05195 8.84693 7.96884C8.9627 7.90581 9.14572 7.75766 9.25362 7.63959C9.36152 7.52149 9.5024 7.31284 9.56667 7.1759C9.63094 7.03896 9.70602 6.82991 9.73354 6.71136C9.76106 6.59282 9.77468 6.38489 9.76379 6.2494C9.7529 6.11386 9.70289 5.90738 9.65264 5.79057C9.59825 5.66419 9.49127 5.51656 9.38847 5.42605C9.29343 5.34242 9.14471 5.25272 9.05799 5.22673C8.97126 5.20073 8.8301 5.18105 8.74429 5.18294C8.65849 5.18483 8.54307 5.20017 8.48784 5.21704ZM5.6265 5.93269C5.71644 5.99343 5.8282 6.09193 5.8748 6.15154C5.92144 6.21111 6.00616 6.36163 6.06312 6.486C6.15045 6.67678 6.16419 6.75571 6.15089 6.99067C6.13748 7.22796 6.11916 7.28521 6.02717 7.37724C5.94759 7.45682 5.88135 7.48413 5.77529 7.48112C5.69387 7.47883 5.56379 7.43231 5.4757 7.37402C5.39006 7.31734 5.26376 7.18924 5.19502 7.08933C5.12629 6.98947 5.04366 6.83292 5.01144 6.74153C4.97919 6.65014 4.95279 6.47733 4.95279 6.3575C4.95279 6.23763 4.97991 6.08715 5.01305 6.02307C5.04619 5.959 5.10492 5.88814 5.14361 5.8656C5.18225 5.84307 5.26994 5.82411 5.33844 5.82342C5.4095 5.82274 5.5331 5.86962 5.6265 5.93269ZM8.93193 5.8636C8.97447 5.88633 9.03653 5.95776 9.06992 6.02227C9.10326 6.08678 9.13058 6.22803 9.13058 6.33605C9.13058 6.44411 9.10591 6.61443 9.07582 6.7145C9.04569 6.8146 8.96306 6.98075 8.8922 7.08375C8.82138 7.18671 8.69689 7.31497 8.61558 7.36872C8.53428 7.42251 8.41352 7.47019 8.34724 7.47473C8.28096 7.47927 8.1878 7.47019 8.1402 7.45453C8.09264 7.4389 8.02487 7.36531 7.98956 7.29095C7.95357 7.21503 7.92545 7.05286 7.92549 6.92086C7.92549 6.74258 7.95393 6.62777 8.04339 6.44487C8.10818 6.31231 8.19403 6.16484 8.23416 6.11719C8.27425 6.06955 8.37737 5.98367 8.46334 5.92638C8.54926 5.8691 8.67246 5.82222 8.7371 5.82222C8.80177 5.82222 8.88943 5.84082 8.93193 5.8636ZM2.62288 7.28995C2.52345 7.3208 2.37378 7.40263 2.2903 7.4718C2.20683 7.54093 2.09877 7.67257 2.0502 7.76436C1.98223 7.89283 1.96178 8.00045 1.96126 8.23248C1.9607 8.47716 1.98111 8.57767 2.06984 8.76752C2.13677 8.91072 2.27668 9.09856 2.4311 9.25258C2.58717 9.40816 2.78328 9.55306 2.94609 9.63292C3.09075 9.7039 3.33077 9.78211 3.47952 9.80678C3.68371 9.8406 3.80258 9.8398 3.96463 9.80356C4.08269 9.77713 4.26133 9.70346 4.36168 9.63983C4.47143 9.57025 4.58945 9.44697 4.65802 9.33027C4.75596 9.16364 4.77198 9.0939 4.77174 8.83504C4.77154 8.59209 4.75049 8.48881 4.66292 8.30153C4.60323 8.17379 4.45351 7.96353 4.33022 7.83426C4.20694 7.70499 3.99616 7.54069 3.86183 7.46911C3.72754 7.39752 3.52488 7.31425 3.41151 7.28404C3.29811 7.25387 3.11497 7.23021 3.0045 7.2315C2.89403 7.23274 2.7223 7.25905 2.62288 7.28995ZM10.6571 7.28577C10.5576 7.31349 10.3829 7.3837 10.2689 7.44179C10.1547 7.49988 9.95171 7.64899 9.81762 7.77312C9.65268 7.92581 9.53144 8.08501 9.44262 8.26542C9.32962 8.49492 9.31134 8.57417 9.31134 8.8342C9.31134 9.0937 9.32741 9.16368 9.42535 9.33027C9.49392 9.44697 9.61194 9.57025 9.72169 9.63983C9.82204 9.70346 10.0007 9.77713 10.1187 9.80356C10.2808 9.8398 10.3997 9.8406 10.6038 9.80678C10.7526 9.78211 10.9926 9.7039 11.1373 9.63292C11.2985 9.55378 11.4945 9.40953 11.644 9.25985C11.785 9.11877 11.9375 8.91414 12.0056 8.77479C12.1044 8.57261 12.1232 8.48523 12.1224 8.23248C12.1217 8.00081 12.1011 7.89263 12.0332 7.76436C11.9846 7.67257 11.8765 7.54101 11.7931 7.47196C11.7096 7.40291 11.5521 7.31979 11.4431 7.2873C11.3342 7.2548 11.1534 7.22981 11.0414 7.23178C10.9295 7.23379 10.7565 7.25805 10.6571 7.28577ZM3.45201 7.96787C3.56553 8.02074 3.73172 8.13016 3.82122 8.21103C3.91076 8.29193 4.02119 8.43498 4.0667 8.5289C4.11218 8.62286 4.14937 8.76318 4.14937 8.84071C4.14937 8.93868 4.11913 9.01015 4.05027 9.07482C3.98443 9.13669 3.88662 9.174 3.75903 9.18598C3.62555 9.19847 3.49945 9.17838 3.34596 9.12018C3.22444 9.0741 3.04074 8.96391 2.93774 8.87533C2.83474 8.7868 2.7127 8.63636 2.66658 8.54107C2.62047 8.44575 2.58271 8.30904 2.58271 8.23726C2.58271 8.16543 2.60195 8.07071 2.62549 8.02672C2.64903 7.98273 2.7078 7.93083 2.75604 7.91139C2.80433 7.89195 2.9342 7.87508 3.04467 7.87387C3.17595 7.87247 3.31703 7.905 3.45201 7.96787ZM11.4257 7.98812C11.4676 8.0399 11.5007 8.14398 11.5007 8.22424C11.5007 8.30318 11.4629 8.44575 11.4168 8.54107C11.3707 8.63636 11.2486 8.7868 11.1456 8.87533C11.0426 8.96391 10.8589 9.0741 10.7374 9.12018C10.5839 9.17838 10.4578 9.19847 10.3243 9.18598C10.1968 9.174 10.0989 9.13669 10.0331 9.07482C9.96424 9.01015 9.93399 8.93868 9.93399 8.84071C9.93399 8.76318 9.97119 8.62286 10.0167 8.5289C10.0622 8.43498 10.1726 8.29193 10.2622 8.21103C10.3517 8.13016 10.5178 8.01973 10.6314 7.96566C10.7991 7.88576 10.8859 7.86993 11.0943 7.88142C11.3036 7.89291 11.3645 7.91256 11.4257 7.98812ZM6.60402 8.53709C6.48479 8.56915 6.29499 8.64447 6.18223 8.70445C6.06943 8.76446 5.86504 8.92611 5.72801 9.06369C5.54226 9.25017 5.43661 9.40366 5.31273 9.66694C5.22134 9.86117 5.12601 10.0627 5.10086 10.1147C5.07126 10.176 4.92761 10.2702 4.69265 10.3822C4.42226 10.5111 4.2672 10.618 4.08245 10.8028C3.94173 10.9435 3.7741 11.1664 3.6944 11.3187C3.61719 11.4661 3.52142 11.6952 3.48157 11.8278C3.43019 11.9988 3.40898 12.2029 3.40858 12.5308C3.4081 12.9017 3.42634 13.0521 3.50118 13.294C3.55243 13.4597 3.65865 13.7181 3.73718 13.8683C3.81897 14.0246 3.9572 14.2092 4.06064 14.3002C4.16002 14.3877 4.36501 14.5211 4.51622 14.5967C4.66738 14.6724 4.89527 14.7559 5.02257 14.7824C5.14991 14.8088 5.37186 14.8206 5.51579 14.8085C5.65976 14.7965 5.87359 14.7487 5.99101 14.7025C6.10843 14.6562 6.30933 14.5471 6.43747 14.4601C6.56558 14.3731 6.75398 14.2809 6.85605 14.2551C6.99722 14.2196 7.08615 14.2196 7.22731 14.2551C7.32939 14.2809 7.51779 14.3731 7.6459 14.4601C7.77404 14.5471 7.97385 14.6557 8.08991 14.7015C8.20596 14.7472 8.41079 14.7947 8.54504 14.807C8.67929 14.8193 8.89758 14.8093 9.03015 14.785C9.16271 14.7606 9.399 14.6779 9.55518 14.6012C9.71141 14.5245 9.92114 14.3896 10.0213 14.3015C10.1261 14.2092 10.2639 14.0255 10.3462 13.8683C10.4247 13.7181 10.5309 13.4597 10.5822 13.294C10.657 13.0521 10.6753 12.9017 10.6748 12.5308C10.6744 12.2029 10.6532 11.9988 10.6018 11.8278C10.5619 11.6952 10.4662 11.4661 10.389 11.3187C10.3093 11.1664 10.1416 10.9435 10.0009 10.8028C9.81617 10.618 9.66111 10.5111 9.39072 10.3822C9.15576 10.2702 9.01211 10.176 8.9825 10.1147C8.95736 10.0627 8.86203 9.86117 8.77064 9.66694C8.64676 9.40366 8.54111 9.25017 8.35536 9.06369C8.21833 8.92611 8.01446 8.76474 7.90235 8.70509C7.79023 8.64548 7.59211 8.56895 7.46207 8.53508C7.33204 8.50122 7.13456 8.47471 7.02321 8.47616C6.91185 8.4776 6.72321 8.50504 6.60402 8.53709ZM7.55768 9.23318C7.65369 9.28239 7.80919 9.39956 7.90319 9.49361C7.99723 9.58761 8.13217 9.78975 8.20307 9.94276C8.27393 10.0958 8.37323 10.3023 8.42365 10.4017C8.47474 10.5024 8.59839 10.6457 8.70287 10.7253C8.80603 10.8039 8.9815 10.901 9.09277 10.941C9.20702 10.9821 9.38687 11.0976 9.50581 11.2063C9.62167 11.3122 9.76479 11.4877 9.82393 11.5962C9.88302 11.7048 9.95906 11.9 9.99293 12.03C10.0268 12.1601 10.0545 12.3854 10.0545 12.5308C10.0545 12.6762 10.027 12.9028 9.99337 13.0345C9.95974 13.1662 9.87735 13.3868 9.81023 13.5247C9.72016 13.7098 9.6399 13.8087 9.50356 13.9025C9.40201 13.9724 9.23112 14.0629 9.12387 14.1037C9.01661 14.1444 8.83235 14.1778 8.71432 14.1778C8.59634 14.1778 8.43839 14.157 8.36327 14.1316C8.28819 14.1062 8.10923 14.0075 7.96562 13.9123C7.82201 13.817 7.62316 13.7101 7.52374 13.6747C7.41913 13.6375 7.21603 13.6104 7.04168 13.6104C6.86734 13.6104 6.66424 13.6375 6.55963 13.6747C6.46021 13.7101 6.26136 13.817 6.11775 13.9123C5.97414 14.0075 5.79518 14.1062 5.7201 14.1316C5.64498 14.157 5.48703 14.1778 5.36905 14.1778C5.25102 14.1778 5.06676 14.1444 4.9595 14.1037C4.85225 14.0629 4.68136 13.9724 4.57981 13.9025C4.44347 13.8087 4.3632 13.7098 4.27314 13.5247C4.20602 13.3868 4.12363 13.1662 4.09 13.0345C4.05638 12.9028 4.02886 12.6762 4.02886 12.5308C4.02886 12.3854 4.05658 12.1601 4.09044 12.03C4.12431 11.9 4.20035 11.7048 4.25944 11.5962C4.31858 11.4877 4.46094 11.3128 4.57591 11.2078C4.70659 11.0884 4.87804 10.9819 5.03338 10.9239C5.19723 10.8626 5.34719 10.7672 5.47401 10.6437C5.6114 10.5099 5.69258 10.3842 5.75854 10.2033C5.80928 10.0641 5.91822 9.84594 6.00057 9.71856C6.0859 9.58652 6.23316 9.42985 6.34303 9.35429C6.449 9.28134 6.59988 9.19767 6.67826 9.1683C6.76479 9.13584 6.93113 9.12054 7.10194 9.1293C7.29074 9.13898 7.4405 9.17312 7.55768 9.23318ZM13.1878 18.8376V19.3598H7.04168H0.895526V18.8376V18.3154H7.04168H13.1878V18.8376Z" fill="#757575"/>
</svg>
