<svg width="16" height="20" viewBox="0 0 16 20" fill="none" xmlns="http://www.w3.org/2000/svg">
<path fill-rule="evenodd" clip-rule="evenodd" d="M0.721719 0.0960076L0.625711 0.191976V1.50386V2.8157H0.408863C0.230731 2.8157 0.174808 2.83287 0.0960076 2.91171L0 3.00768L0.000234513 4.70085C0.000351834 5.81481 0.0152128 6.44748 0.0436045 6.55041C0.0714486 6.65119 0.158305 6.77833 0.287827 6.90785C0.417349 7.03737 0.544486 7.12423 0.645265 7.15207C0.7313 7.17581 0.973255 7.19532 1.18299 7.19544L1.56428 7.19568L1.5644 10.686C1.56447 12.9666 1.57929 14.2982 1.60718 14.5282C1.63068 14.7218 1.70158 15.0816 1.76478 15.3277C1.82798 15.5739 1.9582 15.961 2.05417 16.1881C2.15014 16.4151 2.31771 16.7505 2.42659 16.9333C2.53542 17.1161 2.71891 17.3889 2.83432 17.5395C2.94972 17.69 3.14424 17.9236 3.26656 18.0587C3.38889 18.1937 3.6698 18.4489 3.89083 18.6257C4.11182 18.8026 4.43883 19.0341 4.61751 19.1402C4.79619 19.2462 5.11233 19.4078 5.32007 19.4992C5.52785 19.5907 5.85443 19.7109 6.04589 19.7664C6.23736 19.8219 6.55237 19.8971 6.74595 19.9334C6.99553 19.9803 7.30838 19.9997 7.82139 20C8.33299 20.0003 8.64795 19.9813 8.89683 19.935C9.09041 19.899 9.40135 19.8253 9.58785 19.7713C9.77431 19.7172 10.0897 19.6027 10.2888 19.5169C10.4879 19.4311 10.8313 19.252 11.0521 19.1188C11.2729 18.9857 11.634 18.725 11.8548 18.5395C12.0755 18.3541 12.4038 18.0269 12.5843 17.8123C12.7649 17.5978 13.0112 17.2638 13.1316 17.0702C13.2521 16.8766 13.4337 16.5332 13.5352 16.3071C13.6367 16.081 13.7657 15.7366 13.8218 15.5416C13.8778 15.3467 13.9525 15.0477 13.9878 14.8773C14.0438 14.6063 14.0537 14.1039 14.0668 10.8815C14.0808 7.43853 14.0862 7.19568 14.1486 7.19544C14.1853 7.19532 14.2837 7.17628 14.3672 7.15309C14.4519 7.12955 14.6019 7.03338 14.7067 6.93542C14.8284 6.82154 14.9159 6.69663 14.9557 6.57974C15.0078 6.42695 15.0171 6.14198 15.0171 4.70363V3.00768L14.9211 2.91171C14.8683 2.85891 14.7979 2.8157 14.7646 2.8157C14.7113 2.8157 14.7042 2.66103 14.7042 1.50386V0.191976L14.6082 0.0960076L14.5122 0H13.1399H11.7676L11.6717 0.0960076L11.5757 0.191976V1.50386C11.5757 2.66103 11.5685 2.8157 11.5152 2.8157C11.482 2.8157 11.4116 2.85891 11.3588 2.91171L11.2628 3.00768L11.263 4.70085C11.2632 5.78313 11.2783 6.44838 11.3051 6.54474C11.3281 6.62765 11.4195 6.77418 11.5082 6.87035C11.5968 6.96655 11.7168 7.06979 11.7748 7.09979C11.8328 7.12978 11.9525 7.16588 12.0408 7.18L12.2014 7.20569V8.24202V9.27836L12.0876 9.18536C12.025 9.13421 11.8521 8.99162 11.7032 8.86848C11.5544 8.74537 11.2591 8.53885 11.047 8.40956C10.835 8.28027 10.4746 8.09561 10.2463 7.99921C10.0179 7.90281 9.66485 7.77923 9.46169 7.72464C9.25857 7.67001 8.89347 7.59903 8.65042 7.56692C8.40733 7.53481 8.0373 7.50853 7.82816 7.50853C7.61897 7.50853 7.29869 7.52707 7.11645 7.54971C6.93417 7.57236 6.65585 7.61741 6.49797 7.64979C6.34006 7.68221 6.05114 7.76089 5.85591 7.82467C5.66073 7.8885 5.32355 8.02662 5.1067 8.1317C4.88982 8.23678 4.5628 8.42305 4.37998 8.54565C4.19715 8.66825 3.95336 8.85021 3.83823 8.95001C3.72306 9.04982 3.58669 9.16373 3.53515 9.20315L3.44141 9.27488V8.2394V7.20393L3.90092 7.18856C4.23333 7.17745 4.39445 7.15501 4.48338 7.10737C4.55099 7.07116 4.66151 6.98638 4.72893 6.91892C4.79639 6.8515 4.88184 6.74098 4.91883 6.67337C4.97917 6.56312 4.98731 6.36763 4.99744 4.78055L5.0087 3.01069L4.91121 2.91319C4.83073 2.83271 4.77586 2.8157 4.59683 2.8157H4.37998V1.50386V0.191976L4.28397 0.0960076L4.188 0H2.50284H0.817687L0.721719 0.0960076ZM3.75427 1.191V1.75625L3.65826 1.66029C3.57441 1.5764 3.52725 1.56428 3.28498 1.56428C3.04272 1.56428 2.99555 1.5764 2.91171 1.66029C2.85117 1.72078 2.8157 1.80095 2.8157 1.87713C2.8157 1.95331 2.85117 2.03348 2.91171 2.09398C2.99555 2.17787 3.04272 2.18999 3.28498 2.18999C3.52725 2.18999 3.57441 2.17787 3.65826 2.09398L3.75427 1.99801V2.40684V2.8157H2.50284H1.25142V2.40684V1.99801L1.34743 2.09398C1.43128 2.17787 1.47844 2.18999 1.72071 2.18999C1.96297 2.18999 2.01014 2.17787 2.09398 2.09398C2.15452 2.03348 2.18999 1.95331 2.18999 1.87713C2.18999 1.80095 2.15452 1.72078 2.09398 1.66029C2.01014 1.5764 1.96297 1.56428 1.72071 1.56428C1.47844 1.56428 1.43128 1.5764 1.34743 1.66029L1.25142 1.75625V1.191V0.625711H2.50284H3.75427V1.191ZM14.0785 1.191V1.75625L13.9825 1.66029C13.8986 1.5764 13.8515 1.56428 13.6092 1.56428C13.367 1.56428 13.3198 1.5764 13.2359 1.66029L13.1399 1.75625L13.0439 1.66029C12.9601 1.5764 12.9129 1.56428 12.6707 1.56428C12.4284 1.56428 12.3812 1.5764 12.2974 1.66029L12.2014 1.75625V1.191V0.625711H13.1399H14.0785V1.191ZM12.6707 2.18999C12.9129 2.18999 12.9601 2.17787 13.0439 2.09398L13.1399 1.99801L13.2359 2.09398C13.3198 2.17787 13.367 2.18999 13.6092 2.18999C13.8515 2.18999 13.8986 2.17787 13.9825 2.09398L14.0785 1.99801V2.40684V2.8157H13.1399H12.2014V2.40684V1.99801L12.2974 2.09398C12.3812 2.17787 12.4284 2.18999 12.6707 2.18999ZM4.37998 4.86698C4.37998 5.82846 4.36586 6.32355 4.33657 6.38785C4.31268 6.44025 4.25026 6.50266 4.19786 6.52656C4.13298 6.55612 3.59193 6.56997 2.50284 6.56997C1.41376 6.56997 0.872711 6.55612 0.807832 6.52656C0.755429 6.50266 0.693014 6.44025 0.66912 6.38785C0.639829 6.32355 0.625711 5.82846 0.625711 4.86698V3.44141H2.50284H4.37998V4.86698ZM14.3914 4.86698C14.3914 5.82846 14.3772 6.32355 14.3479 6.38785C14.3241 6.44025 14.2616 6.50266 14.2092 6.52656C14.1475 6.55464 13.7705 6.56997 13.1399 6.56997C12.5094 6.56997 12.1323 6.55464 12.0706 6.52656C12.0182 6.50266 11.9558 6.44025 11.9319 6.38785C11.9026 6.32355 11.8885 5.82846 11.8885 4.86698V3.44141H13.1399H14.3914V4.86698ZM2.8157 8.60568V10.0157L2.65012 10.2579C2.55908 10.3912 2.41876 10.6234 2.33832 10.774L2.19206 11.0477L2.19101 9.12169L2.18999 7.19568H2.50284H2.8157V8.60568ZM13.4522 9.12169L13.4517 11.0477L13.2966 10.7632C13.2113 10.6067 13.0708 10.3745 12.9843 10.2472L12.8271 10.0157V8.60568V7.19568H13.1399H13.4528L13.4522 9.12169ZM8.90195 8.24863C9.11868 8.29278 9.43498 8.37506 9.60482 8.43146C9.77466 8.48785 10.072 8.61002 10.2656 8.7029C10.4592 8.79582 10.7495 8.95936 10.9108 9.06636C11.0722 9.17332 11.3402 9.37718 11.5066 9.51941C11.673 9.66164 11.9254 9.91408 12.0676 10.0804C12.2099 10.2468 12.4137 10.5149 12.5207 10.6762C12.6277 10.8375 12.7913 11.1279 12.8844 11.3215C12.9775 11.515 13.107 11.8412 13.1722 12.0463C13.2373 12.2515 13.3219 12.577 13.3599 12.7698C13.4091 13.0192 13.4291 13.3066 13.4291 13.7656C13.4291 14.2247 13.4091 14.512 13.3599 14.7615C13.3219 14.9543 13.237 15.2798 13.1714 15.4849C13.1058 15.6901 12.9762 16.0162 12.8834 16.2098C12.7906 16.4034 12.6273 16.6938 12.5205 16.8551C12.4136 17.0164 12.2099 17.2845 12.0676 17.4508C11.9254 17.6172 11.673 17.8696 11.5066 18.0119C11.3402 18.1541 11.0722 18.358 10.9108 18.4649C10.7495 18.5719 10.4592 18.7356 10.2656 18.8287C10.072 18.9217 9.7458 19.0512 9.54069 19.1164C9.33557 19.1816 9.01 19.2662 8.81721 19.3044C8.56172 19.355 8.28633 19.3735 7.80184 19.3723C7.27233 19.3711 7.05591 19.3535 6.7386 19.2859C6.51944 19.2392 6.18508 19.1465 5.99556 19.0798C5.80601 19.0132 5.51017 18.8909 5.3381 18.8081C5.16603 18.7252 4.89326 18.5701 4.73194 18.4634C4.57062 18.3568 4.30255 18.1534 4.13619 18.0114C3.96982 17.8694 3.71739 17.6172 3.57516 17.4508C3.43293 17.2845 3.22906 17.0164 3.1221 16.8551C3.01511 16.6938 2.85144 16.4034 2.75837 16.2098C2.66529 16.0162 2.53581 15.6901 2.47062 15.4849C2.40543 15.2798 2.3208 14.9543 2.28259 14.7615C2.23199 14.506 2.21357 14.2306 2.2147 13.7461C2.21592 13.2117 2.23332 13.0007 2.3034 12.6706C2.35131 12.4448 2.43542 12.128 2.49025 11.9667C2.54508 11.8054 2.66592 11.515 2.75876 11.3215C2.85164 11.1279 3.01511 10.8375 3.1221 10.6762C3.22906 10.5149 3.43293 10.2468 3.57516 10.0804C3.71739 9.91408 3.96982 9.66184 4.13619 9.51988C4.30255 9.37792 4.57062 9.17449 4.73194 9.06781C4.89326 8.96112 5.18363 8.79758 5.37721 8.70438C5.57078 8.61115 5.89698 8.4812 6.10209 8.41562C6.30721 8.35 6.62397 8.2692 6.80602 8.23608C6.98806 8.20292 7.20741 8.16815 7.29345 8.1588C7.37948 8.14946 7.68792 8.14778 7.97887 8.15505C8.30788 8.1633 8.65683 8.19865 8.90195 8.24863ZM7.03925 8.81674C6.85643 8.84673 6.53086 8.92729 6.31577 8.99577C6.10068 9.06429 5.75091 9.20918 5.53852 9.31778C5.32609 9.42642 5.01813 9.6153 4.85415 9.73755C4.69014 9.8598 4.43438 10.0814 4.28577 10.23C4.13716 10.3786 3.91554 10.6344 3.7933 10.7984C3.67105 10.9624 3.48232 11.2703 3.37395 11.4828C3.26555 11.6952 3.13204 12.0009 3.07721 12.1623C3.02242 12.3236 2.94557 12.6051 2.90643 12.788C2.85371 13.0342 2.83541 13.2876 2.83584 13.7656C2.83627 14.2309 2.85555 14.5003 2.90502 14.7313C2.94272 14.9074 3.01925 15.189 3.0751 15.357C3.13094 15.5249 3.26414 15.8338 3.37114 16.0433C3.47809 16.2528 3.64766 16.5367 3.74793 16.6741C3.8482 16.8116 4.01077 17.0097 4.10916 17.1145C4.20756 17.2191 4.39425 17.4028 4.52405 17.5225C4.65384 17.6423 4.88203 17.8206 5.03115 17.9188C5.1803 18.0171 5.44232 18.1678 5.61349 18.2537C5.78466 18.3396 6.09939 18.4658 6.31292 18.534C6.5264 18.6023 6.87836 18.6853 7.09506 18.7186C7.37741 18.7619 7.63853 18.7729 8.01692 18.7571C8.30729 18.7449 8.66805 18.7082 8.81862 18.6754C8.96918 18.6426 9.23315 18.5697 9.40522 18.5133C9.57729 18.457 9.88526 18.3253 10.0896 18.2207C10.2939 18.1161 10.578 17.9462 10.7209 17.8432C10.8637 17.7402 11.0661 17.5756 11.1706 17.4776C11.2751 17.3796 11.4546 17.1962 11.5694 17.0701C11.6843 16.9441 11.8624 16.7164 11.9651 16.5642C12.0678 16.412 12.2225 16.1468 12.3088 15.9749C12.395 15.803 12.5214 15.4878 12.5896 15.2745C12.6578 15.0613 12.739 14.7181 12.7701 14.512C12.8012 14.3058 12.8266 13.97 12.8266 13.7656C12.8266 13.5613 12.8012 13.2255 12.7701 13.0193C12.739 12.8132 12.6578 12.47 12.5896 12.2567C12.5214 12.0435 12.3953 11.7289 12.3094 11.5577C12.2235 11.3866 12.0728 11.1246 11.9746 10.9754C11.8763 10.8263 11.698 10.5981 11.5783 10.4683C11.4585 10.3385 11.2749 10.1518 11.1702 10.0534C11.0655 9.95502 10.8674 9.79246 10.7299 9.69219C10.5924 9.59192 10.3086 9.42227 10.099 9.31516C9.88952 9.20804 9.57729 9.0743 9.40522 9.01794C9.23315 8.96159 8.96918 8.88842 8.81862 8.85534C8.66805 8.82225 8.2809 8.78776 7.95826 8.77869C7.56669 8.7677 7.26114 8.78033 7.03925 8.81674ZM8.35985 9.42595C8.53658 9.44812 8.83528 9.5103 9.02361 9.56415C9.21199 9.618 9.51245 9.73161 9.69129 9.81659C9.87012 9.90157 10.1512 10.0637 10.3159 10.177C10.4807 10.2902 10.7479 10.5153 10.9098 10.6773C11.0717 10.8392 11.2978 11.1079 11.4124 11.2745C11.5269 11.4411 11.6886 11.7223 11.7715 11.8994C11.8545 12.0765 11.9685 12.3797 12.0248 12.5731C12.0811 12.7665 12.1471 13.114 12.1715 13.3452C12.2046 13.6587 12.2046 13.8726 12.1715 14.186C12.1471 14.4172 12.0811 14.7647 12.0248 14.9582C11.9685 15.1516 11.8545 15.4548 11.7715 15.6319C11.6886 15.809 11.5269 16.0902 11.4124 16.2568C11.2978 16.4234 11.0717 16.6921 10.9098 16.854C10.7479 17.0159 10.4791 17.2421 10.3125 17.3566C10.1459 17.4712 9.86473 17.6328 9.68765 17.7158C9.51057 17.7988 9.20738 17.9127 9.01396 17.9691C8.82049 18.0253 8.47299 18.0914 8.24179 18.1158C7.92831 18.1489 7.71447 18.1489 7.40099 18.1158C7.16975 18.0914 6.82221 18.0259 6.62863 17.9703C6.43505 17.9147 6.13033 17.7997 5.95149 17.7147C5.77265 17.6297 5.49155 17.4675 5.32684 17.3543C5.16212 17.241 4.8949 17.0159 4.733 16.854C4.57109 16.6921 4.34599 16.4249 4.23274 16.2602C4.11949 16.0955 3.95731 15.8144 3.87233 15.6355C3.78735 15.4567 3.67234 15.152 3.61673 14.9584C3.56112 14.7648 3.49565 14.4173 3.47125 14.186C3.43817 13.8726 3.43817 13.6587 3.47125 13.3452C3.49565 13.114 3.56112 12.7665 3.61673 12.5729C3.67234 12.3793 3.78735 12.0746 3.87233 11.8957C3.95731 11.7169 4.11949 11.4358 4.23274 11.2711C4.34599 11.1064 4.57109 10.8392 4.733 10.6773C4.8949 10.5153 5.16212 10.2902 5.32684 10.177C5.49155 10.0637 5.77265 9.90157 5.95149 9.81659C6.13033 9.73161 6.43427 9.61698 6.62687 9.56192C6.81951 9.50682 7.09228 9.44687 7.23302 9.42865C7.37381 9.41046 7.61264 9.39333 7.76375 9.39059C7.91489 9.3879 8.18313 9.40381 8.35985 9.42595Z" fill="#757575"/>
</svg>
