<svg width="20" height="20" viewBox="0 0 20 20" fill="none" xmlns="http://www.w3.org/2000/svg">
<path fill-rule="evenodd" clip-rule="evenodd" d="M3.80973 0.0389949C3.3673 0.14285 2.9327 0.511072 2.71831 0.963652L2.59386 1.22634L2.58104 2.76971C2.56717 4.43769 2.58046 4.59386 2.7657 4.94059L2.87135 5.13826L2.61789 5.18636C2.0947 5.28561 1.66451 5.62386 1.4289 6.12126L1.30446 6.38394L1.29301 8.3638L1.2816 10.3436L1.10194 10.4048C0.666672 10.5531 0.344596 10.846 0.138721 11.2805L0.0150561 11.5415L0.00427202 15.0532C-0.00748888 18.8808 -0.0105754 18.8192 0.213312 19.2012C0.417545 19.5497 0.853793 19.8679 1.25402 19.9602C1.48408 20.0133 18.5122 20.0133 18.7423 19.9602C19.0375 19.8921 19.2718 19.7568 19.5143 19.5143C19.7629 19.2657 19.8976 19.0275 19.9634 18.7203C19.9889 18.6012 19.9991 17.2931 19.9921 15.0386L19.9812 11.5415L19.8576 11.2805C19.6517 10.846 19.3296 10.5531 18.8944 10.4048L18.7147 10.3436L18.7033 8.3638L18.6918 6.38394L18.5674 6.12126C18.4989 5.97677 18.3603 5.77019 18.2593 5.66219C18.0385 5.42611 17.6269 5.20883 17.3306 5.17179L17.121 5.14561L17.2286 4.94423C17.4161 4.59343 17.4292 4.44097 17.4153 2.76756L17.4024 1.22204L17.2556 0.92497C17.0286 0.465982 16.6338 0.144609 16.1635 0.0361427C15.9467 -0.0138705 4.02322 -0.0110964 3.80973 0.0389949ZM5.46571 2.41806V4.17633H5.25909C5.00012 4.17633 4.73747 4.30242 4.61619 4.48493C4.54609 4.59039 4.52796 4.67275 4.52796 4.88542V5.15315L4.26422 5.15276C3.83075 5.15213 3.44858 4.91684 3.29916 4.55854C3.20949 4.3436 3.20883 1.47082 3.29838 1.2565C3.3963 1.02214 3.53665 0.869369 3.75307 0.761489C3.95179 0.662479 3.97727 0.659783 4.71145 0.659783H5.46571V2.41806ZM13.8664 2.41806V4.17633L13.6612 4.17719C13.441 4.17813 13.1857 4.27405 13.0766 4.3969C12.9653 4.52232 12.8895 4.74886 12.8895 4.95654V5.15315H9.99815H7.10676L7.1059 4.94802C7.10496 4.7278 7.00904 4.4725 6.8862 4.36341C6.76077 4.25205 6.53423 4.17633 6.32656 4.17633H6.12994V2.41806V0.659783H9.99815H13.8664V2.41806ZM16.3106 0.797554C16.4288 0.870737 16.5468 0.988737 16.62 1.10701L16.7382 1.29823L16.7502 2.8252C16.7579 3.80026 16.7476 4.40221 16.7217 4.49067C16.6121 4.86581 16.1841 5.1521 15.7321 5.15276L15.4683 5.15315V4.88542C15.4683 4.67275 15.4502 4.59039 15.3801 4.48493C15.2588 4.30242 14.9962 4.17633 14.7372 4.17633H14.5306V2.41583V0.655329L15.3251 0.667324L16.1195 0.679319L16.3106 0.797554ZM6.44253 5.48527V6.12997H5.79782H5.15312V5.48527V4.84057H5.79782H6.44253V5.48527ZM14.8432 5.48527V6.12997H14.1985H13.5538V5.48527V4.84057H14.1985H14.8432V5.48527ZM4.52796 6.05569C4.52796 6.51152 4.73251 6.73083 5.20197 6.7783L5.46571 6.80499V8.86342V10.9219L5.28503 10.7536C5.08795 10.5701 4.79205 10.4141 4.52358 10.3522C4.42836 10.3303 3.81797 10.3122 3.15065 10.3117L1.94916 10.3108V8.43401C1.94916 6.40473 1.9467 6.43103 2.16418 6.14587C2.21665 6.0771 2.35141 5.97505 2.46367 5.91909C2.66638 5.81809 2.67427 5.81739 3.59787 5.81739H4.52796V6.05569ZM7.73193 8.06407V10.3108H7.17358C6.80332 10.3108 6.53943 10.3305 6.39021 10.3694C6.26646 10.4016 6.15725 10.428 6.14756 10.428C6.13787 10.428 6.12994 9.61292 6.12994 8.61676V6.8055L6.38282 6.7819C6.64906 6.75705 6.80895 6.69457 6.91976 6.57212C7.03049 6.44974 7.10676 6.22214 7.10676 6.014V5.81739H7.41934H7.73193V8.06407ZM11.5945 6.12325C11.5767 6.5155 11.4436 6.75361 11.1407 6.93526C10.894 7.08323 10.7371 7.10679 9.99815 7.10679C9.25916 7.10679 9.10229 7.08323 8.85558 6.93526C8.55269 6.75361 8.41961 6.5155 8.40179 6.12325L8.38788 5.81739H9.99815H11.6084L11.5945 6.12325ZM12.8895 6.014C12.8895 6.22214 12.9658 6.44974 13.0765 6.57212C13.1873 6.69457 13.3472 6.75705 13.6135 6.7819L13.8664 6.8055V8.61676C13.8664 9.61292 13.8584 10.428 13.8487 10.428C13.839 10.428 13.7298 10.4016 13.6061 10.3694C13.4569 10.3305 13.193 10.3108 12.8227 10.3108H12.2644V8.06407V5.81739H12.577H12.8895V6.014ZM17.5999 5.95516C17.7183 6.02838 17.8361 6.1463 17.9094 6.26465L18.0276 6.45588L18.0384 8.3833L18.0492 10.3108L16.8467 10.3117C16.1792 10.3122 15.5679 10.3303 15.4728 10.3522C15.2151 10.4116 14.8972 10.5805 14.7035 10.7608L14.5306 10.9219V8.86342V6.80499L14.7943 6.7783C15.2646 6.73075 15.4683 6.51167 15.4683 6.05378V5.81356L16.4386 5.82524L17.4088 5.83692L17.5999 5.95516ZM8.56738 7.53288C8.8423 7.70077 9.06673 7.73195 10.0011 7.73195C10.7733 7.73195 10.9209 7.72195 11.1375 7.6551C11.2743 7.61282 11.4213 7.55183 11.4639 7.51955C11.5066 7.48732 11.5547 7.46036 11.5708 7.45969C11.587 7.45899 11.6001 8.10021 11.6001 8.8846V10.3108H9.99815H8.39616V8.8846C8.39616 8.10021 8.40726 7.45844 8.42086 7.45844C8.43445 7.45844 8.50037 7.49193 8.56738 7.53288ZM4.56703 11.0563C4.78381 11.1544 4.93885 11.2979 5.04927 11.5025C5.12788 11.6482 5.13441 11.7228 5.14586 12.6063L5.15816 13.5538H3.34585C1.31938 13.5538 1.25026 13.5463 0.9723 13.2951C0.703127 13.0519 0.65964 12.9078 0.660616 12.2618C0.661593 11.6196 0.700939 11.4813 0.951943 11.2375C1.20982 10.9871 1.25249 10.9814 2.90644 10.9789C4.31919 10.9768 4.39972 10.9806 4.56703 11.0563ZM13.5297 11.0225C13.7555 11.0892 14.0804 11.4189 14.1415 11.6434C14.2007 11.8606 14.1677 12.4414 14.0796 12.7333C13.7873 13.7023 12.9658 14.498 12.0048 14.7429C11.5822 14.8506 11.6001 14.8658 11.6001 14.3996C11.6001 14.0436 11.5895 13.9793 11.5113 13.8633C11.4022 13.7015 11.1902 13.5538 11.0669 13.5538C10.9767 13.5538 10.975 13.5465 10.9741 13.1728C10.9731 12.727 10.9024 12.5248 10.6963 12.3777C10.5719 12.289 10.5337 12.2839 9.99815 12.2839C9.46262 12.2839 9.4244 12.289 9.30003 12.3777C9.09385 12.5248 9.0232 12.727 9.02219 13.1728C9.02133 13.5465 9.01957 13.5538 8.92943 13.5538C8.80612 13.5538 8.59407 13.7015 8.48501 13.8633C8.40679 13.9793 8.39616 14.0436 8.39616 14.3996C8.39616 14.8658 8.4141 14.8506 7.99153 14.7429C7.03049 14.498 6.20895 13.7023 5.91664 12.7333C5.82814 12.44 5.79568 11.861 5.85526 11.6392C5.912 11.4281 6.2331 11.0932 6.44284 11.0264C6.64676 10.9615 13.3107 10.9578 13.5297 11.0225ZM18.7206 11.0361C18.936 11.1095 19.1634 11.3203 19.2624 11.5384C19.3212 11.6678 19.335 11.7963 19.3357 12.2208C19.3367 12.8561 19.2968 13.0066 19.0638 13.2469C18.7682 13.5516 18.7512 13.5538 16.6529 13.5538H14.8432L14.844 12.6454C14.8448 11.8161 14.8518 11.7216 14.9245 11.5611C15.0313 11.325 15.1749 11.1791 15.4097 11.0681C15.6043 10.9762 15.6113 10.9757 17.0731 10.9754C18.3031 10.9751 18.5702 10.9849 18.7206 11.0361ZM10.3107 13.2217V13.5538H9.99815H9.68556V13.2217V12.8896H9.99815H10.3107V13.2217ZM3.1687 14.1706L5.15019 14.1817L5.16141 16.4784L5.17266 18.7751L5.31254 19.0568L5.45242 19.3385L3.37531 19.3278L1.29824 19.317L1.10702 19.1988C0.988554 19.1255 0.870789 19.0078 0.797527 18.8893L0.679293 18.698L0.668665 16.3034L0.657999 13.9087L0.922638 14.0341L1.18724 14.1594L3.1687 14.1706ZM19.2995 18.6758C19.233 18.9061 19.0497 19.1214 18.8245 19.2336L18.6179 19.3366H16.5814H14.5448L14.6843 19.0558L14.8236 18.7751L14.8349 16.4784L14.8461 14.1817L16.8276 14.1706L18.8091 14.1594L19.063 14.0395L19.317 13.9196L19.3285 16.2276C19.336 17.7377 19.326 18.5841 19.2995 18.6758ZM6.2651 14.5054C6.7757 14.9925 7.51206 15.3502 8.21057 15.4506C8.37389 15.474 8.39616 15.4886 8.39616 15.5724C8.39616 15.7937 8.64822 16.0677 8.89762 16.1176L9.02133 16.1424V17.741V19.3396L7.73853 19.3283L6.45577 19.317L6.26459 19.1988C6.1462 19.1255 6.02839 19.0077 5.95513 18.8893L5.8369 18.6981L5.82623 16.3523L5.81556 14.0065L5.96138 14.1806C6.04156 14.2764 6.17824 14.4226 6.2651 14.5054ZM14.1419 18.6758C14.0754 18.9061 13.8921 19.1214 13.6669 19.2336L13.4603 19.3366H12.2176H10.975V17.7395V16.1424L11.0987 16.1176C11.3461 16.0681 11.6001 15.7938 11.6001 15.5761C11.6001 15.4919 11.6281 15.4794 11.9555 15.4175C12.7232 15.2724 13.5066 14.8156 13.9877 14.2326L14.1594 14.0245L14.1709 16.28C14.1784 17.7542 14.1683 18.5841 14.1419 18.6758ZM10.9662 14.8334L10.9769 15.4684H9.99912H9.02133V14.8497C9.02133 14.5094 9.03336 14.219 9.04805 14.2043C9.06274 14.1896 9.49794 14.1823 10.0151 14.1881L10.9554 14.1985L10.9662 14.8334ZM10.3107 17.7346V19.3366H9.99815H9.68556V17.7346V16.1326H9.99815H10.3107V17.7346Z" fill="#757575"/>
</svg>
