<svg width="40" height="53" viewBox="0 0 40 53" fill="none" xmlns="http://www.w3.org/2000/svg">
<path d="M28.1176 20.577V21.9488C28.1176 23.0874 27.1985 24.0064 26.0599 24.0064H22.6305V27.4359C22.6305 28.5745 21.7114 29.4935 20.5728 29.4935H19.201C18.0762 29.4935 17.1434 28.5745 17.1434 27.4359V24.0064H13.7139C12.5891 24.0064 11.6562 23.0874 11.6562 21.9488V20.577C11.6562 19.4521 12.5891 18.5193 13.7139 18.5193H17.1434V15.0899C17.1434 13.965 18.0762 13.0322 19.201 13.0322H20.5728C21.7114 13.0322 22.6305 13.965 22.6305 15.0899V18.5193H26.0599C27.1985 18.5193 28.1176 19.4521 28.1176 20.577Z" fill="#E43F12"/>
<path d="M34.9382 31.0707C34.5472 31.0707 34.1631 30.9679 33.8064 30.7552C32.7639 30.1311 32.4209 28.773 33.052 27.7305C35.9464 22.9087 36.015 17.1129 33.2509 12.2157C30.4799 7.32529 25.4729 4.39654 19.8486 4.39654C14.2243 4.39654 9.21048 7.31843 6.44635 12.2157C3.67536 17.1061 3.75081 22.9087 6.64526 27.7305C7.26942 28.773 6.93333 30.1242 5.89078 30.7552C4.84823 31.3794 3.49703 31.0433 2.86602 30.0008C-0.865218 23.8003 -0.954384 16.3379 2.60538 10.0414C6.16514 3.75867 12.6056 0 19.8349 0C27.0642 0 33.5115 3.75867 37.0713 10.0483C40.6379 16.3379 40.5419 23.8003 36.8175 30.0008C36.406 30.6867 35.6721 31.0707 34.9244 31.0707H34.9382Z" fill="#4493D0"/>
<path d="M19.8353 52.8134C17.7707 52.8134 15.8983 51.7571 14.8351 49.9806L2.85267 30.0007C2.22851 28.9582 2.56459 27.607 3.60714 26.9759C4.64969 26.3518 6.00775 26.6879 6.63191 27.7304L18.6212 47.7103C18.9916 48.3345 19.6021 48.4031 19.8421 48.4031C20.0822 48.4031 20.6858 48.3345 21.063 47.7103L33.0523 27.7304C33.6765 26.681 35.0345 26.3449 36.0771 26.9759C37.1196 27.6001 37.4626 28.9582 36.8316 30.0007L24.8422 49.9806C23.7791 51.7502 21.9066 52.8134 19.8421 52.8134H19.8353Z" fill="#FFD548"/>
</svg>
