<svg width="18" height="20" viewBox="0 0 18 20" fill="none" xmlns="http://www.w3.org/2000/svg">
<path fill-rule="evenodd" clip-rule="evenodd" d="M10.807 0.00849143C10.7425 0.0177979 10.4522 0.0618667 10.1618 0.106444C9.87151 0.150982 9.40521 0.246118 9.12563 0.317832C8.84604 0.389508 8.45893 0.504235 8.26537 0.572664C8.07181 0.641133 7.73521 0.781042 7.51737 0.883569C7.29949 0.986096 6.99156 1.15369 6.83308 1.25598C6.67456 1.35828 6.40635 1.55844 6.23704 1.70081C6.06772 1.84319 5.81567 2.10044 5.67689 2.27249C5.52646 2.45901 5.33955 2.75901 5.21399 3.01544C5.09113 3.26637 4.97097 3.58404 4.92557 3.77795C4.88279 3.96075 4.83353 4.17867 4.81609 4.26219L4.78445 4.41407L4.31561 4.17057C4.05773 4.03665 3.67491 3.81455 3.46489 3.67702C3.25487 3.5395 3.00853 3.3877 2.91746 3.33968C2.7928 3.27395 2.68425 3.25209 2.47818 3.25123C2.24434 3.25022 2.17462 3.26715 1.99984 3.36737C1.85379 3.45109 1.63118 3.6694 1.2222 4.12987C0.907035 4.48473 0.616776 4.84545 0.577204 4.93147C0.534974 5.02321 0.505217 5.1768 0.505217 5.30295C0.505217 5.42843 0.535052 5.58316 0.576814 5.67442C0.616229 5.76045 0.734593 5.91092 0.839896 6.00883C0.945238 6.1067 1.23374 6.31926 1.48106 6.48111C1.72839 6.64296 2.07151 6.85536 2.24356 6.95312C2.41561 7.05084 2.69715 7.20126 2.8692 7.28733C3.04126 7.37343 3.38614 7.53258 3.63558 7.64101C3.88505 7.7494 4.35573 7.92982 4.68157 8.04197L5.27402 8.24577V8.98059C5.27402 9.38471 5.24778 10.0389 5.21571 10.4343C5.18365 10.8297 5.11432 11.5481 5.06169 12.0308C5.00906 12.5135 4.95365 13.063 4.93855 13.2519L4.9111 13.5954L4.67223 13.5702C4.5408 13.5564 4.23095 13.5114 3.98363 13.4702C3.73631 13.4289 3.35799 13.3507 3.14292 13.2964C2.92786 13.2421 2.54074 13.1264 2.28267 13.0394C1.87764 12.9029 1.7802 12.8838 1.57061 12.9C1.40415 12.9128 1.27237 12.9512 1.15158 13.022C1.05465 13.0787 0.932648 13.182 0.880367 13.2514C0.828126 13.3209 0.614352 13.7202 0.405349 14.1389C0.100348 14.7499 0.0214002 14.9432 0.00556362 15.1179C-0.00988192 15.2881 0.00497697 15.3802 0.0736412 15.5398C0.121933 15.652 0.224264 15.7991 0.301062 15.8665C0.37782 15.9339 0.529578 16.0282 0.638244 16.0762C0.746949 16.1241 1.08221 16.2435 1.38331 16.3415C1.6844 16.4396 2.1067 16.5639 2.32177 16.6178C2.53683 16.6717 2.89755 16.7508 3.12337 16.7935C3.34919 16.8363 3.7539 16.8979 4.02273 16.9304C4.29156 16.963 4.64349 17.0007 4.80478 17.0143L5.09805 17.0389L5.20484 17.3003C5.26358 17.444 5.37783 17.6734 5.45874 17.8099C5.53964 17.9465 5.69855 18.1706 5.81187 18.308C5.92519 18.4454 6.13646 18.6561 6.28138 18.7763C6.42629 18.8965 6.68531 19.0818 6.85701 19.188C7.02871 19.2942 7.34544 19.45 7.56086 19.5342C7.77627 19.6183 8.09332 19.7233 8.26537 19.7672C8.43742 19.8113 8.73655 19.8749 8.93011 19.9088C9.12367 19.9426 9.56357 19.9807 9.90768 19.9935C10.2903 20.0076 10.7156 19.9983 11.0026 19.9694C11.2606 19.9435 11.6477 19.8874 11.8628 19.8449C12.0779 19.8023 12.4034 19.7227 12.5862 19.668C12.769 19.6132 13.0621 19.5015 13.2376 19.4197C13.413 19.3379 13.6815 19.1902 13.8342 19.0914C13.9869 18.9927 14.2626 18.767 14.447 18.5901C14.6314 18.413 14.8843 18.1155 15.0093 17.9287C15.1342 17.742 15.2927 17.4433 15.3614 17.2651C15.4301 17.087 15.5112 16.8109 15.5417 16.6516C15.5722 16.4924 15.5973 16.2801 15.5975 16.1798C15.5978 16.0182 15.6265 15.9576 15.8505 15.6456C15.9895 15.452 16.186 15.1468 16.2872 14.9672C16.3884 14.7876 16.4901 14.6351 16.5131 14.6283C16.5362 14.6215 16.6871 14.5774 16.8484 14.5304C17.078 14.4634 17.1727 14.4123 17.2847 14.2947C17.3633 14.2121 17.4657 14.0429 17.5122 13.9187C17.5586 13.7945 17.6384 13.5489 17.6894 13.3729C17.7404 13.1969 17.8102 12.917 17.8445 12.7509C17.8788 12.5848 17.9074 12.3013 17.9081 12.1208C17.9091 11.8555 17.8913 11.7535 17.8153 11.588C17.7637 11.4755 17.678 11.3418 17.6249 11.291C17.5338 11.2038 17.5305 11.1855 17.5639 10.9587C17.5833 10.8267 17.6032 10.2521 17.608 9.68178L17.6168 8.64489L17.7413 8.47296C17.8098 8.37841 17.892 8.21277 17.9241 8.10485C17.9561 7.99692 17.9824 7.81736 17.9824 7.70577C17.9824 7.59421 17.9562 7.35279 17.9242 7.16924C17.8922 6.98569 17.8036 6.62974 17.7273 6.37819C17.6511 6.12661 17.5472 5.83897 17.4965 5.73898C17.4458 5.63896 17.371 5.52701 17.3302 5.49017C17.2895 5.45338 17.1776 5.38886 17.0816 5.34678C16.9856 5.30475 16.798 5.24918 16.6648 5.2233C16.4477 5.18118 16.4119 5.16026 16.3208 5.0227C16.2649 4.9382 16.1614 4.80392 16.0908 4.72431C15.9907 4.6115 15.9168 4.43725 15.7558 3.93436C15.6422 3.5795 15.4806 3.11652 15.3966 2.90557C15.3126 2.69457 15.1893 2.41303 15.1225 2.27992C15.0557 2.14678 14.9096 1.89711 14.7979 1.72506C14.6861 1.55301 14.4903 1.29954 14.3627 1.16178C14.2352 1.02403 14.0164 0.824602 13.8766 0.718556C13.7368 0.61251 13.4794 0.456412 13.3046 0.371638C13.1298 0.286863 12.813 0.172331 12.6008 0.117119C12.2782 0.0331652 12.1087 0.0146306 11.5695 0.00411195C11.2147 -0.00277011 10.8716 -0.000814996 10.807 0.00849143ZM12.0262 0.809039C12.1944 0.832149 12.464 0.894753 12.6253 0.948167C12.7866 1.00158 13.0355 1.11431 13.1784 1.19874C13.3213 1.28312 13.5465 1.45881 13.6789 1.58918C13.8113 1.71954 14.0134 1.97062 14.1279 2.14709C14.2425 2.3236 14.38 2.55599 14.4335 2.66352C14.4871 2.77105 14.5948 3.02166 14.673 3.22046C14.7511 3.41926 14.8151 3.59103 14.8151 3.60222C14.8151 3.61336 14.6903 3.55967 14.5378 3.48292C14.3854 3.40612 14.0818 3.28377 13.8633 3.211C13.6448 3.13823 13.2989 3.0477 13.0945 3.00985C12.8191 2.95878 12.521 2.94095 11.941 2.94095C11.5049 2.94095 11.0292 2.9623 10.8657 2.98925C10.7044 3.0158 10.458 3.06561 10.3183 3.09994C10.1785 3.13428 9.93614 3.21287 9.77973 3.27458C9.62336 3.33628 9.38273 3.45793 9.24501 3.54489C9.10733 3.6319 8.88902 3.81599 8.75986 3.95402C8.63074 4.09206 8.46424 4.31568 8.38987 4.45094C8.3155 4.5862 8.2254 4.78765 8.18959 4.89867C8.13144 5.07901 8.13066 5.1151 8.18212 5.23819C8.21485 5.31659 8.29071 5.40235 8.35812 5.43723C8.42326 5.47089 8.50823 5.49838 8.54691 5.4983C8.58562 5.49823 8.67211 5.46475 8.7391 5.42389C8.82833 5.3695 8.88761 5.28054 8.96061 5.09168C9.01543 4.94981 9.12426 4.7466 9.20242 4.64012C9.28059 4.53364 9.42726 4.38626 9.52834 4.31256C9.62946 4.23889 9.80738 4.13073 9.92375 4.07219C10.0401 4.01366 10.3014 3.92364 10.5044 3.87214C10.7107 3.81982 11.1161 3.75945 11.4234 3.73532C11.8296 3.70342 12.105 3.70373 12.4764 3.73657C12.7531 3.76105 13.1453 3.82315 13.3481 3.87457C13.5508 3.92599 13.8667 4.03833 14.0499 4.12424C14.2332 4.21011 14.5112 4.3689 14.6675 4.47706C14.8239 4.58522 15.0311 4.75598 15.1279 4.85651L15.3038 5.03928L15.1474 5.01535C15.0614 5.00217 14.6009 4.97007 14.1241 4.94402C13.4575 4.90758 13.1142 4.90715 12.6382 4.94207C12.2978 4.96706 11.8838 5.02235 11.7182 5.06489C11.5527 5.10744 11.3152 5.19053 11.1904 5.24953C11.0656 5.30854 10.8723 5.4479 10.7609 5.55923C10.5937 5.72627 10.5435 5.81054 10.4732 6.04187C10.3954 6.29788 10.3895 6.38547 10.4051 7.05404C10.4201 7.69865 10.4328 7.81396 10.512 8.02058C10.5751 8.1852 10.6638 8.31584 10.8091 8.45849C10.9792 8.62534 11.0676 8.67758 11.3027 8.75C11.5395 8.823 11.6771 8.83794 12.0974 8.8365C12.377 8.83556 13.5497 8.82078 14.7033 8.80373L16.8009 8.77268L16.8302 9.23734C16.8477 9.51673 16.8412 9.95843 16.8137 10.345C16.7885 10.6987 16.7615 10.9945 16.7537 11.0023C16.7459 11.0101 16.4168 11.0272 16.0224 11.0402C15.6279 11.0531 14.4866 11.0409 13.4862 11.0129C12.0254 10.9721 11.6211 10.9717 11.4327 11.0111C11.3036 11.0381 11.1277 11.0951 11.0417 11.1379C10.9556 11.1807 10.8178 11.2799 10.7353 11.3582C10.6528 11.4366 10.554 11.5623 10.5158 11.6376C10.4775 11.7128 10.422 11.8712 10.3924 11.9895C10.3567 12.1325 10.3388 12.4405 10.3391 12.9084C10.3394 13.5566 10.3467 13.6306 10.4319 13.8437C10.4827 13.971 10.5923 14.1489 10.6754 14.239C10.7585 14.3291 10.9276 14.4564 11.0514 14.5219C11.1751 14.5873 11.3994 14.6769 11.55 14.721C11.7005 14.7651 11.9728 14.8196 12.1551 14.8421C12.3373 14.8646 12.8652 14.8826 13.3281 14.882C13.7911 14.8813 14.4514 14.8553 14.7955 14.8241C15.1396 14.793 15.4349 14.7671 15.4518 14.7666C15.4687 14.7662 15.4618 14.8054 15.4364 14.8538C15.411 14.9022 15.2711 15.1008 15.1256 15.2952C14.9801 15.4896 14.7298 15.7733 14.5693 15.9258C14.4089 16.0782 14.1741 16.2731 14.0477 16.3588C13.9214 16.4445 13.7094 16.5694 13.5766 16.6364C13.4439 16.7033 13.2063 16.7958 13.0488 16.8419C12.8277 16.9066 12.618 16.9302 12.1314 16.9451C11.6433 16.9601 11.4265 16.95 11.1734 16.9005C10.9671 16.8602 10.7144 16.7721 10.4896 16.6623C10.2433 16.5419 10.0639 16.4199 9.90905 16.2675C9.78583 16.1463 9.61687 15.9416 9.53366 15.8128C9.45041 15.6841 9.32704 15.4354 9.25947 15.2602C9.19194 15.0851 9.09614 14.7624 9.0466 14.5432C8.9971 14.324 8.93484 13.9105 8.90833 13.6243C8.87724 13.2889 8.86853 12.819 8.88378 12.3023C8.89676 11.8614 8.93617 11.2192 8.97133 10.8751C9.01794 10.4187 9.02877 10.0696 9.01133 9.58469C8.99819 9.21908 8.97117 8.8078 8.95131 8.67074C8.92726 8.5051 8.88651 8.39104 8.82974 8.33062C8.78277 8.28061 8.6926 8.22833 8.62934 8.21445C8.56611 8.20057 8.46362 8.21023 8.40156 8.23592C8.33951 8.26161 8.25907 8.32789 8.22286 8.38318C8.16229 8.47562 8.16104 8.54557 8.20738 9.24926C8.25235 9.93297 8.25039 10.09 8.189 10.7187C8.15119 11.1058 8.1113 11.8536 8.10039 12.3805C8.08499 13.1246 8.09504 13.4635 8.1454 13.8985C8.18102 14.2065 8.25993 14.6553 8.3207 14.8959C8.38146 15.1365 8.48817 15.4703 8.55786 15.6377C8.62754 15.8051 8.77167 16.0755 8.87814 16.2386C8.98462 16.4017 9.16234 16.6309 9.27312 16.7481C9.38386 16.8652 9.55439 17.0196 9.65206 17.0913C9.74974 17.163 9.95417 17.2842 10.1064 17.3606C10.2585 17.4369 10.5333 17.543 10.7169 17.5961C10.9005 17.6494 11.2602 17.7131 11.5163 17.7378C11.8565 17.7706 12.1033 17.7714 12.4323 17.7408C12.6801 17.7178 13.0227 17.663 13.1939 17.6191C13.3651 17.5752 13.6683 17.4613 13.8678 17.3659C14.0672 17.2706 14.3048 17.1422 14.3956 17.0807C14.4865 17.0192 14.5828 16.956 14.6097 16.9404C14.6477 16.9182 14.6493 16.9362 14.617 17.0217C14.5942 17.0821 14.5298 17.2107 14.4739 17.3075C14.4179 17.4042 14.2962 17.5828 14.2034 17.7042C14.1106 17.8256 13.9507 17.9997 13.8481 18.0911C13.7455 18.1825 13.5347 18.3407 13.3796 18.4428C13.2246 18.5448 12.9619 18.6848 12.796 18.7539C12.63 18.823 12.3316 18.9208 12.1328 18.9712C11.934 19.0217 11.5808 19.0928 11.3479 19.1294C11.0593 19.1747 10.6876 19.196 10.1814 19.1961C9.67545 19.1963 9.31981 19.1762 9.0665 19.1332C8.86196 19.0984 8.53971 19.025 8.35042 18.9702C8.16112 18.9154 7.89737 18.8248 7.76435 18.7689C7.63128 18.713 7.39924 18.5956 7.2487 18.5079C7.07985 18.4096 6.83214 18.2052 6.60225 17.9746C6.28822 17.6596 6.20032 17.5422 6.0443 17.2292C5.94244 17.0249 5.82501 16.7215 5.78329 16.5551C5.74161 16.3886 5.68686 16.0631 5.6616 15.8317C5.63255 15.5656 5.62422 15.1307 5.639 14.6485C5.65187 14.2291 5.6894 13.622 5.72248 13.2994C5.75553 12.9768 5.81715 12.3962 5.85942 12.009C5.90169 11.6219 5.96324 10.983 5.99616 10.5892C6.02913 10.1954 6.05607 9.47387 6.05607 8.98579C6.05607 8.45611 6.03304 7.90128 5.9989 7.60961C5.96746 7.34086 5.9153 6.99785 5.88296 6.84738C5.85066 6.69688 5.77817 6.38023 5.72186 6.14365C5.64377 5.81539 5.61448 5.56931 5.59822 5.10462C5.58128 4.62076 5.59063 4.42807 5.64361 4.16616C5.68025 3.98492 5.7644 3.70643 5.83056 3.54732C5.89673 3.38825 6.0357 3.13123 6.1394 2.97619C6.2431 2.82114 6.45394 2.57542 6.60796 2.43012C6.76199 2.28485 7.03532 2.06994 7.21538 1.95256C7.39545 1.83521 7.68774 1.67141 7.86496 1.58859C8.04217 1.50581 8.39218 1.3675 8.64279 1.28132C8.89336 1.19514 9.29807 1.08049 9.54215 1.02657C9.78619 0.972606 10.1706 0.901283 10.3965 0.868045C10.6223 0.834808 10.8686 0.801297 10.9439 0.793594C11.0192 0.785891 11.2247 0.776741 11.4005 0.7733C11.5764 0.769859 11.8579 0.78593 12.0262 0.809039ZM3.04661 4.349C3.33617 4.53407 3.84681 4.8196 4.18137 4.98348L4.78973 5.28152L4.83575 5.65393C4.86109 5.85875 4.93464 6.2463 4.9992 6.51513C5.06376 6.78396 5.12793 7.08771 5.14177 7.19012L5.16691 7.37629L4.76947 7.23798C4.55089 7.16189 4.16585 7.01126 3.91387 6.90322C3.66189 6.79522 3.25339 6.59986 3.00606 6.46911C2.75874 6.33835 2.38574 6.12367 2.17717 5.99201C1.96859 5.86036 1.68154 5.66832 1.53925 5.56529C1.35507 5.43195 1.28406 5.35683 1.29282 5.30467C1.29959 5.26432 1.524 4.98215 1.79154 4.67762C2.05908 4.37309 2.31371 4.09886 2.35743 4.06824C2.40115 4.03763 2.45566 4.01256 2.47857 4.01256C2.50145 4.01256 2.7571 4.16397 3.04661 4.349ZM14.9519 5.79588C15.3175 5.82806 15.7947 5.88069 16.0121 5.91279C16.2297 5.9449 16.4935 5.99237 16.5985 6.01829C16.7873 6.06498 16.7902 6.06807 16.8801 6.31962C16.93 6.45941 17.0137 6.74267 17.066 6.94905C17.1184 7.15544 17.1717 7.42817 17.1844 7.55514C17.1973 7.68211 17.1896 7.83238 17.1676 7.88908L17.1274 7.99219L14.7884 8.02089C13.5019 8.03669 12.2734 8.0492 12.0583 8.04869C11.8354 8.04819 11.6009 8.02512 11.5129 7.99509C11.408 7.95927 11.3327 7.89846 11.2783 7.80552C11.2055 7.68125 11.1981 7.60394 11.1981 6.96481C11.1981 6.34683 11.2068 6.24806 11.2697 6.15535C11.3092 6.09728 11.4147 6.01434 11.5044 5.97109C11.594 5.92785 11.7807 5.86348 11.9193 5.8281C12.0579 5.79271 12.3659 5.75005 12.6036 5.73331C12.8414 5.71658 13.3174 5.71063 13.6615 5.72009C14.0056 5.72956 14.5863 5.76366 14.9519 5.79588ZM8.20671 6.50445C8.11295 6.55196 8.05609 6.61641 8.0261 6.7092C7.99877 6.79374 7.99493 6.88848 8.01585 6.96149C8.03431 7.02581 8.07244 7.10143 8.10059 7.12959C8.12874 7.15774 8.20437 7.19587 8.26869 7.21432C8.3417 7.23524 8.43644 7.23141 8.52098 7.20408C8.61756 7.17287 8.67692 7.11833 8.72795 7.01392C8.7884 6.89016 8.79239 6.84609 8.75376 6.72906C8.72862 6.65289 8.67004 6.566 8.62359 6.53593C8.57709 6.5059 8.4951 6.47094 8.44133 6.45824C8.38299 6.44443 8.28836 6.46308 8.20671 6.50445ZM15.0293 11.8181C16.5392 11.8327 17.0694 11.8498 17.0913 11.8843C17.1076 11.9099 17.1212 12.0239 17.1215 12.1378C17.1218 12.2516 17.0942 12.4804 17.06 12.6461C17.0258 12.8119 16.945 13.1147 16.8803 13.319C16.8157 13.5233 16.7425 13.7115 16.7176 13.7371C16.6928 13.7628 16.4613 13.8191 16.2032 13.8622C15.9451 13.9054 15.4436 13.9718 15.0888 14.0098C14.6307 14.0588 14.1203 14.0791 13.3292 14.0796C12.3877 14.0803 12.1723 14.0696 11.941 14.0109C11.7905 13.9726 11.5762 13.8996 11.4648 13.8486C11.327 13.7856 11.2395 13.7142 11.1911 13.6255C11.1303 13.5141 11.1204 13.4058 11.1235 12.8889C11.1256 12.5497 11.1478 12.2095 11.1739 12.1165C11.2017 12.0177 11.2601 11.9244 11.3179 11.8865C11.3713 11.8515 11.4718 11.8081 11.5412 11.7902C11.6106 11.7723 11.9664 11.7668 12.332 11.778C12.6976 11.7893 13.9114 11.8073 15.0293 11.8181ZM2.14702 13.8238C2.39497 13.9072 2.78392 14.0212 3.01126 14.0771C3.23865 14.1329 3.62522 14.2121 3.87035 14.2531C4.11544 14.2941 4.4348 14.3397 4.57994 14.3543L4.84389 14.381L4.84717 15.072C4.84901 15.452 4.86313 15.8641 4.87857 15.9877L4.90665 16.2126H4.76658C4.68951 16.2126 4.41067 16.1859 4.14692 16.1532C3.88314 16.1205 3.47893 16.0581 3.2487 16.0144C3.01846 15.9708 2.63654 15.8838 2.39997 15.8212C2.1634 15.7586 1.76749 15.6394 1.52016 15.5564C1.27284 15.4733 1.01934 15.3803 0.956774 15.3495C0.894249 15.3188 0.826288 15.2666 0.805799 15.2335C0.778192 15.189 0.857179 14.9957 1.10939 14.4906C1.29689 14.115 1.47754 13.777 1.51082 13.7393C1.54413 13.7017 1.59946 13.6712 1.63376 13.6715C1.66805 13.6718 1.89903 13.7404 2.14702 13.8238Z" fill="#757575"/>
</svg>
