<svg width="20" height="20" viewBox="0 0 20 20" fill="none" xmlns="http://www.w3.org/2000/svg">
<path fill-rule="evenodd" clip-rule="evenodd" d="M5.62456 0.0804006C5.17889 0.223404 4.74476 0.649228 4.60853 1.07699L4.54114 1.28871L3.26807 1.28932C1.83372 1.28996 1.66958 1.31142 1.1969 1.5598C0.652347 1.84596 0.202125 2.42737 0.0607746 3.02697C0.00774314 3.25196 0 4.22657 0 10.6448C0 17.0631 0.00774314 18.0377 0.0607746 18.2627C0.202125 18.8623 0.652347 19.4437 1.1969 19.7299C1.74705 20.019 1.12068 19.9997 10.0002 19.9997C18.8796 19.9997 18.2533 20.019 18.8034 19.7299C19.348 19.4437 19.7982 18.8623 19.9395 18.2627C19.9926 18.0377 20.0003 17.0631 20.0003 10.6448C20.0003 4.22657 19.9926 3.25196 19.9395 3.02697C19.7982 2.42737 19.348 1.84596 18.8034 1.5598C18.3308 1.31146 18.1665 1.28996 16.7332 1.28932L15.4611 1.28871L15.3871 1.07074C15.2353 0.624386 14.8183 0.220783 14.3614 0.0781826C14.1127 0.000550976 13.984 -0.00170748 9.98584 0.000470239C6.03389 0.00264796 5.85669 0.00591462 5.62456 0.0804006ZM14.2749 0.738797C14.5036 0.860588 14.7589 1.13897 14.7589 1.26653C14.7589 1.27875 12.6175 1.28871 10.0002 1.28871C7.38286 1.28871 5.24144 1.27843 5.24144 1.26589C5.24144 1.21463 5.33839 1.05993 5.43792 0.952415C5.54765 0.83385 5.71147 0.734643 5.88645 0.680765C5.94202 0.663625 7.82042 0.652777 10.0606 0.656608C13.95 0.663303 14.1402 0.667013 14.2749 0.738797ZM18.0739 1.97929C18.5151 2.07293 18.9615 2.40221 19.1512 2.77403C19.2719 3.01072 19.3563 3.36537 19.3563 3.63621V3.86971H16.13H12.9038V3.22446V2.57921H10.0002H7.09653V3.22446V3.86971H3.87029H0.64404V3.64988C0.64404 2.82856 1.10785 2.19988 1.86401 1.99627C2.04286 1.94812 3.30001 1.93884 9.96793 1.93662C15.6671 1.93469 17.9195 1.94654 18.0739 1.97929ZM12.2585 3.54708V3.86971H10.0002H7.74178V3.54708V3.22446H10.0002H12.2585V3.54708ZM19.3563 8.70908V12.9032H19.0336H18.711V10.9675V9.0317H18.3884H18.0658V7.74121V6.45071H14.8395H11.6133V7.89574V9.34078L11.3463 9.20641C11.1994 9.13248 11.0543 9.07203 11.0237 9.07203C10.9823 9.07203 10.968 9.00727 10.9678 8.81998C10.9675 8.46441 10.9062 8.28402 10.715 8.0767C10.5185 7.86352 10.3935 7.79254 10.1556 7.75923C9.89293 7.72245 9.77372 7.6662 9.7231 7.55509C9.69459 7.49254 9.67745 7.18024 9.67729 6.72103C9.67717 6.31057 9.65745 5.91583 9.63257 5.82562C9.57268 5.60874 9.229 5.26506 9.01212 5.20517C8.80729 5.14863 8.61202 5.14863 8.4072 5.20517C8.19031 5.26506 7.84664 5.60874 7.78675 5.82562C7.76187 5.91583 7.74215 6.31057 7.74203 6.72103C7.74187 7.18024 7.72473 7.49254 7.69621 7.55509C7.6456 7.6662 7.52639 7.72245 7.26369 7.75923C7.02584 7.79254 6.90078 7.86352 6.7043 8.0767C6.51315 8.28402 6.45181 8.46441 6.45153 8.81998C6.45141 8.95863 6.43463 9.07203 6.41426 9.07203C6.3939 9.07203 6.35139 9.08195 6.31986 9.09405C6.28106 9.10893 6.21254 9.03078 6.1087 8.85317C5.9127 8.51805 5.62653 8.19695 5.36666 8.02064L5.16288 7.88235L5.16159 7.25727C5.16091 6.91347 5.1403 6.55959 5.11582 6.47087C5.05593 6.25399 4.71226 5.91031 4.49537 5.85042C4.28676 5.79283 3.45382 5.79283 3.2452 5.85042C3.02832 5.91031 2.68464 6.25399 2.62475 6.47087C2.60028 6.55959 2.57886 6.91347 2.57721 7.25727L2.57414 7.88235L2.32621 8.06383C2.01632 8.29064 1.72919 8.64274 1.54727 9.019C1.30913 9.51149 1.29078 9.68018 1.28997 11.3808L1.28929 12.9032H0.966664H0.64404V8.70908V4.51496H10.0002H19.3563V8.70908ZM8.84447 5.85022C9.00954 5.92543 9.03228 6.04339 9.03253 6.82564C9.03265 7.2294 9.05216 7.6297 9.07588 7.71519C9.12314 7.8853 9.3883 8.19865 9.5603 8.28757C9.6201 8.3185 9.74811 8.35488 9.84469 8.36843C10.2282 8.42211 10.3228 8.5178 10.3228 8.85212V9.0317H8.70966H7.09653V8.85212C7.09653 8.5178 7.1911 8.42211 7.57462 8.36843C7.67121 8.35488 7.79921 8.3185 7.85902 8.28757C8.03102 8.19865 8.29618 7.8853 8.34344 7.71519C8.36715 7.6297 8.38667 7.2294 8.38679 6.82564C8.38703 6.05638 8.41059 5.92644 8.56303 5.85264C8.67736 5.79727 8.72728 5.79683 8.84447 5.85022ZM4.32773 6.49547C4.48219 6.56584 4.51554 6.69792 4.51554 7.239V7.74121H3.87029H3.22504V7.239C3.22504 6.70897 3.25879 6.56673 3.40103 6.49789C3.51754 6.44147 4.20525 6.4397 4.32773 6.49547ZM17.4205 8.06383V9.0317H15.4848H13.549V10.7686V12.5054L13.4381 12.4282C13.2504 12.2974 13.069 12.258 12.6558 12.258H12.2585V9.67695V7.09596H14.8395H17.4205V8.06383ZM12.9038 8.06383V8.38646H14.8395H16.7753V8.06383V7.74121H14.8395H12.9038V8.06383ZM4.93656 8.50579C5.17357 8.66883 5.45595 8.99105 5.58 9.24004L5.68303 9.4468L5.5579 9.58932C5.43357 9.73095 5.2012 10.1754 5.20115 10.2718C5.20111 10.3111 4.91208 10.3222 3.89045 10.3222H2.57979V11.6127V12.9032H2.25716H1.93454V11.4588C1.93454 10.5955 1.95212 9.91812 1.97825 9.77511C2.06532 9.29835 2.36843 8.82482 2.7799 8.52281L2.9629 8.38847L3.86303 8.38746L4.76315 8.38646L4.93656 8.50579ZM11.0689 9.78415C11.2576 9.88601 11.4127 10.044 11.5179 10.2415C11.5838 10.3653 11.5947 10.4984 11.6059 11.3203L11.6186 12.258H9.29171C7.58261 12.258 6.92066 12.271 6.79875 12.307C6.61836 12.3603 6.20932 12.7302 6.20932 12.8401C6.20932 12.889 6.16354 12.9032 6.00554 12.9032H5.8018L5.81398 11.6429C5.82503 10.5049 5.8335 10.369 5.90137 10.2415C6.0424 9.97679 6.25279 9.80068 6.5317 9.71393C6.58727 9.69667 7.59459 9.68579 8.77015 9.68982C10.8762 9.697 10.9099 9.69841 11.0689 9.78415ZM18.0658 11.2901V12.9032H17.8926H17.7195L17.6454 12.6852C17.436 12.0691 16.7911 11.6127 16.13 11.6127C15.4693 11.6127 14.8028 12.0856 14.6099 12.6915L14.5425 12.9032H14.3684H14.1943V11.2901V9.67695H16.13H18.0658V11.2901ZM5.16079 11.9353V12.9032H4.19291H3.22504V11.9353V10.9675H4.19291H5.16079V11.9353ZM6.45128 11.2901V11.6127H6.77391H7.09653V11.2901V10.9675H6.77391H6.45128V11.2901ZM7.74178 11.2901V11.6127H9.35491H10.968V11.2901V10.9675H9.35491H7.74178V11.2901ZM16.5388 12.36C16.7579 12.4706 17.0172 12.7531 17.0172 12.881C17.0172 12.8932 16.618 12.9032 16.13 12.9032C15.6421 12.9032 15.2428 12.8929 15.2428 12.8804C15.2428 12.8291 15.3398 12.6744 15.4393 12.5669C15.7109 12.2734 16.1891 12.1834 16.5388 12.36ZM13.0386 12.948C13.0926 12.9726 13.157 13.037 13.1816 13.091C13.2132 13.1603 13.2264 14.0988 13.2264 16.2725V19.3557H10.0002H6.77391V16.2725C6.77391 14.0924 6.78706 13.1604 6.81884 13.0907C6.84356 13.0364 6.90252 12.9733 6.9499 12.9504C7.0748 12.8899 12.9061 12.8876 13.0386 12.948ZM6.12866 16.4521V19.3557H4.12072C1.97971 19.3557 1.86933 19.3471 1.48411 19.1506C1.25953 19.036 0.954445 18.7232 0.833864 18.4838C0.653839 18.1264 0.64404 17.983 0.64404 15.704V13.5485H3.38635H6.12866V16.4521ZM19.3563 15.7177C19.3563 18.0329 19.3494 18.1271 19.1512 18.5156C19.0366 18.7402 18.7238 19.0453 18.4844 19.1659C18.1299 19.3445 17.975 19.3557 15.8659 19.3557H13.8717V16.4521V13.5485H16.614H19.3563V15.7177ZM9.03228 14.6776V15.1616H8.54835H8.06441V16.1294V17.0973H8.54835H9.03228V17.5813V18.0652H10.0002H10.968V17.5813V17.0973H11.452H11.9359V16.1294V15.1616H11.452H10.968V14.6776V14.1937H10.0002H9.03228V14.6776ZM10.3228 15.3229V15.8068H10.8067H11.2907V16.1294V16.4521H10.8067H10.3228V16.936V17.4199H10.0002H9.67753V16.936V16.4521H9.19359H8.70966V16.1294V15.8068H9.19359H9.67753V15.3229V14.839H10.0002H10.3228V15.3229Z" fill="#757575"/>
</svg>
