<svg width="20" height="21" viewBox="0 0 20 21" fill="none" xmlns="http://www.w3.org/2000/svg">
<path d="M0.499412 10.5C0.499412 5.25312 4.75126 0.999999 9.9958 0.999999C15.2403 1 19.4922 5.25312 19.4922 10.5C19.4922 15.7469 15.2403 20 9.9958 20C4.75126 20 0.499411 15.7469 0.499412 10.5Z" stroke="#757575"/>
<path d="M10.614 7.824C10.7073 7.824 10.7867 7.852 10.852 7.908C10.908 7.97333 10.936 8.05267 10.936 8.146L10.936 14.978C10.936 15.0713 10.908 15.146 10.852 15.202C10.7867 15.2673 10.7073 15.3 10.614 15.3L9.956 15.3C9.86267 15.3 9.788 15.2673 9.732 15.202C9.676 15.146 9.648 15.0713 9.648 14.978L9.648 8.146C9.648 8.05267 9.676 7.97333 9.732 7.908C9.788 7.852 9.86267 7.824 9.956 7.824L10.614 7.824ZM10.74 5.5C10.8333 5.5 10.9127 5.528 10.978 5.584C11.034 5.64933 11.062 5.72867 11.062 5.822L11.062 6.704C11.062 6.80667 11.034 6.886 10.978 6.942C10.9127 7.00733 10.8333 7.04 10.74 7.04L9.844 7.04C9.75067 7.04 9.676 7.00733 9.62 6.942C9.55467 6.886 9.522 6.80667 9.522 6.704L9.522 5.822C9.522 5.72867 9.55467 5.64933 9.62 5.584C9.676 5.528 9.75067 5.5 9.844 5.5L10.74 5.5Z" fill="#757575"/>
</svg>
