<svg width="17" height="20" viewBox="0 0 17 20" fill="none" xmlns="http://www.w3.org/2000/svg">
<path fill-rule="evenodd" clip-rule="evenodd" d="M6.49117 0.0313216C4.07136 0.240908 2.21287 0.747687 1.0646 1.51105C0.64678 1.78887 0.296724 2.16001 0.12328 2.50918L0 2.7574V10.0015V17.2457L0.113154 17.4906C0.646416 18.6449 2.69072 19.5298 5.68657 19.9033C6.71265 20.0312 9.44143 20.0325 10.4426 19.9055C13.3931 19.5313 15.3572 18.6871 15.9755 17.5275L16.0981 17.2976V10.0275V2.7574L15.9849 2.51245C15.4581 1.37214 13.3368 0.456986 10.4118 0.108177C9.59369 0.0106018 7.25889 -0.0351479 6.49117 0.0313216ZM10.5631 0.782428C12.4707 1.03454 13.8922 1.49033 14.818 2.14671C15.8595 2.8852 15.6004 3.75341 14.1258 4.4663C11.0397 5.95838 4.96507 5.94265 1.92139 4.43467C0.888823 3.92311 0.475673 3.3507 0.718962 2.76872C0.823547 2.51858 1.35525 2.05906 1.83056 1.80798C2.66304 1.36835 4.09343 0.976384 5.5824 0.779883C6.91455 0.604102 9.22275 0.605297 10.5631 0.782428ZM6.19169 1.09702C3.95743 1.32914 2.3726 1.93432 2.00385 2.69602C1.33266 4.08259 3.99773 5.17581 8.04905 5.17581C12.0581 5.17581 14.6962 4.11894 14.1221 2.74276C13.8149 2.00604 12.4893 1.44676 10.3306 1.14297C9.51257 1.02785 7.11364 1.00121 6.19169 1.09702ZM9.1136 1.6954C10.9745 1.8126 12.4064 2.14464 13.1793 2.63812C13.6208 2.92 13.6656 3.20659 13.3101 3.47351C12.7441 3.8984 11.6868 4.21823 10.1522 4.42885C9.23262 4.55504 6.85509 4.55421 5.94591 4.42735C3.93396 4.14667 2.5705 3.61465 2.5705 3.11026C2.5705 2.57669 4.10148 1.99306 6.07573 1.77402C7.26964 1.64155 7.97074 1.62337 9.1136 1.6954ZM6.5431 2.19491C5.00718 2.32224 4.16967 2.5326 3.95006 2.84615C3.76135 3.11556 3.93983 3.47559 4.34186 3.63646C5.67634 4.1704 10.2781 4.18775 11.6776 3.66414C12.1983 3.46936 12.3792 3.08098 12.0859 2.78773C11.8108 2.51256 11.0827 2.33086 9.78868 2.21433C9.24804 2.16567 7.05419 2.15253 6.5431 2.19491ZM10.0483 2.88728C10.6804 2.96284 11.1918 3.0546 11.2181 3.09713C11.2446 3.14007 10.8437 3.22165 10.1522 3.31398C9.51969 3.39847 6.55624 3.39842 5.95759 3.31398C5.18842 3.2054 4.84594 3.13545 4.89003 3.09588C4.98179 3.01347 6.02578 2.87487 7.01046 2.81427C7.53375 2.78207 9.57977 2.83125 10.0483 2.88728ZM1.69565 5.05533C3.00572 5.69193 4.87913 6.09573 6.97151 6.19258L7.71151 6.22686V7.26041C7.71151 7.82888 7.69302 8.28258 7.67043 8.26861C7.57654 8.21061 5.30874 7.24929 5.26574 7.24929C5.23998 7.24929 5.2189 7.56092 5.2189 7.94182V8.6344L4.9982 8.62988L4.7775 8.62542L4.76202 8.94998L4.7466 9.27454H4.98272H5.2189V10.7026C5.2189 11.6848 5.23629 12.1306 5.27462 12.1306C5.30526 12.1306 5.82523 11.9176 6.43005 11.6573C7.03487 11.3969 7.57067 11.1722 7.62063 11.1579C7.70346 11.1342 7.71151 11.1853 7.71151 11.7351V12.3384H7.52975H7.348V12.6759V13.0134H7.52975H7.71151V13.6626C7.71151 14.0196 7.70185 14.3117 7.69006 14.3117C7.67827 14.3117 7.15046 14.0897 6.51713 13.8184C5.8838 13.547 5.33262 13.325 5.29227 13.325C5.231 13.325 5.2189 13.5391 5.2189 14.6203V15.9155L4.9982 15.9315L4.7775 15.9475L4.76202 16.2425L4.74655 16.5375L4.98272 16.5729L5.2189 16.6084V17.4074C5.2189 17.8468 5.23058 18.2064 5.24486 18.2064C5.25914 18.2064 5.74406 18.0044 6.3224 17.7576C6.90079 17.5107 7.44989 17.2767 7.54274 17.2375L7.71151 17.1664V18.2778V19.3893L7.25713 19.3669C6.50836 19.3301 5.58734 19.2436 5.06311 19.1608C2.97778 18.8316 1.30176 18.1353 0.810877 17.3942L0.649117 17.15V16.1723C0.649117 15.6345 0.666669 15.195 0.688064 15.1956C0.709459 15.1962 0.785431 15.2425 0.856834 15.2983C0.928237 15.3542 1.00177 15.4004 1.0202 15.4011C1.06102 15.4025 1.39752 14.8852 1.36984 14.8636C1.35899 14.8552 1.19245 14.7371 0.99964 14.6014L0.649117 14.3545V12.9268V11.499L0.824015 11.6071C0.920188 11.6666 1.01257 11.7152 1.02924 11.7152C1.04591 11.7152 1.13455 11.6062 1.22621 11.473L1.3928 11.2309L1.26334 11.1225C1.19214 11.0629 1.02483 10.9387 0.891523 10.8465L0.649117 10.6788V9.27137V7.86398L0.824015 7.97204C0.920188 8.0315 1.01257 8.08016 1.02924 8.08016C1.08231 8.08016 1.38277 7.61363 1.35676 7.57157C1.34305 7.54939 1.1788 7.42689 0.991695 7.29935L0.65161 7.06754L0.650363 5.73046L0.649117 4.39339L0.955656 4.61907C1.12427 4.74318 1.45724 4.93953 1.69565 5.05533ZM15.449 5.73077V7.06837L15.1075 7.29987C14.9198 7.42725 14.7552 7.54913 14.7418 7.57079C14.7284 7.59244 14.7963 7.7272 14.8926 7.87026L15.0677 8.13033L15.2425 8.00138C15.3386 7.93045 15.4244 7.87244 15.4331 7.87244C15.4418 7.87244 15.449 8.50375 15.449 9.27537V10.6782L15.0855 10.9434C14.8855 11.0893 14.722 11.2191 14.722 11.2319C14.722 11.2747 15.0382 11.7152 15.0689 11.7152C15.0855 11.7152 15.1779 11.6666 15.2741 11.6071L15.449 11.499V12.9287V14.3584L15.0985 14.6044C14.9057 14.7397 14.7382 14.8578 14.7262 14.8668C14.6958 14.8896 14.8116 15.0971 14.9551 15.2767L15.076 15.4282L15.2345 15.3113C15.3215 15.2471 15.4055 15.1945 15.4209 15.1945C15.4364 15.1945 15.449 15.6339 15.449 16.171V17.1474L15.2974 17.3864C14.6567 18.3968 11.9893 19.2248 8.91886 19.3664L8.38659 19.3909V18.2738C8.38659 17.4006 8.40077 17.1624 8.4515 17.1831C8.48723 17.1976 9.03841 17.4338 9.67636 17.7079C10.3144 17.982 10.846 18.2064 10.8577 18.2064C10.8695 18.2064 10.8792 17.8456 10.8792 17.4046V16.603L11.1153 16.5675L11.3514 16.5321L11.336 16.2398L11.3206 15.9475L11.1008 15.9315L10.881 15.9156L10.8671 14.5978L10.8532 13.2799L9.71151 13.7702C9.08353 14.0399 8.52856 14.2736 8.47819 14.2896C8.39401 14.3163 8.38659 14.2659 8.38659 13.666V13.0134H8.56834H8.75009V12.6759V12.3384H8.56834H8.38659V11.7412C8.38659 11.4127 8.40518 11.144 8.42787 11.144C8.45057 11.144 8.99037 11.366 9.62744 11.6373C10.2646 11.9087 10.8068 12.1306 10.8325 12.1306C10.859 12.1306 10.8792 11.5135 10.8792 10.7026V9.27454H11.1154H11.3515L11.3361 8.94998L11.3206 8.62542L11.0999 8.62988L10.8792 8.6344V7.94182C10.8792 7.56092 10.8659 7.24929 10.8496 7.24929C10.8334 7.24929 10.3602 7.44564 9.79808 7.6856C9.236 7.92557 8.68845 8.15806 8.58132 8.20225L8.38659 8.28258V7.24664V6.21071L8.78904 6.21019C9.67854 6.20899 11.0978 6.04043 12.1255 5.81397C13.4048 5.53199 14.7158 5.00683 15.2153 4.57618C15.3295 4.47767 15.4289 4.39619 15.436 4.39515C15.4431 4.39406 15.449 4.99509 15.449 5.73077ZM2.33833 8.1392C2.2273 8.44465 2.15616 8.6693 2.16748 8.67839C2.22206 8.72201 3.42318 9.06682 3.52055 9.06682C3.56734 9.06682 3.6726 8.54872 3.64201 8.46901C3.62571 8.42653 3.57071 8.39127 3.51982 8.39065C3.44146 8.38971 3.25862 8.33913 2.45428 8.09569C2.40422 8.08052 2.35261 8.09989 2.33833 8.1392ZM13.1122 8.25797C12.8123 8.34806 12.533 8.43411 12.4916 8.44917C12.4272 8.47259 12.4259 8.51922 12.4824 8.7717C12.5187 8.93404 12.5609 9.06682 12.5761 9.06682C12.6734 9.06682 13.8743 8.72289 13.9299 8.67911C13.9606 8.65491 13.7487 8.11127 13.7054 8.10317C13.679 8.09823 13.4121 8.16792 13.1122 8.25797ZM7.00724 8.68161L8.06099 9.12732L9.10659 8.68161C9.68165 8.4365 10.1639 8.23595 10.1782 8.23595C10.1924 8.23595 10.2041 8.89026 10.2041 9.68997C10.2041 10.4897 10.1865 11.144 10.165 11.144C10.1435 11.144 9.6613 10.9456 9.0935 10.7032L8.06115 10.2623L6.97754 10.723L5.89398 11.1837V9.70986C5.89398 8.89919 5.90738 8.23595 5.92374 8.23595C5.94009 8.23595 6.42771 8.4365 7.00724 8.68161ZM2.28494 11.9047C2.12526 12.2865 2.12692 12.2887 2.70033 12.4697C2.98594 12.5599 3.29409 12.6482 3.38512 12.6658C3.54989 12.6978 3.55088 12.6967 3.60935 12.4151C3.67021 12.1217 3.65177 12.0268 3.53395 12.0268C3.49599 12.0268 3.25784 11.9657 3.00474 11.891C2.75163 11.8164 2.50497 11.7439 2.45657 11.73C2.39275 11.7116 2.34565 11.7596 2.28494 11.9047ZM13.3978 11.7984C13.2835 11.8408 13.0382 11.9128 12.8525 11.9583C12.6669 12.0038 12.4953 12.0587 12.4712 12.0803C12.4471 12.1019 12.4544 12.2497 12.4874 12.4087C12.5473 12.6972 12.5479 12.6979 12.713 12.6661C12.9984 12.6113 13.852 12.3463 13.9009 12.2974C13.9634 12.2349 13.769 11.7441 13.6766 11.7313C13.6375 11.7258 13.512 11.756 13.3978 11.7984ZM4.78648 12.2688C4.76727 12.288 4.75153 12.4268 4.75153 12.5772C4.75153 12.9043 4.71871 12.8893 5.53577 12.9362L6.13826 12.9708L6.17341 12.6716C6.19273 12.5071 6.19034 12.3561 6.16811 12.3361C6.11364 12.287 4.83078 12.2245 4.78648 12.2688ZM10.4382 12.2734C10.1814 12.283 9.95283 12.3092 9.9304 12.3317C9.90791 12.3542 9.90531 12.5068 9.92463 12.6709L9.95968 12.9693L10.5363 12.9367C11.3694 12.8896 11.3466 12.8984 11.3466 12.6272C11.3466 12.2843 11.3127 12.2328 11.0943 12.2452C10.9903 12.2511 10.695 12.2637 10.4382 12.2734ZM7.11432 14.7775C7.59986 14.985 8.0088 15.1611 8.02308 15.169C8.03736 15.1769 8.5281 14.9794 9.1136 14.7301L10.1782 14.2768L10.1925 14.9921C10.2004 15.3855 10.2004 16.047 10.1925 16.4619L10.1782 17.2165L9.14626 16.7767C8.57868 16.5348 8.08789 16.3369 8.05554 16.3369C8.02319 16.3369 7.53162 16.5356 6.9631 16.7783C6.39458 17.0211 5.92145 17.2197 5.91169 17.2197C5.90198 17.2197 5.89398 16.5534 5.89398 15.7391V14.2584L6.06275 14.3294C6.1556 14.3685 6.62878 14.5701 7.11432 14.7775ZM2.33521 15.4174C2.19438 15.8077 2.15927 15.9462 2.19303 15.9782C2.23795 16.0209 3.00214 16.256 3.32919 16.3277L3.54262 16.3746L3.60182 16.1181C3.68922 15.7395 3.68755 15.7363 3.37001 15.6652C3.20991 15.6293 2.91672 15.5448 2.7184 15.4774C2.45569 15.3881 2.35167 15.3718 2.33521 15.4174ZM13.3616 15.4819C13.1703 15.5475 12.884 15.6303 12.7254 15.6658C12.4107 15.7362 12.4089 15.7397 12.4963 16.1181L12.5555 16.3746L12.7689 16.3277C13.0933 16.2566 13.86 16.0211 13.9044 15.979C13.9419 15.9433 13.8079 15.4634 13.7414 15.3954C13.7238 15.3774 13.5528 15.4163 13.3616 15.4819Z" fill="#757575"/>
</svg>
