<svg width="21" height="20" viewBox="0 0 21 20" fill="none" xmlns="http://www.w3.org/2000/svg">
<path fill-rule="evenodd" clip-rule="evenodd" d="M12.6728 0.132827L12.54 0.265654V1.06172C12.54 1.71992 12.5505 1.8729 12.601 1.94486C12.6345 1.99276 12.7149 2.05929 12.7796 2.09277C12.8532 2.13086 12.9397 2.1443 13.0106 2.12875C13.0729 2.11508 13.1683 2.05109 13.2226 1.98655C13.3209 1.86966 13.3213 1.86618 13.3213 1.0927C13.3213 0.573891 13.3058 0.282219 13.2746 0.213774C13.249 0.157439 13.1795 0.0862987 13.1203 0.0556703C13.0611 0.0250419 12.9661 0 12.9092 0C12.8435 0 12.757 0.0485989 12.6728 0.132827ZM14.8376 0.302768C14.7644 0.381331 14.6198 0.764537 14.2997 1.72843C13.9728 2.71284 13.8682 3.07518 13.8866 3.15925C13.9002 3.22114 13.95 3.30786 13.9972 3.35193C14.0445 3.39604 14.1318 3.44417 14.1913 3.45894C14.252 3.47401 14.3497 3.46499 14.414 3.43835C14.477 3.41225 14.5531 3.35314 14.583 3.30697C14.6129 3.26079 14.835 2.62982 15.0764 1.90486C15.4851 0.677614 15.5122 0.577212 15.4701 0.449737C15.4453 0.374416 15.3872 0.28636 15.3411 0.254052C15.295 0.221743 15.1853 0.195334 15.0975 0.195334C14.9734 0.195334 14.9152 0.219399 14.8376 0.302768ZM17.6773 1.86388C17.6343 1.87364 17.0684 2.41077 16.4198 3.05748C15.7712 3.7042 15.2303 4.27399 15.2178 4.3236C15.2054 4.37325 15.2204 4.4742 15.2512 4.54792C15.282 4.62164 15.3529 4.71192 15.4089 4.74857C15.4806 4.7956 15.5531 4.8083 15.655 4.79178C15.7808 4.77135 15.9488 4.61895 16.963 3.60524C17.9035 2.66518 18.1313 2.41714 18.151 2.31193C18.1644 2.24032 18.1564 2.14008 18.1332 2.08914C18.11 2.03823 18.0507 1.97108 18.0014 1.93994C17.952 1.9088 17.8765 1.87497 17.8335 1.86474C17.7906 1.85446 17.7202 1.85411 17.6773 1.86388ZM10.489 2.0714C10.403 2.08867 10.236 2.13973 10.1178 2.18493C9.99966 2.23009 9.80749 2.33362 9.69079 2.41495C9.5741 2.49629 9.40842 2.64568 9.32263 2.7469C9.16722 2.93028 9.16402 2.94091 8.49437 5.49439L7.82215 8.0578L5.57522 10.3089C4.33946 11.547 3.28263 12.6502 3.28263 12.6502L5.9764 10.9973C7.16962 9.80479 8.16336 8.8291 8.18469 8.8291C8.20602 8.8291 8.8959 9.50167 9.71775 10.3238L11.212 11.8184L7.56888 15.4566C4.10248 18.9183 3.91559 19.0981 3.71639 19.1624C3.58399 19.2051 3.4371 19.2232 3.31689 19.2117C3.21231 19.2017 3.01647 19.139 2.88165 19.0724C2.74683 19.0059 2.52727 18.8582 2.3937 18.7443C2.26013 18.6304 1.88509 18.2584 1.56033 17.9177C1.15849 17.4961 0.944793 17.2402 0.891584 17.1168C0.830523 16.9752 0.816381 16.8712 0.827046 16.6425C0.836696 16.4352 0.867675 16.2943 0.932917 16.1609C0.983665 16.0572 1.14599 15.842 1.29366 15.6827C1.5006 15.4595 5.9764 11.0868 5.9764 10.9973L3.28263 12.6502C3.28263 12.6502 0.978938 14.9122 0.734927 15.1478C0.584949 15.2925 0.392857 15.5167 0.308082 15.6459C0.223347 15.775 0.119234 15.9924 0.0767683 16.1289C0.0343027 16.2655 -0.000271856 16.4765 1.61115e-06 16.5977C0.000236012 16.719 0.0243013 16.9078 0.0534061 17.0171C0.0825499 17.1265 0.153886 17.3106 0.211939 17.4262C0.269992 17.5418 0.398053 17.7511 0.496502 17.8914C0.59495 18.0317 1.00265 18.4718 1.4025 18.8693C1.8672 19.3312 2.21275 19.641 2.3603 19.7277C2.48727 19.8024 2.70682 19.8937 2.84825 19.9306C2.98963 19.9675 3.19524 19.9987 3.30513 19.9999C3.41499 20.0012 3.5986 19.9844 3.71311 19.9627C3.82765 19.941 4.04541 19.8675 4.19703 19.7995C4.46479 19.6793 4.5809 19.5678 8.24368 15.9128C10.3177 13.8431 12.0419 12.1498 12.0751 12.1498C12.1083 12.1498 13.145 11.8857 14.379 11.563C15.6129 11.2402 16.7395 10.9413 16.8826 10.8988C17.0806 10.8399 17.1856 10.7798 17.3219 10.6473C17.4204 10.5516 17.5684 10.369 17.6508 10.2415C17.7332 10.114 17.8343 9.90671 17.8756 9.7808C17.9317 9.60977 17.9504 9.44307 17.9495 9.1221C17.9486 8.78257 17.931 8.64587 17.8657 8.47093C17.8203 8.34916 17.7299 8.17336 17.6649 8.08026C17.5998 7.98717 16.2927 6.66019 14.7601 5.13142C12.5441 2.92095 11.9317 2.33096 11.7691 2.24997C11.6568 2.19395 11.4546 2.12215 11.3199 2.09039C11.1852 2.05862 10.9783 2.03429 10.8601 2.03632C10.7419 2.03835 10.5749 2.05413 10.489 2.0714ZM11.3557 2.93083C11.5028 2.99998 12.1318 3.60594 14.2464 5.71567C16.1759 7.64072 16.9806 8.46898 17.0592 8.61083C17.1573 8.78772 17.1693 8.8482 17.1691 9.16116C17.1689 9.4467 17.1529 9.54261 17.0841 9.67165C17.0375 9.75904 16.9752 9.85054 16.9457 9.87495C16.9028 9.91058 16.2137 9.24086 13.4815 6.50853L10.0707 3.09761L10.2144 3.00885C10.2934 2.96001 10.4314 2.89602 10.5212 2.86668C10.6153 2.8359 10.7865 2.81949 10.926 2.82789C11.0681 2.83648 11.2451 2.87887 11.3557 2.93083ZM16.1101 10.2729C16.0986 10.2846 15.1456 10.5427 13.9923 10.8465L11.8954 11.3989L10.2573 9.76506L8.61923 8.13125L9.15964 6.06782C9.45686 4.93289 9.70869 3.97176 9.71923 3.93192C9.73396 3.87621 10.4752 4.59629 12.9347 7.05558C14.6926 8.81343 16.1216 10.2612 16.1101 10.2729ZM18.0289 4.96601C17.0211 5.3 16.7205 5.41481 16.6518 5.49209C16.5916 5.55975 16.5639 5.64042 16.5639 5.74801C16.5639 5.86955 16.5897 5.93093 16.678 6.01929C16.7504 6.09165 16.8327 6.13349 16.9027 6.13349C16.9634 6.13349 17.6021 5.93788 18.3219 5.69879C19.08 5.44697 19.6673 5.23065 19.7179 5.18467C19.7659 5.141 19.8158 5.04868 19.8288 4.97953C19.8439 4.89917 19.8298 4.81014 19.7899 4.73298C19.7556 4.66657 19.6937 4.5941 19.6523 4.57199C19.6109 4.54984 19.5188 4.53335 19.4476 4.53526C19.3763 4.53722 18.7379 4.73107 18.0289 4.96601ZM18.107 6.72578C18.064 6.74941 17.9985 6.80598 17.9614 6.85153C17.9241 6.89724 17.8935 7.00136 17.893 7.08386C17.8923 7.19771 17.9194 7.2606 18.0063 7.34757L18.1205 7.46176H18.96H19.7994L19.9006 7.34155C19.9581 7.27322 20.0017 7.1729 20.0017 7.10898C20.0017 7.04718 19.9807 6.95053 19.955 6.8942C19.9294 6.83786 19.86 6.76672 19.8007 6.73609C19.7182 6.69343 19.5171 6.6807 18.9391 6.68159C18.4664 6.68234 18.156 6.69882 18.107 6.72578ZM5.87323 12.1986C4.71326 13.36 4.18117 13.9188 4.17132 13.9859C4.16347 14.0396 4.17089 14.1361 4.18785 14.2004C4.20824 14.2777 4.4594 14.5589 4.93168 15.0331C5.32383 15.427 5.69547 15.7761 5.75751 15.809C5.82842 15.8465 5.91558 15.8598 5.99191 15.8447C6.08626 15.826 6.49201 15.4423 7.80316 14.1318C9.16706 12.7686 9.49745 12.4185 9.51671 12.3158C9.53214 12.2336 9.52019 12.1574 9.48308 12.1008C9.45143 12.0525 9.15722 11.7361 8.82933 11.3976C8.50141 11.0591 8.14941 10.7206 8.04706 10.6455C7.91075 10.5455 7.8209 10.509 7.71093 10.509C7.56521 10.509 7.512 10.5579 5.87323 12.1986ZM8.25232 12.5887L7.93048 12.9106L7.52016 12.5016L7.10981 12.0927L7.43152 11.7693L7.7532 11.4459L8.16367 11.8564L8.57419 12.2669L8.25232 12.5887ZM6.65077 14.1907L5.93823 14.9032L5.5276 14.4939L5.11697 14.0847L5.82978 13.3711L6.5426 12.6575L6.95292 13.0678L7.36327 13.4781L6.65077 14.1907Z" fill="#757575"/>
</svg>
