<svg width="16" height="16" viewBox="0 0 16 16" fill="none" xmlns="http://www.w3.org/2000/svg">
<path fill-rule="evenodd" clip-rule="evenodd" d="M13.7669 0.0330563C13.6762 0.0583842 13.5564 0.10187 13.5008 0.129734C13.4452 0.157567 11.7624 1.81603 9.76132 3.81521C7.76026 5.81436 6.10822 7.48591 6.09019 7.5298C6.07212 7.57367 5.95281 8.13429 5.82504 8.77563C5.65479 9.63017 5.5996 9.96566 5.61844 10.0314C5.6326 10.0807 5.66071 10.152 5.6809 10.1897C5.70113 10.2275 5.76252 10.2858 5.8174 10.3192C5.87739 10.3558 5.97382 10.3801 6.05929 10.3801C6.13749 10.3802 6.69399 10.2817 7.29594 10.1612C7.89792 10.0408 8.42643 9.9275 8.47042 9.90953C8.5144 9.89153 10.1928 8.23257 12.2003 6.22293C15.7101 2.7092 15.8529 2.56181 15.9215 2.38116C15.973 2.24588 15.9929 2.1276 15.9927 1.95851C15.9926 1.78334 15.974 1.67997 15.9197 1.55151C15.86 1.41022 15.7403 1.27159 15.2527 0.778868C14.766 0.287055 14.6268 0.164267 14.4831 0.100055C14.3866 0.056944 14.2231 0.013896 14.1198 0.00434714C13.9993 -0.00673577 13.8727 0.00356445 13.7669 0.0330563ZM14.5961 1.40393C14.9564 1.76425 15.0746 1.90169 15.0746 1.96023C15.0746 2.01684 14.9936 2.11877 14.777 2.33445L14.4793 2.6309L13.9242 2.07579L13.3691 1.5207L13.6655 1.22303C13.8812 1.00644 13.9832 0.925356 14.0398 0.925356C14.0983 0.925356 14.2358 1.04357 14.5961 1.40393ZM10.9308 6.1806L8.0389 9.07249L7.35618 9.20965C6.98067 9.2851 6.66891 9.34227 6.66331 9.33669C6.65773 9.33109 6.7149 9.01933 6.79035 8.64386L6.92751 7.96119L9.81903 5.06955L12.7105 2.17791L13.2666 2.73334L13.8226 3.28874L10.9308 6.1806ZM1.43536 2.58736C1.34661 2.60235 1.19536 2.64402 1.09924 2.67996C1.00313 2.71594 0.839985 2.80178 0.736701 2.87075C0.633417 2.93972 0.498043 3.05503 0.435834 3.12697C0.373657 3.19892 0.281613 3.32822 0.231333 3.41432C0.181021 3.50041 0.108418 3.66947 0.0699411 3.79001L0 4.00916V9.2845C0 14.3166 0.0026613 14.5685 0.057575 14.7477C0.089227 14.851 0.159669 15.0201 0.214113 15.1234C0.268526 15.2267 0.397607 15.3958 0.500923 15.4991C0.604238 15.6024 0.773299 15.7315 0.876615 15.7859C0.97993 15.8403 1.14899 15.9108 1.25231 15.9424C1.43148 15.9973 1.68338 16 6.7155 16C11.7476 16 11.9995 15.9973 12.1787 15.9424C12.282 15.9108 12.4511 15.8403 12.5544 15.7859C12.6577 15.7315 12.8268 15.6024 12.9301 15.4991C13.0334 15.3958 13.1625 15.2267 13.2169 15.1234C13.2713 15.0201 13.3418 14.851 13.3734 14.7477C13.4279 14.5699 13.431 14.364 13.431 10.907C13.431 7.26644 13.4308 7.25383 13.3664 7.16764C13.3309 7.12008 13.2641 7.05296 13.2178 7.01842C13.1599 6.97519 13.0851 6.95568 12.977 6.95568C12.869 6.95568 12.7941 6.97519 12.7362 7.01842C12.69 7.05296 12.6231 7.12008 12.5876 7.16764C12.5235 7.25348 12.523 7.27875 12.5074 10.8913L12.4918 14.5285L12.4242 14.6538C12.387 14.7226 12.3166 14.8169 12.2677 14.8632C12.2187 14.9096 12.1153 14.9762 12.0378 15.0113C11.8979 15.0746 11.8613 15.075 6.7155 15.075C1.5697 15.075 1.53311 15.0746 1.39319 15.0113C1.3157 14.9762 1.21179 14.9096 1.16227 14.8632C1.11271 14.8169 1.03888 14.7086 0.998182 14.6225L0.924203 14.4659L0.924578 9.2845C0.924954 4.13912 0.925392 4.10211 0.988727 3.9622C1.02379 3.88471 1.09042 3.78127 1.13675 3.73234C1.18309 3.68344 1.27735 3.61299 1.34623 3.5758L1.47146 3.50824L5.10869 3.49259C8.72125 3.47703 8.74652 3.47649 8.83236 3.41238C8.87992 3.37687 8.94704 3.31003 8.98158 3.26379C9.02481 3.20587 9.04432 3.13104 9.04432 3.02297C9.04432 2.9149 9.02481 2.84007 8.98158 2.78215C8.94704 2.73591 8.87992 2.66907 8.83236 2.63357C8.74633 2.56932 8.72936 2.56898 5.17131 2.56459C3.20528 2.56215 1.52409 2.57239 1.43536 2.58736Z" fill="#4095DA"/>
</svg>
