<svg width="19" height="17" viewBox="0 0 19 17" xmlns="http://www.w3.org/2000/svg">
<path d="M9.44167 17C9.07661 17 8.86261 16.9496 8.56049 16.7986C8.06955 16.5468 4.04131 12.9969 3.33636 12.3298C1.59919 10.6933 0.566948 9.15752 0.1893 7.63434C0.000476227 6.94198 -0.0498768 5.90975 0.0508293 5.17963C0.4033 2.5235 2.24119 0.509383 4.74625 0.0687938C4.99801 0.0184407 5.30013 0.0184407 5.80366 0.0184407C6.38272 0.0184407 6.58414 0.0436173 6.98696 0.144323C7.70449 0.333147 8.29614 0.622677 8.91296 1.07585C9.07661 1.20174 9.26543 1.36538 9.44167 1.54162C9.63049 1.36538 9.80673 1.20174 9.97038 1.07585C10.5872 0.610089 11.1788 0.333147 11.8964 0.144323C12.4754 -0.00673578 13.4573 -0.0445006 14.0741 0.0562055C16.617 0.471618 18.48 2.48574 18.8325 5.17963C18.9332 5.90975 18.8703 6.92939 18.694 7.63434C18.4549 8.60363 17.8758 9.69881 17.1205 10.6429C16.7429 11.1213 16.0757 11.8262 15.5596 12.3298C14.8546 12.9969 10.8264 16.5468 10.3354 16.7986C10.0333 16.9496 9.81932 17 9.45426 17H9.44167ZM9.44167 15.1118H9.45426C10.0459 14.6586 13.2433 11.9143 14.263 10.9576C14.7162 10.5296 15.333 9.87505 15.6477 9.47222C16.2393 8.7421 16.6925 7.87351 16.8687 7.18116C16.982 6.71539 17.0324 5.92233 16.9694 5.44398C16.7177 3.56833 15.4966 2.22139 13.772 1.94444C13.4196 1.8815 12.702 1.91927 12.3747 1.9948C11.8964 2.12068 11.5313 2.29692 11.1159 2.61162C10.8767 2.78786 10.5117 3.16551 10.3732 3.32915C10.2096 3.54315 9.9452 3.89562 9.45426 3.89562C8.96332 3.89562 8.68637 3.54315 8.53532 3.32915C8.40943 3.15292 8.03179 2.78786 7.79261 2.61162C7.3772 2.29692 7.01214 2.12068 6.53378 1.9948C6.33237 1.94444 6.2946 1.93186 5.79107 1.91927C5.66519 1.91927 5.27496 1.91927 5.09872 1.94444C3.39931 2.24656 2.19083 3.58092 1.93907 5.44398C1.87613 5.92233 1.91389 6.72798 2.03977 7.18116C2.3293 8.32669 3.21048 9.5981 4.64554 10.9702C5.66519 11.9269 8.85002 14.6838 9.45426 15.1244L9.44167 15.1118Z" fill="#E43F12"/>
</svg>
