<svg width="107" height="38" viewBox="0 0 107 38" fill="none" xmlns="http://www.w3.org/2000/svg">
<path d="M3.79578 22.1C3.21578 22.1 2.72911 22.0133 2.33578 21.84C1.94245 21.66 1.63911 21.43 1.42578 21.15C1.21911 20.8633 1.10911 20.56 1.09578 20.24C1.09578 20.1867 1.11578 20.14 1.15578 20.1C1.20245 20.0533 1.25578 20.03 1.31578 20.03H1.82578C1.90578 20.03 1.96578 20.05 2.00578 20.09C2.04578 20.13 2.07245 20.1767 2.08578 20.23C2.11911 20.39 2.19911 20.55 2.32578 20.71C2.45911 20.8633 2.64245 20.9933 2.87578 21.1C3.11578 21.2 3.42245 21.25 3.79578 21.25C4.36911 21.25 4.78911 21.15 5.05578 20.95C5.32911 20.7433 5.46578 20.47 5.46578 20.13C5.46578 19.8967 5.39245 19.71 5.24578 19.57C5.10578 19.4233 4.88911 19.2933 4.59578 19.18C4.30245 19.0667 3.92245 18.9433 3.45578 18.81C2.96911 18.67 2.56578 18.5167 2.24578 18.35C1.92578 18.1833 1.68578 17.9767 1.52578 17.73C1.37245 17.4833 1.29578 17.17 1.29578 16.79C1.29578 16.43 1.39245 16.11 1.58578 15.83C1.77911 15.5433 2.05578 15.3167 2.41578 15.15C2.78245 14.9833 3.22578 14.9 3.74578 14.9C4.15911 14.9 4.51911 14.9567 4.82578 15.07C5.13911 15.1767 5.39911 15.3233 5.60578 15.51C5.81245 15.69 5.96911 15.8867 6.07578 16.1C6.18245 16.3067 6.23912 16.51 6.24578 16.71C6.24578 16.7567 6.22912 16.8033 6.19578 16.85C6.16245 16.89 6.10911 16.91 6.03578 16.91H5.50578C5.45911 16.91 5.40911 16.8967 5.35578 16.87C5.30911 16.8433 5.27245 16.7933 5.24578 16.72C5.20578 16.4467 5.05245 16.2167 4.78578 16.03C4.51911 15.8433 4.17245 15.75 3.74578 15.75C3.31245 15.75 2.95911 15.8333 2.68578 16C2.41911 16.1667 2.28578 16.4267 2.28578 16.78C2.28578 17.0067 2.34911 17.1967 2.47578 17.35C2.60245 17.4967 2.80245 17.6267 3.07578 17.74C3.34911 17.8533 3.70578 17.9733 4.14578 18.1C4.67911 18.2467 5.11578 18.4033 5.45578 18.57C5.79578 18.73 6.04578 18.9333 6.20578 19.18C6.37245 19.42 6.45578 19.73 6.45578 20.11C6.45578 20.53 6.34578 20.89 6.12578 21.19C5.90578 21.4833 5.59578 21.71 5.19578 21.87C4.80245 22.0233 4.33578 22.1 3.79578 22.1ZM9.57648 22.1C9.14982 22.1 8.78648 22.0067 8.48648 21.82C8.19315 21.6267 7.96982 21.36 7.81648 21.02C7.66315 20.68 7.58648 20.29 7.58648 19.85V17.03C7.58648 16.9633 7.60648 16.91 7.64648 16.87C7.69315 16.8233 7.74982 16.8 7.81648 16.8H8.31648C8.38315 16.8 8.43648 16.8233 8.47648 16.87C8.52315 16.91 8.54648 16.9633 8.54648 17.03V19.8C8.54648 20.7933 8.97982 21.29 9.84648 21.29C10.2598 21.29 10.5898 21.16 10.8365 20.9C11.0898 20.6333 11.2165 20.2667 11.2165 19.8V17.03C11.2165 16.9633 11.2365 16.91 11.2765 16.87C11.3232 16.8233 11.3798 16.8 11.4465 16.8H11.9365C12.0098 16.8 12.0665 16.8233 12.1065 16.87C12.1465 16.91 12.1665 16.9633 12.1665 17.03V21.77C12.1665 21.8367 12.1465 21.8933 12.1065 21.94C12.0665 21.98 12.0098 22 11.9365 22H11.4765C11.4098 22 11.3532 21.98 11.3065 21.94C11.2665 21.8933 11.2465 21.8367 11.2465 21.77V21.33C11.0665 21.5633 10.8465 21.75 10.5865 21.89C10.3332 22.03 9.99648 22.1 9.57648 22.1ZM13.8921 23.9C13.8254 23.9 13.7688 23.8767 13.7221 23.83C13.6821 23.79 13.6621 23.7367 13.6621 23.67V17.03C13.6621 16.9633 13.6821 16.91 13.7221 16.87C13.7688 16.8233 13.8254 16.8 13.8921 16.8H14.3521C14.4188 16.8 14.4721 16.8233 14.5121 16.87C14.5588 16.91 14.5821 16.9633 14.5821 17.03V17.47C14.7421 17.25 14.9554 17.0667 15.2221 16.92C15.4888 16.7733 15.8221 16.7 16.2221 16.7C16.5954 16.7 16.9121 16.7633 17.1721 16.89C17.4388 17.0167 17.6554 17.19 17.8221 17.41C17.9954 17.63 18.1254 17.88 18.2121 18.16C18.2988 18.44 18.3454 18.74 18.3521 19.06C18.3588 19.1667 18.3621 19.28 18.3621 19.4C18.3621 19.52 18.3588 19.6333 18.3521 19.74C18.3454 20.0533 18.2988 20.3533 18.2121 20.64C18.1254 20.92 17.9954 21.17 17.8221 21.39C17.6554 21.6033 17.4388 21.7767 17.1721 21.91C16.9121 22.0367 16.5954 22.1 16.2221 22.1C15.8354 22.1 15.5088 22.03 15.2421 21.89C14.9821 21.7433 14.7688 21.5633 14.6021 21.35V23.67C14.6021 23.7367 14.5821 23.79 14.5421 23.83C14.5021 23.8767 14.4454 23.9 14.3721 23.9H13.8921ZM16.0121 21.29C16.3588 21.29 16.6288 21.2167 16.8221 21.07C17.0221 20.9167 17.1654 20.72 17.2521 20.48C17.3388 20.2333 17.3888 19.97 17.4021 19.69C17.4088 19.4967 17.4088 19.3033 17.4021 19.11C17.3888 18.83 17.3388 18.57 17.2521 18.33C17.1654 18.0833 17.0221 17.8867 16.8221 17.74C16.6288 17.5867 16.3588 17.51 16.0121 17.51C15.6854 17.51 15.4188 17.5867 15.2121 17.74C15.0121 17.8933 14.8621 18.09 14.7621 18.33C14.6688 18.5633 14.6154 18.8033 14.6021 19.05C14.5954 19.1567 14.5921 19.2833 14.5921 19.43C14.5921 19.5767 14.5954 19.7067 14.6021 19.82C14.6088 20.0533 14.6621 20.2833 14.7621 20.51C14.8688 20.7367 15.0254 20.9233 15.2321 21.07C15.4388 21.2167 15.6988 21.29 16.0121 21.29ZM19.8491 23.9C19.7825 23.9 19.7258 23.8767 19.6791 23.83C19.6391 23.79 19.6191 23.7367 19.6191 23.67V17.03C19.6191 16.9633 19.6391 16.91 19.6791 16.87C19.7258 16.8233 19.7825 16.8 19.8491 16.8H20.3091C20.3758 16.8 20.4291 16.8233 20.4691 16.87C20.5158 16.91 20.5391 16.9633 20.5391 17.03V17.47C20.6991 17.25 20.9125 17.0667 21.1791 16.92C21.4458 16.7733 21.7791 16.7 22.1791 16.7C22.5525 16.7 22.8691 16.7633 23.1291 16.89C23.3958 17.0167 23.6125 17.19 23.7791 17.41C23.9525 17.63 24.0825 17.88 24.1691 18.16C24.2558 18.44 24.3025 18.74 24.3091 19.06C24.3158 19.1667 24.3191 19.28 24.3191 19.4C24.3191 19.52 24.3158 19.6333 24.3091 19.74C24.3025 20.0533 24.2558 20.3533 24.1691 20.64C24.0825 20.92 23.9525 21.17 23.7791 21.39C23.6125 21.6033 23.3958 21.7767 23.1291 21.91C22.8691 22.0367 22.5525 22.1 22.1791 22.1C21.7925 22.1 21.4658 22.03 21.1991 21.89C20.9391 21.7433 20.7258 21.5633 20.5591 21.35V23.67C20.5591 23.7367 20.5391 23.79 20.4991 23.83C20.4591 23.8767 20.4025 23.9 20.3291 23.9H19.8491ZM21.9691 21.29C22.3158 21.29 22.5858 21.2167 22.7791 21.07C22.9791 20.9167 23.1225 20.72 23.2091 20.48C23.2958 20.2333 23.3458 19.97 23.3591 19.69C23.3658 19.4967 23.3658 19.3033 23.3591 19.11C23.3458 18.83 23.2958 18.57 23.2091 18.33C23.1225 18.0833 22.9791 17.8867 22.7791 17.74C22.5858 17.5867 22.3158 17.51 21.9691 17.51C21.6425 17.51 21.3758 17.5867 21.1691 17.74C20.9691 17.8933 20.8191 18.09 20.7191 18.33C20.6258 18.5633 20.5725 18.8033 20.5591 19.05C20.5525 19.1567 20.5491 19.2833 20.5491 19.43C20.5491 19.5767 20.5525 19.7067 20.5591 19.82C20.5658 20.0533 20.6191 20.2833 20.7191 20.51C20.8258 20.7367 20.9825 20.9233 21.1891 21.07C21.3958 21.2167 21.6558 21.29 21.9691 21.29ZM27.6962 22.1C27.1895 22.1 26.7662 22.0033 26.4262 21.81C26.0862 21.6167 25.8262 21.35 25.6462 21.01C25.4662 20.6633 25.3662 20.27 25.3462 19.83C25.3395 19.7167 25.3362 19.5733 25.3362 19.4C25.3362 19.22 25.3395 19.0767 25.3462 18.97C25.3662 18.5233 25.4662 18.13 25.6462 17.79C25.8328 17.45 26.0962 17.1833 26.4362 16.99C26.7762 16.7967 27.1962 16.7 27.6962 16.7C28.1962 16.7 28.6162 16.7967 28.9562 16.99C29.2962 17.1833 29.5562 17.45 29.7362 17.79C29.9228 18.13 30.0262 18.5233 30.0462 18.97C30.0528 19.0767 30.0562 19.22 30.0562 19.4C30.0562 19.5733 30.0528 19.7167 30.0462 19.83C30.0262 20.27 29.9262 20.6633 29.7462 21.01C29.5662 21.35 29.3062 21.6167 28.9662 21.81C28.6262 22.0033 28.2028 22.1 27.6962 22.1ZM27.6962 21.33C28.1095 21.33 28.4395 21.2 28.6862 20.94C28.9328 20.6733 29.0662 20.2867 29.0862 19.78C29.0928 19.68 29.0962 19.5533 29.0962 19.4C29.0962 19.2467 29.0928 19.12 29.0862 19.02C29.0662 18.5133 28.9328 18.13 28.6862 17.87C28.4395 17.6033 28.1095 17.47 27.6962 17.47C27.2828 17.47 26.9495 17.6033 26.6962 17.87C26.4495 18.13 26.3195 18.5133 26.3062 19.02C26.2995 19.12 26.2962 19.2467 26.2962 19.4C26.2962 19.5533 26.2995 19.68 26.3062 19.78C26.3195 20.2867 26.4495 20.6733 26.6962 20.94C26.9495 21.2 27.2828 21.33 27.6962 21.33ZM31.5384 22C31.4717 22 31.415 21.98 31.3684 21.94C31.3284 21.8933 31.3084 21.8367 31.3084 21.77V17.04C31.3084 16.9733 31.3284 16.9167 31.3684 16.87C31.415 16.8233 31.4717 16.8 31.5384 16.8H31.9984C32.065 16.8 32.1217 16.8233 32.1684 16.87C32.215 16.9167 32.2384 16.9733 32.2384 17.04V17.48C32.3717 17.2533 32.555 17.0833 32.7884 16.97C33.0217 16.8567 33.3017 16.8 33.6284 16.8H34.0284C34.095 16.8 34.1484 16.8233 34.1884 16.87C34.2284 16.91 34.2484 16.9633 34.2484 17.03V17.44C34.2484 17.5067 34.2284 17.56 34.1884 17.6C34.1484 17.64 34.095 17.66 34.0284 17.66H33.4284C33.0684 17.66 32.785 17.7667 32.5784 17.98C32.3717 18.1867 32.2684 18.47 32.2684 18.83V21.77C32.2684 21.8367 32.245 21.8933 32.1984 21.94C32.1517 21.98 32.095 22 32.0284 22H31.5384ZM37.1372 22C36.7639 22 36.4605 21.93 36.2272 21.79C35.9939 21.6433 35.8239 21.44 35.7172 21.18C35.6105 20.9133 35.5572 20.6 35.5572 20.24V17.6H34.7772C34.7105 17.6 34.6539 17.58 34.6072 17.54C34.5672 17.4933 34.5472 17.4367 34.5472 17.37V17.03C34.5472 16.9633 34.5672 16.91 34.6072 16.87C34.6539 16.8233 34.7105 16.8 34.7772 16.8H35.5572V15.13C35.5572 15.0633 35.5772 15.01 35.6172 14.97C35.6639 14.9233 35.7205 14.9 35.7872 14.9H36.2572C36.3239 14.9 36.3772 14.9233 36.4172 14.97C36.4639 15.01 36.4872 15.0633 36.4872 15.13V16.8H37.7272C37.7939 16.8 37.8472 16.8233 37.8872 16.87C37.9339 16.91 37.9572 16.9633 37.9572 17.03V17.37C37.9572 17.4367 37.9339 17.4933 37.8872 17.54C37.8472 17.58 37.7939 17.6 37.7272 17.6H36.4872V20.17C36.4872 20.4833 36.5405 20.73 36.6472 20.91C36.7539 21.09 36.9439 21.18 37.2172 21.18H37.8272C37.8939 21.18 37.9472 21.2033 37.9872 21.25C38.0339 21.29 38.0572 21.3433 38.0572 21.41V21.77C38.0572 21.8367 38.0339 21.8933 37.9872 21.94C37.9472 21.98 37.8939 22 37.8272 22H37.1372ZM41.0834 22.1C40.3968 22.1 39.8501 21.89 39.4434 21.47C39.0368 21.0433 38.8134 20.4633 38.7734 19.73C38.7668 19.6433 38.7634 19.5333 38.7634 19.4C38.7634 19.26 38.7668 19.1467 38.7734 19.06C38.8001 18.5867 38.9101 18.1733 39.1034 17.82C39.2968 17.46 39.5601 17.1833 39.8934 16.99C40.2334 16.7967 40.6301 16.7 41.0834 16.7C41.5901 16.7 42.0134 16.8067 42.3534 17.02C42.7001 17.2333 42.9634 17.5367 43.1434 17.93C43.3234 18.3233 43.4134 18.7833 43.4134 19.31V19.48C43.4134 19.5533 43.3901 19.61 43.3434 19.65C43.3034 19.69 43.2501 19.71 43.1834 19.71H39.7234C39.7234 19.7167 39.7234 19.73 39.7234 19.75C39.7234 19.77 39.7234 19.7867 39.7234 19.8C39.7368 20.0733 39.7968 20.33 39.9034 20.57C40.0101 20.8033 40.1634 20.9933 40.3634 21.14C40.5634 21.2867 40.8034 21.36 41.0834 21.36C41.3234 21.36 41.5234 21.3233 41.6834 21.25C41.8434 21.1767 41.9734 21.0967 42.0734 21.01C42.1734 20.9167 42.2401 20.8467 42.2734 20.8C42.3334 20.7133 42.3801 20.6633 42.4134 20.65C42.4468 20.63 42.5001 20.62 42.5734 20.62H43.0534C43.1201 20.62 43.1734 20.64 43.2134 20.68C43.2601 20.7133 43.2801 20.7633 43.2734 20.83C43.2668 20.93 43.2134 21.0533 43.1134 21.2C43.0134 21.34 42.8701 21.48 42.6834 21.62C42.4968 21.76 42.2701 21.8767 42.0034 21.97C41.7368 22.0567 41.4301 22.1 41.0834 22.1ZM39.7234 19.02H42.4634V18.99C42.4634 18.69 42.4068 18.4233 42.2934 18.19C42.1868 17.9567 42.0301 17.7733 41.8234 17.64C41.6168 17.5 41.3701 17.43 41.0834 17.43C40.7968 17.43 40.5501 17.5 40.3434 17.64C40.1434 17.7733 39.9901 17.9567 39.8834 18.19C39.7768 18.4233 39.7234 18.69 39.7234 18.99V19.02ZM46.5091 22.1C46.1425 22.1 45.8258 22.0367 45.5591 21.91C45.2925 21.7767 45.0725 21.6 44.8991 21.38C44.7325 21.1533 44.6058 20.8967 44.5191 20.61C44.4391 20.3233 44.3925 20.02 44.3791 19.7C44.3725 19.5933 44.3691 19.4933 44.3691 19.4C44.3691 19.3067 44.3725 19.2067 44.3791 19.1C44.3925 18.7867 44.4391 18.4867 44.5191 18.2C44.6058 17.9133 44.7325 17.6567 44.8991 17.43C45.0725 17.2033 45.2925 17.0267 45.5591 16.9C45.8258 16.7667 46.1425 16.7 46.5091 16.7C46.9025 16.7 47.2291 16.77 47.4891 16.91C47.7491 17.05 47.9625 17.2233 48.1291 17.43V15.13C48.1291 15.0633 48.1491 15.01 48.1891 14.97C48.2358 14.9233 48.2925 14.9 48.3591 14.9H48.8391C48.9058 14.9 48.9591 14.9233 48.9991 14.97C49.0458 15.01 49.0691 15.0633 49.0691 15.13V21.77C49.0691 21.8367 49.0458 21.8933 48.9991 21.94C48.9591 21.98 48.9058 22 48.8391 22H48.3891C48.3158 22 48.2591 21.98 48.2191 21.94C48.1791 21.8933 48.1591 21.8367 48.1591 21.77V21.35C47.9925 21.5633 47.7758 21.7433 47.5091 21.89C47.2425 22.03 46.9091 22.1 46.5091 22.1ZM46.7191 21.29C47.0525 21.29 47.3191 21.2133 47.5191 21.06C47.7191 20.9067 47.8691 20.7133 47.9691 20.48C48.0691 20.24 48.1225 19.9967 48.1291 19.75C48.1358 19.6433 48.1391 19.5167 48.1391 19.37C48.1391 19.2167 48.1358 19.0867 48.1291 18.98C48.1225 18.7467 48.0658 18.5167 47.9591 18.29C47.8591 18.0633 47.7058 17.8767 47.4991 17.73C47.2991 17.5833 47.0391 17.51 46.7191 17.51C46.3791 17.51 46.1091 17.5867 45.9091 17.74C45.7091 17.8867 45.5658 18.0833 45.4791 18.33C45.3925 18.57 45.3425 18.83 45.3291 19.11C45.3225 19.3033 45.3225 19.4967 45.3291 19.69C45.3425 19.97 45.3925 20.2333 45.4791 20.48C45.5658 20.72 45.7091 20.9167 45.9091 21.07C46.1091 21.2167 46.3791 21.29 46.7191 21.29ZM55.5776 22.1C55.1776 22.1 54.8442 22.03 54.5776 21.89C54.3109 21.7433 54.0976 21.5633 53.9376 21.35V21.77C53.9376 21.8367 53.9142 21.8933 53.8676 21.94C53.8276 21.98 53.7742 22 53.7076 22H53.2476C53.1809 22 53.1242 21.98 53.0776 21.94C53.0376 21.8933 53.0176 21.8367 53.0176 21.77V15.13C53.0176 15.0633 53.0376 15.01 53.0776 14.97C53.1242 14.9233 53.1809 14.9 53.2476 14.9H53.7276C53.8009 14.9 53.8576 14.9233 53.8976 14.97C53.9376 15.01 53.9576 15.0633 53.9576 15.13V17.43C54.1242 17.2233 54.3376 17.05 54.5976 16.91C54.8642 16.77 55.1909 16.7 55.5776 16.7C55.9509 16.7 56.2676 16.7667 56.5276 16.9C56.7942 17.0267 57.0109 17.2033 57.1776 17.43C57.3509 17.6567 57.4809 17.9133 57.5676 18.2C57.6542 18.4867 57.7009 18.7867 57.7076 19.1C57.7142 19.2067 57.7176 19.3067 57.7176 19.4C57.7176 19.4933 57.7142 19.5933 57.7076 19.7C57.7009 20.02 57.6542 20.3233 57.5676 20.61C57.4809 20.8967 57.3509 21.1533 57.1776 21.38C57.0109 21.6 56.7942 21.7767 56.5276 21.91C56.2676 22.0367 55.9509 22.1 55.5776 22.1ZM55.3676 21.29C55.7142 21.29 55.9842 21.2167 56.1776 21.07C56.3776 20.9167 56.5209 20.72 56.6076 20.48C56.6942 20.2333 56.7442 19.97 56.7576 19.69C56.7642 19.4967 56.7642 19.3033 56.7576 19.11C56.7442 18.83 56.6942 18.57 56.6076 18.33C56.5209 18.0833 56.3776 17.8867 56.1776 17.74C55.9842 17.5867 55.7142 17.51 55.3676 17.51C55.0542 17.51 54.7942 17.5833 54.5876 17.73C54.3809 17.8767 54.2242 18.0633 54.1176 18.29C54.0176 18.5167 53.9642 18.7467 53.9576 18.98C53.9509 19.0867 53.9476 19.2167 53.9476 19.37C53.9476 19.5167 53.9509 19.6433 53.9576 19.75C53.9709 19.9967 54.0242 20.24 54.1176 20.48C54.2176 20.7133 54.3676 20.9067 54.5676 21.06C54.7742 21.2133 55.0409 21.29 55.3676 21.29ZM59.6695 23.9C59.6162 23.9 59.5695 23.88 59.5295 23.84C59.4895 23.8 59.4695 23.7533 59.4695 23.7C59.4695 23.6733 59.4729 23.6467 59.4795 23.62C59.4862 23.5933 59.4995 23.56 59.5195 23.52L60.2895 21.69L58.3795 17.18C58.3462 17.1 58.3295 17.0433 58.3295 17.01C58.3295 16.95 58.3495 16.9 58.3895 16.86C58.4295 16.82 58.4795 16.8 58.5395 16.8H59.0295C59.0962 16.8 59.1495 16.8167 59.1895 16.85C59.2295 16.8833 59.2562 16.9233 59.2695 16.97L60.7895 20.61L62.3495 16.97C62.3695 16.9233 62.3962 16.8833 62.4295 16.85C62.4695 16.8167 62.5262 16.8 62.5995 16.8H63.0695C63.1295 16.8 63.1795 16.82 63.2195 16.86C63.2595 16.9 63.2795 16.9467 63.2795 17C63.2795 17.0333 63.2629 17.0933 63.2295 17.18L60.3895 23.73C60.3695 23.7767 60.3395 23.8167 60.2995 23.85C60.2662 23.8833 60.2129 23.9 60.1395 23.9H59.6695Z" fill="black"/>
<path d="M71.0308 18.537L70.0139 16.4329H68.6758V21.5688H70.1318V19.801L70.5557 20.6374H71.506L71.9242 19.8086V21.5688H73.3802V16.4329H72.0402L71.0308 18.537Z" fill="#02020B"/>
<path d="M75.8128 16.4331L73.9443 21.5671H75.4802L75.7558 20.7593H76.9742L77.2441 21.5671H78.7818L76.9077 16.4331H75.8128ZM76.3811 18.5259L76.7347 19.577H76.0162L76.3811 18.5259Z" fill="#02020B"/>
<path d="M95.4837 16.4331L93.6152 21.5671H95.1511L95.4267 20.7593H96.6451L96.915 21.5671H98.4527L96.5785 16.4331H95.4837ZM96.0501 18.5259L96.4037 19.577H95.6852L96.0501 18.5259Z" fill="#02020B"/>
<path d="M81.4029 16.4331H79.3501V21.5671H80.8061V19.8469H81.4029C82.4579 19.8469 83.1935 19.1455 83.1935 18.14C83.1935 17.1364 82.4579 16.4331 81.4029 16.4331ZM81.3573 18.6152H80.673V17.6629H81.3573C81.6729 17.6629 81.8686 17.8473 81.8686 18.1419C81.8705 18.4327 81.6729 18.6152 81.3573 18.6152Z" fill="#02020B"/>
<path d="M85.8702 16.4331H83.8174V21.5671H85.2734V19.8469H85.8702C86.9252 19.8469 87.6608 19.1455 87.6608 18.14C87.6608 17.1364 86.9252 16.4331 85.8702 16.4331ZM85.8265 18.6152H85.1422V17.6629H85.8265C86.142 17.6629 86.3378 17.8473 86.3378 18.1419C86.3378 18.4327 86.142 18.6152 85.8265 18.6152Z" fill="#02020B"/>
<path d="M89.7407 16.4331H88.2847V21.5671H89.7407V16.4331Z" fill="#02020B"/>
<path d="M94.21 16.4331H90.3647V17.7941H91.5584V21.569H93.0144V17.7941H94.21V16.4331Z" fill="#02020B"/>
<path d="M100.464 16.4331H99.0083V21.569H102.538V20.2081H100.464V16.4331Z" fill="#02020B"/>
<path d="M104.617 20.2081V16.4331H103.161V21.569H106.69V20.2081H104.617Z" fill="#02020B"/>
<path d="M85.2788 0.147949C78.7439 0.970986 73.245 5.11278 70.5192 10.8303C71.9905 9.48267 73.7696 8.51708 75.6209 7.77768C76.0885 7.5914 76.5618 7.42033 77.0389 7.26066C76.8526 7.65222 76.6778 8.05329 76.5124 8.46196C74.3702 9.0474 72.2471 9.85143 70.3957 11.0926C69.9091 12.1552 69.5175 13.269 69.2324 14.4247H75.6323C76.1189 11.3112 77.1035 8.23956 78.7724 5.55567C80.2759 3.13597 82.498 0.902558 85.2788 0.147949Z" fill="#02020B"/>
<path d="M88.5222 0.017107C88.2694 0.00570234 88.0147 0 87.7581 0C87.893 1.64607 87.9919 3.29595 88.0717 4.94583C87.8094 4.94203 87.5452 4.94203 87.2829 4.94393C87.3627 3.29405 87.4653 1.64607 87.5965 0C87.3494 0.00190078 87.1023 0.00570234 86.8571 0.017107C86.4769 0.0855351 86.1025 0.174872 85.7356 0.306025C84.9848 0.574035 84.2777 0.940886 83.622 1.40277C82.2458 2.37027 81.1548 3.6685 80.2538 5.07888C78.4956 7.82361 77.5604 11.0397 77.051 14.2349C77.0415 14.2996 77.032 14.3623 77.0225 14.4269H87.0035C87.0339 12.2125 87.0833 9.9981 87.165 7.78559C87.5072 7.78179 87.8493 7.78369 88.1933 7.78749C88.2713 9.95438 88.3226 12.1213 88.3568 14.2882C88.3568 14.3357 88.3587 14.3813 88.3587 14.4288H98.3416C97.9481 11.5852 97.1251 8.71887 95.7584 6.20985C94.1903 3.32636 91.8561 0.703288 88.5222 0.017107ZM92.0975 7.27618C89.4821 7.04049 86.8419 7.00627 84.2207 7.19635C82.6773 7.3085 81.1357 7.49097 79.6094 7.76658C79.8223 7.29139 80.0485 6.8352 80.2918 6.39802C81.2517 6.19844 82.223 6.04258 83.1943 5.92283C85.8668 5.59209 88.602 5.56548 91.2821 5.83159C92.5499 5.95704 93.8139 6.14142 95.0609 6.39992C95.3023 6.8352 95.5285 7.28949 95.7394 7.76278C94.5362 7.54419 93.3178 7.38453 92.0975 7.27618Z" fill="#02020B"/>
<path d="M104.965 11.1049C103.288 9.99487 101.421 9.22126 99.4922 8.64722C99.2755 8.5826 99.0588 8.52177 98.8402 8.46095C98.6767 8.05418 98.5019 7.65692 98.3175 7.26726C98.5114 7.33188 98.7033 7.39651 98.8953 7.46494C101.032 8.22905 103.144 9.27068 104.83 10.816C102.104 5.11748 96.6239 0.987082 90.1118 0.154541C90.8227 0.356024 91.5032 0.643041 92.1437 1.01749C93.6245 1.88615 94.8486 3.11786 95.8617 4.49402C97.8575 7.20643 99.0094 10.4796 99.6119 13.7679C99.6518 13.9865 99.6898 14.207 99.7241 14.4275H106.124C105.839 13.2756 105.447 12.1637 104.965 11.1049Z" fill="#02020B"/>
<path d="M80.2538 32.9208C81.1567 34.3293 82.2458 35.6275 83.622 36.5969C84.2758 37.0569 84.9848 37.4256 85.7375 37.6936C86.1044 37.8248 86.4788 37.916 86.859 37.9826C87.1042 37.9921 87.3513 37.9978 87.5984 37.9997C87.4672 36.3536 87.3646 34.7056 87.2848 33.0557C87.5471 33.0576 87.8094 33.0576 88.0736 33.0538C87.9938 34.7037 87.8949 36.3536 87.76 37.9997C88.0166 37.9978 88.2713 37.994 88.5241 37.9826C91.8561 37.2964 94.1903 34.6714 95.7584 31.7917C97.1232 29.2827 97.9481 26.4163 98.3416 23.5728H88.3587C88.3587 23.6203 88.3568 23.6659 88.3568 23.7134C88.3226 25.8803 88.2713 28.0472 88.1933 30.2141C87.8493 30.2179 87.5072 30.2179 87.165 30.216C87.0833 28.0035 87.0358 25.7891 87.0035 23.5747H77.0225C77.032 23.6393 77.0415 23.702 77.051 23.7666C77.5604 26.9599 78.4956 30.1761 80.2538 32.9208ZM84.2226 30.8033C86.8438 30.9953 89.4821 30.9592 92.0994 30.7235C93.3178 30.6132 94.5362 30.4555 95.7432 30.2369C95.5323 30.7083 95.3061 31.1626 95.0647 31.5997C93.8158 31.8583 92.5537 32.0426 91.2859 32.1681C88.6058 32.4323 85.8706 32.4057 83.1981 32.0768C82.2249 31.9571 81.2555 31.8012 80.2956 31.6016C80.0542 31.1626 79.8261 30.7064 79.6132 30.2331C81.1357 30.5068 82.6773 30.6912 84.2226 30.8033Z" fill="#02020B"/>
<path d="M98.8953 30.5353C98.7033 30.6037 98.5114 30.6684 98.3175 30.733C98.5019 30.3433 98.6767 29.9461 98.8402 29.5393C99.0588 29.4804 99.2755 29.4176 99.4922 29.353C101.42 28.779 103.286 28.0054 104.965 26.8953C105.449 25.8366 105.839 24.7246 106.124 23.5728H99.7241C99.6898 23.7932 99.6518 24.0118 99.6119 24.2323C99.0113 27.5207 97.8575 30.7938 95.8617 33.5062C94.8486 34.8824 93.6245 36.116 92.1437 36.9828C91.5032 37.3591 90.8227 37.6461 90.1118 37.8457C96.6239 37.0132 102.102 32.8828 104.828 27.1842C103.145 28.7277 101.032 29.7712 98.8953 30.5353Z" fill="#02020B"/>
<path d="M78.7734 32.442C77.1045 29.7581 76.1199 26.6865 75.6333 23.573H69.2314C69.5166 24.7287 69.9081 25.8444 70.3947 26.9051C72.248 28.1463 74.3693 28.9484 76.5114 29.5357C76.6768 29.9444 76.8536 30.3455 77.0379 30.737C76.5608 30.5793 76.0876 30.4082 75.62 30.22C73.7686 29.4806 71.9895 28.515 70.5183 27.1674C73.2459 32.8849 78.7448 37.0267 85.2778 37.8497C82.4989 37.097 80.2769 34.8636 78.7734 32.442Z" fill="#02020B"/>
</svg>
