<svg width="16" height="15" viewBox="0 0 16 15" fill="none" xmlns="http://www.w3.org/2000/svg">
<path d="M14.2754 7.25002H9.27537V2.25002C9.27537 1.55964 8.71573 1 8.02535 1C7.33498 1 6.77534 1.55964 6.77534 2.25002V7.25002H1.77541C1.08503 7.25002 0.525391 7.80966 0.525391 8.50004C0.525391 9.19042 1.08503 9.74998 1.77541 9.74998H6.77541V14.75C6.77541 15.4404 7.33505 16 8.02543 16C8.71581 16 9.27545 15.4404 9.27545 14.75V9.74998H14.2754C14.9658 9.74998 15.5255 9.19034 15.5255 8.49996C15.5255 7.80959 14.9657 7.25002 14.2754 7.25002Z" fill="white" stroke="white" stroke-width="0.5"/>
</svg>
