<svg width="80" height="80" viewBox="0 0 80 80" fill="none" xmlns="http://www.w3.org/2000/svg">
<circle cx="40" cy="40" r="38" fill="#E43F12" stroke="white" stroke-width="4"/>
<path fill-rule="evenodd" clip-rule="evenodd" d="M9.11969 32.614C9.00661 32.9083 8.9666 35.2508 9.03029 37.819L9.14664 42.4888L10.8584 42.6133L12.5701 42.7374L12.6954 40.7763C12.8155 38.8967 12.8722 38.8147 14.0455 38.8147C15.2171 38.8147 15.2755 38.8992 15.3947 40.7538C15.5045 42.4664 15.6282 42.6929 16.4541 42.6929C16.968 42.6929 17.6931 42.357 18.0646 41.9463C18.6083 41.3453 18.7402 40.3101 18.7402 36.6392V32.0788H17.1072H15.4743V33.9159C15.4743 35.7431 15.4665 35.7529 14.0455 35.7529C12.6244 35.7529 12.6166 35.7431 12.6166 33.9159V32.0788H10.971C9.99005 32.0788 9.24216 32.2952 9.11969 32.614ZM22.0538 32.7446C21.5309 33.1108 20.8471 34.0232 20.534 34.7727C20.2209 35.5219 19.9649 36.7102 19.9649 37.4132C19.9649 38.1162 20.2654 39.3242 20.6324 40.0978C20.9994 40.8714 21.8171 41.7715 22.449 42.0985C23.0814 42.4255 24.2595 42.6929 25.0678 42.6929C25.8762 42.6929 27.0935 42.4051 27.7736 42.0536C28.4615 41.6981 29.2682 40.7975 29.5907 40.0255C29.9095 39.2617 30.1708 38.0737 30.1708 37.3859C30.1708 36.698 29.9148 35.5219 29.6017 34.7727C29.2886 34.0232 28.6048 33.1108 28.0819 32.7446C27.5075 32.3421 26.315 32.0788 25.0678 32.0788C23.8207 32.0788 22.6282 32.3421 22.0538 32.7446ZM30.9873 37.3463V42.6929H32.1487C32.7876 42.6929 33.6143 42.357 33.9858 41.9463C34.3573 41.5356 34.6614 40.8008 34.6614 40.3133C34.6614 39.6112 34.9031 39.427 35.8253 39.427C36.4654 39.427 37.5713 39.2241 38.2833 38.9759C38.9952 38.7277 39.7574 38.1889 39.977 37.7782C40.1967 37.3675 40.3767 36.3967 40.3767 35.6211C40.3767 34.8409 40.0281 33.7795 39.5966 33.2468C38.8928 32.3772 38.4347 32.269 34.9018 32.1412L30.9873 32V37.3463ZM41.6014 37.3463V42.6929H42.7628C43.4017 42.6929 44.2284 42.357 44.5999 41.9463C44.9714 41.5356 45.2755 40.8244 45.2755 40.366C45.2755 39.6728 45.6225 39.4862 47.333 39.2593C48.5349 39.1 49.7233 38.6534 50.1907 38.186C50.7398 37.6369 50.9908 36.8294 50.9908 35.6121C50.9908 34.3282 50.7537 33.6236 50.1323 33.0606C49.4461 32.4389 48.5047 32.2547 45.4376 32.1412L41.6014 32V37.3463ZM52.2155 37.3859V42.6929H56.502H60.7885V41.2641V39.8353H58.3391C56.4338 39.8353 55.8897 39.6993 55.8897 39.2229C55.8897 38.7694 56.3661 38.6106 57.7267 38.6106C59.4956 38.6106 59.5638 38.5653 59.5638 37.3859C59.5638 36.2065 59.4956 36.1612 57.7267 36.1612C56.3661 36.1612 55.8897 36.0023 55.8897 35.5488C55.8897 35.0993 56.3567 34.9364 57.6451 34.9364C58.6106 34.9364 59.6209 34.716 59.8904 34.4466C60.1598 34.1771 60.3803 33.5342 60.3803 33.0177C60.3803 32.1004 60.2856 32.0788 56.2979 32.0788H52.2155V37.3859ZM61.605 32.8953C61.605 33.4288 61.8773 33.7117 62.39 33.7117C62.8219 33.7117 63.7266 34.1759 64.4006 34.7429C65.1383 35.3635 65.729 35.6072 65.8849 35.3553C66.0274 35.125 66.0303 34.7527 65.8915 34.5282C65.7527 34.3037 65.8127 34.12 66.0245 34.12C66.2364 34.12 66.7214 34.5952 67.1019 35.1761C67.4823 35.7566 67.733 36.2693 67.6591 36.3151C67.5848 36.3604 66.8345 36.7543 65.9911 37.1899C65.1481 37.6259 64.3549 38.3072 64.2287 38.7049C64.1026 39.1021 63.8054 39.427 63.5686 39.427C63.3102 39.427 63.3514 39.1699 63.6719 38.7837C64.1144 38.2505 64.1054 38.0758 63.62 37.7635C63.2975 37.5565 62.7582 37.4344 62.4214 37.4924C61.9699 37.5704 61.7772 38.2668 61.6874 40.1455L61.5662 42.6929H62.7284C63.3681 42.6929 64.1115 42.4725 64.381 42.203C64.6504 41.9336 64.8709 41.1069 64.8709 40.366C64.8709 39.625 65.057 39.0188 65.2844 39.0188C65.5118 39.0188 66.0997 39.8455 66.5904 40.8559C67.4677 42.6615 67.5171 42.6929 69.4815 42.6929H71.4802L70.4192 40.8824L69.3578 39.0715L70.2326 37.5892C70.996 36.2955 71.0487 35.9105 70.6462 34.5682C70.3502 33.5795 69.8126 32.8597 69.1418 32.5544C68.5679 32.2927 66.6373 32.0788 64.8517 32.0788C61.8773 32.0788 61.605 32.1474 61.605 32.8953ZM26.3166 35.9076C26.4505 36.442 26.5003 37.3879 26.4265 38.0096C26.353 38.6318 25.9864 39.3323 25.6124 39.5662C25.1209 39.8737 24.7527 39.843 24.2857 39.4556C23.9301 39.1605 23.639 38.3134 23.639 37.5732C23.639 36.8335 23.7505 35.9374 23.8868 35.5823C24.0232 35.2271 24.5706 34.9364 25.1038 34.9364C25.7839 34.9364 26.1456 35.2259 26.3166 35.9076ZM36.9067 35.7529C36.9067 36.1175 36.4523 36.4175 35.784 36.4943C34.87 36.5996 34.6614 36.462 34.6614 35.7529C34.6614 35.0438 34.87 34.9062 35.784 35.0116C36.4523 35.0883 36.9067 35.3884 36.9067 35.7529ZM47.5208 35.7529C47.5208 36.1175 47.0665 36.4175 46.3982 36.4943C45.4841 36.5996 45.2755 36.462 45.2755 35.7529C45.2755 35.0438 45.4841 34.9062 46.3982 35.0116C47.0665 35.0883 47.5208 35.3884 47.5208 35.7529ZM35.0696 44.7341C35.0696 44.9586 35.3452 45.1423 35.682 45.1423C36.1098 45.1423 36.2943 45.5734 36.2943 46.5712C36.2943 47.5689 36.4789 48 36.9067 48C37.3345 48 37.519 47.5689 37.519 46.5712C37.519 45.5734 37.7036 45.1423 38.1314 45.1423C38.4682 45.1423 38.7438 44.9586 38.7438 44.7341C38.7438 44.5096 37.9171 44.3259 36.9067 44.3259C35.8963 44.3259 35.0696 44.5096 35.0696 44.7341ZM39.1838 44.8999C38.9034 45.2379 38.8001 45.7196 38.9544 45.9694C39.1091 46.2197 39.63 46.5936 40.1122 46.8002L40.9891 47.1762L40.0889 47.0778C39.5941 47.0235 39.1348 47.1631 39.0683 47.3876C39.0022 47.6122 39.5463 47.8534 40.2775 47.9241C41.2303 48.0159 41.6822 47.8567 41.8721 47.3615C42.0468 46.9059 41.8027 46.4018 41.1548 45.8808L40.1726 45.0913L41.1393 45.3636C41.8508 45.5641 42.0582 45.4902 41.9243 45.0832C41.8243 44.779 41.2818 44.4749 40.7184 44.4071C40.1554 44.3398 39.4647 44.5614 39.1838 44.8999ZM42.4179 46.1629C42.4179 47.9902 42.4256 48 43.8467 48C44.6326 48 45.2755 47.8163 45.2755 47.5918C45.2755 47.3672 44.9081 47.1835 44.4591 47.1835C43.7981 47.1835 43.6426 46.9112 43.6426 45.7547C43.6426 44.757 43.4581 44.3259 43.0302 44.3259C42.5767 44.3259 42.4179 44.8023 42.4179 46.1629ZM9.35075 47.3807C9.35075 47.9188 10.7759 48 20.2029 48C28.7032 48 31.0183 47.8894 30.8852 47.4897C30.7566 47.1027 28.1374 46.9533 20.0331 46.8704C10.7102 46.7757 9.35075 46.8406 9.35075 47.3807ZM50.4467 47.0476C50.2968 47.197 50.1744 47.4726 50.1744 47.6599C50.1744 47.8469 55.0426 48 60.9926 48C70.3367 48 71.8109 47.9167 71.8109 47.3876C71.8109 46.859 70.367 46.7753 61.2649 46.7753C55.4643 46.7753 50.5961 46.8978 50.4467 47.0476Z" fill="white"/>
</svg>
