<svg width="40" height="41" viewBox="0 0 40 41" fill="none" xmlns="http://www.w3.org/2000/svg">
<circle cx="20" cy="20.5" r="20" fill="#4095DA"/>
<path d="M9.208 25.5C9.10133 25.5 9.01067 25.468 8.936 25.404C8.872 25.3293 8.84 25.2387 8.84 25.132V15.724H5.768C5.66133 15.724 5.57067 15.692 5.496 15.628C5.432 15.5533 5.4 15.4627 5.4 15.356V14.684C5.4 14.5667 5.432 14.476 5.496 14.412C5.57067 14.3373 5.66133 14.3 5.768 14.3H13.48C13.5973 14.3 13.688 14.3373 13.752 14.412C13.8267 14.476 13.864 14.5667 13.864 14.684V15.356C13.864 15.4627 13.8267 15.5533 13.752 15.628C13.688 15.692 13.5973 15.724 13.48 15.724H10.424V25.132C10.424 25.2387 10.3867 25.3293 10.312 25.404C10.248 25.468 10.1573 25.5 10.04 25.5H9.208ZM15.5055 25.5C15.3988 25.5 15.3082 25.468 15.2335 25.404C15.1695 25.3293 15.1375 25.2387 15.1375 25.132V14.508C15.1375 14.4013 15.1695 14.316 15.2335 14.252C15.3082 14.1773 15.3988 14.14 15.5055 14.14H16.3055C16.4228 14.14 16.5135 14.1773 16.5775 14.252C16.6415 14.316 16.6735 14.4013 16.6735 14.508V18.236C16.9615 17.8733 17.3135 17.58 17.7295 17.356C18.1455 17.132 18.6735 17.02 19.3135 17.02C20.0068 17.02 20.5935 17.1747 21.0735 17.484C21.5642 17.7827 21.9322 18.204 22.1775 18.748C22.4335 19.2813 22.5615 19.9053 22.5615 20.62V25.132C22.5615 25.2387 22.5295 25.3293 22.4655 25.404C22.4015 25.468 22.3108 25.5 22.1935 25.5H21.3935C21.2868 25.5 21.1962 25.468 21.1215 25.404C21.0575 25.3293 21.0255 25.2387 21.0255 25.132V20.7C21.0255 19.9533 20.8442 19.372 20.4815 18.956C20.1188 18.5293 19.5855 18.316 18.8815 18.316C18.2202 18.316 17.6868 18.5293 17.2815 18.956C16.8762 19.372 16.6735 19.9533 16.6735 20.7V25.132C16.6735 25.2387 16.6415 25.3293 16.5775 25.404C16.5135 25.468 16.4228 25.5 16.3055 25.5H15.5055ZM27.9755 25.66C27.2928 25.66 26.7115 25.5107 26.2315 25.212C25.7622 24.9027 25.4048 24.476 25.1595 23.932C24.9142 23.388 24.7915 22.764 24.7915 22.06V17.548C24.7915 17.4413 24.8235 17.356 24.8875 17.292C24.9622 17.2173 25.0528 17.18 25.1595 17.18H25.9595C26.0662 17.18 26.1515 17.2173 26.2155 17.292C26.2902 17.356 26.3275 17.4413 26.3275 17.548V21.98C26.3275 23.5693 27.0208 24.364 28.4075 24.364C29.0688 24.364 29.5968 24.156 29.9915 23.74C30.3968 23.3133 30.5995 22.7267 30.5995 21.98V17.548C30.5995 17.4413 30.6315 17.356 30.6955 17.292C30.7702 17.2173 30.8608 17.18 30.9675 17.18H31.7515C31.8688 17.18 31.9595 17.2173 32.0235 17.292C32.0875 17.356 32.1195 17.4413 32.1195 17.548V25.132C32.1195 25.2387 32.0875 25.3293 32.0235 25.404C31.9595 25.468 31.8688 25.5 31.7515 25.5H31.0155C30.9088 25.5 30.8182 25.468 30.7435 25.404C30.6795 25.3293 30.6475 25.2387 30.6475 25.132V24.428C30.3595 24.8013 30.0075 25.1 29.5915 25.324C29.1862 25.548 28.6475 25.66 27.9755 25.66Z" fill="white"/>
</svg>
