<svg width="16" height="16" viewBox="0 0 16 16" fill="none" xmlns="http://www.w3.org/2000/svg">
<path fill-rule="evenodd" clip-rule="evenodd" d="M4.31112 1.02867C4.20976 1.0756 4.11889 1.17214 4.08036 1.27383C4.06429 1.31619 4.05116 1.51546 4.05116 1.71664V2.08245L3.25074 2.09206C2.46286 2.10155 2.44682 2.10287 2.22553 2.17689C1.68784 2.35678 1.25906 2.78616 1.07495 3.3291L1 3.55015V8.5442V13.5382L1.07613 13.7631C1.26062 14.3077 1.69917 14.7385 2.25877 14.9248L2.45033 14.9886L7.90957 14.9962C13.9729 15.0046 13.5693 15.0162 13.9708 14.8232C14.4614 14.5875 14.8058 14.1618 14.9422 13.6228C14.996 13.4103 14.997 13.3177 14.997 8.5442C14.997 3.76751 14.9961 3.67825 14.9421 3.4656C14.8045 2.92279 14.4638 2.50179 13.9708 2.26541C13.645 2.10919 13.4767 2.08615 12.6608 2.08615H11.9361L11.9273 1.67756C11.9177 1.23292 11.9046 1.19195 11.7301 1.06167C11.6241 0.982557 11.3646 0.982557 11.2586 1.06167C11.0841 1.19195 11.071 1.23292 11.0614 1.67756L11.0526 2.08615H7.99167H4.93077L4.92196 1.67756C4.91241 1.23472 4.89883 1.19165 4.72879 1.06468C4.6381 0.996978 4.42017 0.978179 4.31112 1.02867ZM4.05559 3.26091C4.06558 3.58411 4.08936 3.64503 4.25325 3.76737C4.3592 3.84649 4.61878 3.84649 4.72474 3.76737C4.88863 3.64503 4.91241 3.58411 4.92239 3.26091L4.93167 2.96181H7.99167H11.0517L11.0609 3.26091C11.0709 3.58411 11.0947 3.64503 11.2586 3.76737C11.3646 3.84649 11.6241 3.84649 11.7301 3.76737C11.8942 3.64486 11.9178 3.58431 11.9278 3.25897L11.9371 2.95793L12.6803 2.96671L13.4235 2.9755L13.5775 3.05113C13.7599 3.14075 13.9629 3.34796 14.0458 3.52938C14.1004 3.64872 14.1063 3.71289 14.1156 4.29584L14.1258 4.93207H7.99167H1.85758L1.86675 4.29584C1.87586 3.66533 1.87663 3.65822 1.95144 3.50566C2.07401 3.25571 2.32149 3.05414 2.58715 2.98789C2.6323 2.97662 2.97909 2.96617 3.35779 2.96461L4.04631 2.96181L4.05559 3.26091ZM14.115 9.61826L14.1077 13.4288L14.047 13.559C13.9619 13.7414 13.7591 13.948 13.5775 14.0373L13.4235 14.1129H7.99167H2.55978L2.40583 14.0373C2.22421 13.948 2.02141 13.7414 1.93636 13.559L1.87567 13.4288L1.86836 9.61826L1.86106 5.80774H7.99167H14.1223L14.115 9.61826Z" fill="#757575" stroke="#757575" stroke-width="0.5"/>
</svg>
