<svg width="17" height="17" viewBox="0 0 17 17" fill="none" xmlns="http://www.w3.org/2000/svg">
<path fill-rule="evenodd" clip-rule="evenodd" d="M4.5491 1.03071C4.4405 1.081 4.34313 1.18444 4.30185 1.29339C4.28464 1.33877 4.27056 1.55227 4.27056 1.76783V2.15977L3.41297 2.17006C2.56881 2.18023 2.55163 2.18164 2.31453 2.26095C1.73843 2.4537 1.27903 2.91374 1.08177 3.49547L1.00146 3.73231V9.08307V14.4338L1.08303 14.6747C1.2807 15.2582 1.75057 15.7198 2.35015 15.9194L2.55539 15.9878L8.40458 15.9959C14.901 16.005 14.4685 16.0173 14.8988 15.8106C15.4243 15.558 15.7934 15.102 15.9396 14.5244C15.9972 14.2967 15.9983 14.1975 15.9983 9.08307C15.9983 3.96519 15.9972 3.86955 15.9395 3.64171C15.792 3.06014 15.4269 2.60906 14.8988 2.3558C14.5497 2.18841 14.3693 2.16373 13.4951 2.16373H12.7187L12.7093 1.72596C12.699 1.24955 12.685 1.20566 12.498 1.06607C12.3845 0.981311 12.1063 0.981311 11.9928 1.06607C11.8058 1.20566 11.7918 1.24955 11.7815 1.72596L11.7721 2.16373H8.49254H5.213L5.20356 1.72596C5.19333 1.25149 5.17879 1.20534 4.9966 1.0693C4.89943 0.996763 4.66593 0.97662 4.5491 1.03071ZM4.27531 3.4224C4.28601 3.76869 4.31149 3.83396 4.48709 3.96504C4.60061 4.04981 4.87873 4.04981 4.99226 3.96504C5.16785 3.83396 5.19333 3.76869 5.20403 3.4224L5.21397 3.10194H8.49254H11.7711L11.781 3.4224C11.7917 3.76869 11.8172 3.83396 11.9928 3.96504C12.1063 4.04981 12.3845 4.04981 12.498 3.96504C12.6738 3.83378 12.6991 3.7689 12.7098 3.42032L12.7198 3.09778L13.5161 3.10719L14.3124 3.1166L14.4774 3.19764C14.6728 3.29366 14.8902 3.51567 14.9791 3.71006C15.0376 3.83792 15.0439 3.90667 15.0539 4.53126L15.0648 5.21293H8.49254H1.9203L1.93012 4.53126C1.93989 3.85571 1.94071 3.84809 2.02087 3.68464C2.15219 3.41683 2.41735 3.20087 2.70198 3.12989C2.75036 3.11781 3.12192 3.10661 3.52767 3.10493L4.26537 3.10194L4.27531 3.4224ZM15.0532 10.2339L15.0454 14.3166L14.9804 14.4561C14.8892 14.6515 14.672 14.8729 14.4774 14.9685L14.3124 15.0495H8.49254H2.67266L2.50771 14.9685C2.31312 14.8729 2.09584 14.6515 2.00471 14.4561L1.93968 14.3166L1.93185 10.2339L1.92402 6.15115H8.49254H15.061L15.0532 10.2339Z" fill="#4095DA" stroke="#4095DA" stroke-width="0.5"/>
</svg>
