<svg width="16" height="16" viewBox="0 0 16 16" fill="none" xmlns="http://www.w3.org/2000/svg">
<path fill-rule="evenodd" clip-rule="evenodd" d="M7.16026 0.530041C6.75933 0.570574 6.10274 0.703737 5.69553 0.827149C4.42035 1.2136 3.28967 1.89204 2.34616 2.83687C0.4537 4.73195 -0.360556 7.40107 0.148811 10.0397C0.520265 11.9638 1.61644 13.7079 3.20236 14.898C5.82541 16.8664 9.38379 17.0354 12.1786 15.3243C14.0811 14.1595 15.4068 12.2684 15.8461 10.0924C16.4941 6.8833 15.1544 3.64412 12.4261 1.82316C11.3628 1.11347 10.0674 0.650359 8.80333 0.527947C8.40944 0.489789 7.54749 0.490914 7.16026 0.530041ZM4.82196 2.86471L4.83202 3.51568L4.91743 3.62756C4.96844 3.6944 5.0565 3.75913 5.13619 3.78835C5.20954 3.81522 5.81098 3.95142 6.47272 4.09099C7.13447 4.23052 7.71912 4.36272 7.77194 4.38472C7.9197 4.44631 8.09417 4.61492 8.17421 4.77352C8.26484 4.95315 8.50407 5.8806 8.50407 6.05242C8.50407 6.3334 8.42409 6.4545 7.34505 7.80772C6.77624 8.52103 6.29009 9.14443 6.26468 9.19309C6.23931 9.24172 6.07846 9.88759 5.90729 10.6283C5.707 11.4949 5.57268 12.0129 5.53053 12.0811C5.42033 12.2594 5.25445 12.3465 4.99344 12.3633C4.72755 12.3803 4.56036 12.3153 4.42985 12.1441C4.38716 12.0881 4.04821 11.368 3.67663 10.5439L3.00103 9.04559L3.44668 7.74693C3.94267 6.30149 3.96036 6.21727 3.80938 6.01932C3.74351 5.93294 3.54643 5.82241 2.80268 5.45473L1.87792 4.99756L2.00705 4.78539C2.51758 3.94638 3.30602 3.1345 4.12449 2.60504C4.38097 2.43913 4.75943 2.21774 4.79071 2.21534C4.80234 2.21443 4.8164 2.50666 4.82196 2.86471ZM14.4255 5.58158C14.7159 6.23146 14.9051 6.90461 15.0072 7.65146C15.056 8.00795 15.0559 8.97136 15.0071 9.33904C14.8269 10.6965 14.3048 11.9246 13.4701 12.9541C13.252 13.2232 12.6099 13.8705 12.5613 13.8705C12.504 13.8705 11.9417 13.4893 11.9417 13.4504C11.9417 13.4292 11.8785 12.8278 11.8012 12.1139C11.6502 10.7202 11.6494 10.637 11.7849 10.3715C11.82 10.3027 12.1626 9.79971 12.5464 9.25366C12.9302 8.70763 13.2605 8.23014 13.2805 8.19261C13.3058 8.14508 13.3169 7.83175 13.3173 7.16131L13.3179 6.19827L13.7619 5.67562C14.0061 5.38817 14.2173 5.16435 14.2312 5.17825C14.2451 5.19216 14.3326 5.37364 14.4255 5.58158ZM8.94059 14.5106C9.01968 14.5515 9.64993 15.33 9.62374 15.3544C9.60162 15.3751 9.09928 15.4645 8.84783 15.4925C8.42553 15.5397 7.91126 15.5581 7.70016 15.5337L7.50568 15.5112L7.6564 15.1987C7.73928 15.0268 7.83385 14.8631 7.86651 14.8349C7.8992 14.8067 8.06655 14.7125 8.23843 14.6255C8.5796 14.453 8.76911 14.422 8.94059 14.5106Z" fill="#757575"/>
</svg>
