<svg width="96" height="96" viewBox="0 0 96 40" fill="none" xmlns="http://www.w3.org/2000/svg">
<g filter="url(#filter0_dd_273_719)">
<path d="M68 26C68 37.0457 59.0457 46 48 46C36.9543 46 28 37.0457 28 26C28 14.9543 36.9543 6 48 6C59.0457 6 68 14.9543 68 26Z" fill="white"/>
</g>
<path d="M55.5 24.5H49.5V18.5C49.5 17.6716 48.8284 17 48 17C47.1715 17 46.4999 17.6716 46.4999 18.5V24.5H40.5C39.6716 24.5 39 25.1716 39 26C39 26.8285 39.6716 27.5 40.5 27.5H46.5V33.5C46.5 34.3284 47.1716 35 48 35C48.8285 35 49.5001 34.3284 49.5001 33.5V27.5H55.5001C56.3285 27.5 57.0001 26.8284 57.0001 26C57.0001 25.1715 56.3283 24.5 55.5 24.5Z" fill="#4095DA"/>
<defs>
<filter id="filter0_dd_273_719" x="0" y="0" width="96" height="96" filterUnits="userSpaceOnUse" color-interpolation-filters="sRGB">
<feFlood flood-opacity="0" result="BackgroundImageFix"/>
<feColorMatrix in="SourceAlpha" type="matrix" values="0 0 0 0 0 0 0 0 0 0 0 0 0 0 0 0 0 0 127 0" result="hardAlpha"/>
<feOffset dy="22"/>
<feGaussianBlur stdDeviation="14"/>
<feColorMatrix type="matrix" values="0 0 0 0 0.196487 0 0 0 0 0.196487 0 0 0 0 0.279476 0 0 0 0.05 0"/>
<feBlend mode="multiply" in2="BackgroundImageFix" result="effect1_dropShadow_273_719"/>
<feColorMatrix in="SourceAlpha" type="matrix" values="0 0 0 0 0 0 0 0 0 0 0 0 0 0 0 0 0 0 127 0" result="hardAlpha"/>
<feOffset dy="13"/>
<feGaussianBlur stdDeviation="5"/>
<feColorMatrix type="matrix" values="0 0 0 0 0.196487 0 0 0 0 0.196487 0 0 0 0 0.279476 0 0 0 0.05 0"/>
<feBlend mode="multiply" in2="effect1_dropShadow_273_719" result="effect2_dropShadow_273_719"/>
<feBlend mode="normal" in="SourceGraphic" in2="effect2_dropShadow_273_719" result="shape"/>
</filter>
</defs>
</svg>
