<svg width="80" height="80" viewBox="0 0 80 80" fill="none" xmlns="http://www.w3.org/2000/svg">
<circle cx="40" cy="40" r="38" fill="#02020B" stroke="white" stroke-width="4"/>
<path fill-rule="evenodd" clip-rule="evenodd" d="M17.0356 33.9912V34.9598H18.1118H19.188V33.9912V33.0226H18.1118H17.0356V33.9912ZM70.6312 33.98V34.9598H71.8273H73.0237L72.9574 34.045L72.8913 33.1302L71.7613 33.0652L70.6312 33V33.98ZM10.2862 35.8173C9.9478 35.9239 9.47405 36.1863 9.23319 36.4002C8.99255 36.6144 8.6176 37.1768 8.4002 37.6503C8.15805 38.1777 8.00286 39.015 8.00006 39.811C7.99662 40.738 8.13416 41.3861 8.47963 42.071C8.83219 42.7701 9.2276 43.1666 9.93252 43.5282C10.6183 43.8799 11.1192 43.9916 11.6474 43.9109C12.0578 43.8481 12.6631 43.5973 12.9926 43.3539L13.5917 42.9109V43.4415C13.5917 43.7333 13.5008 44.211 13.3898 44.5031C13.2658 44.8294 12.9044 45.1277 12.4522 45.2769C11.9438 45.4445 11.5406 45.4527 11.1474 45.3033C10.8344 45.1843 10.5783 44.9876 10.5783 44.8664C10.5783 44.7424 10.0593 44.6458 9.39441 44.6458C8.33541 44.6458 8.21057 44.6933 8.21057 45.0976C8.21057 45.3459 8.50804 45.8272 8.8718 46.1669C9.23535 46.5065 9.86687 46.8471 10.2752 46.9237C10.6835 47.0003 11.6441 47.0231 12.41 46.9743C13.3609 46.9138 13.9907 46.7476 14.3965 46.4499C14.7234 46.2104 15.1601 45.6822 15.367 45.2762C15.6886 44.6455 15.7435 43.9038 15.7437 40.1795L15.7441 35.8208H14.6679C13.7064 35.8208 13.5917 35.8707 13.5917 36.2887V36.7569L13.105 36.2995C12.8372 36.0481 12.232 35.793 11.7597 35.7329C11.2875 35.6729 10.6243 35.7108 10.2862 35.8173ZM23.7619 35.9148C23.3773 36.0883 23.0624 36.332 23.0624 36.4562C23.0624 36.5801 22.9655 36.6817 22.8471 36.6817C22.7288 36.6817 22.6319 36.4826 22.6319 36.2394C22.6319 35.8462 22.5187 35.8044 21.6095 35.8627L20.5871 35.9284L20.5283 39.8566L20.4698 43.7848H21.6584H22.8471V41.0942C22.8471 38.6906 22.893 38.3578 23.2776 37.9732C23.5144 37.7364 23.9836 37.5427 24.3205 37.5427C24.6573 37.5427 25.0932 37.7199 25.2891 37.9364C25.5805 38.2584 25.6453 38.8191 25.6453 41.0215C25.6453 42.5019 25.6856 43.7534 25.7348 43.8026C25.7841 43.8519 26.3285 43.858 26.9447 43.816L28.0651 43.7398L27.9747 40.5619C27.9032 38.0425 27.8085 37.2685 27.5181 36.8253C27.3169 36.5179 26.9622 36.1647 26.7301 36.0407C26.4983 35.9166 25.8928 35.7663 25.3849 35.7069C24.8147 35.6404 24.1939 35.7198 23.7619 35.9148ZM31.1596 35.8281C30.8187 35.9303 30.2974 36.2368 30.0012 36.5091C29.7052 36.7816 29.284 37.392 29.0655 37.8656C28.8367 38.3613 28.6663 39.2229 28.6635 39.8962C28.6604 40.6564 28.8186 41.3962 29.1153 42.009C29.3869 42.5702 29.9183 43.1815 30.4269 43.5181C31.1317 43.9845 31.5337 44.085 32.7148 44.0896C33.6773 44.0932 34.3773 43.9716 34.8478 43.7187C35.2331 43.5116 35.8119 42.944 36.1339 42.4574C36.5892 41.7697 36.7379 41.2509 36.8012 40.1308C36.8651 38.9971 36.7904 38.5094 36.4508 37.8469C36.2131 37.3837 35.7829 36.7844 35.4942 36.5151C35.2058 36.2459 34.6401 35.9312 34.2372 35.8156C33.8343 35.7 33.1164 35.6139 32.6422 35.624C32.1678 35.6342 31.5008 35.7261 31.1596 35.8281ZM44.802 35.844C44.506 35.96 44.0966 36.2687 43.8919 36.5298L43.52 37.0046L43.5153 36.4127C43.5107 35.8466 43.4636 35.8208 42.4343 35.8208H41.3581V39.8028V43.7848H42.5419H43.7258V41.2141C43.7258 38.8015 43.7553 38.6228 44.2043 38.3083C44.4673 38.1241 45 37.9732 45.3881 37.9732H46.0935V36.7894C46.0935 35.8001 46.0315 35.6077 45.7168 35.6191C45.5097 35.6266 45.098 35.7278 44.802 35.844ZM48.3204 36.0209C47.7043 36.3005 47.259 36.7177 46.8886 37.3615C46.5928 37.8755 46.2863 38.606 46.2073 38.9851C46.1285 39.3639 46.1303 40.1172 46.2116 40.6588C46.2928 41.2006 46.5681 41.9537 46.8233 42.3325C47.0786 42.7114 47.607 43.2366 47.9977 43.4998C48.3884 43.763 49.1194 44.0401 49.6222 44.1154C50.1252 44.191 50.9369 44.1449 51.4263 44.0129C51.9156 43.8812 52.6145 43.5224 52.9791 43.2155C53.3439 42.9085 53.802 42.3541 53.997 41.9834C54.2198 41.5602 54.3534 40.7841 54.3564 39.8973C54.3605 38.747 54.254 38.3017 53.782 37.4964C53.3812 36.8126 52.9152 36.3688 52.2705 36.0567C51.7029 35.7818 50.9235 35.6075 50.2765 35.6103C49.6923 35.6128 48.8122 35.7977 48.3204 36.0209ZM56.748 35.9094C56.3929 36.0672 55.8765 36.4413 55.6003 36.7407C55.3231 37.0414 55.0461 37.6753 54.9815 38.1568C54.8795 38.9166 54.9466 39.1108 55.5033 39.6674C55.8545 40.0187 56.5689 40.416 57.0907 40.5503C57.6124 40.6846 58.4269 40.9184 58.9005 41.0699C59.5018 41.2623 59.7614 41.4673 59.7614 41.7499C59.7614 42.0146 59.5384 42.2182 59.1157 42.3392C58.7136 42.4544 58.2388 42.4363 57.8572 42.291C57.5203 42.1627 57.1942 41.865 57.1327 41.6298C57.0384 41.2697 56.8373 41.2019 55.8619 41.2019C54.9017 41.2019 54.7034 41.2664 54.7041 41.5785C54.7045 41.7856 54.8939 42.2654 55.1251 42.6442C55.356 43.0232 55.8642 43.502 56.2542 43.7082C56.7327 43.9611 57.4529 44.0829 58.47 44.0829C59.4687 44.0829 60.2081 43.9604 60.6631 43.7198C61.0406 43.5202 61.5008 43.141 61.6855 42.8771C61.8704 42.6134 62.0215 41.9963 62.0215 41.5058C62.0215 40.9339 61.8639 40.4139 61.5817 40.055C61.3026 39.7003 60.6932 39.3663 59.9136 39.1407C59.238 38.9452 58.3462 38.6712 57.9319 38.5318C57.5175 38.3923 57.1785 38.1392 57.1785 37.9695C57.1785 37.7997 57.4312 37.5718 57.7403 37.4631C58.0492 37.3546 58.5679 37.3324 58.8929 37.414C59.2179 37.4956 59.5335 37.7517 59.594 37.9831C59.6842 38.3279 59.8932 38.4037 60.7552 38.4037C61.724 38.4037 61.8062 38.3628 61.8062 37.8822C61.8062 37.5952 61.5699 37.0795 61.2808 36.7362C60.992 36.3927 60.3753 35.9979 59.9106 35.8586C59.4459 35.7194 58.6895 35.6094 58.2298 35.6139C57.77 35.6187 57.1032 35.7515 56.748 35.9094ZM64.4968 35.9094C64.1416 36.0672 63.6253 36.4413 63.3491 36.7407C63.0719 37.0414 62.7949 37.6753 62.7303 38.1568C62.6283 38.9166 62.6954 39.1108 63.252 39.6674C63.6033 40.0187 64.3177 40.416 64.8395 40.5503C65.3612 40.6846 66.1757 40.9184 66.6492 41.0699C67.1292 41.2234 67.541 41.5036 67.5797 41.7034C67.6239 41.9313 67.434 42.1433 67.058 42.2863C66.7327 42.41 66.1897 42.4503 65.8511 42.3758C65.5125 42.3015 65.0825 42.0069 64.8952 41.7212C64.6124 41.2895 64.3773 41.2019 63.5034 41.2019C62.6453 41.2019 62.4522 41.2712 62.4528 41.5785C62.4533 41.7856 62.6427 42.2654 62.8739 42.6442C63.1048 43.0232 63.613 43.5056 64.003 43.7161C64.4966 43.9824 65.1701 44.0958 66.2187 44.0896C67.199 44.0835 67.9654 43.954 68.4119 43.7185C68.7894 43.5196 69.2496 43.141 69.4343 42.8771C69.6192 42.6134 69.7703 41.9963 69.7703 41.5058C69.7703 40.9339 69.6127 40.4139 69.3305 40.055C69.0513 39.7003 68.442 39.3663 67.6624 39.1407C66.9867 38.9452 66.095 38.6712 65.6806 38.5318C65.2663 38.3923 64.9273 38.1392 64.9273 37.9695C64.9273 37.7997 65.18 37.5718 65.4891 37.4631C65.7979 37.3546 66.2999 37.3281 66.6047 37.4047C66.9092 37.4812 67.2201 37.7373 67.2952 37.9736C67.4073 38.3271 67.6211 38.4037 68.4932 38.4037C69.4734 38.4037 69.555 38.3637 69.555 37.8822C69.555 37.5952 69.3142 37.0743 69.0199 36.7246C68.6852 36.3268 68.1256 35.9981 67.5255 35.847C66.9979 35.7142 66.2459 35.6094 65.8543 35.6139C65.4628 35.6187 64.8519 35.7515 64.4968 35.9094ZM17.0356 39.8028V43.7848H18.1118H19.188V39.8028V35.8208H18.1118H17.0356V39.8028ZM70.7847 35.9544C70.7003 36.0388 70.6312 37.835 70.6312 39.9463V43.7848H71.82H73.0086L72.9501 39.8566L72.8913 35.9284L71.9147 35.8647C71.3775 35.8296 70.8691 35.8701 70.7847 35.9544ZM12.8336 38.027C13.1657 38.3154 13.4421 38.8329 13.5176 39.3069C13.5871 39.7442 13.5828 40.3469 13.5077 40.6461C13.4326 40.9453 13.1603 41.3863 12.9027 41.6263C12.645 41.8665 12.2158 42.0628 11.9487 42.0628C11.6818 42.0628 11.1945 41.8317 10.8658 41.549C10.3352 41.0927 10.2705 40.8958 10.2866 39.7873C10.3021 38.7111 10.3843 38.4706 10.8839 38.041C11.2025 37.767 11.6461 37.5427 11.8697 37.5427C12.0934 37.5427 12.5271 37.7605 12.8336 38.027ZM34.0241 38.1099C34.3612 38.5382 34.4703 38.9881 34.4703 39.9491C34.4703 41.0129 34.3838 41.308 33.9419 41.7497C33.6089 42.0829 33.1676 42.2781 32.7483 42.2781C32.3291 42.2781 31.8878 42.0829 31.5548 41.7497C31.1129 41.308 31.0264 41.0129 31.0264 39.9491C31.0264 38.9881 31.1355 38.5382 31.4726 38.1099C31.8166 37.6723 32.1084 37.5427 32.7483 37.5427C33.3883 37.5427 33.6801 37.6723 34.0241 38.1099ZM51.4625 37.9612C51.6928 38.1915 51.9457 38.7242 52.0247 39.145C52.1035 39.566 52.1054 40.2453 52.0286 40.6545C51.9487 41.0796 51.6495 41.5869 51.3299 41.8383C51.0223 42.0803 50.5019 42.2781 50.1732 42.2781C49.7702 42.2781 49.3942 42.0624 49.0184 41.6158C48.6006 41.1194 48.4611 40.7126 48.4611 39.9909C48.4611 39.4614 48.6045 38.7511 48.7795 38.4125C48.9545 38.0739 49.2209 37.7474 49.3714 37.6867C49.5219 37.6262 49.9597 37.569 50.3445 37.5597C50.7685 37.5494 51.2089 37.7076 51.4625 37.9612Z" fill="white"/>
</svg>
