<svg width="21" height="20" viewBox="0 0 21 20" fill="none" xmlns="http://www.w3.org/2000/svg">
<path fill-rule="evenodd" clip-rule="evenodd" d="M13.4337 0.00725528C13.3226 0.0159417 12.9408 0.051536 12.5853 0.086403C12.2297 0.12123 11.7025 0.193428 11.4136 0.246799C11.1247 0.300211 10.7247 0.391075 10.5247 0.448729C10.3248 0.506383 10.0157 0.623953 9.83791 0.709969C9.66014 0.795985 9.44815 0.922 9.36682 0.989996C9.28549 1.05799 9.18093 1.19209 9.13451 1.28804C9.05084 1.46084 9.05007 1.4945 9.05007 4.98936V8.5163L8.91877 8.49287C8.84653 8.47998 8.46929 8.44831 8.08042 8.42249C7.6581 8.39445 6.9585 8.38471 6.34313 8.39833C5.77649 8.41085 5.03434 8.45004 4.69392 8.4854C4.35349 8.52079 3.81715 8.59363 3.50205 8.64729C3.18696 8.70094 2.71389 8.80061 2.45079 8.86873C2.18765 8.93685 1.78767 9.06488 1.56195 9.15324C1.33618 9.2416 1.03328 9.3824 0.888846 9.46612C0.744409 9.54983 0.515733 9.72744 0.380628 9.86076C0.206657 10.0325 0.115389 10.1612 0.0675121 10.3023C0.00638374 10.4826 0 10.8504 0 14.204C0 17.4677 0.00755507 17.9287 0.0636332 18.0933C0.0986214 18.1961 0.201001 18.3639 0.291097 18.4662C0.381194 18.5686 0.563973 18.7264 0.697259 18.8169C0.830546 18.9074 1.07518 19.0441 1.24087 19.1207C1.40656 19.1972 1.73062 19.3216 1.961 19.3971C2.19137 19.4725 2.63983 19.588 2.95751 19.6537C3.27524 19.7194 3.73517 19.8014 3.97961 19.836C4.22404 19.8705 4.66038 19.9217 4.94926 19.9497C5.25324 19.9791 6.03607 20.0003 6.80775 20C7.57148 19.9997 8.36538 19.9777 8.66625 19.9484C8.95513 19.9204 9.48391 19.8524 9.84131 19.7974C10.1987 19.7424 10.7381 19.6351 11.0399 19.5591C11.3418 19.483 11.7766 19.3473 12.0062 19.2575C12.2358 19.1676 12.5418 19.0256 12.6863 18.9419C12.8307 18.8582 13.0594 18.6805 13.1945 18.5472C13.3685 18.3755 13.4597 18.2467 13.5076 18.1057C13.5447 17.9962 13.5751 17.8033 13.5751 17.677V17.4474L14.7569 17.4243C15.4068 17.4116 16.2023 17.3723 16.5245 17.3371C16.8467 17.3018 17.3194 17.2363 17.5749 17.1915C17.8305 17.1468 18.2083 17.0656 18.4147 17.0111C18.621 16.9567 18.9262 16.8553 19.0929 16.7859C19.2597 16.7165 19.502 16.5818 19.6313 16.4865C19.7871 16.3718 19.8957 16.2531 19.953 16.1348L20.0394 15.9562V8.7093V1.46242L19.955 1.28804C19.9086 1.19209 19.804 1.05799 19.7227 0.989996C19.6414 0.922 19.4294 0.795702 19.2516 0.709323C19.0738 0.622983 18.7375 0.49907 18.5042 0.434023C18.2708 0.368935 17.8605 0.276859 17.5923 0.229386C17.3241 0.181914 16.8423 0.114967 16.5216 0.080666C16.1882 0.0449909 15.4458 0.012548 14.7872 0.00491202C14.1539 -0.00248157 13.5448 -0.00139077 13.4337 0.00725528ZM16.4542 0.727908C16.76 0.761037 17.1781 0.816833 17.3834 0.851821C17.5887 0.88685 17.9605 0.9683 18.2096 1.03282C18.4587 1.09734 18.7951 1.21188 18.957 1.28732C19.119 1.36275 19.2862 1.46367 19.3286 1.51151C19.4042 1.59708 19.4042 1.59999 19.3286 1.68556C19.2862 1.73339 19.1199 1.83392 18.9589 1.90886C18.798 1.98385 18.4253 2.10643 18.1307 2.18133C17.8361 2.25624 17.386 2.34678 17.1305 2.38258C16.875 2.41837 16.4932 2.46536 16.282 2.48698C16.0709 2.50863 15.5164 2.53796 15.0498 2.55222C14.5456 2.56762 13.9018 2.55929 13.4632 2.53166C13.0573 2.50613 12.523 2.45853 12.2759 2.42593C12.0288 2.39336 11.6773 2.3387 11.4947 2.30448C11.3121 2.27026 10.9954 2.19749 10.7909 2.14279C10.5865 2.08808 10.2884 1.98239 10.1286 1.90793C9.96869 1.83347 9.80329 1.73339 9.76095 1.68556C9.68527 1.59999 9.68527 1.59708 9.76095 1.51151C9.80329 1.46367 9.97047 1.36275 10.1325 1.28732C10.2945 1.21188 10.6308 1.09734 10.8799 1.03282C11.129 0.9683 11.4964 0.888587 11.6964 0.855659C11.8964 0.822731 12.2254 0.775219 12.4275 0.750089C12.6297 0.724999 13.0205 0.688718 13.2962 0.669527C13.5718 0.650295 14.27 0.642013 14.8478 0.651103C15.4255 0.660194 16.1484 0.694737 16.4542 0.727908ZM10.0526 2.58653C10.1928 2.64458 10.511 2.7445 10.7596 2.80858C11.0082 2.87261 11.457 2.96206 11.757 3.00731C12.057 3.05256 12.5388 3.11292 12.8277 3.14149C13.1269 3.17106 13.8745 3.19328 14.565 3.19312C15.2605 3.19292 15.9922 3.1707 16.282 3.14088C16.5598 3.11236 17.0325 3.05212 17.3325 3.00699C17.6325 2.9619 18.0813 2.87261 18.3299 2.80858C18.5785 2.7445 18.8967 2.64458 19.0369 2.58653C19.1772 2.52843 19.3148 2.47134 19.3425 2.45962C19.382 2.44298 19.393 2.63113 19.393 3.32447C19.393 4.19352 19.3912 4.21223 19.3013 4.29675C19.2508 4.34414 19.0854 4.4392 18.9338 4.50797C18.7821 4.57677 18.4188 4.69382 18.1266 4.76812C17.8343 4.84242 17.386 4.93251 17.1305 4.96831C16.875 5.00411 16.4932 5.0511 16.282 5.07271C16.0709 5.09437 15.5164 5.1237 15.0498 5.13796C14.5456 5.15335 13.9018 5.14503 13.4632 5.11739C13.0573 5.09186 12.5211 5.04402 12.2717 5.01114C12.0224 4.97825 11.6772 4.92456 11.5047 4.89183C11.3321 4.8591 11.0411 4.79414 10.8579 4.74747C10.6746 4.70077 10.3917 4.60732 10.2291 4.53973C10.0665 4.47217 9.88013 4.37202 9.81497 4.31719L9.69651 4.21748V3.3279C9.69651 2.63182 9.70749 2.44298 9.74701 2.45962C9.77481 2.47134 9.91229 2.52843 10.0526 2.58653ZM10.0526 5.17226C10.1928 5.23032 10.511 5.33023 10.7596 5.39431C11.0082 5.45835 11.457 5.5478 11.757 5.59305C12.057 5.6383 12.5388 5.69866 12.8277 5.72722C13.1269 5.7568 13.8745 5.77902 14.565 5.77886C15.2605 5.77866 15.9922 5.75643 16.282 5.72662C16.5598 5.69809 17.0325 5.63785 17.3325 5.59273C17.6325 5.54764 18.0813 5.45835 18.3299 5.39431C18.5785 5.33023 18.8967 5.23032 19.0369 5.17226C19.1772 5.11416 19.3148 5.05707 19.3425 5.04536C19.3827 5.02843 19.393 5.79866 19.393 8.81916V12.6142L19.3013 12.7004C19.2508 12.7478 19.0854 12.8428 18.9338 12.9116C18.7821 12.9804 18.4188 13.0975 18.1266 13.1718C17.8343 13.2461 17.386 13.3362 17.1305 13.3719C16.875 13.4077 16.4932 13.4547 16.282 13.4763C16.0709 13.498 15.5164 13.5277 15.0498 13.5425C14.5831 13.5573 14.0604 13.5561 13.8882 13.5398L13.5751 13.5102V13.1358V12.7614L13.7872 12.8223C13.9264 12.8623 14.187 12.8843 14.5448 12.8862C14.9515 12.8883 15.157 12.8706 15.3528 12.8166C15.4972 12.7768 15.7623 12.6737 15.9418 12.5875C16.1212 12.5012 16.398 12.3292 16.5566 12.205C16.7153 12.0809 16.9467 11.8495 17.0708 11.6908C17.195 11.5322 17.367 11.2554 17.4533 11.076C17.5395 10.8965 17.6425 10.6314 17.6821 10.487C17.7348 10.2951 17.7543 10.0775 17.7543 9.67895C17.7543 9.28039 17.7348 9.06282 17.6821 8.87091C17.6425 8.72647 17.5395 8.46144 17.4533 8.28193C17.367 8.10246 17.196 7.82716 17.0732 7.67016C16.9504 7.5132 16.7344 7.29285 16.5932 7.18049C16.452 7.06817 16.2016 6.90361 16.0366 6.81485C15.8716 6.72609 15.5912 6.61159 15.4134 6.56044C15.1452 6.48327 14.9974 6.46779 14.5448 6.46937C14.1553 6.47078 13.9242 6.49167 13.7367 6.54254C13.5923 6.58169 13.3272 6.68423 13.1477 6.77045C12.9683 6.85667 12.693 7.02769 12.536 7.15051C12.379 7.27333 12.1598 7.48795 12.0489 7.62746C11.9379 7.76692 11.7827 7.99924 11.704 8.14367C11.6252 8.28811 11.5226 8.52596 11.4758 8.67221L11.3908 8.9381L10.9376 8.82683C10.6883 8.76558 10.3071 8.6847 10.0904 8.64705L9.69651 8.57856V6.80131C9.69651 5.39508 9.70705 5.02851 9.74701 5.04536C9.77481 5.05707 9.91229 5.11416 10.0526 5.17226ZM15.3413 7.23273C15.5435 7.29701 15.7901 7.41644 15.9724 7.53837C16.137 7.64847 16.3391 7.81323 16.4216 7.90453C16.5041 7.99584 16.6398 8.17604 16.7231 8.305C16.8065 8.43392 16.9244 8.68987 16.9851 8.87374C17.0737 9.14169 17.085 9.21473 17.0423 9.24184C17.013 9.26043 16.8737 9.34725 16.7327 9.43484C16.5916 9.5224 16.3768 9.61471 16.2552 9.63993C16.1311 9.6657 15.9458 9.67362 15.8325 9.65803C15.7214 9.64275 15.5363 9.58053 15.421 9.51973C15.3057 9.45896 15.1109 9.35255 14.988 9.2833C14.8652 9.21405 14.6568 9.12928 14.525 9.09494C14.3854 9.05858 14.115 9.03252 13.877 9.03252C13.6217 9.03252 13.3863 9.05668 13.2491 9.09696C13.1284 9.13243 12.9289 9.21478 12.8056 9.28002L12.5816 9.39856L12.3066 9.27388L12.0317 9.14924L12.0588 9.00489C12.0736 8.9255 12.13 8.7607 12.184 8.63864C12.238 8.51659 12.3637 8.30237 12.4635 8.16258C12.5632 8.02279 12.7405 7.8247 12.8574 7.72236C12.9744 7.61998 13.2155 7.4648 13.3933 7.37749C13.5711 7.29014 13.8438 7.19071 13.9993 7.15653C14.1828 7.11621 14.4099 7.10013 14.6458 7.11079C14.8874 7.1217 15.1207 7.16259 15.3413 7.23273ZM7.99962 9.07426C8.36627 9.097 8.9026 9.14342 9.19148 9.1774C9.48035 9.21138 9.98417 9.29251 10.3111 9.35764C10.638 9.42276 11.1518 9.55714 11.453 9.65625C11.7541 9.75535 12.113 9.89632 12.2503 9.96953C12.3876 10.0427 12.5915 10.1867 12.7033 10.2896C12.8842 10.4559 12.9067 10.4949 12.9067 10.6426C12.9067 10.7848 12.8808 10.835 12.7267 10.9919C12.6132 11.1076 12.4124 11.241 12.1822 11.3535C11.9817 11.4516 11.6358 11.5891 11.4136 11.6591C11.1914 11.7292 10.8138 11.8307 10.5746 11.8849C10.3353 11.939 9.89896 12.0186 9.60491 12.0617C9.31087 12.1048 8.83392 12.1629 8.54505 12.1907C8.25451 12.2188 7.46922 12.2414 6.78755 12.2414C6.10589 12.2414 5.32059 12.2188 5.03006 12.1907C4.74119 12.1629 4.26424 12.1048 3.97019 12.0617C3.67615 12.0186 3.23071 11.9371 2.98034 11.8806C2.72997 11.8241 2.30696 11.7039 2.04031 11.6136C1.77365 11.5232 1.44741 11.3919 1.31529 11.3219C1.18322 11.2519 0.98363 11.1105 0.871797 11.0076C0.688735 10.8393 0.668453 10.8035 0.668453 10.6486C0.668453 10.4937 0.688735 10.4579 0.871797 10.2896C0.98363 10.1867 1.1875 10.0427 1.32483 9.96953C1.46215 9.89632 1.82096 9.75535 2.12212 9.65625C2.42328 9.55714 2.93715 9.42272 3.26405 9.35752C3.59094 9.29231 4.10384 9.21005 4.40383 9.17465C4.70382 9.1393 5.18561 9.09551 5.47449 9.07733C5.76336 9.05915 6.2997 9.04169 6.66635 9.03858C7.033 9.03547 7.63297 9.05151 7.99962 9.07426ZM3.28829 9.73907C3.1525 9.76865 2.9616 9.83345 2.86407 9.88311C2.76653 9.9328 2.62856 10.0177 2.55745 10.0719C2.48639 10.126 2.39092 10.2473 2.34534 10.3414C2.29981 10.4355 2.26252 10.5737 2.26252 10.6486C2.26252 10.7235 2.29981 10.8617 2.34534 10.9558C2.39092 11.0499 2.48639 11.1712 2.55745 11.2253C2.62856 11.2795 2.76593 11.3641 2.86273 11.4134C2.95954 11.4627 3.15953 11.5287 3.30715 11.56C3.45478 11.5913 3.71194 11.6168 3.8786 11.6168C4.04526 11.6168 4.30218 11.5913 4.44952 11.5601C4.59687 11.5288 4.8083 11.4573 4.91932 11.401C5.03039 11.3447 5.1806 11.2393 5.25312 11.1668C5.32568 11.0942 5.40968 10.9758 5.43986 10.9036C5.47 10.8315 5.49469 10.7139 5.49469 10.6425C5.49469 10.571 5.4574 10.4355 5.41186 10.3414C5.36629 10.2473 5.27082 10.126 5.19975 10.0719C5.12864 10.0177 4.99128 9.93308 4.89447 9.88379C4.79767 9.8345 4.59768 9.76853 4.45005 9.73725C4.30242 9.70594 4.03617 9.6815 3.8584 9.68287C3.68063 9.68425 3.42408 9.70954 3.28829 9.73907ZM14.3992 9.73629C14.504 9.7678 14.7144 9.86897 14.8668 9.96108C15.0193 10.0532 15.241 10.1656 15.3595 10.2109C15.478 10.2562 15.7114 10.3027 15.878 10.3143C16.0858 10.3288 16.2602 10.3151 16.433 10.2708C16.5715 10.2353 16.776 10.16 16.8875 10.1035C17.0781 10.0069 17.0901 10.0054 17.0901 10.078C17.0901 10.1205 17.0523 10.2799 17.0061 10.4323C16.9598 10.5846 16.8499 10.832 16.7617 10.982C16.6736 11.1321 16.5056 11.3531 16.3883 11.4732C16.2711 11.5933 16.0597 11.7662 15.9186 11.8574C15.7776 11.9485 15.5153 12.0716 15.3358 12.1308C15.0579 12.2225 14.9403 12.2384 14.5448 12.2379C14.1949 12.2375 14.0203 12.2179 13.8377 12.1586L13.5953 12.0797L13.5751 11.2329C13.5593 10.5701 13.5406 10.3546 13.4893 10.2416C13.4531 10.1622 13.3657 10.0313 13.2949 9.95066L13.1661 9.80404L13.3605 9.74433C13.4674 9.71148 13.702 9.68332 13.8818 9.68178C14.0616 9.68021 14.2944 9.70473 14.3992 9.73629ZM4.26129 10.3686C4.39765 10.3923 4.58095 10.452 4.66862 10.5011C4.7563 10.5503 4.82805 10.6169 4.82805 10.6491C4.82805 10.6813 4.75363 10.7487 4.66265 10.7989C4.57166 10.8491 4.35813 10.9117 4.18812 10.9382C3.95836 10.9739 3.80604 10.9749 3.59453 10.9422C3.43806 10.918 3.22433 10.8557 3.11957 10.8037C3.01485 10.7517 2.92915 10.6819 2.92915 10.6486C2.92915 10.6153 3.01238 10.5467 3.11407 10.4962C3.21577 10.4457 3.37939 10.3886 3.47769 10.3693C3.57599 10.35 3.73671 10.3323 3.83489 10.3298C3.93306 10.3274 4.12497 10.3448 4.26129 10.3686ZM0.899674 11.8331C1.02213 11.9068 1.31069 12.0421 1.5409 12.1337C1.77115 12.2253 2.17767 12.3548 2.44433 12.4216C2.71098 12.4883 3.06919 12.5712 3.24029 12.6058C3.41143 12.6403 3.82959 12.7039 4.16954 12.7472C4.50952 12.7904 5.06634 12.8449 5.40701 12.8684C5.74764 12.8919 6.36891 12.9111 6.78755 12.9111C7.2062 12.9111 7.82746 12.8919 8.16809 12.8684C8.50877 12.8449 9.06809 12.79 9.41111 12.7464C9.75412 12.7029 10.2177 12.6305 10.4414 12.5857C10.665 12.5409 11.0696 12.4413 11.3405 12.3644C11.6114 12.2875 12.0023 12.1512 12.2092 12.0615C12.416 11.9718 12.6531 11.8536 12.7359 11.7987C12.8187 11.7439 12.8964 11.6991 12.9084 11.6991C12.9204 11.6991 12.9253 13.101 12.9193 14.8144L12.9085 17.9298L12.7042 18.1176C12.5919 18.2208 12.3893 18.3643 12.2542 18.4364C12.1189 18.5085 11.9972 18.5674 11.9837 18.5674C11.9701 18.5674 11.959 17.4848 11.959 16.1617V13.7559L11.8598 13.6567C11.8053 13.6022 11.7147 13.5576 11.6585 13.5576C11.6022 13.5576 11.4025 13.6021 11.2146 13.6566C11.0266 13.711 10.6518 13.8023 10.3815 13.8593C10.1113 13.9164 9.61477 13.9988 9.27822 14.0424C8.94163 14.0861 8.24357 14.1439 7.7269 14.171C6.98847 14.2096 6.58663 14.2096 5.84821 14.171C5.33158 14.1439 4.63348 14.0861 4.29689 14.0424C3.96034 13.9988 3.46383 13.9164 3.19358 13.8593C2.92333 13.8023 2.54848 13.711 2.36053 13.6566C2.17262 13.6021 1.9757 13.5576 1.92298 13.5576C1.87021 13.5576 1.78412 13.5923 1.73167 13.6348L1.63629 13.712L1.61608 16.1416L1.59588 18.5711L1.34204 18.4442C1.20241 18.3745 0.993326 18.2301 0.877412 18.1236L0.666635 17.9298L0.655807 14.8144C0.649827 13.101 0.65217 11.6991 0.661019 11.6991C0.669826 11.6991 0.777216 11.7594 0.899674 11.8331ZM19.393 14.6414C19.393 15.842 19.3927 15.8467 19.3013 15.9326C19.2508 15.9799 19.0914 16.0723 18.9469 16.1378C18.8024 16.2034 18.5119 16.3037 18.3013 16.3609C18.0907 16.418 17.7729 16.4924 17.5952 16.5262C17.4174 16.56 17.0629 16.6147 16.8073 16.6478C16.5517 16.6809 16.0518 16.7263 15.6962 16.7487C15.3407 16.7711 14.8134 16.7894 14.5246 16.7892C14.2357 16.7891 13.9039 16.7776 13.7872 16.7635L13.5751 16.7381V15.4769V14.2157L14.7569 14.1919C15.4068 14.1789 16.1932 14.14 16.5043 14.1057C16.8154 14.0712 17.2937 14.0054 17.5672 13.9593C17.8408 13.9132 18.2519 13.8229 18.4807 13.7586C18.7094 13.6944 18.9947 13.5971 19.1145 13.5424C19.2344 13.4877 19.346 13.4415 19.3627 13.4397C19.3794 13.4378 19.393 13.9786 19.393 14.6414ZM2.73365 14.4288C2.97452 14.4858 3.44428 14.5751 3.7776 14.6272C4.11091 14.6794 4.63816 14.7464 4.94926 14.7762C5.3016 14.8098 6.02521 14.8292 6.86836 14.8275C7.85587 14.8255 8.39115 14.8062 8.84806 14.7559C9.19249 14.718 9.7365 14.6416 10.057 14.586C10.3775 14.5304 10.7805 14.449 10.9526 14.4051C11.1246 14.3612 11.2761 14.3252 11.289 14.3252C11.302 14.3252 11.3126 15.3329 11.3126 16.5646V18.8041L11.1005 18.8655C10.9838 18.8992 10.7171 18.9649 10.5079 19.0114C10.2986 19.0578 9.88955 19.1306 9.59881 19.1731C9.30812 19.2156 8.86119 19.2696 8.60565 19.2931C8.35011 19.3166 7.75013 19.347 7.27238 19.3607C6.76836 19.3751 6.08997 19.3661 5.65629 19.3394C5.2452 19.314 4.61796 19.2558 4.26242 19.21C3.90688 19.1642 3.40885 19.0825 3.15569 19.0283C2.90253 18.9742 2.59802 18.9016 2.47895 18.867L2.26252 18.8041V16.5646C2.26252 15.3329 2.26999 14.3252 2.27912 14.3252C2.28829 14.3252 2.49281 14.3718 2.73365 14.4288ZM3.97779 15.9193C3.92325 15.9738 3.8786 16.0593 3.8786 16.1093C3.8786 16.1593 3.94619 16.4056 4.02878 16.6566L4.17899 17.1129L4.02878 17.5693C3.94619 17.8203 3.8786 18.0666 3.8786 18.1166C3.8786 18.1665 3.92325 18.2521 3.97779 18.3066C4.0533 18.3821 4.11972 18.4058 4.25632 18.4058C4.35498 18.4058 4.55437 18.3692 4.69937 18.3244C4.84437 18.2796 5.05515 18.1737 5.16775 18.0891C5.28035 18.0045 5.42269 17.8691 5.4841 17.7882C5.54547 17.7073 5.60991 17.6404 5.62729 17.6396C5.64462 17.6388 5.79007 17.7362 5.9505 17.856C6.1109 17.9757 6.33723 18.1213 6.45347 18.1795C6.56971 18.2376 6.77879 18.312 6.91809 18.3449C7.0574 18.3777 7.28955 18.4046 7.43399 18.4046C7.57843 18.4046 7.81058 18.3777 7.94988 18.3449C8.08919 18.312 8.29827 18.2375 8.41451 18.1792C8.53074 18.121 8.85784 17.9006 9.14138 17.6895C9.47817 17.4387 9.66528 17.2723 9.68107 17.2093C9.69436 17.1563 9.69461 17.0704 9.68156 17.0184C9.66669 16.9593 9.48237 16.7908 9.18934 16.5685C8.93165 16.373 8.62674 16.1625 8.51171 16.1007C8.39673 16.0389 8.19355 15.956 8.06022 15.9166C7.90253 15.8699 7.68367 15.8448 7.43399 15.8448C7.18257 15.8448 6.96698 15.8697 6.80897 15.917C6.67633 15.9566 6.49452 16.0258 6.40495 16.0707C6.31541 16.1156 6.1109 16.2503 5.9505 16.37C5.79007 16.4897 5.64462 16.5871 5.62729 16.5863C5.60991 16.5855 5.54547 16.5186 5.4841 16.4377C5.42269 16.3568 5.28035 16.2214 5.16775 16.1368C5.05515 16.0521 4.84437 15.9463 4.69937 15.9015C4.55437 15.8567 4.35498 15.8201 4.25632 15.8201C4.11972 15.8201 4.0533 15.8438 3.97779 15.9193ZM8.04568 16.6053C8.17096 16.6551 8.3937 16.7842 8.5406 16.892C8.68746 16.9999 8.80766 17.0993 8.80766 17.1129C8.80766 17.1266 8.68746 17.226 8.5406 17.3339C8.3937 17.4417 8.16187 17.5753 8.02548 17.6307C7.82706 17.7113 7.70868 17.7313 7.43399 17.7303C7.18127 17.7294 7.03009 17.706 6.86149 17.6416C6.73548 17.5934 6.50821 17.4623 6.35646 17.3503C6.20467 17.2382 6.08052 17.132 6.08052 17.1142C6.08052 17.0963 6.19247 16.9976 6.32931 16.8947C6.46615 16.7918 6.66376 16.6698 6.76848 16.6234C6.87321 16.5771 7.04306 16.5244 7.14596 16.5063C7.24883 16.4881 7.44207 16.4826 7.5754 16.494C7.70872 16.5054 7.92035 16.5555 8.04568 16.6053ZM5.02521 16.9016C5.11139 17.0231 5.13483 17.0924 5.11563 17.1689C5.10141 17.2257 5.01717 17.3484 4.92853 17.4416C4.83985 17.5348 4.75682 17.6006 4.74398 17.5878C4.73117 17.5749 4.7527 17.4629 4.79185 17.3387C4.85896 17.1257 4.85916 17.1007 4.79504 16.8973C4.75763 16.7787 4.72705 16.6673 4.72705 16.6499C4.72705 16.6325 4.76793 16.6451 4.81795 16.6779C4.86797 16.7107 4.96122 16.8114 5.02521 16.9016Z" fill="#757575"/>
</svg>
