<svg width="16" height="20" viewBox="0 0 16 20" fill="none" xmlns="http://www.w3.org/2000/svg">
<path fill-rule="evenodd" clip-rule="evenodd" d="M3.19832 0.0850216C2.61961 0.390653 2.32264 1.15185 2.37649 2.19144C2.40569 2.75511 2.53495 3.42996 2.72096 3.99C2.79437 4.21102 3.57914 5.90885 4.46487 7.76296C5.3506 9.61706 6.08336 11.1642 6.09318 11.201C6.11417 11.2795 4.88588 13.5497 4.83011 13.5356C4.80935 13.5303 4.64164 13.4716 4.45746 13.4052C3.97818 13.2324 3.20591 13.204 2.66801 13.3394C1.16517 13.7178 0.0941869 14.9505 0.00649367 16.4028C-0.0507927 17.3511 0.272609 18.2443 0.91093 18.9005C1.76522 19.7789 3.02119 20.1758 4.15844 19.9268C4.59565 19.831 5.23299 19.5109 5.60274 19.2012C6.1247 18.764 6.29906 18.4822 7.14447 16.7092C7.56985 15.8172 7.92791 15.0872 7.94019 15.087C7.95246 15.0868 8.30949 15.8148 8.73362 16.7047C9.57389 18.4679 9.75589 18.7633 10.2582 19.1791C10.5929 19.4562 11.2298 19.7861 11.6206 19.8848C12.93 20.2157 14.3719 19.7296 15.1494 18.6952C15.6366 18.0471 15.8514 17.4141 15.8514 16.626C15.8514 15.3202 15.1467 14.178 13.9903 13.6096C13.4354 13.3368 13.1521 13.277 12.4275 13.2793C11.8508 13.2811 11.7721 13.2917 11.4105 13.4164L11.0184 13.5514L10.8912 13.325C10.6285 12.8577 9.77085 11.2585 9.77085 11.2361C9.77085 11.2233 10.4758 9.73837 11.3375 7.93629C12.1992 6.1342 12.9641 4.51009 13.0373 4.32716C13.4854 3.20746 13.6339 1.80656 13.3885 1.01214C13.2348 0.514379 12.8256 0.0648398 12.4744 0.00782137C12.3453 -0.0131196 12.2997 0.00371336 12.1952 0.111097C12.1265 0.181645 11.1461 1.9519 10.0164 4.04501C8.88677 6.13809 7.95246 7.85034 7.94019 7.84998C7.92791 7.84967 6.9936 6.1371 5.86395 4.04439C4.73429 1.95163 3.75632 0.184145 3.69068 0.116589C3.55088 -0.0272293 3.42599 -0.0352217 3.19832 0.0850216ZM6.97574 7.60981C8.96245 11.2818 10.6296 14.3154 10.6805 14.351C10.8166 14.4464 10.9006 14.4326 11.2452 14.2591C12.4535 13.6506 13.9381 14.0477 14.7126 15.1864C15.034 15.6589 15.1492 16.0422 15.1454 16.626C15.1404 17.3812 14.9201 17.9243 14.4131 18.4322C14.076 18.7698 13.7536 18.9727 13.2909 19.1385C13.0116 19.2384 12.8877 19.2561 12.4499 19.258C11.8752 19.2606 11.6446 19.2036 11.1666 18.9409C10.8287 18.7551 10.407 18.373 10.2244 18.0871C10.0546 17.8212 3.84459 4.82885 3.57758 4.18075C3.46904 3.91731 3.31848 3.46523 3.24297 3.17612C3.12335 2.71796 3.10514 2.57026 3.10107 2.02539C3.09683 1.45833 3.10621 1.37854 3.20198 1.16587C3.26003 1.03692 3.32013 0.931904 3.33553 0.932395C3.35094 0.932931 4.98902 3.93776 6.97574 7.60981ZM12.6807 1.1882C12.7693 1.40846 12.7837 1.52107 12.7817 1.98074C12.7767 3.10758 12.6154 3.57163 11.1911 6.5574C10.5526 7.89579 9.8764 9.31594 9.68842 9.71328C9.50045 10.1106 9.3339 10.4221 9.31827 10.4054C9.28117 10.3657 8.39767 8.73517 8.37883 8.67159C8.36249 8.61649 12.5001 0.934405 12.5471 0.932619C12.5638 0.931993 12.6239 1.04701 12.6807 1.1882ZM7.03695 13.1547L7.54021 14.2149L6.66372 16.0454C6.18168 17.0521 5.71691 17.9817 5.631 18.1112C5.32135 18.5777 4.7321 18.9938 4.12258 19.1764C3.69787 19.3036 3.01048 19.2847 2.56973 19.1337C1.86042 18.8905 1.34471 18.4467 1.02046 17.8001C0.793634 17.3477 0.735812 17.0499 0.762424 16.4706C0.796001 15.7392 1.0719 15.1498 1.60748 14.6651C2.43168 13.9193 3.65675 13.765 4.67468 14.2789C4.98023 14.4331 5.06627 14.4447 5.20196 14.3496C5.25398 14.3132 5.563 13.7907 5.88859 13.1887C6.21423 12.5866 6.49258 12.0941 6.50718 12.0943C6.52178 12.0944 6.76017 12.5716 7.03695 13.1547ZM3.01731 14.8633C2.51745 14.9896 2.01678 15.3974 1.7738 15.8761C1.63284 16.1539 1.62217 16.2049 1.62217 16.6014C1.62217 16.9888 1.63529 17.0556 1.76545 17.3304C2.1214 18.0818 2.95212 18.5391 3.70658 18.3988C4.28895 18.2905 4.78037 17.9151 5.046 17.3754C5.18401 17.0951 5.19419 17.0436 5.19419 16.626C5.19419 16.2109 5.18347 16.1559 5.04979 15.8844C4.75903 15.2937 4.13826 14.8719 3.51061 14.8384C3.33147 14.8288 3.10951 14.8401 3.01731 14.8633ZM11.9407 14.9067C11.4479 15.0641 11.0808 15.3849 10.8146 15.8909C10.6968 16.1147 10.6862 16.1736 10.6862 16.6037C10.6862 17.0204 10.6997 17.1013 10.8074 17.3313C10.9478 17.6309 11.359 18.0646 11.6371 18.2065C12.1557 18.4711 12.701 18.4896 13.1932 18.2593C14.1451 17.8138 14.5326 16.7747 14.0847 15.8685C13.6793 15.0482 12.772 14.6412 11.9407 14.9067ZM3.93237 15.6985C4.69701 16.1147 4.68937 17.1415 3.91849 17.5611C2.88372 18.1243 1.79362 16.7556 2.60854 15.9165C2.99074 15.523 3.46604 15.4447 3.93237 15.6985ZM12.757 15.6016C13.2187 15.7387 13.5372 16.1547 13.5414 16.626C13.5452 17.0554 13.3055 17.4179 12.8978 17.5993C12.2145 17.9034 11.3825 17.3688 11.3792 16.6236C11.3773 16.18 11.7078 15.7341 12.1373 15.6007C12.4014 15.5187 12.4783 15.5189 12.757 15.6016Z" fill="#757575"/>
</svg>
