<svg width="27" height="20" viewBox="0 0 27 20" fill="none" xmlns="http://www.w3.org/2000/svg">
<path fill-rule="evenodd" clip-rule="evenodd" d="M9.66532 1.02544C9.50206 1.07221 9.32462 1.11637 9.06807 1.17417C8.96211 1.19802 8.81041 1.23382 8.73091 1.25366C8.65146 1.27351 8.52141 1.30603 8.44192 1.32587C8.36247 1.34571 8.2194 1.37982 8.12403 1.40159C8.02867 1.4234 7.73147 1.49383 7.46355 1.55814C7.19568 1.62245 6.94098 1.67509 6.89763 1.67509C6.84345 1.67509 6.71587 1.80475 6.49007 2.08931L6.16136 2.50353L6.16012 2.77988L6.15889 3.05627L6.03366 3.0938C5.9648 3.11442 5.8304 3.14952 5.73504 3.17176C5.63967 3.19399 5.40559 3.24836 5.21485 3.29259C5.02412 3.33683 4.81604 3.38781 4.75247 3.40588C4.62878 3.44102 4.34826 3.50872 4.09742 3.56397C3.47262 3.70161 3.50267 3.67803 3.42083 4.09499C3.36881 4.36017 3.40461 4.61194 3.53146 4.8728C3.62979 5.07513 3.74593 5.11528 4.02348 5.04299C4.46999 4.9267 4.90486 4.82228 5.38825 4.71535C5.50481 4.68954 5.7167 4.63887 5.85911 4.60273C6.00149 4.56654 6.12722 4.54616 6.13847 4.55741C6.14968 4.56866 6.15889 4.61606 6.15889 4.6628C6.15889 4.73504 6.13153 4.75138 5.97544 4.77207C5.69963 4.80864 5.69153 4.83504 5.69192 5.69665C5.69211 6.1034 5.68021 6.45381 5.66549 6.47539C5.65077 6.49697 5.56808 6.53523 5.48173 6.56043C5.29296 6.61553 5.24864 6.69387 5.21578 7.03106C5.13463 7.86305 5.11686 8.0025 5.08434 8.06326C5.06458 8.10025 4.98181 8.15424 4.90043 8.18321C4.81905 8.21223 4.67444 8.26999 4.57907 8.31164C4.4837 8.35329 4.371 8.40127 4.32861 8.41822C4.28623 8.43518 4.16936 8.4855 4.06894 8.52996C3.96849 8.57447 3.86858 8.61088 3.84684 8.61088C3.82515 8.61088 3.77725 8.62618 3.74046 8.64491C3.70366 8.66363 3.6259 8.69831 3.5676 8.72197C3.5093 8.74563 3.41397 8.78439 3.35567 8.80805C3.29737 8.83171 3.21962 8.86639 3.18282 8.88512C3.14602 8.90384 3.08942 8.91914 3.05705 8.91914C3.02468 8.91914 2.96808 8.93467 2.93128 8.95363C2.89448 8.97258 2.74405 9.04622 2.59701 9.11723C2.26552 9.2773 1.79974 9.70654 1.55576 10.0769C1.45958 10.2229 1.3809 10.3597 1.3809 10.3809C1.3809 10.4022 1.35019 10.4764 1.31266 10.546C1.19968 10.7553 1.13233 11.0006 1.03542 11.5554C0.957623 12.0006 1.0106 12.6534 1.16859 13.1962C1.34799 13.8127 1.68203 14.3879 2.11112 14.8193C2.49876 15.209 2.85287 15.4171 3.42311 15.5903C3.62837 15.6527 4.49623 15.6572 4.62731 15.5967C4.67494 15.5746 4.9827 15.4256 5.31118 15.2656C5.63967 15.1055 5.99513 14.9362 6.10109 14.8894C6.20706 14.8425 6.46715 14.7222 6.67907 14.6219C6.891 14.5216 7.15109 14.4005 7.25706 14.3528C7.36302 14.3051 7.55376 14.213 7.68091 14.1482C7.89758 14.0378 7.93996 14.0302 8.35523 14.0275C8.78671 14.0247 8.80567 14.021 9.07662 13.8833C9.22967 13.8055 9.50711 13.6423 9.69314 13.5205C9.87917 13.3987 10.1788 13.2127 10.3589 13.1071L10.6864 12.9153L11.2451 12.8857C11.5524 12.8695 11.8082 12.8604 11.8135 12.8656C11.8188 12.8708 11.7484 13.021 11.6571 13.1994C11.5062 13.4942 11.4491 13.6444 11.358 13.9861C11.1913 14.6117 11.2058 15.4156 11.3963 16.1247C11.4163 16.1988 11.4439 16.3029 11.4577 16.3559C11.4921 16.488 11.5232 16.564 11.6705 16.876C12.2239 18.0479 13.2028 18.8215 14.3277 18.9759C14.6549 19.0208 14.7537 19.0118 15.4644 18.8719C15.5792 18.8493 16.0487 18.583 16.2772 18.4108C16.3428 18.3614 16.409 18.321 16.4244 18.321C16.4398 18.321 16.5249 18.2714 16.6134 18.2108C16.702 18.1502 16.9739 17.9798 17.2176 17.832C17.4613 17.6843 17.8081 17.4713 17.9883 17.3588C18.1684 17.2462 18.4021 17.1027 18.5075 17.0399C18.6129 16.977 18.7721 16.8755 18.8612 16.8142C19.0058 16.7147 19.0555 16.7026 19.3218 16.7026C19.4861 16.7026 19.6823 16.6815 19.758 16.6556C19.9884 16.5767 20.3908 16.3146 20.789 15.9841C21.5434 15.3578 21.8628 15.1614 22.1266 15.1614C22.1923 15.1614 22.3675 15.134 22.5158 15.1006C22.6642 15.0672 22.8289 15.0301 22.8819 15.0181C23.0398 14.9824 23.6405 14.7154 23.8738 14.5772C24.1097 14.4375 24.8576 13.7201 25.3134 13.1962C25.4701 13.0161 25.6078 12.86 25.6193 12.8494C25.6309 12.8388 25.7722 12.6541 25.9333 12.4388C26.2484 12.0178 26.5039 11.6066 26.5039 11.5203C26.5039 11.4909 26.5183 11.4579 26.5358 11.4471C26.603 11.4056 26.7355 10.6435 26.7337 10.3095C26.7324 10.0593 26.6585 9.5288 26.5884 9.26593C26.442 8.71654 26.1014 8.16256 25.603 7.66291C25.0511 7.10959 24.7345 6.92525 23.98 6.71795C23.7407 6.65218 22.5263 6.64713 22.2461 6.71071C22.1401 6.73475 21.9494 6.77448 21.8222 6.79898C21.6951 6.82349 21.5347 6.85813 21.4658 6.87589C21.3847 6.89685 21.3317 6.89373 21.3151 6.86699C21.3012 6.8443 21.2875 6.45766 21.2847 6.0078C21.2813 5.43533 21.266 5.17312 21.2337 5.1342C21.2031 5.09732 21.0345 5.06268 20.7342 5.03159C20.4849 5.00577 20.1509 4.96897 19.9919 4.94978C19.833 4.93063 19.5862 4.90513 19.4435 4.8931C19.1558 4.86887 18.9709 4.81608 19.0672 4.78564C19.1254 4.76722 19.3153 4.7268 19.7415 4.64203C20.2831 4.53429 20.4371 4.48682 20.5025 4.40729C20.5628 4.33396 20.5699 4.22199 20.5699 3.3517C20.5699 2.6194 20.558 2.3684 20.5218 2.33892C20.4604 2.28902 20.014 2.23415 18.5855 2.10095C17.2284 1.97441 16.5956 1.91198 16.1773 1.86336C15.557 1.79122 14.8901 1.80359 14.347 1.8973C14.0715 1.94485 13.7247 2.00176 13.5763 2.0238C13.428 2.04584 13.1852 2.08187 13.0369 2.10391C12.8885 2.12591 12.6891 2.15905 12.5938 2.17751C12.4984 2.19593 12.3163 2.22155 12.1892 2.23442L11.958 2.25777L11.9059 2.13019C11.6889 1.59806 11.5466 1.3093 11.4823 1.2705C11.3958 1.21825 10.9557 1.13911 10.3011 1.05811C10.1316 1.03715 9.94949 1.01253 9.89651 1.00339C9.84353 0.994263 9.73949 1.0042 9.66532 1.02544ZM10.5708 1.51714C10.7192 1.53942 10.9224 1.56889 11.0223 1.58269C11.1474 1.59995 11.2204 1.63332 11.2564 1.68958C11.339 1.8192 11.5184 2.29322 11.4975 2.32701C11.4871 2.34385 11.3871 2.36944 11.2752 2.38381C11.1633 2.39818 10.9677 2.42639 10.8406 2.44646C10.7134 2.46654 10.5044 2.49401 10.376 2.50754C10.0316 2.54383 9.99338 2.58476 9.99153 2.91933C9.99069 3.07211 9.98629 3.38919 9.98178 3.62397L9.97358 4.05087L9.77799 4.09599C9.67041 4.12084 9.52302 4.14115 9.45046 4.14115H9.31853L9.3173 3.64986C9.3161 3.17422 9.31075 3.14289 9.14991 2.6656C9.05851 2.39445 8.96681 2.15566 8.94608 2.13493C8.91055 2.0994 8.74664 2.05532 8.23 1.94239C8.10816 1.91576 8.00844 1.88297 8.00844 1.86956C8.00844 1.85611 8.11683 1.82201 8.24926 1.79373C8.50793 1.73855 8.9156 1.6411 9.31853 1.53807C9.81309 1.41164 9.86222 1.41083 10.5708 1.51714ZM7.43045 2.21099C7.82895 2.29214 8.00188 2.3257 8.22949 2.36609C8.63273 2.43764 8.63979 2.44323 8.7503 2.77957C8.90273 3.24335 8.94716 3.53057 8.9203 3.87863C8.90712 4.04933 8.87838 4.2107 8.85637 4.23721C8.83437 4.26372 8.74297 4.29508 8.65323 4.30691C8.56349 4.3187 8.39037 4.34695 8.26853 4.36964C8.14669 4.3923 7.94725 4.42898 7.82541 4.4511C7.70357 4.47322 7.52582 4.5064 7.43045 4.52481C6.58001 4.68908 6.60509 4.68815 6.58983 4.55568C6.58051 4.47464 6.59843 4.44212 6.6669 4.41596C6.79513 4.36695 7.11048 4.29528 7.19783 4.29528C7.28176 4.29528 7.42991 4.11248 7.50991 3.91019C7.53923 3.83617 7.56289 3.6541 7.5625 3.5056C7.56192 3.27622 7.54597 3.21191 7.45635 3.07774C7.31555 2.86693 7.20662 2.81067 7.03958 2.86257C6.96845 2.88465 6.83659 2.91413 6.74651 2.92808L6.58274 2.95343V2.80447C6.58274 2.65951 6.63885 2.54553 6.78774 2.38793C6.82777 2.34555 6.88792 2.26999 6.92144 2.22005C6.98633 2.12329 6.99878 2.12306 7.43045 2.21099ZM15.8385 2.25072C16.1043 2.2849 16.4116 2.31561 17.4199 2.40866C18.2141 2.48199 18.6048 2.5312 18.6048 2.55801C18.6048 2.57258 18.4704 2.60653 18.3062 2.63342C18.1419 2.66036 17.9295 2.697 17.8341 2.71488C17.7388 2.7328 17.5307 2.76755 17.3718 2.79217C17.2128 2.8168 17.0134 2.85182 16.9286 2.86997C16.8439 2.88812 16.6618 2.92276 16.524 2.947C16.3863 2.9712 16.1885 3.00942 16.0845 3.03192C15.8638 3.07966 15.2906 3.04591 14.0002 2.90916C13.3569 2.841 12.785 2.7889 12.43 2.76617C12.2446 2.7543 12.0928 2.73172 12.0928 2.716C12.0928 2.67978 12.5092 2.59936 13.2873 2.48523C13.4463 2.46192 13.6804 2.42685 13.8075 2.40724C13.9347 2.38766 14.1688 2.35194 14.3277 2.32786C14.4867 2.30374 14.6861 2.27026 14.7708 2.25342C14.9907 2.20972 15.5101 2.20841 15.8385 2.25072ZM20.1461 3.42927V4.10454L20.0401 4.14543C19.9818 4.16789 19.8561 4.20022 19.7608 4.21721C19.6654 4.2342 19.4053 4.28672 19.1828 4.33396C18.9602 4.3812 18.7088 4.43422 18.6241 4.45179C18.5393 4.46937 18.3919 4.50204 18.2965 4.52447C18.1161 4.56685 17.8231 4.62677 17.5259 4.68206C17.4305 4.69979 17.2831 4.73104 17.1984 4.75146C16.6704 4.87873 16.2525 4.96003 16.1002 4.96512L15.9653 4.96959V4.2216V3.47358L16.1965 3.42873C16.3237 3.40407 16.5491 3.3623 16.6974 3.3359C17.0697 3.26967 17.3564 3.21823 17.5837 3.17676C17.6896 3.15746 17.8977 3.12259 18.0461 3.09931C18.3356 3.05389 18.5864 3.00973 18.8938 2.95012C18.9997 2.92958 19.2078 2.89294 19.3562 2.8687C19.5045 2.84446 19.6779 2.81052 19.7415 2.79325C19.8051 2.77599 19.9221 2.76008 20.0016 2.75792L20.1461 2.75399V3.42927ZM11.2451 3.06437C11.4677 3.08436 11.8231 3.11812 12.035 3.13939C12.9152 3.22774 13.2522 3.25945 13.6727 3.29359C13.9164 3.3134 14.2892 3.34889 14.5011 3.37251C14.713 3.39609 15.0338 3.42699 15.214 3.44113L15.5415 3.46684L15.552 4.21544C15.5577 4.62715 15.5477 4.9788 15.5296 4.99687C15.5115 5.01498 15.3425 5.01063 15.1531 4.9872C14.964 4.96381 14.6707 4.92925 14.5011 4.91037C13.9432 4.84829 13.0435 4.74029 12.5745 4.67914C12.405 4.65702 12.1189 4.62307 11.9387 4.60365C11.7586 4.58423 11.4638 4.54859 11.2837 4.52447C11.1035 4.50038 10.8348 4.46929 10.6864 4.45538L10.4167 4.43014L10.4062 3.70227L10.3957 2.97435L10.6181 3.00117C10.7404 3.01593 11.0226 3.04437 11.2451 3.06437ZM7.15314 3.49373C7.16809 3.72596 7.08455 3.89389 6.94055 3.92105C6.83613 3.94078 6.43143 4.03553 6.15889 4.10404C5.99251 4.14593 5.07829 4.36333 4.86806 4.41103C4.78329 4.43029 4.60011 4.47279 4.46101 4.50551C4.32191 4.53822 4.19795 4.565 4.18554 4.565C4.17313 4.565 4.15368 4.49133 4.14231 4.40124C4.13094 4.31115 4.11029 4.1838 4.09642 4.11822C4.06802 3.98413 4.02286 4.00405 4.7332 3.83725C4.91334 3.79494 5.28614 3.70647 5.56164 3.64061C5.83715 3.5748 6.14059 3.50333 6.23595 3.48182C6.46915 3.42923 6.65164 3.38376 6.81394 3.33783C6.88811 3.31683 6.99215 3.30261 7.04513 3.30619C7.13144 3.31201 7.14266 3.33151 7.15314 3.49373ZM9.98872 4.5489C10.0016 4.58242 10.0121 4.65178 10.0121 4.70302C10.0121 4.75427 10.0165 4.79666 10.0217 4.79724C10.027 4.79781 10.1874 4.815 10.3782 4.83538C10.5689 4.8558 10.855 4.88948 11.0139 4.91025C11.3684 4.95653 11.8451 5.01498 12.3048 5.0685C12.4955 5.09074 12.7903 5.12576 12.9598 5.14634C13.1294 5.16695 13.4155 5.20044 13.5956 5.22082C13.7757 5.24117 14.0618 5.27592 14.2314 5.29804C14.4009 5.32012 14.6784 5.35441 14.8479 5.37418C15.0174 5.39395 15.2949 5.4267 15.4644 5.44697C15.7595 5.48222 15.8566 5.47367 16.2929 5.37418C16.367 5.35726 16.5231 5.32258 16.6396 5.29711C16.7562 5.27164 16.9209 5.23373 17.0057 5.21288C17.2776 5.14595 17.7642 5.13208 18.2195 5.17828C19.431 5.3012 19.9922 5.37368 19.9913 5.40709C19.991 5.42076 19.6485 5.54345 19.2303 5.67966C18.8121 5.81591 18.4526 5.93837 18.4314 5.95185C18.4102 5.9653 18.2108 6.03397 17.9883 6.10448C17.7658 6.17495 17.4837 6.26612 17.3615 6.30704C17.1161 6.38927 17.186 6.3947 15.7825 6.18393C15.6499 6.16405 15.3854 6.1286 15.1947 6.10517C14.866 6.06483 14.6848 6.03921 14.1254 5.95401C13.993 5.93386 13.7372 5.89833 13.5571 5.8751C13.3769 5.85186 13.1255 5.81738 12.9984 5.79846C12.8712 5.77954 12.6371 5.74555 12.4782 5.7229C12.3192 5.7002 11.9984 5.654 11.7653 5.62013C11.5322 5.5863 11.2201 5.54372 11.0717 5.52553C10.9234 5.50735 10.6763 5.47452 10.5227 5.45259C10.0933 5.39129 9.75279 5.34447 9.41486 5.3002C9.24532 5.278 8.9939 5.24194 8.85614 5.22005C8.5969 5.1789 8.18218 5.12295 7.72542 5.0675C7.44036 5.03294 7.31532 4.96778 7.47303 4.93599C7.52378 4.92578 7.67802 4.89765 7.81577 4.87349C7.95353 4.84933 8.13559 4.81473 8.22036 4.79658C8.30513 4.77843 8.50454 4.74341 8.66348 4.71878C8.82243 4.69416 9.03917 4.65763 9.14513 4.63764C9.38893 4.59155 9.70011 4.53194 9.80018 4.51214C9.94391 4.4837 9.96529 4.48786 9.98872 4.5489ZM6.65981 5.3348C6.79756 5.3546 7.06632 5.38978 7.25706 5.41302C7.44779 5.43629 7.69054 5.47062 7.79651 5.48939C7.90247 5.50812 8.13655 5.54272 8.31669 5.56622C8.49683 5.58977 8.74825 5.62437 8.87541 5.64313C9.00257 5.66186 9.26266 5.69692 9.45339 5.72097C9.78384 5.76266 9.97947 5.79052 10.5227 5.87325C10.6551 5.8934 10.9109 5.92893 11.091 5.95216C11.2711 5.9754 11.5226 6.00969 11.6497 6.02842C12.2948 6.12324 12.4473 6.14448 12.7672 6.18378C12.9579 6.20724 13.2093 6.24185 13.3259 6.26073C13.4424 6.27957 13.6679 6.3134 13.8268 6.3359C13.9857 6.35837 14.3065 6.40434 14.5396 6.43801C14.7728 6.47173 15.0762 6.51358 15.214 6.53107C15.4466 6.56062 15.7008 6.59611 16.3314 6.68709C16.4691 6.70697 16.6645 6.73425 16.7655 6.74774L16.9491 6.7722L16.9388 7.85531L16.9286 8.93841L16.813 8.92654C16.7495 8.91999 16.5674 8.88751 16.4085 8.85433C16.2495 8.82115 16.0761 8.7869 16.0231 8.77823C15.9701 8.76952 15.8401 8.74571 15.7341 8.72532C15.6282 8.7049 15.3594 8.65342 15.1369 8.61088C14.9144 8.56834 14.6456 8.51694 14.5396 8.49663C14.4337 8.47633 14.2863 8.44862 14.2121 8.43502C14.1379 8.42142 14.0079 8.39352 13.9231 8.37302C13.8384 8.35256 13.6823 8.32151 13.5763 8.30409C13.4704 8.28663 13.284 8.25315 13.1621 8.22968C13.0402 8.20622 12.8409 8.16892 12.719 8.1468C12.5971 8.12468 12.4194 8.09155 12.324 8.07317C12.2287 8.05479 12.051 8.02084 11.9291 7.9978C11.3956 7.89677 11.2554 7.86979 11.1103 7.84024C10.9198 7.80144 10.5842 7.73755 10.2915 7.68441C10.084 7.64673 9.98367 7.62708 9.52082 7.53352C9.29884 7.48863 8.99305 7.4306 8.68275 7.3745C8.55559 7.35153 8.37353 7.31863 8.27816 7.30137C8.18279 7.2841 8.00504 7.25093 7.88321 7.22758C7.76137 7.20427 7.56192 7.16623 7.44009 7.14308C7.31825 7.11996 7.14917 7.0872 7.0644 7.07033C6.97963 7.05349 6.75421 7.01014 6.56348 6.97404C6.37274 6.93793 6.19068 6.89508 6.15889 6.87886C6.11111 6.85447 6.09928 6.72026 6.09061 6.10325C6.08483 5.69292 6.08892 5.33418 6.09974 5.30605C6.11346 5.2703 6.16301 5.26151 6.26435 5.27689C6.34411 5.28895 6.52206 5.31503 6.65981 5.3348ZM20.8782 6.41031V7.21525L20.7144 7.29277C20.6244 7.33543 20.1779 7.55183 19.7222 7.77369C17.7888 8.71519 17.4429 8.88061 17.4083 8.88061C17.3489 8.88061 17.3604 6.77305 17.4199 6.73567C17.5061 6.68165 20.7022 5.61435 20.7915 5.6098L20.8782 5.60537V6.41031ZM5.70733 7.10686C5.73296 7.20488 5.91803 7.28252 6.25522 7.33678C6.53292 7.38147 6.83301 7.43692 7.10293 7.49345C7.1877 7.51121 7.36109 7.54531 7.48825 7.56924C7.61541 7.59317 7.79747 7.62812 7.89284 7.64688C7.98821 7.66565 8.18761 7.70129 8.33596 7.72611C8.48431 7.75088 8.64553 7.78672 8.69419 7.80571C8.74286 7.82471 8.82497 7.84024 8.87668 7.84024C8.92835 7.84024 9.04892 7.86116 9.1446 7.88675C9.31155 7.93141 9.31853 7.93907 9.31853 8.07752C9.31853 8.15686 9.30011 8.3076 9.27761 8.41252C9.23711 8.60136 9.239 8.60776 9.46715 9.05982C10.0004 10.1163 10.1437 11.0952 9.87802 11.8669C9.75159 12.2341 9.33483 12.8379 9.25904 12.7637C9.24331 12.7483 9.24755 12.7136 9.2684 12.6866C9.31475 12.6266 9.43305 12.3327 9.47428 12.1751C9.49092 12.1115 9.53385 11.9555 9.56972 11.8283C9.65137 11.539 9.66289 10.6201 9.58883 10.3063C9.50772 9.96267 9.39664 9.65264 9.23426 9.31679C9.11061 9.06102 9.02195 8.94407 8.76417 8.69654C7.87746 7.84529 6.76308 7.56331 5.62337 7.90181C5.53263 7.92879 5.53143 7.92593 5.55567 7.74025C5.56923 7.63629 5.59166 7.43423 5.60549 7.29115C5.63046 7.03257 5.66946 6.96201 5.70733 7.10686ZM23.8837 7.12446C24.222 7.20766 24.4481 7.29524 24.689 7.43642C24.9543 7.5919 25.4255 8.02223 25.6459 8.31022C25.8095 8.52403 26.0867 9.02372 26.1334 9.18887C26.1484 9.24185 26.1884 9.38056 26.2223 9.49712C26.3087 9.79382 26.3083 10.7774 26.2216 11.0906C26.1416 11.3798 25.941 11.7384 25.615 12.1751C25.185 12.7511 25.205 12.7523 25.1812 12.1487C25.1625 11.6724 25.1347 11.4521 25.044 11.0577C24.8716 10.3082 24.5922 9.63915 24.2441 9.14259C24.1653 9.03031 23.974 8.81102 23.8189 8.65535C23.6115 8.4472 23.5368 8.34524 23.5364 8.27003C23.5351 8.01991 23.5747 8.05664 22.7277 7.52085C22.1886 7.17984 22.2064 7.19271 22.2343 7.16481C22.3299 7.06925 23.5389 7.03966 23.8837 7.12446ZM21.9072 7.48732C22.1147 7.61032 22.8931 8.10977 23.0264 8.20545C23.1116 8.2666 23.1131 8.28186 23.1131 9.07647V9.88526L23.3037 10.2788C23.7439 11.1877 23.8944 11.9668 23.7518 12.599C23.6171 13.1964 23.3978 13.5665 23.0158 13.8417C22.8891 13.9329 22.6642 14.0937 22.5158 14.1989C22.3675 14.3042 22.1057 14.4902 21.9341 14.6121C21.7625 14.7341 21.537 14.8938 21.4332 14.967C21.3292 15.0402 21.1242 15.1919 20.9775 15.3041C20.8308 15.4163 20.692 15.5068 20.6692 15.5051C20.6464 15.5034 20.6494 15.4933 20.6759 15.4826C20.7024 15.4719 20.7241 15.4461 20.7241 15.4252C20.7241 15.4043 20.774 15.3146 20.835 15.2259C20.9927 14.9967 21.0939 14.763 21.23 14.3136C21.3 14.0826 21.2999 13.1745 21.2298 12.8687C21.0835 12.2303 20.8085 11.6026 20.4064 10.9892L20.1846 10.6509V10.0171V9.38334L19.9823 9.22308C19.871 9.13496 19.6283 8.96072 19.4429 8.83587C19.2574 8.71103 19.1057 8.59246 19.1057 8.57239C19.1057 8.55231 19.3268 8.42963 19.597 8.29974C20.7604 7.74059 21.1812 7.52458 21.2455 7.45353C21.3546 7.33304 21.6744 7.34938 21.9072 7.48732ZM10.1181 8.07451C10.5419 8.1488 10.7312 8.1841 10.9176 8.22367C11.19 8.28143 11.6393 8.36589 12.141 8.45359C12.4702 8.51112 12.5356 8.54919 12.5864 8.71307C12.757 9.26308 12.7864 9.44622 12.7864 9.95889C12.7864 10.4163 12.7748 10.5121 12.6914 10.7419C12.484 11.314 12.2627 11.5866 11.8231 11.8116C11.6854 11.8822 11.5293 11.9686 11.4763 12.0036C11.4234 12.0386 11.2413 12.1422 11.0717 12.2337C10.6519 12.4604 10.4178 12.5925 10.0661 12.8011C9.71822 13.0074 9.67796 13.0007 9.85632 12.7659C10.2406 12.26 10.4106 11.7155 10.4088 10.9961C10.4069 10.2869 10.2531 9.71629 9.83444 8.86581C9.73052 8.65469 9.70385 8.55385 9.70385 8.37198C9.70385 8.10492 9.75668 7.97657 9.85131 8.01371C9.88676 8.02766 10.0068 8.05498 10.1181 8.07451ZM7.37265 8.31022C8.05032 8.54395 8.63555 9.01902 8.88231 9.53566C9.29144 10.3923 9.35155 11.2438 9.06391 12.1081C8.91772 12.5474 8.44196 13.3601 8.40169 13.2393C8.39225 13.211 8.40555 13.0576 8.43125 12.8984C8.49302 12.5155 8.49564 11.4282 8.43553 11.1347C8.24418 10.2009 7.97275 9.65491 7.43007 9.11219C7.11337 8.79553 6.8154 8.58561 6.40765 8.39198C6.24805 8.31619 6.1271 8.24452 6.13889 8.23273C6.23476 8.13686 7.01153 8.18564 7.37265 8.31022ZM5.55012 8.51058C6.16775 8.67346 6.79213 9.03404 7.19144 9.45844C7.349 9.62586 7.665 10.0871 7.74603 10.2678C8.03868 10.9204 8.16426 11.9362 8.04573 12.6921C7.9234 13.4723 7.88887 13.5902 7.76507 13.6512C7.63521 13.7153 6.78808 14.1166 6.48641 14.2571C6.33807 14.3261 6.21041 14.3767 6.2027 14.3695C6.19499 14.3622 6.25318 14.221 6.33202 14.0556C6.55627 13.5851 6.56737 13.553 6.64301 13.1577C6.81814 12.2426 6.55092 11.0877 5.95929 10.2023C5.6162 9.68897 5.01757 9.18871 4.55938 9.03254C4.26985 8.93382 4.24423 8.87957 4.45384 8.80875C4.66138 8.73862 4.84409 8.66464 5.11852 8.5396C5.32975 8.44334 5.3022 8.44519 5.55012 8.51058ZM13.4814 8.7286C13.5196 8.74813 13.5579 8.86624 13.5892 9.06059C13.6158 9.22651 13.6542 9.4562 13.6744 9.57099C13.7897 10.2254 13.6495 10.9857 13.3255 11.4628C13.1383 11.7385 12.9424 11.9135 12.5891 12.1207C12.3396 12.267 11.798 12.4641 11.6454 12.4641C11.5644 12.4641 11.5819 12.4115 11.6789 12.3636C12.4949 11.9606 12.8655 11.5618 13.0894 10.8457C13.2235 10.417 13.2631 10.0252 13.2122 9.63199C13.1691 9.2988 13.1509 9.20682 13.0592 8.85687C13.0363 8.76964 13.0176 8.68668 13.0176 8.67253C13.0176 8.64071 13.4001 8.68694 13.4814 8.7286ZM18.9674 9.00322C19.16 9.13423 19.4173 9.31729 19.5392 9.41004L19.7608 9.5787L19.7613 10.164C19.7619 10.8051 19.7477 10.7544 20.0529 11.1974C20.3077 11.567 20.5667 12.0985 20.7173 12.5604C20.8518 12.973 20.8873 13.2436 20.8697 13.721C20.8517 14.209 20.8076 14.3869 20.6008 14.8044C20.4845 15.0393 20.2313 15.375 20.1965 15.3403C20.1869 15.3306 20.2084 15.2388 20.2442 15.1361C20.5793 14.1757 20.5646 13.1917 20.2016 12.2907C19.846 11.4081 19.4399 10.9429 18.6819 10.5499C18.1177 10.2573 17.7091 10.1554 17.0929 10.1536C16.5774 10.152 16.2442 10.2211 15.7042 10.4415C15.6401 10.4677 15.6364 10.4329 15.6464 9.90229L15.6571 9.33513L15.8288 9.2771C16.0011 9.21892 16.1591 9.22412 16.524 9.29995C16.9553 9.38962 17.1927 9.4211 17.2695 9.39887C17.3565 9.37367 18.2183 8.96896 18.4507 8.84423C18.5248 8.80439 18.5926 8.77029 18.6013 8.7684C18.61 8.76655 18.7747 8.87221 18.9674 9.00322ZM14.5968 8.92288C15.2281 9.03786 15.2178 9.03216 15.1888 9.25522C15.1397 9.63268 14.9959 9.9021 14.5558 10.4412C14.2917 10.7646 14.068 10.9842 14.0354 10.9517C14.0224 10.9387 14.0323 10.8657 14.0575 10.7895C14.1116 10.6255 14.1142 9.57635 14.061 9.33309C14.0289 9.18605 14.0053 8.94669 14.0156 8.87098C14.0215 8.82682 14.1152 8.83518 14.5968 8.92288ZM23.9567 9.45859C24.1557 9.75255 24.414 10.3082 24.5028 10.6338C24.6279 11.0919 24.702 11.4384 24.7728 11.8958C24.8647 12.4892 24.6917 13.1155 24.2877 13.6517C24.1869 13.7856 24.007 13.9671 23.8881 14.0549C23.6472 14.2329 23.1076 14.5224 22.9589 14.5534C22.9059 14.5644 22.8322 14.5862 22.7952 14.6018C22.6581 14.6594 22.7322 14.5455 22.9108 14.424C23.0114 14.3555 23.1025 14.2885 23.1131 14.2751C23.1236 14.2617 23.2113 14.1971 23.3078 14.1315C23.5583 13.9611 23.7284 13.7518 23.8996 13.4037C24.0731 13.051 24.0898 13.0081 24.1483 12.7622C24.2037 12.529 24.2052 11.6179 24.1504 11.4089C24.1275 11.3217 24.0908 11.181 24.0688 11.0962C23.9865 10.7784 23.9576 10.7037 23.7132 10.1759C23.5421 9.8063 23.5369 9.78403 23.5369 9.42133C23.5369 9.21576 23.5499 9.03458 23.5658 9.01871C23.5994 8.98507 23.7535 9.15839 23.9567 9.45859ZM3.89435 9.29055C4.04189 9.31494 4.05892 9.38153 3.91763 9.38153C3.74693 9.38153 3.32546 9.62459 3.09003 9.85882C2.75789 10.1893 2.5611 10.5506 2.41603 11.0962C2.34609 11.3593 2.34605 12.4196 2.41603 12.676C2.64799 13.5265 2.99193 14.1414 3.471 14.5622C3.68859 14.7533 4.09985 14.9707 4.39604 15.0513C4.49669 15.0787 4.57907 15.1119 4.57907 15.1251C4.57907 15.1767 4.26788 15.2384 4.00814 15.2384C3.42835 15.2384 2.87641 14.9991 2.43745 14.5572C2.08985 14.2074 1.96173 14.0257 1.77011 13.6107C1.51723 13.0631 1.44394 12.721 1.44197 12.0788C1.43985 11.3907 1.49195 11.1334 1.73829 10.6146C1.88879 10.2976 1.99036 10.1454 2.19389 9.93188C2.65131 9.45189 3.32758 9.19684 3.89435 9.29055ZM4.64469 9.81024C5.21431 10.0397 5.63986 10.4509 5.91541 11.0384C6.21619 11.6796 6.24794 11.8221 6.25044 12.5412C6.2531 13.3011 6.18066 13.5623 5.82774 14.066C5.58426 14.4135 5.34686 14.5764 4.96659 14.6569C4.16566 14.8265 3.19195 13.9699 2.89017 12.8302C2.78844 12.4461 2.76806 12.2858 2.76806 11.8709C2.76806 10.9019 3.1449 10.1573 3.78666 9.85848C4.00483 9.75691 4.45003 9.73186 4.64469 9.81024ZM15.214 10.5173C15.214 10.5674 15.2036 10.6352 15.191 10.6682C15.1643 10.7376 14.7656 10.9497 14.7295 10.9136C14.7162 10.9002 14.7663 10.8232 14.8409 10.7423C14.9155 10.6615 15.014 10.5474 15.0598 10.4889C15.1531 10.3698 15.214 10.381 15.214 10.5173ZM17.5452 10.5935C17.7147 10.6235 17.8881 10.6594 17.9305 10.6733C18.382 10.8214 18.9841 11.1834 19.228 11.4534C19.4895 11.7429 19.7578 12.2261 19.9069 12.676C20.015 13.0024 20.0495 13.2865 20.0449 13.8127C20.04 14.3681 20.0207 14.4879 19.8527 15.0072C19.7677 15.2697 19.4209 15.9705 19.3759 15.9705C19.3577 15.9705 19.3431 15.6454 19.3436 15.2481C19.345 13.8143 19.0368 12.841 18.3067 11.9729C17.8683 11.4517 17.06 10.9494 16.3892 10.7812C16.2003 10.7338 16.1926 10.7271 16.2736 10.6814C16.3667 10.6289 16.8239 10.5488 17.0635 10.543C17.1589 10.5408 17.3756 10.5635 17.5452 10.5935ZM16.0617 11.1223C16.3232 11.1845 16.5513 11.2622 16.7814 11.3674C16.8954 11.4196 16.9976 11.4623 17.0086 11.4623C17.0195 11.4623 17.1534 11.5468 17.3061 11.6501C17.9045 12.055 18.2917 12.5297 18.5987 13.2347C18.7135 13.4984 18.8277 13.9722 18.917 14.5554C18.9767 14.9455 18.9441 16.1089 18.8693 16.2591C18.8244 16.3493 18.302 16.7126 18.0075 16.8584C17.9652 16.8794 17.7398 17.0161 17.5068 17.1621C17.0915 17.4223 16.9931 17.4586 17.0598 17.327C17.1824 17.085 17.3034 16.6616 17.3727 16.232C17.4221 15.9263 17.4056 15.377 17.3349 14.9687C17.3147 14.8521 17.2875 14.6961 17.2745 14.6219C17.2616 14.5477 17.2372 14.4524 17.2203 14.41C17.2035 14.3676 17.1678 14.2636 17.1408 14.1788C16.8565 13.2829 16.0412 12.3508 15.2074 11.9681C14.9139 11.8334 14.7955 11.7914 14.53 11.7275C14.4188 11.7008 14.3277 11.6648 14.3277 11.6476C14.3277 11.6305 14.3427 11.6164 14.3609 11.6164C14.3792 11.6164 14.5222 11.5449 14.6788 11.4575C15.1683 11.1843 15.3611 11.0841 15.4332 11.0654C15.5249 11.0417 15.844 11.0706 16.0617 11.1223ZM14.2294 12.1141C14.2414 12.1335 14.1463 12.1898 14.0182 12.2393C13.4826 12.4461 13.0091 12.938 12.7447 13.5623C12.5694 13.9761 12.5363 14.1776 12.5362 14.8338C12.536 15.2677 12.5537 15.554 12.5885 15.6815C12.9141 16.8754 13.5419 17.6555 14.4649 18.0134C14.7941 18.1411 15.4392 18.1412 15.7727 18.0138C15.8998 17.9652 16.0212 17.9131 16.0424 17.898C16.0636 17.8829 16.1117 17.8596 16.1492 17.8462C16.2049 17.8264 16.2108 17.8342 16.181 17.8884C16.0842 18.0649 15.5483 18.3943 15.1562 18.5183C15.0714 18.5451 14.82 18.5666 14.5974 18.566C14.2765 18.5652 14.1411 18.5468 13.9424 18.4768C12.6865 18.0347 11.8474 16.873 11.6685 15.3284C11.5752 14.5237 11.807 13.6011 12.2495 13.015C12.4831 12.7055 12.8826 12.3893 13.191 12.2698C13.2334 12.2533 13.3028 12.2262 13.3451 12.2094C13.5855 12.1141 14.1892 12.049 14.2294 12.1141ZM15.2106 12.617C15.5195 12.7299 15.8146 12.9217 16.0167 13.1409C16.2278 13.3699 16.3314 13.497 16.3314 13.5269C16.3314 13.5387 16.3796 13.6209 16.4385 13.7095C16.5662 13.9015 16.6555 14.093 16.7469 14.3714C16.8778 14.7701 16.8901 14.8599 16.8895 15.4118C16.8889 15.912 16.8769 16.0261 16.7995 16.2595C16.6615 16.676 16.4896 16.97 16.2359 17.2234C15.8935 17.5653 15.5718 17.7045 15.1241 17.7045C14.3809 17.7045 13.6367 17.131 13.2239 16.2403C13.1149 16.0051 13.0863 15.9202 12.9821 15.5229C12.9214 15.2914 12.9297 14.397 12.9948 14.1518C13.2093 13.3436 13.6009 12.8493 14.2121 12.615C14.4618 12.5193 14.9459 12.5203 15.2106 12.617Z" fill="#757575" stroke="#757575" stroke-width="0.2"/>
</svg>
