<svg width="14" height="18" viewBox="0 0 14 18" fill="none" xmlns="http://www.w3.org/2000/svg">
<path fill-rule="evenodd" clip-rule="evenodd" d="M6.407 1.0076C4.91835 1.15603 3.73064 1.70241 2.71202 2.70737C1.81425 3.59305 1.26534 4.65453 1.06353 5.89515C0.993853 6.32334 0.979017 7.03269 1.03136 7.43329C1.29184 9.42724 2.70498 12.1298 5.04953 15.1178C5.60782 15.8293 6.34452 16.7031 6.51123 16.8515C6.73355 17.0495 6.99978 17.0495 7.2221 16.8515C7.38882 16.7031 8.12552 15.8293 8.6838 15.1178C11.0284 12.1298 12.4415 9.42724 12.702 7.43329C12.7543 7.03269 12.7395 6.32334 12.6698 5.89515C12.468 4.65453 11.9191 3.59305 11.0213 2.70737C10.1149 1.81309 9.04688 1.27047 7.786 1.06358C7.51581 1.01927 6.64473 0.983896 6.407 1.0076ZM7.56672 3.96216C8.14666 4.09777 8.77152 4.48724 9.14607 4.94658C9.63119 5.54149 9.84625 6.19274 9.80466 6.9408C9.763 7.68931 9.482 8.31657 8.95567 8.83586C8.46297 9.3219 7.85086 9.61145 7.17074 9.68007C5.71585 9.82694 4.39034 8.91749 4.00767 7.50989C3.92674 7.21218 3.89869 6.65504 3.94909 6.34658C4.15863 5.06452 5.18388 4.08044 6.50122 3.89695C6.77109 3.85936 7.25336 3.88889 7.56672 3.96216Z" stroke="#757575" stroke-width="1.25"/>
</svg>
