<svg width="17" height="16" viewBox="0 0 17 16" fill="none" xmlns="http://www.w3.org/2000/svg">
<mask id="path-1-inside-1_273_972" fill="white">
<path fill-rule="evenodd" clip-rule="evenodd" d="M1.88545 0.0536996C1.50349 0.153409 1.1585 0.421063 0.938361 0.788552C0.71753 1.15717 0.731284 0.672088 0.733284 8.01999C0.734941 14.1739 0.738848 14.6548 0.788765 14.846C0.930328 15.3883 1.41922 15.8495 1.97547 15.9655C2.09203 15.9898 3.50012 16 6.72822 16H11.3153L11.4701 15.9229C11.9309 15.6932 11.9308 15.0587 11.4699 14.8273L11.3153 14.7497H9.71293H8.11057L8.10153 13.7233L8.0925 12.6969L8.00611 12.5723C7.78815 12.2579 7.36681 12.1998 7.08696 12.4456C6.8656 12.6399 6.85932 12.6765 6.85854 13.7729L6.85785 14.7497H4.52607H2.1943L2.08803 14.6434L1.98175 14.5372V11.5803V8.62334H4.4198H6.85785L6.85854 9.60012C6.85932 10.6966 6.8656 10.7332 7.08696 10.9275C7.36684 11.1733 7.78821 11.1151 8.00611 10.8007L8.0925 10.676V7.9982V5.32038L8.00611 5.19573C7.78821 4.88131 7.36684 4.82315 7.08696 5.06892C6.8656 5.26324 6.85932 5.29985 6.85854 6.39628L6.85785 7.37306H4.4198H1.98175V4.41615V1.45923L2.08803 1.35296L2.1943 1.24669H4.52607H6.85785L6.85854 2.22347C6.85932 3.3199 6.8656 3.3565 7.08696 3.55083C7.36681 3.79657 7.78815 3.73846 8.00611 3.42408L8.0925 3.29949L8.10153 2.27307L8.11057 1.24669H11.6914H15.2722L15.3785 1.35296L15.4848 1.45923V4.43178V7.40432H12.6622H9.83955L9.68476 7.48146C9.22394 7.71108 9.22404 8.34562 9.68492 8.57699L9.83955 8.6546H12.6622H15.4848V11.5959V14.5372L15.3785 14.6434L15.2722 14.7497H14.4C13.5354 14.7497 13.5265 14.7504 13.3731 14.8269C12.9123 15.0565 12.9124 15.691 13.3732 15.9224C13.5272 15.9997 13.5319 16 14.4266 16C14.962 16 15.3924 15.986 15.4911 15.9655C16.0768 15.8433 16.5784 15.3418 16.7005 14.756C16.7494 14.5214 16.7494 1.47502 16.7005 1.2404C16.5845 0.684154 16.1233 0.195263 15.5811 0.0536996C15.3898 0.00375084 14.9113 0 8.73327 0C2.55526 0 2.07677 0.00375084 1.88545 0.0536996Z"/>
</mask>
<path fill-rule="evenodd" clip-rule="evenodd" d="M1.88545 0.0536996C1.50349 0.153409 1.1585 0.421063 0.938361 0.788552C0.71753 1.15717 0.731284 0.672088 0.733284 8.01999C0.734941 14.1739 0.738848 14.6548 0.788765 14.846C0.930328 15.3883 1.41922 15.8495 1.97547 15.9655C2.09203 15.9898 3.50012 16 6.72822 16H11.3153L11.4701 15.9229C11.9309 15.6932 11.9308 15.0587 11.4699 14.8273L11.3153 14.7497H9.71293H8.11057L8.10153 13.7233L8.0925 12.6969L8.00611 12.5723C7.78815 12.2579 7.36681 12.1998 7.08696 12.4456C6.8656 12.6399 6.85932 12.6765 6.85854 13.7729L6.85785 14.7497H4.52607H2.1943L2.08803 14.6434L1.98175 14.5372V11.5803V8.62334H4.4198H6.85785L6.85854 9.60012C6.85932 10.6966 6.8656 10.7332 7.08696 10.9275C7.36684 11.1733 7.78821 11.1151 8.00611 10.8007L8.0925 10.676V7.9982V5.32038L8.00611 5.19573C7.78821 4.88131 7.36684 4.82315 7.08696 5.06892C6.8656 5.26324 6.85932 5.29985 6.85854 6.39628L6.85785 7.37306H4.4198H1.98175V4.41615V1.45923L2.08803 1.35296L2.1943 1.24669H4.52607H6.85785L6.85854 2.22347C6.85932 3.3199 6.8656 3.3565 7.08696 3.55083C7.36681 3.79657 7.78815 3.73846 8.00611 3.42408L8.0925 3.29949L8.10153 2.27307L8.11057 1.24669H11.6914H15.2722L15.3785 1.35296L15.4848 1.45923V4.43178V7.40432H12.6622H9.83955L9.68476 7.48146C9.22394 7.71108 9.22404 8.34562 9.68492 8.57699L9.83955 8.6546H12.6622H15.4848V11.5959V14.5372L15.3785 14.6434L15.2722 14.7497H14.4C13.5354 14.7497 13.5265 14.7504 13.3731 14.8269C12.9123 15.0565 12.9124 15.691 13.3732 15.9224C13.5272 15.9997 13.5319 16 14.4266 16C14.962 16 15.3924 15.986 15.4911 15.9655C16.0768 15.8433 16.5784 15.3418 16.7005 14.756C16.7494 14.5214 16.7494 1.47502 16.7005 1.2404C16.5845 0.684154 16.1233 0.195263 15.5811 0.0536996C15.3898 0.00375084 14.9113 0 8.73327 0C2.55526 0 2.07677 0.00375084 1.88545 0.0536996Z" fill="#757575"/>
<path d="M1.88545 0.0536996L2.26432 1.50506L2.26435 1.50505L1.88545 0.0536996ZM0.938361 0.788552L2.22512 1.55943L2.22514 1.55939L0.938361 0.788552ZM0.733284 8.01999L2.23328 8.01958V8.01958L0.733284 8.01999ZM0.788765 14.846L2.24012 14.4671L2.24012 14.4671L0.788765 14.846ZM1.97547 15.9655L2.28183 14.4971L2.28168 14.497L1.97547 15.9655ZM11.3153 16V17.5H11.6684L11.9844 17.3425L11.3153 16ZM11.4701 15.9229L10.8011 14.5803L10.801 14.5803L11.4701 15.9229ZM11.4699 14.8273L12.1429 13.4868L12.1428 13.4867L11.4699 14.8273ZM11.3153 14.7497L11.9882 13.4091L11.6706 13.2497H11.3153V14.7497ZM8.11057 14.7497L6.61062 14.7629L6.62371 16.2497H8.11057V14.7497ZM8.10153 13.7233L6.60159 13.7365V13.7365L8.10153 13.7233ZM8.0925 12.6969L9.59244 12.6837L9.58838 12.2218L9.32514 11.8422L8.0925 12.6969ZM8.00611 12.5723L6.77338 13.4269L6.77346 13.4271L8.00611 12.5723ZM7.08696 12.4456L8.07654 13.5728L8.07672 13.5727L7.08696 12.4456ZM6.85854 13.7729L5.35854 13.7719V13.7719L6.85854 13.7729ZM6.85785 14.7497V16.2497H8.35679L8.35785 14.7508L6.85785 14.7497ZM2.1943 14.7497L1.13364 15.8104L1.57298 16.2497H2.1943V14.7497ZM2.08803 14.6434L3.14869 13.5828H3.14868L2.08803 14.6434ZM1.98175 14.5372H0.481752V15.1585L0.921093 15.5978L1.98175 14.5372ZM1.98175 8.62334V7.12334H0.481752V8.62334H1.98175ZM6.85785 8.62334L8.35785 8.62229L8.35679 7.12334H6.85785V8.62334ZM6.85854 9.60012L5.35854 9.60118V9.60119L6.85854 9.60012ZM7.08696 10.9275L8.07673 9.80038L8.07654 9.80022L7.08696 10.9275ZM8.00611 10.8007L6.77326 9.94622L6.77322 9.94627L8.00611 10.8007ZM8.0925 10.676L9.32534 11.5305L9.5925 11.145V10.676H8.0925ZM8.0925 5.32038H9.5925V4.85139L9.32534 4.46592L8.0925 5.32038ZM8.00611 5.19573L6.77322 6.05013L6.77326 6.05019L8.00611 5.19573ZM7.08696 5.06892L8.07654 6.19619L8.07673 6.19602L7.08696 5.06892ZM6.85854 6.39628L5.35854 6.39521V6.39522L6.85854 6.39628ZM6.85785 7.37306V8.87306H8.35679L8.35785 7.37412L6.85785 7.37306ZM1.98175 7.37306H0.481752V8.87306H1.98175V7.37306ZM1.98175 1.45923L0.921092 0.398573L0.481752 0.837913V1.45923H1.98175ZM2.08803 1.35296L3.14869 2.41362L3.14869 2.41362L2.08803 1.35296ZM2.1943 1.24669V-0.253314H1.57298L1.13364 0.186026L2.1943 1.24669ZM6.85785 1.24669L8.35785 1.24563L8.35679 -0.253314H6.85785V1.24669ZM6.85854 2.22347L5.35854 2.22452V2.22454L6.85854 2.22347ZM7.08696 3.55083L8.07672 2.42372L8.07654 2.42356L7.08696 3.55083ZM8.00611 3.42408L6.77346 2.56933L6.77338 2.56946L8.00611 3.42408ZM8.0925 3.29949L9.32514 4.15424L9.58838 3.77463L9.59244 3.31269L8.0925 3.29949ZM8.10153 2.27307L6.60159 2.25987V2.25987L8.10153 2.27307ZM8.11057 1.24669V-0.253314H6.62371L6.61062 1.23348L8.11057 1.24669ZM15.2722 1.24669L16.3329 0.186027L15.8936 -0.253314H15.2722V1.24669ZM15.3785 1.35296L14.3179 2.41362L14.3179 2.41362L15.3785 1.35296ZM15.4848 1.45923H16.9848V0.837914L16.5454 0.398574L15.4848 1.45923ZM15.4848 7.40432V8.90432H16.9848V7.40432H15.4848ZM9.83955 7.40432V5.90432H9.48647L9.17046 6.06181L9.83955 7.40432ZM9.68476 7.48146L10.3537 8.82403L10.3538 8.82397L9.68476 7.48146ZM9.68492 8.57699L9.01196 9.91755L9.01204 9.9176L9.68492 8.57699ZM9.83955 8.6546L9.16667 9.99521L9.48423 10.1546H9.83955V8.6546ZM15.4848 8.6546H16.9848V7.1546H15.4848V8.6546ZM15.4848 14.5372L16.5454 15.5978L16.9848 15.1585V14.5372H15.4848ZM15.2722 14.7497V16.2497H15.8936L16.3329 15.8104L15.2722 14.7497ZM13.3731 14.8269L14.0421 16.1694L14.0423 16.1693L13.3731 14.8269ZM13.3732 15.9224L14.0462 14.5818L14.0462 14.5818L13.3732 15.9224ZM15.4911 15.9655L15.7971 17.4339L15.7973 17.4339L15.4911 15.9655ZM16.7005 14.756L18.1689 15.0622L18.1689 15.0622L16.7005 14.756ZM16.7005 1.2404L18.1689 0.934238L18.1689 0.934195L16.7005 1.2404ZM15.5811 0.0536996L15.2022 1.50505L15.2022 1.50506L15.5811 0.0536996ZM1.50657 -1.39766C0.710448 -1.18984 0.0547178 -0.655252 -0.348418 0.0177099L2.22514 1.55939C2.24085 1.53316 2.25828 1.51549 2.27074 1.50582C2.2834 1.49599 2.28333 1.5001 2.26432 1.50506L1.50657 -1.39766ZM-0.348398 0.017675C-0.290682 -0.0786645 -0.543077 0.272292 -0.643908 0.683201C-0.717535 0.983248 -0.735766 1.34358 -0.747136 1.74452C-0.771854 2.6161 -0.767711 4.36674 -0.766716 8.0204L2.23328 8.01958C2.23228 4.32533 2.22854 2.64457 2.25166 1.82956C2.2642 1.38721 2.28382 1.34044 2.26966 1.39815C2.22829 1.56671 2.05699 1.84008 2.22512 1.55943L-0.348398 0.017675ZM-0.766716 8.02039C-0.765889 11.0941 -0.764508 12.7604 -0.757024 13.6812C-0.753315 14.1375 -0.748005 14.4322 -0.739274 14.6302C-0.731143 14.8147 -0.717544 15.0144 -0.662588 15.2249L2.24012 14.4671C2.27012 14.582 2.26451 14.6499 2.25781 14.4981C2.25172 14.3599 2.24659 14.1139 2.24288 13.6568C2.23551 12.7509 2.23411 11.0998 2.23328 8.01958L-0.766716 8.02039ZM-0.662591 15.2249C-0.374617 16.328 0.565243 17.2037 1.66926 17.4339L2.28168 14.497C2.29355 14.4995 2.29451 14.5015 2.28669 14.4973C2.27881 14.4931 2.26754 14.4854 2.2559 14.4745C2.24424 14.4635 2.2372 14.4538 2.23419 14.4489C2.2312 14.444 2.23547 14.4493 2.24012 14.4671L-0.662591 15.2249ZM1.66911 17.4338C1.82562 17.4665 1.99326 17.4715 2.01096 17.4723C2.08495 17.4757 2.17621 17.4785 2.28029 17.4808C2.49041 17.4854 2.78705 17.489 3.17412 17.4918C3.95007 17.4974 5.11376 17.5 6.72822 17.5V14.5C5.11459 14.5 3.96018 14.4974 3.19592 14.4919C2.81288 14.4891 2.53389 14.4856 2.34633 14.4815C2.25156 14.4794 2.18848 14.4773 2.15055 14.4756C2.05632 14.4712 2.15446 14.4705 2.28183 14.4971L1.66911 17.4338ZM6.72822 17.5H11.3153V14.5H6.72822V17.5ZM11.9844 17.3425L12.1392 17.2654L10.801 14.5803L10.6462 14.6575L11.9844 17.3425ZM12.1391 17.2654C13.7126 16.4814 13.7018 14.2693 12.1429 13.4868L10.797 16.1679C10.1599 15.8481 10.1492 14.9051 10.8011 14.5803L12.1391 17.2654ZM12.1428 13.4867L11.9882 13.4091L10.6424 16.0903L10.7971 16.1679L12.1428 13.4867ZM11.3153 13.2497H9.71293V16.2497H11.3153V13.2497ZM9.71293 13.2497H8.11057V16.2497H9.71293V13.2497ZM9.61051 14.7365L9.60148 13.7101L6.60159 13.7365L6.61062 14.7629L9.61051 14.7365ZM9.60148 13.7101L9.59244 12.6837L6.59256 12.7101L6.60159 13.7365L9.60148 13.7101ZM9.32514 11.8422L9.23875 11.7176L6.77346 13.4271L6.85986 13.5517L9.32514 11.8422ZM9.23883 11.7177C8.53616 10.7041 7.08424 10.4517 6.0972 11.3185L8.07672 13.5727C7.64937 13.948 7.04014 13.8117 6.77338 13.4269L9.23883 11.7177ZM6.09738 11.3183C6.05099 11.359 5.86368 11.5166 5.70755 11.7523C5.52905 12.0217 5.45043 12.2919 5.41176 12.5166C5.35484 12.8473 5.35887 13.3005 5.35854 13.7719L8.35853 13.774C8.35873 13.4949 8.35935 13.3072 8.36293 13.1691C8.36466 13.102 8.36684 13.0586 8.36884 13.0311C8.3709 13.0028 8.37185 13.0047 8.3683 13.0253C8.36455 13.0472 8.35394 13.1009 8.32801 13.1725C8.30029 13.2491 8.26088 13.3301 8.20843 13.4093C8.15788 13.4856 8.10972 13.5381 8.08363 13.5647C8.06283 13.5858 8.05063 13.5956 8.07654 13.5728L6.09738 11.3183ZM5.35854 13.7719L5.35785 14.7487L8.35785 14.7508L8.35854 13.774L5.35854 13.7719ZM6.85785 13.2497H4.52607V16.2497H6.85785V13.2497ZM4.52607 13.2497H2.1943V16.2497H4.52607V13.2497ZM3.25496 13.6891L3.14869 13.5828L1.02737 15.7041L1.13364 15.8104L3.25496 13.6891ZM3.14868 13.5828L3.04241 13.4765L0.921093 15.5978L1.02737 15.7041L3.14868 13.5828ZM3.48175 14.5372V11.5803H0.481752V14.5372H3.48175ZM3.48175 11.5803V8.62334H0.481752V11.5803H3.48175ZM1.98175 10.1233H4.4198V7.12334H1.98175V10.1233ZM4.4198 10.1233H6.85785V7.12334H4.4198V10.1233ZM5.35785 8.6244L5.35854 9.60118L8.35854 9.59907L8.35785 8.62229L5.35785 8.6244ZM5.35854 9.60119C5.35887 10.0725 5.35484 10.5257 5.41176 10.8565C5.45043 11.0812 5.52905 11.3514 5.70755 11.6208C5.86368 11.8564 6.05099 12.014 6.09738 12.0548L8.07654 9.80022C8.05063 9.77748 8.06283 9.78723 8.08363 9.8084C8.10972 9.83496 8.15788 9.8875 8.20843 9.9638C8.26088 10.0429 8.30029 10.124 8.32801 10.2005C8.35394 10.2721 8.36455 10.3259 8.3683 10.3477C8.37185 10.3683 8.3709 10.3702 8.36884 10.3419C8.36684 10.3144 8.36466 10.2711 8.36293 10.2039C8.35935 10.0659 8.35873 9.87819 8.35853 9.59906L5.35854 9.60119ZM6.09719 12.0546C7.08435 12.9215 8.53644 12.6688 9.23899 11.6551L6.77322 9.94627C7.03998 9.56135 7.64932 9.42505 8.07673 9.80038L6.09719 12.0546ZM9.23895 11.6551L9.32534 11.5305L6.85966 9.82156L6.77326 9.94622L9.23895 11.6551ZM9.5925 10.676V7.9982H6.5925V10.676H9.5925ZM9.5925 7.9982V5.32038H6.5925V7.9982H9.5925ZM9.32534 4.46592L9.23895 4.34127L6.77326 6.05019L6.85966 6.17484L9.32534 4.46592ZM9.23899 4.34133C8.53644 3.32757 7.08435 3.07494 6.09719 3.94182L8.07673 6.19602C7.64932 6.57135 7.03998 6.43506 6.77322 6.05013L9.23899 4.34133ZM6.09738 3.94165C6.05099 3.98238 5.86368 4.13998 5.70755 4.37562C5.52905 4.64503 5.45043 4.91519 5.41176 5.13993C5.35484 5.47068 5.35887 5.92385 5.35854 6.39521L8.35853 6.39735C8.35873 6.11821 8.35935 5.93051 8.36293 5.79246C8.36466 5.72534 8.36684 5.68199 8.36884 5.65449C8.3709 5.62616 8.37185 5.62808 8.3683 5.64869C8.36455 5.67052 8.35394 5.72427 8.32801 5.79588C8.30029 5.87242 8.26088 5.95346 8.20843 6.03261C8.15788 6.10891 8.10972 6.16145 8.08363 6.18801C8.06283 6.20918 8.05063 6.21893 8.07654 6.19619L6.09738 3.94165ZM5.35854 6.39522L5.35785 7.37201L8.35785 7.37412L8.35854 6.39734L5.35854 6.39522ZM6.85785 5.87306H4.4198V8.87306H6.85785V5.87306ZM4.4198 5.87306H1.98175V8.87306H4.4198V5.87306ZM3.48175 7.37306V4.41615H0.481752V7.37306H3.48175ZM3.48175 4.41615V1.45923H0.481752V4.41615H3.48175ZM3.04241 2.51989L3.14869 2.41362L1.02737 0.292299L0.921092 0.398573L3.04241 2.51989ZM3.14869 2.41362L3.25496 2.30735L1.13364 0.186026L1.02737 0.2923L3.14869 2.41362ZM2.1943 2.74669H4.52607V-0.253314H2.1943V2.74669ZM4.52607 2.74669H6.85785V-0.253314H4.52607V2.74669ZM5.35785 1.24774L5.35854 2.22452L8.35854 2.22241L8.35785 1.24563L5.35785 1.24774ZM5.35854 2.22454C5.35887 2.69589 5.35484 3.14907 5.41176 3.47982C5.45043 3.70455 5.52905 3.97472 5.70755 4.24413C5.86368 4.47976 6.05099 4.63737 6.09738 4.67809L8.07654 2.42356C8.05063 2.40082 8.06283 2.41057 8.08363 2.43174C8.10972 2.4583 8.15788 2.51084 8.20843 2.58714C8.26088 2.66629 8.30029 2.74733 8.32801 2.82387C8.35394 2.89548 8.36455 2.94923 8.3683 2.97106C8.37185 2.99166 8.3709 2.99358 8.36884 2.96526C8.36684 2.93776 8.36466 2.89441 8.36293 2.82729C8.35935 2.68924 8.35873 2.50153 8.35853 2.2224L5.35854 2.22454ZM6.0972 4.67794C7.08424 5.5447 8.53616 5.29226 9.23883 4.27871L6.77338 2.56946C7.04014 2.18467 7.64937 2.04844 8.07672 2.42372L6.0972 4.67794ZM9.23875 4.27883L9.32514 4.15424L6.85986 2.44474L6.77346 2.56933L9.23875 4.27883ZM9.59244 3.31269L9.60148 2.28627L6.60159 2.25987L6.59256 3.28629L9.59244 3.31269ZM9.60148 2.28627L9.61051 1.25989L6.61062 1.23348L6.60159 2.25987L9.60148 2.28627ZM8.11057 2.74669H11.6914V-0.253314H8.11057V2.74669ZM11.6914 2.74669H15.2722V-0.253314H11.6914V2.74669ZM14.2116 2.30735L14.3179 2.41362L16.4392 0.292301L16.3329 0.186027L14.2116 2.30735ZM14.3179 2.41362L14.4241 2.51989L16.5454 0.398574L16.4392 0.2923L14.3179 2.41362ZM13.9848 1.45923V4.43178H16.9848V1.45923H13.9848ZM13.9848 4.43178V7.40432H16.9848V4.43178H13.9848ZM15.4848 5.90432H12.6622V8.90432H15.4848V5.90432ZM12.6622 5.90432H9.83955V8.90432H12.6622V5.90432ZM9.17046 6.06181L9.01568 6.13895L10.3538 8.82397L10.5086 8.74683L9.17046 6.06181ZM9.0158 6.13889C7.44223 6.92296 7.45306 9.13499 9.01196 9.91755L10.3579 7.23642C10.995 7.55626 11.0057 8.49919 10.3537 8.82403L9.0158 6.13889ZM9.01204 9.9176L9.16667 9.99521L10.5124 7.31399L10.3578 7.23638L9.01204 9.9176ZM9.83955 10.1546H12.6622V7.1546H9.83955V10.1546ZM12.6622 10.1546H15.4848V7.1546H12.6622V10.1546ZM13.9848 8.6546V11.5959H16.9848V8.6546H13.9848ZM13.9848 11.5959V14.5372H16.9848V11.5959H13.9848ZM14.4241 13.4765L14.3179 13.5828L16.4392 15.7041L16.5454 15.5978L14.4241 13.4765ZM14.3179 13.5828L14.2116 13.6891L16.3329 15.8104L16.4392 15.7041L14.3179 13.5828ZM15.2722 13.2497H14.4V16.2497H15.2722V13.2497ZM14.4 13.2497C14.0052 13.2497 13.7091 13.2487 13.5075 13.2638C13.3842 13.2731 13.2233 13.2923 13.0442 13.3463C12.8697 13.3988 12.7339 13.4695 12.7039 13.4844L14.0423 16.1693C14.089 16.146 14.0118 16.1879 13.9092 16.2188C13.8019 16.2512 13.726 16.2559 13.7322 16.2554C13.745 16.2544 13.7904 16.2522 13.9115 16.2509C14.027 16.2498 14.1811 16.2497 14.4 16.2497V13.2497ZM12.7041 13.4843C11.1306 14.2684 11.1414 16.4804 12.7003 17.263L14.0462 14.5818C14.6833 14.9017 14.694 15.8446 14.0421 16.1694L12.7041 13.4843ZM12.7003 17.2629C12.7271 17.2764 12.8657 17.3494 13.0431 17.403C13.2251 17.458 13.3885 17.477 13.5119 17.4861C13.7151 17.5011 14.0168 17.5 14.4266 17.5V14.5C14.2001 14.5 14.0404 14.5 13.9207 14.4988C13.7953 14.4976 13.7471 14.4953 13.7324 14.4942C13.7236 14.4936 13.8009 14.498 13.9108 14.5312C14.0161 14.563 14.0964 14.607 14.0462 14.5818L12.7003 17.2629ZM14.4266 17.5C14.7056 17.5 14.9639 17.4964 15.1713 17.4897C15.3093 17.4852 15.5916 17.4767 15.7971 17.4339L15.185 14.497C15.2206 14.4896 15.2471 14.4857 15.2585 14.484C15.2715 14.4822 15.2797 14.4813 15.2814 14.4811C15.2843 14.4808 15.2776 14.4816 15.2579 14.4829C15.219 14.4855 15.158 14.4885 15.074 14.4912C14.9076 14.4966 14.683 14.5 14.4266 14.5V17.5ZM15.7973 17.4339C16.9671 17.1899 17.925 16.232 18.1689 15.0622L15.2321 14.4498C15.2347 14.4376 15.2369 14.4361 15.2329 14.4434C15.2287 14.4508 15.2209 14.462 15.209 14.4739C15.1971 14.4858 15.1858 14.4937 15.1784 14.4978C15.1712 14.5019 15.1727 14.4996 15.1848 14.497L15.7973 17.4339ZM18.1689 15.0622C18.1924 14.9497 18.1984 14.8504 18.1985 14.8485C18.2009 14.8175 18.2024 14.788 18.2034 14.7653C18.2056 14.7184 18.2072 14.6631 18.2087 14.6051C18.2116 14.4871 18.2142 14.3274 18.2165 14.1356C18.2211 13.7505 18.225 13.2165 18.228 12.5855C18.2342 11.3225 18.2372 9.65973 18.2372 7.9982C18.2372 6.33668 18.2342 4.67395 18.228 3.41092C18.225 2.77991 18.2211 2.24587 18.2165 1.86077C18.2142 1.669 18.2116 1.50929 18.2087 1.3913C18.2072 1.33326 18.2056 1.278 18.2034 1.23113C18.2024 1.20842 18.2009 1.17894 18.1985 1.14795C18.1984 1.14598 18.1924 1.04672 18.1689 0.934238L15.2321 1.54657C15.2031 1.40769 15.2027 1.28353 15.2065 1.36717C15.2073 1.38344 15.2083 1.41479 15.2096 1.46525C15.212 1.56426 15.2144 1.70913 15.2167 1.89701C15.2212 2.27121 15.225 2.79674 15.2281 3.42548C15.2342 4.68197 15.2372 6.33948 15.2372 7.9982C15.2372 9.65692 15.2342 11.3144 15.2281 12.5709C15.225 13.1997 15.2212 13.7252 15.2167 14.0994C15.2144 14.2873 15.212 14.4321 15.2096 14.5312C15.2083 14.5816 15.2073 14.613 15.2065 14.6292C15.2027 14.7129 15.2031 14.5887 15.2321 14.4498L18.1689 15.0622ZM18.1689 0.934195C17.9387 -0.169823 17.063 -1.10968 15.96 -1.39766L15.2022 1.50506C15.1844 1.5004 15.1791 1.49614 15.184 1.49912C15.1889 1.50213 15.1985 1.50918 15.2095 1.52084C15.2205 1.53247 15.2281 1.54374 15.2324 1.55162C15.2366 1.55944 15.2346 1.55848 15.2321 1.54661L18.1689 0.934195ZM15.96 -1.39766C15.7494 -1.45264 15.5498 -1.46622 15.3649 -1.47432C15.1666 -1.48301 14.8714 -1.48825 14.4139 -1.49183C13.4907 -1.49907 11.819 -1.5 8.73327 -1.5V1.5C11.8256 1.5 13.4821 1.50095 14.3904 1.50807C14.8488 1.51167 15.0952 1.51674 15.2335 1.5228C15.3852 1.52945 15.3171 1.53506 15.2022 1.50505L15.96 -1.39766ZM8.73327 -1.5C5.64755 -1.5 3.97583 -1.49907 3.05259 -1.49183C2.59516 -1.48825 2.29992 -1.48301 2.10168 -1.47432C1.91678 -1.46622 1.71715 -1.45264 1.50655 -1.39766L2.26435 1.50505C2.14941 1.53506 2.08133 1.52945 2.23303 1.5228C2.37137 1.51674 2.61776 1.51167 3.07611 1.50807C3.98445 1.50095 5.64097 1.5 8.73327 1.5V-1.5Z" fill="#757575" mask="url(#path-1-inside-1_273_972)"/>
</svg>
