<svg width="20" height="20" viewBox="0 0 20 20" fill="none" xmlns="http://www.w3.org/2000/svg">
<path fill-rule="evenodd" clip-rule="evenodd" d="M4.71472 0.0302874C4.51028 0.0493419 4.14054 0.100519 3.89307 0.144028C1.96531 0.482861 0.639324 1.21495 0.144415 2.21365L0 2.50506V9.99978V17.4945L0.150793 17.8031C0.327135 18.164 0.744573 18.6113 1.15423 18.8783C1.92212 19.3787 2.98385 19.7323 4.30389 19.9271C4.96391 20.0246 6.6875 20.0242 7.35574 19.9265C9.46066 19.6187 10.9663 18.8535 11.4822 17.8292C11.6002 17.5951 11.6867 17.2477 11.6732 17.062C11.6686 16.9986 11.6681 16.5115 11.672 15.9795L11.6792 15.0123L14.1344 15.0013C16.5596 14.9905 16.5918 14.9894 16.7733 14.9055C17.0081 14.797 17.2713 14.5338 17.3937 14.2851C17.4841 14.1015 17.4902 14.0461 17.5021 13.3017L17.5147 12.513L18.089 12.499C18.5717 12.4872 18.6921 12.4718 18.8441 12.402C19.1117 12.2793 19.3451 12.0486 19.4714 11.7821C19.5805 11.5518 19.5826 11.5341 19.5827 10.8598C19.5827 9.99885 19.5509 9.88557 19.2141 9.54877C18.8907 9.22544 18.7478 9.18017 18.0498 9.18017H17.509V7.49774V5.81531H18.0498C18.7478 5.81531 18.8907 5.77004 19.2141 5.4467C19.5509 5.1099 19.5827 4.99663 19.5827 4.13569C19.5826 3.46139 19.5805 3.44367 19.4714 3.21341C19.3451 2.94684 19.1117 2.71615 18.8441 2.59345C18.6921 2.52369 18.5717 2.50827 18.089 2.4965L17.5147 2.48249L17.5021 1.69374C17.4902 0.949403 17.4841 0.894 17.3937 0.710342C17.2716 0.462124 17.0324 0.222945 16.7842 0.100832L16.5895 0.00505105L10.838 0.000316687C7.67462 -0.00226565 4.91915 0.0112329 4.71472 0.0302874ZM6.72972 0.867786C7.71758 0.925928 8.83065 1.20267 9.58191 1.57691C10.1937 1.8817 10.5614 2.19358 10.7262 2.5476C10.9113 2.94512 10.8175 3.28626 10.4154 3.67807C9.46559 4.60329 7.15409 5.13916 4.92224 4.95151C2.62068 4.758 0.824274 3.85379 0.832921 2.89312C0.841841 1.89951 2.80782 0.974914 5.18423 0.846775C5.70399 0.818761 5.95397 0.822126 6.72972 0.867786ZM16.5399 0.954529L16.6678 1.08235L16.6807 1.7824L16.6936 2.48241L16.0938 2.49653C15.536 2.5096 15.4803 2.51782 15.2984 2.61356C15.0344 2.75254 14.8196 2.97345 14.6963 3.23297C14.5979 3.44022 14.5941 3.47411 14.5941 4.15244C14.5941 4.82928 14.5981 4.86516 14.6959 5.07371C14.8305 5.36074 14.9935 5.54017 15.2468 5.68028C15.4458 5.79042 15.4813 5.79629 16.0613 5.81515L16.6678 5.83487V7.49774V9.1606L16.0613 9.18032C15.4813 9.19918 15.4458 9.20505 15.2468 9.31519C14.9935 9.4553 14.8305 9.63474 14.6959 9.92177C14.5981 10.1303 14.5941 10.1662 14.5941 10.843C14.5941 11.5214 14.5979 11.5552 14.6963 11.7625C14.8196 12.022 15.0344 12.2429 15.2984 12.3819C15.4803 12.4777 15.536 12.4859 16.0938 12.4989L16.6936 12.5131L16.6807 13.2131L16.6678 13.9131L16.5399 14.0409L16.412 14.1688L14.0456 14.1797L11.6792 14.1907L11.6707 8.85855C11.6661 5.92588 11.661 3.32394 11.6594 3.07646C11.6566 2.62252 11.6238 2.46019 11.4738 2.157C11.2717 1.74852 10.7843 1.2799 10.2513 0.981878C10.1113 0.903587 9.99677 0.831829 9.99677 0.822438C9.99677 0.813048 11.4402 0.810153 13.2044 0.816022L16.412 0.826703L16.5399 0.954529ZM4.51909 1.71131C3.97903 1.76546 3.22616 1.92619 2.88165 2.06083C2.20273 2.32626 1.92263 2.74096 2.13121 3.17185C2.23881 3.39413 2.39167 3.52387 2.73884 3.6875C4.07653 4.31798 7.61793 4.31368 8.92079 3.67995C9.23944 3.52497 9.32857 3.45513 9.4659 3.25273C9.5825 3.08093 9.60233 2.78998 9.50968 2.61082C9.31034 2.22527 8.61549 1.92717 7.53181 1.76225C7.03941 1.68729 5.08751 1.65426 4.51909 1.71131ZM7.31662 2.58743C7.81317 2.65316 8.34345 2.77433 8.50508 2.859C8.59922 2.90834 8.59976 2.91104 8.5239 2.95165C8.39396 3.02118 7.86094 3.14936 7.39964 3.22205C6.77382 3.32061 4.88582 3.32007 4.2452 3.22108C3.75773 3.14576 3.27925 3.02764 3.1166 2.94238C3.01675 2.89007 3.02215 2.88647 3.34612 2.78881C3.75069 2.66685 4.26414 2.57686 4.8229 2.52999C5.40209 2.48139 6.75019 2.51246 7.31662 2.58743ZM18.4599 3.35297C18.7113 3.42277 18.7607 3.55283 18.7609 4.14461C18.7611 4.70525 18.7228 4.83331 18.5248 4.93575C18.4237 4.98798 18.2145 4.99494 17.0354 4.98532L15.6636 4.97409L15.5495 4.8463L15.4353 4.71852V4.15709C15.4353 3.6492 15.443 3.58589 15.516 3.49304C15.5604 3.43662 15.6529 3.37422 15.7215 3.35434C15.8992 3.30293 18.2754 3.30175 18.4599 3.35297ZM1.04585 4.6036C1.29332 4.79286 2.07585 5.18146 2.48816 5.31985C2.94018 5.47158 3.52927 5.6131 4.08044 5.70239C4.80322 5.81949 6.32801 5.84786 7.10142 5.75865C8.51635 5.59538 9.67331 5.22469 10.4956 4.67117L10.8184 4.45391L10.818 10.8568L10.8176 17.2597L10.7262 17.456C10.3168 18.3353 8.52581 19.045 6.44214 19.1535C3.84314 19.2889 1.50405 18.5645 0.895483 17.4358C0.824117 17.3034 0.8213 17.0853 0.811205 10.8724C0.805454 7.33783 0.809484 4.44589 0.820165 4.44589C0.830886 4.44589 0.932419 4.51686 1.04585 4.6036ZM4.38214 8.7952C4.17415 8.90957 4.16875 8.93778 4.16781 9.91378L4.16695 10.8235H3.30492C2.6366 10.8235 2.41206 10.8363 2.30579 10.8808C2.06415 10.9817 2.05413 11.0465 2.05413 12.5085C2.05413 13.6391 2.0625 13.8224 2.11955 13.9427C2.22629 14.1676 2.32625 14.1883 3.30492 14.1883H4.16695L4.16781 15.098C4.16859 15.9008 4.17661 16.0175 4.23628 16.0912C4.37045 16.2568 4.41998 16.262 5.85071 16.262H7.22663L7.35966 16.129L7.49268 15.996V15.0941V14.1924L8.41544 14.1805L9.33819 14.1688L9.45229 14.041L9.56638 13.9132V12.5059V11.0986L9.45229 10.9708L9.33819 10.843L8.41544 10.8313L7.49268 10.8194V9.91766V9.01584L7.35966 8.88281L7.22663 8.74978L5.84351 8.75095C4.91336 8.75177 4.43477 8.76625 4.38214 8.7952ZM6.67103 10.5194L6.6906 11.4479L6.79901 11.5563L6.90743 11.6647L7.82608 11.6765L8.74473 11.6883V12.5059V13.3235L7.82608 13.3353L6.90743 13.3471L6.79901 13.4555L6.6906 13.5639L6.67103 14.4924L6.65147 15.4208L5.82004 15.4314L4.9886 15.4419V14.5634C4.9886 14.0801 4.97143 13.6396 4.95045 13.5845C4.92948 13.5292 4.85463 13.4489 4.78417 13.406C4.66624 13.3341 4.58654 13.3278 3.78547 13.3277L2.91491 13.3276V12.5059V11.6842L3.78547 11.6841C4.58654 11.684 4.66624 11.6777 4.78417 11.6058C4.85463 11.5629 4.92948 11.4826 4.95045 11.4273C4.97143 11.3722 4.9886 10.9317 4.9886 10.4484V9.56986L5.82004 9.58043L6.65147 9.59099L6.67103 10.5194ZM18.633 10.1298C18.7401 10.2368 18.7416 10.2452 18.7527 10.7949C18.7627 11.2939 18.7559 11.3646 18.6863 11.4764C18.6345 11.5596 18.559 11.615 18.4599 11.6425C18.2638 11.6969 15.9358 11.6978 15.7403 11.6436C15.4702 11.5685 15.4353 11.4771 15.4353 10.843C15.4353 10.3335 15.4424 10.2772 15.519 10.1799C15.565 10.1214 15.6398 10.0582 15.6853 10.0394C15.7307 10.0206 16.3882 10.0089 17.1462 10.0133L18.5246 10.0214L18.633 10.1298Z" fill="#757575"/>
</svg>
