<svg width="24" height="20" viewBox="0 0 24 20" fill="none" xmlns="http://www.w3.org/2000/svg">
<path fill-rule="evenodd" clip-rule="evenodd" d="M4.97548 0.0286609C2.3014 0.275016 0.426878 1.09051 0.0600571 2.16715C0.00100597 2.34037 -0.00645681 3.39309 0.0039258 10.0613L0.0159308 17.7555L0.128378 17.984C0.499742 18.7385 1.68197 19.3716 3.37637 19.7232C4.59619 19.9763 4.47183 19.9719 10.8785 19.9905C17.6326 20.0101 17.1169 20.0382 17.483 19.631C17.7466 19.3378 17.7915 19.1493 17.7915 18.3355C17.7915 17.7032 17.7878 17.6781 17.6777 17.568C17.5493 17.4396 17.3478 17.4189 17.2094 17.5199C17.1286 17.5788 17.1171 17.6619 17.0962 18.3299C17.0746 19.0268 17.0664 19.0809 16.9675 19.1797L16.8619 19.2851H11.0809C4.89668 19.2851 4.79596 19.2819 3.61629 19.0487C2.1553 18.76 0.972382 18.1841 0.750871 17.654C0.698912 17.5297 0.688019 16.3138 0.688019 10.6467V3.78976L0.99579 3.9919C1.78431 4.50982 3.23046 4.91678 4.85293 5.07739C5.15171 5.10696 7.47231 5.1249 10.9991 5.1249C15.0265 5.1249 16.7079 5.13978 16.8126 5.17626C17.0775 5.26859 17.0962 5.36463 17.0962 6.62899V7.7669L16.2967 7.7644L15.4971 7.76185L15.3581 7.54539C15.2768 7.41885 15.1243 7.27062 14.991 7.18867L14.7631 7.04846L13.473 7.03358C11.95 7.01606 11.7928 7.04225 11.467 7.36805C11.157 7.67809 11.1402 7.76676 11.1402 9.0892C11.1402 10.2423 11.1409 10.2507 11.2586 10.4793C11.4068 10.7673 11.6905 10.9876 11.9979 11.0536C12.3036 11.1191 14.3767 11.1198 14.6814 11.0545C14.971 10.9924 15.2522 10.7922 15.3908 10.5495L15.4971 10.3633L17.4311 10.3629L19.3651 10.3626L19.4318 10.49C19.5179 10.6544 19.7638 10.885 19.97 10.9947C20.1179 11.0733 20.2556 11.081 21.5228 11.081C22.8697 11.081 22.9193 11.0778 23.1053 10.9783C23.3482 10.8484 23.601 10.5552 23.6706 10.3228C23.7399 10.0916 23.7432 8.04501 23.6747 7.79837C23.614 7.57974 23.3527 7.28365 23.1018 7.14942C22.9233 7.05384 22.8449 7.04772 21.6303 7.03423C20.8473 7.02552 20.2781 7.03859 20.1698 7.06775C19.9014 7.14005 19.623 7.34135 19.4812 7.56574L19.354 7.7669H18.5755H17.797L17.7827 6.50384C17.7692 5.31281 17.7626 5.23021 17.6683 5.05537C17.5512 4.83845 17.3697 4.66014 17.1426 4.53921C16.992 4.45902 16.8235 4.45184 14.7946 4.43951L12.6088 4.42621L12.5921 3.35026C12.5728 2.11515 12.55 2.02411 12.1552 1.602C11.4669 0.866176 10.1241 0.354971 8.19687 0.0950817C7.55468 0.00849816 5.62602 -0.0312709 4.97548 0.0286609ZM7.3162 0.721376C9.05135 0.848794 10.3949 1.20426 11.2623 1.76534C11.7934 2.10889 11.978 2.48827 11.7906 2.85069C11.5473 3.32111 10.5038 3.8452 9.25928 4.122C8.22616 4.35177 7.71213 4.4015 6.34283 4.40405C4.98739 4.4066 4.50544 4.36641 3.5266 4.16905C1.75567 3.81206 0.589014 3.1034 0.707997 2.45699C0.733536 2.31821 0.806261 2.21114 1.01058 2.01151C1.62598 1.4102 3.07435 0.928147 4.74373 0.769071C5.792 0.669184 6.44119 0.657133 7.3162 0.721376ZM5.06818 1.49548C4.09574 1.54712 2.94563 1.73493 2.44138 1.92451C1.74436 2.18653 1.65031 2.79767 2.25955 3.10641C2.9505 3.45654 4.35582 3.64204 6.31057 3.64121C7.51176 3.64065 8.22148 3.59203 9.07754 3.45158C10.2245 3.2634 10.7091 2.99633 10.7091 2.55242C10.7091 2.32827 10.5884 2.16729 10.3031 2.01086C9.88928 1.78392 8.90766 1.5874 8.71178 1.69224C8.47512 1.81887 8.49625 2.19469 8.74548 2.29086C8.81338 2.31705 9.02539 2.3704 9.21659 2.40943C9.40779 2.44841 9.6268 2.4987 9.70328 2.52114L9.84233 2.56197L9.65693 2.61639C8.71711 2.89222 6.53046 3.02047 4.83643 2.89908C4.10381 2.84661 3.12738 2.69936 2.90193 2.60735L2.7517 2.54607L3.06958 2.46621C3.86964 2.26528 5.6059 2.12942 6.76393 2.17717C7.45113 2.20553 7.49234 2.20224 7.60984 2.10982C7.69818 2.04034 7.73336 1.96993 7.73336 1.86267C7.73336 1.64228 7.64108 1.54865 7.38184 1.5061C7.16579 1.47064 5.66574 1.46373 5.06818 1.49548ZM11.8586 4.12835V4.42964H11.2942H10.7297L11.1435 4.22458C11.3711 4.11176 11.6199 3.97632 11.6964 3.92358C11.7728 3.87083 11.8407 3.82754 11.847 3.8274C11.8534 3.82721 11.8586 3.96265 11.8586 4.12835ZM13.3418 9.06473V10.3626H12.7075C11.7988 10.3626 11.8586 10.4534 11.8586 9.07122C11.8586 7.67545 11.7995 7.7669 12.701 7.7669H13.3418V9.06473ZM14.729 7.85627C14.8567 7.98392 14.8809 8.23268 14.8636 9.23637C14.8486 10.1015 14.8454 10.1265 14.7359 10.2431C14.64 10.3449 14.5837 10.3626 14.3535 10.3626H14.0834V9.06473V7.7669H14.3615C14.5744 7.7669 14.6606 7.78785 14.729 7.85627ZM20.8043 9.06473V10.3626H20.5241C20.2884 10.3626 20.2258 10.3445 20.1301 10.2488L20.0164 10.135V9.07307C20.0164 8.06892 20.0216 8.0045 20.1124 7.88904C20.1984 7.77974 20.2398 7.7669 20.5064 7.7669H20.8043V9.06473ZM22.9178 7.88306L23.0339 7.99921L23.0199 9.09235C23.0025 10.4601 23.0698 10.3626 22.1434 10.3626H21.4996V9.06473V7.7669H22.1506C22.7836 7.7669 22.8048 7.7701 22.9178 7.88306ZM19.3211 9.06473V9.62094H17.4439H15.5667V9.06473V8.50852H17.4439H19.3211V9.06473ZM17.343 11.1402C17.1286 11.1739 17.1208 11.223 17.0962 12.6987L17.0731 14.0938L16.3043 14.1065L15.5355 14.1192L15.3928 13.8894C15.2943 13.7311 15.1732 13.6157 15.0028 13.518L14.7555 13.3762L13.3481 13.3758L11.9407 13.3754L11.7097 13.5011C11.4429 13.6463 11.2339 13.921 11.1659 14.2159C11.0876 14.5554 11.1044 16.3288 11.1885 16.6122C11.2728 16.8959 11.4743 17.1419 11.7383 17.2832C11.9217 17.3813 11.9757 17.3847 13.3418 17.3847C14.708 17.3847 14.7619 17.3813 14.9453 17.2832C15.1515 17.1729 15.4014 16.9147 15.4498 16.762C15.4799 16.6673 15.5004 16.6663 17.4169 16.6663H19.3536L19.4946 16.8932C19.5852 17.0389 19.7163 17.1675 19.8608 17.2524L20.0859 17.3847L21.4218 17.399C22.9282 17.415 23.0725 17.393 23.3717 17.1024C23.696 16.7874 23.6996 16.7704 23.7159 15.4852C23.7259 14.6928 23.7132 14.2654 23.6756 14.1314C23.6048 13.8783 23.3601 13.5946 23.1071 13.4721C22.9179 13.3806 22.8331 13.3754 21.5197 13.3764C20.278 13.3773 20.1127 13.3863 19.9464 13.4618C19.7547 13.5489 19.4909 13.8134 19.4028 14.0068C19.3528 14.1165 19.3489 14.117 18.572 14.117H17.7915V12.7559C17.7915 11.4705 17.7864 11.3883 17.6999 11.2784C17.6015 11.1532 17.5031 11.1151 17.343 11.1402ZM13.3418 15.3916V16.7126H12.7601C12.1568 16.7126 11.949 16.6625 11.8874 16.502C11.8716 16.4607 11.8586 15.94 11.8586 15.3449V14.2628L11.9807 14.1667C12.0904 14.0804 12.1658 14.0706 12.7223 14.0706H13.3418V15.3916ZM14.7359 14.1901C14.8461 14.3074 14.8485 14.3275 14.8635 15.2678C14.8734 15.8842 14.8603 16.2879 14.827 16.3995C14.7638 16.611 14.5909 16.7126 14.2943 16.7126H14.0834V15.3916V14.0706H14.3535C14.5837 14.0706 14.64 14.0882 14.7359 14.1901ZM20.8043 15.3972V16.7238L20.5192 16.7031C20.28 16.6858 20.2166 16.6622 20.1252 16.556C20.0178 16.431 20.0164 16.4153 20.0164 15.3638V14.2982L20.1301 14.1844C20.2258 14.0887 20.2884 14.0706 20.5241 14.0706H20.8043V15.3972ZM22.8185 14.0994C23.0005 14.1693 23.0292 14.3477 23.0292 15.4099C23.0292 16.4204 23.0282 16.4305 22.9174 16.5594C22.8062 16.6889 22.8027 16.6895 22.1526 16.7046L21.4996 16.7196V15.3952V14.0706H22.1215C22.4636 14.0706 22.7773 14.0836 22.8185 14.0994ZM19.3211 15.3916V15.971H17.4439H15.5667V15.3916V14.8122H17.4439H19.3211V15.3916Z" fill="#757575"/>
</svg>
