<svg width="24" height="24" viewBox="0 0 24 24" fill="none" xmlns="http://www.w3.org/2000/svg">
<path fill-rule="evenodd" clip-rule="evenodd" d="M13.2277 0.48539C12.9631 0.754265 12.7498 1.01039 12.7495 1.05961C12.7492 1.10845 12.6037 1.84233 12.4262 2.69044L12.1035 4.23244L8.16792 8.16792L4.23244 12.1035L2.69044 12.4262C1.84233 12.6037 1.10845 12.7492 1.05961 12.7495C1.01039 12.7498 0.754265 12.9631 0.48539 13.2277C0.0796404 13.6269 0 13.7288 0 13.8485C0 13.976 0.547313 14.539 5.00414 18.9959C9.46097 23.4527 10.024 24 10.1515 24C10.2712 24 10.3731 23.9204 10.7723 23.5146C11.0369 23.2457 11.2502 22.9896 11.2505 22.9404C11.2508 22.8915 11.3963 22.1577 11.5738 21.3096L11.8965 19.7676L15.8321 15.8321L19.7676 11.8965L21.3096 11.5738C22.1577 11.3963 22.8915 11.2508 22.9404 11.2505C22.9896 11.2502 23.2457 11.0369 23.5146 10.7723C23.9204 10.3731 24 10.2712 24 10.1515C24 10.024 23.4527 9.46097 18.9959 5.00414C14.539 0.547313 13.976 0 13.8485 0C13.7288 0 13.6269 0.0796404 13.2277 0.48539ZM23.101 10.2976L22.9542 10.4491L21.0982 8.62458C20.0774 7.62108 17.9559 5.5133 16.3838 3.94064L13.5255 1.08127L13.6872 0.914391L13.8489 0.747516L18.5484 5.44683L23.2479 10.1461L23.101 10.2976ZM22.2487 10.72C22.2415 10.7273 21.6698 10.8517 20.9783 10.9966L19.7211 11.2601L16.2305 7.76953L12.74 4.27894L12.9594 3.22931C13.0801 2.652 13.2008 2.07661 13.2275 1.95066L13.2761 1.72162L17.769 6.21427C20.24 8.68524 22.2559 10.7128 22.2487 10.72ZM15.3869 15.3866L11.6018 19.1719L8.21494 15.7853L4.82812 12.3987L8.61314 8.61342L12.3982 4.82812L15.7851 8.21475L19.1719 11.6013L15.3869 15.3866ZM12.0938 6.63637C11.9895 6.681 10.9848 7.64967 9.3367 9.2947C7.91058 10.7182 6.70294 11.9611 6.65311 12.0567C6.60328 12.1524 6.5625 12.306 6.5625 12.3981C6.5625 12.4902 6.59503 12.6439 6.63483 12.7398C6.68433 12.859 7.39102 13.599 8.87311 15.0832C10.2928 16.505 11.1047 17.2843 11.2297 17.3449C11.3345 17.3958 11.4988 17.4375 11.5948 17.4375C11.6908 17.4375 11.8476 17.3967 11.9433 17.3469C12.0389 17.2971 13.2806 16.0894 14.7025 14.6633C16.1244 13.2372 17.3215 12.0028 17.3627 11.9203C17.4038 11.8378 17.4375 11.6947 17.4375 11.6024C17.4375 11.5101 17.405 11.3561 17.3652 11.2602C17.3157 11.141 16.609 10.401 15.1269 8.9168C13.7072 7.49498 12.8953 6.71573 12.7703 6.65508C12.6655 6.60417 12.5073 6.56334 12.4188 6.56433C12.3302 6.56536 12.184 6.59775 12.0938 6.63637ZM13.4921 8.17177L14.4375 9.11798L13.3373 10.2174L12.237 11.3169L12.1068 11.1966C12.0352 11.1304 11.8787 11.0105 11.7591 10.9301C11.6394 10.8496 11.3969 10.7115 11.22 10.623C11.0431 10.5345 10.7613 10.4172 10.5938 10.3624C10.4262 10.3075 10.1015 10.2322 9.8723 10.195C9.64308 10.1579 9.44864 10.1205 9.44016 10.1121C9.43172 10.1036 10.0835 9.43922 10.8885 8.63569C12.0758 7.45055 12.3705 7.17947 12.4494 7.20014C12.503 7.21411 12.9721 7.65136 13.4921 8.17177ZM16.7999 11.5506C16.8205 11.6295 16.5495 11.9242 15.3643 13.1115C14.5608 13.9165 13.8964 14.5683 13.8879 14.5598C13.8795 14.5514 13.8421 14.3569 13.805 14.1277C13.7678 13.8985 13.6925 13.5738 13.6376 13.4062C13.5828 13.2387 13.4655 12.9569 13.377 12.78C13.2885 12.6031 13.1504 12.3606 13.0699 12.2409C12.9895 12.1213 12.8696 11.9648 12.8034 11.8932L12.6831 11.763L13.7826 10.6627L14.882 9.56255L15.8282 10.5079C16.3486 11.0279 16.7859 11.497 16.7999 11.5506ZM10.1953 10.8985C10.35 10.9411 10.6664 11.0657 10.8984 11.1755C11.1305 11.2852 11.4836 11.5052 11.6833 11.6644C11.8829 11.8235 12.1765 12.1171 12.3356 12.3167C12.4948 12.5164 12.7148 12.8695 12.8245 13.1016C12.9343 13.3336 13.0589 13.65 13.1015 13.8047C13.144 13.9594 13.1899 14.3496 13.2033 14.6719L13.2277 15.2578L12.4336 16.0443C11.8041 16.6678 11.621 16.8244 11.5502 16.7999C11.5011 16.7829 10.5079 15.8189 9.34317 14.6576C8.17838 13.4963 7.21411 12.503 7.20033 12.4502C7.1805 12.3743 7.33847 12.1896 7.95872 11.5634L8.74219 10.7723L9.32812 10.7967C9.65039 10.8101 10.0406 10.856 10.1953 10.8985ZM7.77469 16.2356L11.2601 19.7212L10.9966 20.9784C10.8517 21.6699 10.7273 22.2415 10.72 22.2487C10.7128 22.2559 8.685 20.2398 6.2138 17.7685L1.72064 13.2751L1.97358 13.2226C2.1127 13.1937 2.65898 13.0775 3.1875 12.9644C3.71602 12.8512 4.18012 12.7567 4.21889 12.7544C4.25761 12.752 5.85773 14.3185 7.77469 16.2356ZM7.52798 19.9906L10.4518 22.9422L10.3014 23.0973L10.1511 23.2525L5.45161 18.5532L0.75211 13.8539L0.898687 13.7026L1.04531 13.5514L2.82473 15.2952C3.80339 16.2543 5.91984 18.3673 7.52798 19.9906Z" fill="#757575"/>
</svg>
