<svg width="23" height="16" viewBox="0 0 23 16" fill="none" xmlns="http://www.w3.org/2000/svg">
<path fill-rule="evenodd" clip-rule="evenodd" d="M1.00362 0.127975L0.875644 0.255951V0.937947V1.61994H0.641366C0.512515 1.61994 0.344479 1.64179 0.267904 1.66845C0.190015 1.6956 0.100349 1.77182 0.0643599 1.84144C0.0108143 1.94498 0 2.26796 0 3.76527C0 5.26258 0.0108143 5.58556 0.0643599 5.68911C0.100349 5.75872 0.190015 5.83494 0.267904 5.86209C0.344479 5.88875 0.509844 5.9106 0.635368 5.9106H0.863648L0.894164 6.33748C0.910977 6.57224 0.954803 6.97123 0.991624 7.22407C1.0284 7.47691 1.12463 7.94271 1.20541 8.25921C1.28623 8.57571 1.4238 9.02886 1.51119 9.2662C1.59858 9.50355 1.79713 9.9556 1.95242 10.2707C2.10772 10.5858 2.36857 11.0488 2.5321 11.2996C2.69563 11.5504 2.98849 11.9525 3.18288 12.1933C3.37727 12.4342 3.75039 12.8387 4.01203 13.0924C4.27363 13.346 4.65641 13.6847 4.86267 13.8449C5.06889 14.0051 5.44322 14.2667 5.69453 14.4262C5.9458 14.5856 6.38783 14.8314 6.67679 14.9725C6.96575 15.1136 7.3992 15.3021 7.64 15.3913C7.8808 15.4806 8.33671 15.6191 8.65312 15.6992C8.96953 15.7792 9.45223 15.8798 9.72578 15.9226C10.0944 15.9803 10.4782 16.0003 11.2082 16C11.9406 15.9997 12.3225 15.9793 12.6968 15.9206C12.9738 15.8772 13.4593 15.7755 13.7758 15.6946C14.0923 15.6138 14.5454 15.4757 14.7828 15.3879C15.0201 15.3001 15.4507 15.1136 15.7397 14.9736C16.0287 14.8336 16.4424 14.6075 16.6591 14.4711C16.8759 14.3347 17.2402 14.0817 17.4687 13.9088C17.6972 13.7358 18.1085 13.3777 18.3827 13.1128C18.6568 12.8479 19.04 12.4342 19.2341 12.1933C19.4282 11.9525 19.7224 11.5487 19.8878 11.2958C20.0532 11.043 20.3135 10.58 20.4664 10.2669C20.6192 9.95389 20.8162 9.50355 20.9042 9.2662C20.9922 9.02886 21.1303 8.57571 21.2111 8.25921C21.2919 7.94271 21.3881 7.47691 21.4249 7.22407C21.4617 6.97123 21.5055 6.57228 21.5223 6.33748L21.5528 5.9106H21.7811C21.9067 5.9106 22.072 5.88875 22.1486 5.86209C22.2265 5.83494 22.3162 5.75872 22.3521 5.68911C22.4057 5.58556 22.4165 5.26258 22.4165 3.76527C22.4165 2.26796 22.4057 1.94498 22.3521 1.84144C22.3162 1.77182 22.2265 1.6956 22.1486 1.66845C22.072 1.64179 21.904 1.61994 21.7751 1.61994H21.5409V0.937947V0.255951L21.4129 0.127975L21.2849 0H11.2082H1.1316L1.00362 0.127975ZM20.7434 1.21255L20.756 1.61517L18.7076 1.62988C16.716 1.64415 16.652 1.64726 16.3999 1.74192C16.2574 1.79547 16.0561 1.8889 15.9526 1.94954C15.8491 2.01017 15.6631 2.16271 15.5393 2.28858C15.4154 2.41441 15.2569 2.63052 15.1871 2.76888C15.1173 2.90718 15.0308 3.13301 14.9949 3.27066C14.9591 3.40836 14.9297 3.6309 14.9297 3.76527C14.9297 3.89964 14.9591 4.12218 14.9949 4.25988C15.0308 4.39753 15.1173 4.62336 15.1871 4.76167C15.2569 4.90002 15.4154 5.11613 15.5393 5.24196C15.6631 5.36783 15.8491 5.52037 15.9526 5.58101C16.0561 5.64165 16.2574 5.73508 16.3999 5.78862C16.6519 5.88324 16.7164 5.88639 18.6953 5.90062L20.7314 5.91529L20.703 6.36173C20.6874 6.60726 20.6494 6.9756 20.6188 7.18028C20.5881 7.38497 20.5591 7.55791 20.5545 7.56461C20.5498 7.57126 20.3704 7.51789 20.1557 7.44596C19.941 7.37402 19.5786 7.28488 19.3506 7.24789C19.1225 7.21089 18.7486 7.18064 18.5199 7.18064C18.2911 7.18064 17.9216 7.21019 17.6989 7.24635C17.4761 7.28247 17.1116 7.37039 16.8889 7.44175C16.6662 7.51307 16.3133 7.65861 16.1045 7.76513C15.8958 7.87161 15.5905 8.054 15.4259 8.17042C15.2614 8.28679 14.9584 8.55001 14.7526 8.75531C14.5468 8.9606 14.2675 9.29611 14.1319 9.50079C13.9963 9.70551 13.8058 10.0404 13.7085 10.2451C13.6113 10.4498 13.4808 10.7945 13.4186 11.0112C13.3565 11.228 13.2843 11.5624 13.2583 11.7545C13.2317 11.9505 13.2211 12.3829 13.2341 12.7396C13.252 13.2345 13.2828 13.4719 13.373 13.8104C13.4367 14.0496 13.5471 14.378 13.6182 14.5401C13.6894 14.7023 13.7476 14.8537 13.7476 14.8766C13.7476 14.8996 13.5457 14.9599 13.2989 15.0106C13.052 15.0614 12.7122 15.1281 12.5436 15.1587C12.3523 15.1934 11.8506 15.2143 11.2082 15.2143C10.5666 15.2143 10.064 15.1934 9.87289 15.1587C9.70433 15.1282 9.3634 15.0593 9.11533 15.0058C8.75863 14.9289 8.6687 14.8948 8.68578 14.8425C8.69769 14.8062 8.77996 14.5893 8.86862 14.3606C8.95732 14.1318 9.07023 13.7575 9.11957 13.5287C9.18731 13.2146 9.20893 12.9574 9.20788 12.4779C9.2067 11.9543 9.18656 11.7565 9.09291 11.3488C9.03048 11.0769 8.89147 10.6499 8.78407 10.3999C8.67667 10.1499 8.47484 9.77228 8.33552 9.56072C8.19621 9.34921 7.94389 9.03048 7.7748 8.85246C7.60567 8.67444 7.29928 8.40225 7.09395 8.24765C6.88861 8.09301 6.52311 7.86802 6.28174 7.74766C6.04041 7.6273 5.63946 7.4703 5.39077 7.39871C5.14205 7.32713 4.75834 7.24635 4.53798 7.21916C4.31767 7.19198 3.9207 7.18046 3.65582 7.19355C3.39093 7.20664 2.99216 7.25826 2.76971 7.30826C2.54721 7.35826 2.26223 7.43829 2.1364 7.4861C2.01057 7.53391 1.8938 7.55856 1.8769 7.54083C1.86004 7.52314 1.81499 7.26549 1.77686 6.96829C1.73872 6.6711 1.70751 6.31156 1.70751 6.16927V5.9106L3.62298 5.90994C5.15706 5.90942 5.59305 5.89646 5.81253 5.84466C5.96327 5.80916 6.20433 5.72063 6.3482 5.64799C6.49212 5.57536 6.71519 5.41056 6.84399 5.2818C6.9728 5.15299 7.13282 4.9512 7.19968 4.83334C7.26649 4.71548 7.35843 4.49101 7.40397 4.33457C7.4495 4.17814 7.48676 3.92065 7.48676 3.76243C7.48676 3.60415 7.45497 3.36769 7.41618 3.23691C7.37735 3.10609 7.29088 2.89068 7.22402 2.75824C7.15717 2.62575 7.00108 2.41441 6.87722 2.28858C6.75336 2.16271 6.56738 2.01017 6.46388 1.94954C6.36042 1.8889 6.15911 1.79564 6.01655 1.74236C5.76511 1.64831 5.69633 1.64494 3.71054 1.62992L1.66372 1.61447V1.23046C1.66372 1.01925 1.6769 0.833263 1.69301 0.817152C1.70913 0.801083 5.99922 0.792852 11.2266 0.798938L20.7309 0.809971L20.7434 1.21255ZM5.92246 2.58044C6.03735 2.63915 6.20263 2.75736 6.28967 2.84313C6.37675 2.9289 6.49645 3.1035 6.55564 3.23108C6.63568 3.40363 6.66379 3.53953 6.66514 3.7612C6.66659 3.99027 6.64128 4.11553 6.55582 4.30217C6.49466 4.43575 6.36239 4.62489 6.26186 4.72244C6.15915 4.82213 5.97435 4.93899 5.83998 4.98925C5.60982 5.07537 5.51074 5.07874 3.19444 5.07874H0.78808V3.76387V2.449L3.25083 2.46135L5.71358 2.4737L5.92246 2.58044ZM21.6284 3.76667V5.0815L19.1438 5.06919C16.6601 5.05685 16.659 5.0568 16.4742 4.95803C16.3725 4.9037 16.2173 4.78719 16.1292 4.69915C16.0411 4.61106 15.9214 4.43483 15.8631 4.30743C15.789 4.14556 15.7567 3.99613 15.7558 3.81116C15.7551 3.66558 15.7867 3.44951 15.8261 3.331C15.8655 3.21248 15.9777 3.02461 16.0754 2.91353C16.1732 2.80246 16.315 2.67934 16.3905 2.63998C16.466 2.60062 16.6066 2.54353 16.7029 2.51306C16.8347 2.47138 17.4664 2.45693 19.2532 2.45474L21.6284 2.4518V3.76667ZM19.2419 8.05996C19.4103 8.08404 19.7249 8.16306 19.9412 8.23552C20.1575 8.30798 20.3404 8.37326 20.3477 8.38057C20.3551 8.38793 20.2781 8.62821 20.1767 8.9145C20.0752 9.20084 19.8627 9.6912 19.7043 10.0042C19.546 10.3173 19.2904 10.7606 19.1364 10.9893C18.9824 11.2181 18.7374 11.553 18.592 11.7336C18.4466 11.9142 18.1228 12.2642 17.8723 12.5114C17.6219 12.7586 17.2121 13.1146 16.9617 13.3026C16.7113 13.4907 16.2953 13.7702 16.0373 13.9239C15.7793 14.0776 15.3536 14.2991 15.0912 14.4162C14.8288 14.5333 14.5891 14.6195 14.5586 14.6078C14.528 14.5961 14.4402 14.4357 14.3635 14.2513C14.2868 14.067 14.1821 13.765 14.1308 13.5802C14.053 13.2994 14.0375 13.1218 14.0364 12.4998C14.0352 11.8665 14.0494 11.7026 14.1315 11.4003C14.1846 11.2049 14.2877 10.9048 14.3607 10.7333C14.4336 10.5618 14.5537 10.3192 14.6275 10.194C14.7013 10.0689 14.8466 9.85608 14.9505 9.7211C15.0544 9.58616 15.2664 9.35683 15.4217 9.21156C15.577 9.06629 15.845 8.85373 16.0173 8.73919C16.1896 8.62466 16.488 8.46271 16.6804 8.37935C16.8728 8.29599 17.1831 8.18837 17.37 8.14021C17.557 8.09205 17.8478 8.0385 18.0164 8.02125C18.1849 8.004 18.4608 7.99582 18.6293 8.003C18.7979 8.01022 19.0735 8.03583 19.2419 8.05996ZM5.09625 8.16219C5.31061 8.22602 5.63061 8.34511 5.80741 8.42681C5.9842 8.50846 6.27106 8.67024 6.44487 8.78626C6.61873 8.90233 6.89964 9.13591 7.06912 9.30534C7.2386 9.47478 7.4847 9.76943 7.61596 9.96006C7.74722 10.1507 7.93045 10.4826 8.02314 10.6976C8.11582 10.9126 8.23412 11.2583 8.28605 11.4658C8.36324 11.7745 8.37996 11.9665 8.37782 12.5217C8.37576 13.0634 8.35715 13.2668 8.28552 13.5301C8.23614 13.7114 8.13281 14.0231 8.0558 14.2227C7.97883 14.4223 7.89035 14.5954 7.85913 14.6073C7.82796 14.6193 7.58772 14.5333 7.32534 14.4162C7.06295 14.2991 6.63717 14.0776 6.37916 13.9239C6.12115 13.7702 5.7004 13.4871 5.44419 13.2947C5.18797 13.1023 4.75957 12.7265 4.49219 12.4597C4.22481 12.1928 3.86457 11.7873 3.69167 11.5585C3.51878 11.3297 3.2658 10.9653 3.12947 10.7485C2.99317 10.5318 2.77698 10.1378 2.64904 9.87289C2.52111 9.60801 2.34782 9.20412 2.26393 8.97536C2.18005 8.74659 2.09914 8.51858 2.08408 8.46867C2.05987 8.38819 2.09529 8.36451 2.3966 8.25978C2.58346 8.19485 2.8743 8.11315 3.04286 8.07826C3.25836 8.03364 3.55078 8.01946 4.02796 8.03049C4.60567 8.0438 4.76456 8.06342 5.09625 8.16219Z" fill="#757575"/>
</svg>
