<svg width="21" height="24" viewBox="0 0 21 24" fill="none" xmlns="http://www.w3.org/2000/svg">
<path fill-rule="evenodd" clip-rule="evenodd" d="M1.44859 4.51975C1.35984 4.60854 1.34274 4.65459 1.34419 4.80119C1.34517 4.89761 1.46559 6.83943 1.61183 9.11636L1.87769 13.2562L1.48662 14.1459C1.27152 14.6353 1.07466 15.1092 1.04921 15.1991C1.02375 15.2889 1.00167 15.5259 1.00018 15.7256C0.998002 16.0176 1.01482 16.1418 1.08607 16.3593C1.25413 16.8726 1.6569 17.3506 2.11842 17.5844C2.2181 17.635 2.72571 17.8268 3.24642 18.0108L4.19315 18.3453L5.61944 19.9043C7.56151 22.0272 7.88766 22.3678 8.1456 22.543C8.62887 22.8712 9.21601 23.0313 9.80242 22.9949C10.2331 22.9682 10.4977 22.8976 10.8932 22.7041C11.1445 22.5812 11.2668 22.4889 11.5511 22.208C11.8532 21.9094 11.9231 21.8162 12.0686 21.5178C12.3021 21.0389 12.361 20.789 12.3598 20.2831C12.3587 19.8129 12.3008 19.5498 12.108 19.1392C11.9578 18.8194 12.0422 18.9289 9.9662 16.3611C9.00539 15.1727 8.16699 14.1236 8.10311 14.0297C7.85686 13.6677 7.70982 13.206 7.67906 12.6983C7.66741 12.5058 7.60912 10.6182 7.54949 8.50365C7.48729 6.29689 7.42599 4.63066 7.40562 4.5926C7.30615 4.40674 7.42236 4.41361 4.38202 4.41361H1.55474L1.44859 4.51975ZM6.96991 10.8231C7.03328 12.887 7.04566 13.1004 7.11844 13.3833C7.2097 13.7382 7.34239 14.0487 7.52313 14.3303C7.59264 14.4386 8.46931 15.5404 9.47127 16.7787C11.285 19.0203 11.2926 19.0303 11.1749 19.0401C9.82098 19.1533 8.64983 20.0958 8.2435 21.3994L8.14792 21.706L6.44291 19.8443C5.50512 18.8204 4.72483 17.961 4.70889 17.9346C4.692 17.9066 4.71873 17.779 4.77295 17.6287C5.40453 15.8779 4.45868 13.8885 2.67701 13.2203C2.51962 13.1612 2.50452 13.1452 2.50452 13.0369C2.50452 12.9717 2.43915 11.8917 2.35926 10.637C2.27936 9.38236 2.08944 5.18424 2.08944 5.18424H6.82596C6.82596 5.18424 6.94407 9.98229 6.96991 10.8231ZM2.74579 13.9669C3.4711 14.3262 4.03275 15.0173 4.23422 15.7983C4.31546 16.1131 4.32482 16.8312 4.25154 17.1237C4.18185 17.4019 4.10149 17.5958 4.05599 17.5958C3.97464 17.5958 2.55031 17.0773 2.38606 16.988C1.86596 16.7049 1.56077 16.0732 1.66321 15.4918C1.71424 15.202 2.31829 13.8191 2.39383 13.8191C2.42324 13.8191 2.58165 13.8856 2.74579 13.9669ZM11.589 19.7016C11.6353 19.702 11.6597 19.7628 11.6943 19.9654C11.8719 21.0016 11.1782 22.0384 10.1306 22.3027C9.95647 22.3467 9.80405 22.357 9.54956 22.3424C9.15275 22.3196 8.75064 22.1963 8.75064 22.0974C8.75064 21.9448 8.90948 21.4349 9.03865 21.1728C9.43982 20.3589 10.2204 19.813 11.1405 19.7029C11.2741 19.6869 11.4161 19.68 11.4561 19.6874C11.496 19.695 11.5558 19.7013 11.589 19.7016Z" fill="#757575" stroke="#757575" stroke-width="0.25"/>
<path fill-rule="evenodd" clip-rule="evenodd" d="M9.27672 1.10618C9.18797 1.19497 9.17086 1.24102 9.17231 1.38762C9.1733 1.48403 9.29371 3.42585 9.43995 5.70278L9.70581 9.84265L9.31474 10.7324C9.09965 11.2217 8.90279 11.6956 8.87733 11.7855C8.85187 11.8754 8.8298 12.1123 8.82831 12.312C8.82613 12.604 8.84294 12.7282 8.91419 12.9457C9.08225 13.459 9.48502 13.937 9.94654 14.1709C10.0462 14.2214 10.5538 14.4133 11.0745 14.5972L12.0213 14.9317L13.4476 16.4907C15.3896 18.6136 15.7158 18.9542 15.9737 19.1294C16.457 19.4576 17.0441 19.6178 17.6305 19.5813C18.0612 19.5546 18.3259 19.484 18.7213 19.2906C18.9726 19.1676 19.0949 19.0754 19.3792 18.7944C19.6813 18.4959 19.7512 18.4026 19.8967 18.1042C20.1302 17.6254 20.1891 17.3754 20.1879 16.8695C20.1868 16.3993 20.1289 16.1362 19.9361 15.7256C19.7859 15.4058 19.8703 15.5153 17.7943 12.9476C16.8335 11.7592 15.9951 10.71 15.9312 10.6161C15.685 10.2541 15.5379 9.79246 15.5072 9.28471C15.4955 9.09225 15.4372 7.20465 15.3776 5.09008C15.3154 2.88331 15.2541 1.21709 15.2337 1.17903C15.1343 0.993169 15.2505 1.00003 12.2101 1.00003H9.38287L9.27672 1.10618ZM14.798 7.40957C14.8614 9.4734 14.8738 9.68679 14.9466 9.96975C15.0378 10.3246 15.1705 10.6351 15.3513 10.9168C15.4208 11.0251 16.2974 12.1268 17.2994 13.3652C19.1131 15.6067 19.1207 15.6167 19.003 15.6266C17.6491 15.7397 16.478 16.6823 16.0716 17.9858L15.976 18.2924L14.271 16.4307C13.3332 15.4068 12.553 14.5474 12.537 14.521C12.5201 14.493 12.5469 14.3655 12.6011 14.2151C13.2327 12.4643 12.2868 10.4749 10.5051 9.8067C10.3477 9.74765 10.3326 9.7316 10.3326 9.62335C10.3326 9.55809 10.2673 8.47817 10.1874 7.22346C10.1075 5.96879 9.91756 1.77067 9.91756 1.77067H14.6541C14.6541 1.77067 14.7722 6.56872 14.798 7.40957ZM10.5739 10.5534C11.2992 10.9127 11.8609 11.6037 12.0623 12.3847C12.1436 12.6995 12.1529 13.4176 12.0797 13.7102C12.01 13.9883 11.9296 14.1823 11.8841 14.1823C11.8028 14.1823 10.3784 13.6638 10.2142 13.5744C9.69408 13.2913 9.3889 12.6597 9.49134 12.0782C9.54236 11.7884 10.1464 10.4055 10.222 10.4055C10.2514 10.4055 10.4098 10.4721 10.5739 10.5534ZM19.4171 16.288C19.4635 16.2884 19.4878 16.3492 19.5225 16.5518C19.7 17.588 19.0064 18.6248 17.9587 18.8891C17.7846 18.9331 17.6322 18.9435 17.3777 18.9288C16.9809 18.906 16.5788 18.7827 16.5788 18.6839C16.5788 18.5312 16.7376 18.0214 16.8668 17.7592C17.2679 16.9454 18.0485 16.3994 18.9686 16.2893C19.1023 16.2733 19.2443 16.2664 19.2842 16.2739C19.3242 16.2814 19.384 16.2877 19.4171 16.288Z" fill="#757575" stroke="#757575" stroke-width="0.25"/>
</svg>
