<svg width="20" height="15" viewBox="0 0 20 15" fill="none" xmlns="http://www.w3.org/2000/svg">
<path fill-rule="evenodd" clip-rule="evenodd" d="M19.9496 8.51166C19.8816 8.37014 19.6857 8.30146 19.5324 8.36532C19.3802 8.42876 19.3114 8.57197 19.3114 8.82497L19.3114 9.01805L18.9666 9.01805L18.6218 9.01805L18.6218 8.08388C18.6218 7.14979 18.6218 7.14966 18.516 7.04326C18.4142 6.94072 18.3889 6.93682 17.8265 6.93682L17.2428 6.93682L17.2428 4.55068C17.2428 2.25356 17.2395 2.15465 17.1537 1.89853C16.9624 1.32701 16.5554 0.927591 15.996 0.762262C15.7884 0.700909 15.2607 0.693104 11.3309 0.693104L6.9 0.693104L6.9 0.500026C6.9 0.257605 6.83424 0.10936 6.69931 0.0474871C6.62661 0.0141873 5.9086 -0.000424846 4.36615 8.67729e-06C1.88013 0.000702314 1.8238 0.00603553 1.28511 0.290818C0.703201 0.598494 0.22209 1.2236 0.071041 1.86827C-0.0236817 2.27268 -0.0236819 5.35724 0.0710409 5.76165C0.32513 6.84606 1.32045 7.62761 2.45044 7.62991L2.76288 7.63056L2.76288 10.0167C2.76288 12.3138 2.7662 12.4127 2.85196 12.6688C3.0433 13.2404 3.45029 13.6398 4.00971 13.8051C4.21915 13.867 4.8907 13.8743 10.3985 13.8743L16.5533 13.8743L16.5533 14.1147C16.5533 14.3122 16.5722 14.3742 16.6591 14.4616C16.764 14.5672 16.7715 14.568 17.5876 14.568C18.7044 14.568 18.6218 14.6596 18.6218 13.421L18.6218 12.4868L18.9666 12.4868L19.3114 12.4868L19.3114 12.7069C19.3114 12.8924 19.3312 12.947 19.4373 13.0538C19.5066 13.1235 19.593 13.1805 19.6292 13.1805C19.7516 13.1805 19.9049 13.0849 19.953 12.9786C20.0178 12.8356 20.0146 8.64681 19.9496 8.51166ZM18.9666 11.793L18.6218 11.793L18.6218 10.7524L18.6218 9.7118L18.9666 9.7118L19.3114 9.7118L19.3114 10.7524L19.3114 11.793L18.9666 11.793ZM17.5876 13.8743L17.2428 13.8743L17.2428 10.7524L17.2428 7.63056L17.5876 7.63056L17.9323 7.63056L17.9323 10.7524L17.9323 13.8743L17.5876 13.8743ZM16.433 6.50968C16.3669 6.46234 16.193 6.38295 16.0465 6.3333C15.7836 6.2442 15.7241 6.24307 11.3402 6.24307L6.9 6.24307L6.9 3.81418L6.9 1.38529L11.3496 1.39691C15.596 1.40801 15.806 1.41222 15.95 1.48935C16.2333 1.64119 16.4231 1.86965 16.513 2.16705C16.5311 2.2268 16.5475 3.24774 16.5496 4.43578L16.5533 6.59584L16.433 6.50968ZM16.4316 8.43799C16.3314 8.63402 16.1622 8.80178 15.95 8.91555C15.8055 8.99295 15.5511 8.99728 9.93544 9.01805L4.07177 9.03973L3.76208 9.19439L3.4524 9.3491L3.4524 8.48981L3.4524 7.63056L5.02335 7.63056C6.08288 7.63056 6.62846 7.61491 6.69931 7.58243C6.83437 7.52052 6.9 7.37227 6.9 7.12911L6.9 6.93525L11.3496 6.94687C15.596 6.95797 15.806 6.96218 15.95 7.03932C16.4829 7.32492 16.6913 7.92996 16.4316 8.43799ZM10.3799 13.1703L4.20657 13.1588L4.03419 13.0653C3.8325 12.9558 3.66672 12.7859 3.55428 12.5735C3.48274 12.4383 3.47395 12.3149 3.47395 11.4462C3.47395 10.5775 3.48274 10.454 3.55428 10.3188C3.66672 10.1064 3.8325 9.93657 4.03419 9.82705L4.20657 9.73348L10.0675 9.7118C15.72 9.6909 15.9353 9.68717 16.1223 9.60704C16.229 9.56139 16.3696 9.48689 16.4348 9.4415L16.5533 9.35903L16.5533 11.2703L16.5533 13.1817L10.3799 13.1703ZM4.48668 6.93682L2.76288 6.93681L2.76288 3.81496L2.76288 0.693104L4.48668 0.693104L6.21048 0.693104L6.21048 3.81496L6.21048 6.93682L4.48668 6.93682ZM5.41517 1.4933C5.31027 1.38772 5.30273 1.38685 4.48668 1.38685C3.67064 1.38685 3.6631 1.38772 3.5582 1.4933L3.4524 1.5997L3.4524 3.81496L3.4524 6.03022L3.5582 6.13662C3.6631 6.2422 3.67064 6.24307 4.48668 6.24307C5.30273 6.24307 5.31027 6.2422 5.41517 6.13662L5.52096 6.03022L5.52096 3.81496L5.52096 1.5997L5.41517 1.4933ZM4.48668 5.54932L4.14192 5.54932L4.14192 3.81496L4.14192 2.0806L4.48668 2.0806L4.83144 2.0806L4.83144 3.81496L4.83144 5.54932L4.48668 5.54932ZM1.95485 6.8664C1.562 6.77123 1.08985 6.3842 0.897171 5.99944C0.714233 5.634 0.694324 5.41964 0.694324 3.81496C0.694324 2.21028 0.714233 1.99592 0.897171 1.63048C1.08985 1.24572 1.562 0.858692 1.95485 0.763519L2.07336 0.734816L2.07336 3.81496L2.07336 6.8951L1.95485 6.8664Z" fill="#757575"/>
</svg>
