<svg width="23" height="22" viewBox="0 0 23 22" fill="none" xmlns="http://www.w3.org/2000/svg">
<path fill-rule="evenodd" clip-rule="evenodd" d="M17.5942 1.06864C17.4617 1.11609 17.3031 1.18849 17.2418 1.22955C17.0371 1.3667 5.94971 10.7574 5.8665 10.8641C5.80326 10.9452 5.77333 11.1296 5.73523 11.6739C5.63896 13.0481 5.44591 14.1474 5.16401 14.9264L5.02339 15.315L3.89989 16.4947C3.28192 17.1435 2.76403 17.7234 2.749 17.7833C2.73396 17.8432 2.74998 17.9513 2.78461 18.0235C2.83765 18.1341 3.08826 18.2677 4.37451 18.8706C5.21433 19.2642 5.95887 19.5873 6.02901 19.5884C6.17386 19.5908 6.23686 19.5406 7.1528 18.693C7.93483 17.9693 8.02174 17.9021 8.45192 17.6895C9.20059 17.3195 10.1287 17.1663 11.328 17.2147L12.1032 17.246L12.273 17.0675C12.4378 16.8943 21.2358 6.49634 21.6769 5.9534C22.0576 5.48479 22.1398 4.89586 21.8964 4.38046C21.7403 4.04994 19.0144 1.32535 18.6667 1.15227C18.3312 0.985243 17.9173 0.952965 17.5942 1.06864ZM18.211 1.78846C18.3676 1.83089 18.6248 2.06397 19.7532 3.18592C20.5134 3.94178 21.1494 4.61336 21.203 4.71681C21.3319 4.96545 21.296 5.21192 21.0938 5.46548C20.8231 5.80503 12.1693 16.0375 12.0389 16.1721L11.9142 16.301L9.31796 13.7044L6.72168 11.1078L12.1298 6.5281C15.1042 4.0093 17.624 1.90085 17.7291 1.84273C17.9488 1.72128 17.9589 1.72015 18.211 1.78846ZM10.6825 16.4305C9.526 16.4788 8.48833 16.7466 7.78847 17.1773C7.63771 17.2701 7.49873 17.3278 7.47966 17.3055C7.46058 17.2831 7.06794 16.8672 6.60714 16.3811L5.76929 15.4974L5.94261 14.9481C6.20609 14.113 6.34154 13.4149 6.4675 12.2422L6.49734 11.9647L8.72527 14.1919L10.9532 16.4192L10.6825 16.4305ZM6.14769 16.9825L6.95772 17.8413L6.4699 18.2931C6.20158 18.5415 5.96521 18.7448 5.94458 18.7448C5.92401 18.7448 5.42533 18.5198 4.83645 18.2448L3.76575 17.7447L4.27984 17.1994C4.56258 16.8995 4.9057 16.535 5.04228 16.3895C5.1789 16.244 5.30125 16.1246 5.31417 16.1243C5.32709 16.124 5.70215 16.5102 6.14769 16.9825ZM1.10709 20.3636C0.927892 20.5428 0.981124 20.8433 1.21054 20.9478C1.2929 20.9853 3.37702 21 8.63229 21H15.9395L16.0824 20.8572C16.2019 20.7376 16.2204 20.6897 16.1961 20.5635C16.18 20.4806 16.1223 20.3757 16.0679 20.3305C15.9745 20.253 15.5487 20.2483 8.59564 20.2483H1.22238L1.10709 20.3636Z" fill="#757575" stroke="#757575" stroke-width="0.25"/>
</svg>
