<svg width="40" height="41" viewBox="0 0 40 41" fill="none" xmlns="http://www.w3.org/2000/svg">
<circle cx="20" cy="20.5" r="20" fill="#F2F2F2"/>
<path d="M11.992 25.66C11.064 25.66 10.2853 25.5213 9.656 25.244C9.02667 24.956 8.54133 24.588 8.2 24.14C7.86933 23.6813 7.69333 23.196 7.672 22.684C7.672 22.5987 7.704 22.524 7.768 22.46C7.84267 22.3853 7.928 22.348 8.024 22.348H8.84C8.968 22.348 9.064 22.38 9.128 22.444C9.192 22.508 9.23467 22.5827 9.256 22.668C9.30933 22.924 9.43733 23.18 9.64 23.436C9.85333 23.6813 10.1467 23.8893 10.52 24.06C10.904 24.22 11.3947 24.3 11.992 24.3C12.9093 24.3 13.5813 24.14 14.008 23.82C14.4453 23.4893 14.664 23.052 14.664 22.508C14.664 22.1347 14.5467 21.836 14.312 21.612C14.088 21.3773 13.7413 21.1693 13.272 20.988C12.8027 20.8067 12.1947 20.6093 11.448 20.396C10.6693 20.172 10.024 19.9267 9.512 19.66C9 19.3933 8.616 19.0627 8.36 18.668C8.11467 18.2733 7.992 17.772 7.992 17.164C7.992 16.588 8.14667 16.076 8.456 15.628C8.76533 15.1693 9.208 14.8067 9.784 14.54C10.3707 14.2733 11.08 14.14 11.912 14.14C12.5733 14.14 13.1493 14.2307 13.64 14.412C14.1413 14.5827 14.5573 14.8173 14.888 15.116C15.2187 15.404 15.4693 15.7187 15.64 16.06C15.8107 16.3907 15.9013 16.716 15.912 17.036C15.912 17.1107 15.8853 17.1853 15.832 17.26C15.7787 17.324 15.6933 17.356 15.576 17.356H14.728C14.6533 17.356 14.5733 17.3347 14.488 17.292C14.4133 17.2493 14.3547 17.1693 14.312 17.052C14.248 16.6147 14.0027 16.2467 13.576 15.948C13.1493 15.6493 12.5947 15.5 11.912 15.5C11.2187 15.5 10.6533 15.6333 10.216 15.9C9.78933 16.1667 9.576 16.5827 9.576 17.148C9.576 17.5107 9.67733 17.8147 9.88 18.06C10.0827 18.2947 10.4027 18.5027 10.84 18.684C11.2773 18.8653 11.848 19.0573 12.552 19.26C13.4053 19.4947 14.104 19.7453 14.648 20.012C15.192 20.268 15.592 20.5933 15.848 20.988C16.1147 21.372 16.248 21.868 16.248 22.476C16.248 23.148 16.072 23.724 15.72 24.204C15.368 24.6733 14.872 25.036 14.232 25.292C13.6027 25.5373 12.856 25.66 11.992 25.66ZM20.4571 25.66C19.9238 25.66 19.4385 25.5533 19.0011 25.34C18.5638 25.1267 18.2118 24.8387 17.9451 24.476C17.6785 24.1133 17.5451 23.7027 17.5451 23.244C17.5451 22.508 17.8438 21.9213 18.4411 21.484C19.0385 21.0467 19.8171 20.7587 20.7771 20.62L23.1611 20.284V19.82C23.1611 19.308 23.0118 18.908 22.7131 18.62C22.4251 18.332 21.9505 18.188 21.2891 18.188C20.8091 18.188 20.4198 18.284 20.1211 18.476C19.8331 18.668 19.6305 18.9133 19.5131 19.212C19.4491 19.372 19.3371 19.452 19.1771 19.452H18.4571C18.3398 19.452 18.2491 19.42 18.1851 19.356C18.1318 19.2813 18.1051 19.196 18.1051 19.1C18.1051 18.94 18.1638 18.7427 18.2811 18.508C18.4091 18.2733 18.6011 18.044 18.8571 17.82C19.1131 17.596 19.4385 17.4093 19.8331 17.26C20.2385 17.1 20.7291 17.02 21.3051 17.02C21.9451 17.02 22.4838 17.1053 22.9211 17.276C23.3585 17.436 23.6998 17.6547 23.9451 17.932C24.2011 18.2093 24.3825 18.524 24.4891 18.876C24.6065 19.228 24.6651 19.5853 24.6651 19.948V25.132C24.6651 25.2387 24.6278 25.3293 24.5531 25.404C24.4891 25.468 24.4038 25.5 24.2971 25.5H23.5611C23.4438 25.5 23.3531 25.468 23.2891 25.404C23.2251 25.3293 23.1931 25.2387 23.1931 25.132V24.444C23.0545 24.636 22.8678 24.828 22.6331 25.02C22.3985 25.2013 22.1051 25.356 21.7531 25.484C21.4011 25.6013 20.9691 25.66 20.4571 25.66ZM20.7931 24.46C21.2305 24.46 21.6305 24.3693 21.9931 24.188C22.3558 23.996 22.6385 23.7027 22.8411 23.308C23.0545 22.9133 23.1611 22.4173 23.1611 21.82V21.372L21.3051 21.644C20.5478 21.7507 19.9771 21.932 19.5931 22.188C19.2091 22.4333 19.0171 22.748 19.0171 23.132C19.0171 23.4307 19.1025 23.6813 19.2731 23.884C19.4545 24.076 19.6785 24.22 19.9451 24.316C20.2225 24.412 20.5051 24.46 20.7931 24.46ZM30.1351 25.5C29.5378 25.5 29.0525 25.388 28.6791 25.164C28.3058 24.9293 28.0338 24.604 27.8631 24.188C27.6925 23.7613 27.6071 23.26 27.6071 22.684V18.46H26.3591C26.2525 18.46 26.1618 18.428 26.0871 18.364C26.0231 18.2893 25.9911 18.1987 25.9911 18.092V17.548C25.9911 17.4413 26.0231 17.356 26.0871 17.292C26.1618 17.2173 26.2525 17.18 26.3591 17.18H27.6071V14.508C27.6071 14.4013 27.6391 14.316 27.7031 14.252C27.7778 14.1773 27.8685 14.14 27.9751 14.14H28.7271C28.8338 14.14 28.9191 14.1773 28.9831 14.252C29.0578 14.316 29.0951 14.4013 29.0951 14.508V17.18H31.0791C31.1858 17.18 31.2711 17.2173 31.3351 17.292C31.4098 17.356 31.4471 17.4413 31.4471 17.548V18.092C31.4471 18.1987 31.4098 18.2893 31.3351 18.364C31.2711 18.428 31.1858 18.46 31.0791 18.46H29.0951V22.572C29.0951 23.0733 29.1805 23.468 29.3511 23.756C29.5218 24.044 29.8258 24.188 30.2631 24.188H31.2391C31.3458 24.188 31.4311 24.2253 31.4951 24.3C31.5698 24.364 31.6071 24.4493 31.6071 24.556V25.132C31.6071 25.2387 31.5698 25.3293 31.4951 25.404C31.4311 25.468 31.3458 25.5 31.2391 25.5H30.1351Z" fill="#757575"/>
</svg>
