<svg width="40" height="41" viewBox="0 0 40 41" fill="none" xmlns="http://www.w3.org/2000/svg">
<circle cx="20" cy="20.5" r="20" fill="#F2F2F2"/>
<path d="M9.992 25.66C9.064 25.66 8.28533 25.5213 7.656 25.244C7.02667 24.956 6.54133 24.588 6.2 24.14C5.86933 23.6813 5.69333 23.196 5.672 22.684C5.672 22.5987 5.704 22.524 5.768 22.46C5.84267 22.3853 5.928 22.348 6.024 22.348H6.84C6.968 22.348 7.064 22.38 7.128 22.444C7.192 22.508 7.23467 22.5827 7.256 22.668C7.30933 22.924 7.43733 23.18 7.64 23.436C7.85333 23.6813 8.14667 23.8893 8.52 24.06C8.904 24.22 9.39467 24.3 9.992 24.3C10.9093 24.3 11.5813 24.14 12.008 23.82C12.4453 23.4893 12.664 23.052 12.664 22.508C12.664 22.1347 12.5467 21.836 12.312 21.612C12.088 21.3773 11.7413 21.1693 11.272 20.988C10.8027 20.8067 10.1947 20.6093 9.448 20.396C8.66933 20.172 8.024 19.9267 7.512 19.66C7 19.3933 6.616 19.0627 6.36 18.668C6.11467 18.2733 5.992 17.772 5.992 17.164C5.992 16.588 6.14667 16.076 6.456 15.628C6.76533 15.1693 7.208 14.8067 7.784 14.54C8.37067 14.2733 9.08 14.14 9.912 14.14C10.5733 14.14 11.1493 14.2307 11.64 14.412C12.1413 14.5827 12.5573 14.8173 12.888 15.116C13.2187 15.404 13.4693 15.7187 13.64 16.06C13.8107 16.3907 13.9013 16.716 13.912 17.036C13.912 17.1107 13.8853 17.1853 13.832 17.26C13.7787 17.324 13.6933 17.356 13.576 17.356H12.728C12.6533 17.356 12.5733 17.3347 12.488 17.292C12.4133 17.2493 12.3547 17.1693 12.312 17.052C12.248 16.6147 12.0027 16.2467 11.576 15.948C11.1493 15.6493 10.5947 15.5 9.912 15.5C9.21867 15.5 8.65333 15.6333 8.216 15.9C7.78933 16.1667 7.576 16.5827 7.576 17.148C7.576 17.5107 7.67733 17.8147 7.88 18.06C8.08267 18.2947 8.40267 18.5027 8.84 18.684C9.27733 18.8653 9.848 19.0573 10.552 19.26C11.4053 19.4947 12.104 19.7453 12.648 20.012C13.192 20.268 13.592 20.5933 13.848 20.988C14.1147 21.372 14.248 21.868 14.248 22.476C14.248 23.148 14.072 23.724 13.72 24.204C13.368 24.6733 12.872 25.036 12.232 25.292C11.6027 25.5373 10.856 25.66 9.992 25.66ZM19.2411 25.66C18.5585 25.66 17.9771 25.5107 17.4971 25.212C17.0278 24.9027 16.6705 24.476 16.4251 23.932C16.1798 23.388 16.0571 22.764 16.0571 22.06V17.548C16.0571 17.4413 16.0891 17.356 16.1531 17.292C16.2278 17.2173 16.3185 17.18 16.4251 17.18H17.2251C17.3318 17.18 17.4171 17.2173 17.4811 17.292C17.5558 17.356 17.5931 17.4413 17.5931 17.548V21.98C17.5931 23.5693 18.2865 24.364 19.6731 24.364C20.3345 24.364 20.8625 24.156 21.2571 23.74C21.6625 23.3133 21.8651 22.7267 21.8651 21.98V17.548C21.8651 17.4413 21.8971 17.356 21.9611 17.292C22.0358 17.2173 22.1265 17.18 22.2331 17.18H23.0171C23.1345 17.18 23.2251 17.2173 23.2891 17.292C23.3531 17.356 23.3851 17.4413 23.3851 17.548V25.132C23.3851 25.2387 23.3531 25.3293 23.2891 25.404C23.2251 25.468 23.1345 25.5 23.0171 25.5H22.2811C22.1745 25.5 22.0838 25.468 22.0091 25.404C21.9451 25.3293 21.9131 25.2387 21.9131 25.132V24.428C21.6251 24.8013 21.2731 25.1 20.8571 25.324C20.4518 25.548 19.9131 25.66 19.2411 25.66ZM26.1301 25.5C26.0235 25.5 25.9328 25.468 25.8581 25.404C25.7941 25.3293 25.7621 25.2387 25.7621 25.132V17.548C25.7621 17.4413 25.7941 17.356 25.8581 17.292C25.9328 17.2173 26.0235 17.18 26.1301 17.18H26.8821C26.9888 17.18 27.0741 17.2173 27.1381 17.292C27.2128 17.356 27.2501 17.4413 27.2501 17.548V18.252C27.5275 17.8893 27.8741 17.596 28.2901 17.372C28.7168 17.1373 29.2608 17.02 29.9221 17.02C30.6155 17.02 31.2021 17.1747 31.6821 17.484C32.1728 17.7827 32.5408 18.204 32.7861 18.748C33.0315 19.2813 33.1541 19.9053 33.1541 20.62V25.132C33.1541 25.2387 33.1221 25.3293 33.0581 25.404C32.9941 25.468 32.9088 25.5 32.8021 25.5H32.0021C31.8955 25.5 31.8048 25.468 31.7301 25.404C31.6661 25.3293 31.6341 25.2387 31.6341 25.132V20.7C31.6341 19.9533 31.4528 19.372 31.0901 18.956C30.7275 18.5293 30.1941 18.316 29.4901 18.316C28.8288 18.316 28.2955 18.5293 27.8901 18.956C27.4955 19.372 27.2981 19.9533 27.2981 20.7V25.132C27.2981 25.2387 27.2608 25.3293 27.1861 25.404C27.1221 25.468 27.0368 25.5 26.9301 25.5H26.1301Z" fill="#757575"/>
</svg>
