<svg width="14" height="16" viewBox="0 0 14 16" fill="none" xmlns="http://www.w3.org/2000/svg">
<path fill-rule="evenodd" clip-rule="evenodd" d="M4.75768 0.0466789C4.64765 0.0706124 4.47579 0.129609 4.37576 0.177876C4.27573 0.226107 4.09452 0.364761 3.97304 0.485992C3.84646 0.612352 3.71206 0.79178 3.65816 0.906465C3.60647 1.01649 3.54627 1.20363 3.52438 1.32235C3.50252 1.44104 3.48462 1.71522 3.48462 1.9316V2.32501L1.92967 2.32509C0.522146 2.32512 0.36265 2.33116 0.24742 2.38874C0.168382 2.4282 0.0937442 2.50633 0.0505694 2.59476C-0.0125378 2.72403 -0.0142109 2.75065 0.0323829 2.88247C0.0606448 2.96234 0.128917 3.06117 0.184168 3.10205C0.253386 3.1533 0.357849 3.18105 0.520618 3.19142C0.663637 3.20051 0.756534 3.2227 0.756388 3.24765C0.756243 3.27035 0.960986 5.84228 1.21138 8.96309C1.59148 13.7008 1.67881 14.6756 1.74046 14.8697C1.78105 14.9975 1.8734 15.1911 1.94568 15.3C2.01799 15.4089 2.16057 15.5602 2.26256 15.6363C2.36455 15.7124 2.50258 15.8022 2.56933 15.8359C2.63607 15.8697 2.79975 15.9204 2.93306 15.9486C3.13264 15.9909 3.82107 16 6.83094 16C9.84081 16 10.5292 15.9909 10.7288 15.9486C10.8621 15.9204 11.0258 15.8697 11.0925 15.8359C11.1593 15.8022 11.2973 15.7124 11.3993 15.6363C11.5013 15.5602 11.6439 15.4089 11.7162 15.3C11.7885 15.1911 11.8807 14.9975 11.9212 14.8697C11.9825 14.6761 12.0709 13.6889 12.4502 8.96309C12.7007 5.84228 12.9055 3.27035 12.9054 3.24765C12.9053 3.2227 12.9983 3.20051 13.1413 3.19142C13.304 3.18105 13.4085 3.1533 13.4777 3.10205C13.533 3.06117 13.6012 2.96234 13.6295 2.88247C13.6761 2.75065 13.6744 2.72403 13.6113 2.59476C13.5681 2.50633 13.4935 2.4282 13.4145 2.38874C13.2992 2.33116 13.1397 2.32512 11.7322 2.32509L10.1773 2.32501V1.9316C10.1773 1.71522 10.1594 1.44104 10.1375 1.32235C10.1156 1.20363 10.0554 1.01649 10.0037 0.906465C9.94996 0.792144 9.81502 0.61177 9.68884 0.485556C9.56263 0.359378 9.38225 0.224434 9.26793 0.170674C9.1579 0.118988 8.97077 0.0587912 8.85204 0.0368947C8.71263 0.0112153 7.98513 -0.00176995 6.79697 0.00019419C5.51744 0.00230383 4.89684 0.0164529 4.75768 0.0466789ZM8.89656 0.939309C8.97077 0.977356 9.06643 1.04694 9.10909 1.09389C9.15176 1.14085 9.21315 1.23164 9.24549 1.29566C9.29034 1.38444 9.30431 1.52037 9.30431 1.86853V2.32501H6.83094H4.35757V1.8689C4.35757 1.49211 4.36961 1.38932 4.42679 1.27783C4.46484 1.20363 4.53442 1.10804 4.58138 1.06549C4.62833 1.02289 4.71585 0.962152 4.77586 0.930544C4.87131 0.880203 5.12806 0.872819 6.8233 0.871546C8.65865 0.870164 8.76879 0.873765 8.89656 0.939309ZM12.0687 3.2654C12.0687 3.3025 11.8645 5.81089 11.6149 8.83957C11.3653 11.8683 11.1519 14.4136 11.1406 14.4959C11.1292 14.5781 11.0783 14.7098 11.0274 14.7883C10.9764 14.8669 10.8759 14.9715 10.8041 15.0207L10.6736 15.1101H6.83094H2.98824L2.85773 15.0207C2.78593 14.9715 2.68547 14.8669 2.63451 14.7883C2.58359 14.7098 2.53263 14.5781 2.52128 14.4959C2.50997 14.4136 2.29653 11.8688 2.04698 8.84084C1.79742 5.81282 1.59322 3.30447 1.59322 3.26667C1.59322 3.19964 1.72035 3.19797 6.83094 3.19797C11.9073 3.19797 12.0687 3.20004 12.0687 3.2654ZM4.3212 5.87906C4.24951 5.91569 4.16611 5.99974 4.13031 6.07143C4.07132 6.1895 4.0667 6.41371 4.0667 9.16314C4.0667 11.9126 4.07132 12.1368 4.13031 12.2548C4.16978 12.3339 4.24791 12.4085 4.33633 12.4517C4.4656 12.5148 4.49223 12.5165 4.62404 12.4699C4.70392 12.4416 4.80351 12.3723 4.8453 12.3158C4.92081 12.2139 4.92143 12.1919 4.93107 9.21537C4.93929 6.6789 4.93274 6.19834 4.88866 6.09275C4.85996 6.02411 4.79743 5.94238 4.74971 5.9111C4.70199 5.87986 4.61469 5.84519 4.55573 5.8341C4.48892 5.82155 4.40053 5.8385 4.3212 5.87906ZM6.64907 5.87906C6.57738 5.91569 6.49398 5.99974 6.45819 6.07143C6.39919 6.1895 6.39457 6.41371 6.39457 9.16314C6.39457 11.9126 6.39919 12.1368 6.45819 12.2548C6.49765 12.3339 6.57578 12.4085 6.6642 12.4517C6.79347 12.5148 6.8201 12.5165 6.95192 12.4699C7.03179 12.4416 7.13138 12.3723 7.17317 12.3158C7.24868 12.2139 7.2493 12.1919 7.25894 9.21537C7.26716 6.6789 7.26061 6.19834 7.21653 6.09275C7.18783 6.02411 7.12531 5.94238 7.07758 5.9111C7.02986 5.87986 6.94257 5.84519 6.88361 5.8341C6.81679 5.82155 6.7284 5.8385 6.64907 5.87906ZM8.97695 5.87906C8.90526 5.91569 8.82185 5.99974 8.78606 6.07143C8.72707 6.1895 8.72245 6.41371 8.72245 9.16314C8.72245 11.9126 8.72707 12.1368 8.78606 12.2548C8.82553 12.3339 8.90366 12.4085 8.99208 12.4517C9.12135 12.5148 9.14797 12.5165 9.27979 12.4699C9.35966 12.4416 9.45925 12.3723 9.50105 12.3158C9.57656 12.2139 9.57718 12.1919 9.58681 9.21537C9.59503 6.6789 9.58849 6.19834 9.5444 6.09275C9.51571 6.02411 9.45318 5.94238 9.40546 5.9111C9.35774 5.87986 9.27044 5.84519 9.21148 5.8341C9.14466 5.82155 9.05628 5.8385 8.97695 5.87906Z" fill="#757575"/>
</svg>
