<svg width="11" height="6" viewBox="0 0 11 6" fill="none" xmlns="http://www.w3.org/2000/svg">
<path fill-rule="evenodd" clip-rule="evenodd" d="M5.50399 6.48842C5.55921 6.47838 5.64478 6.44239 5.69417 6.40841C5.74356 6.37443 6.82276 5.30203 8.09238 4.02531C9.91137 2.19618 10.4138 1.67739 10.4619 1.57851C10.5456 1.40678 10.5467 1.13292 10.4644 0.948642C10.3417 0.674074 10.0772 0.504329 9.77021 0.5033C9.42665 0.502171 9.48721 0.452632 7.9006 2.03238L5.21083 4.671C5.21083 4.671 2.63305 2.00553 2.60548 2.00553C1.02563 0.43233 1.10571 0.497628 0.760974 0.501241C0.534136 0.503625 0.36128 0.577481 0.213995 0.734954C0.0737128 0.884924 0.00811338 1.05374 0.00811337 1.26482C0.00811334 1.60514 -0.147754 1.42851 2.43702 4.01725C4.10488 5.68767 4.80695 6.37473 4.89491 6.42262C4.99117 6.47501 5.06011 6.49148 5.21083 6.49813C5.31686 6.5028 5.44879 6.49843 5.50399 6.48842Z" fill="#757575"/>
</svg>
