<svg width="41" height="31" viewBox="0 0 41 31" fill="none" xmlns="http://www.w3.org/2000/svg">
<path fill-rule="evenodd" clip-rule="evenodd" d="M3.45366 0.65466C3.14004 0.736857 2.66537 0.919299 2.39886 1.06017C2.1232 1.20581 1.67823 1.55226 1.36695 1.86362C1.05621 2.17428 0.709141 2.61988 0.564125 2.89428C0.423641 3.16009 0.239245 3.64921 0.154314 3.98112C0.0042191 4.56798 0 4.8856 0 15.4983C0 26.1111 0.0042191 26.4287 0.154314 27.0156C0.239245 27.3475 0.423797 27.8363 0.564516 28.1019C0.705234 28.3676 1.04894 28.8167 1.32827 29.1C1.6076 29.3833 2.06828 29.744 2.3519 29.9015C2.6356 30.059 3.14222 30.2581 3.47781 30.344C4.07787 30.4974 4.35126 30.5 20.0022 30.5C35.5948 30.5 35.9287 30.4969 36.52 30.3457C36.8519 30.2608 37.341 30.0764 37.6068 29.9359C37.8812 29.7909 38.3268 29.4438 38.6375 29.1331C38.9482 28.8224 39.2953 28.3768 39.4403 28.1024C39.5808 27.8366 39.7652 27.3475 39.8501 27.0156C40.0002 26.4287 40.0044 26.1111 40.0044 15.4983C40.0044 4.8856 40.0002 4.56798 39.8501 3.98112C39.7652 3.64921 39.5808 3.16009 39.4403 2.89428C39.2953 2.61988 38.9482 2.17428 38.6375 1.86362C38.3268 1.55288 37.8812 1.20581 37.6068 1.0608C37.341 0.920315 36.8519 0.735919 36.52 0.650988C35.9284 0.499721 35.6021 0.496752 19.9702 0.500971C4.52683 0.505112 4.00591 0.509956 3.45366 0.65466ZM36.1397 3.1272C36.3814 3.20955 36.6573 3.39285 36.89 3.62546C37.153 3.88846 37.2931 4.11176 37.3811 4.40797C37.4893 4.77238 37.5042 5.71397 37.5042 12.21V19.5975L32.445 14.5489C27.6931 9.80708 27.359 9.49056 26.9432 9.33851C26.6997 9.24952 26.3264 9.15357 26.1136 9.12529C25.9008 9.09708 25.547 9.11255 25.3273 9.15967C25.1077 9.20678 24.7602 9.32164 24.5551 9.41493C24.2628 9.54807 23.289 10.475 20.0396 13.7135C17.7611 15.9843 15.8621 17.8423 15.8195 17.8423C15.7769 17.8423 15.1998 17.2992 14.5371 16.6355C13.5631 15.6601 13.2412 15.3866 12.8581 15.2096C12.4419 15.0172 12.2938 14.9908 11.6419 14.9933C10.9911 14.9957 10.8419 15.0235 10.4308 15.2187C10.0236 15.4121 9.47214 15.9296 6.23116 19.1598L2.50028 22.8782V13.811C2.50028 5.5377 2.51176 4.71011 2.63107 4.35991C2.71655 4.10911 2.89173 3.84955 3.13668 3.611C3.34287 3.4102 3.66197 3.19268 3.84582 3.12759C4.13991 3.02352 6.07966 3.00851 19.9688 3.00312C34.5118 2.99742 35.7876 3.00726 36.1397 3.1272ZM7.50904 5.61584C7.27713 5.68092 6.91639 5.82734 6.70731 5.94118C6.49822 6.05495 6.15529 6.32974 5.94527 6.5518C5.73525 6.77393 5.47201 7.13585 5.36036 7.35618C5.24879 7.57652 5.11494 8.00422 5.06306 8.30676C4.99157 8.72399 4.99008 8.98105 5.05697 9.37156C5.10549 9.65464 5.23933 10.0788 5.35442 10.314C5.46951 10.5493 5.74462 10.927 5.96582 11.1535C6.21233 11.4059 6.5794 11.6685 6.91483 11.8324C7.43692 12.0874 7.50099 12.0995 8.3253 12.0995C9.16469 12.0995 9.20532 12.0914 9.7778 11.8084C10.1596 11.6197 10.4967 11.3785 10.736 11.1227C10.939 10.9056 11.2155 10.4922 11.3503 10.2041C11.5507 9.77583 11.6014 9.55604 11.628 9.00137C11.6522 8.49428 11.625 8.21019 11.5206 7.87796C11.4436 7.6334 11.249 7.22961 11.0881 6.9806C10.927 6.73135 10.6016 6.38155 10.3643 6.20231C10.1271 6.02322 9.74616 5.80531 9.51777 5.71803C9.2858 5.62943 8.84403 5.54575 8.51657 5.5284C8.14059 5.50856 7.77946 5.53989 7.50904 5.61584ZM8.75175 8.1276C8.87294 8.19917 9.01022 8.34145 9.05686 8.44381C9.10351 8.54616 9.14164 8.75407 9.14164 8.90573C9.14164 9.10638 9.07944 9.24374 8.91325 9.40993C8.74706 9.57612 8.6097 9.63831 8.40906 9.63831C8.2574 9.63831 8.04699 9.59901 7.94158 9.55096C7.83618 9.50299 7.6889 9.35039 7.61436 9.21186C7.51966 9.03606 7.49427 8.8776 7.53005 8.68665C7.55826 8.53624 7.65991 8.34168 7.75594 8.25433C7.85196 8.16698 7.98331 8.07626 8.04777 8.05267C8.11223 8.02915 8.24748 8.00704 8.34827 8.00368C8.44906 8.00032 8.63064 8.05603 8.75175 8.1276ZM31.7406 17.3533L37.5042 23.115V24.6242C37.5042 25.4543 37.4663 26.2838 37.42 26.4677C37.3737 26.6515 37.2067 26.9709 37.0489 27.1775C36.8791 27.3998 36.6023 27.6364 36.3712 27.757L35.9806 27.9607L20.1615 27.981C6.19037 27.9989 4.2947 27.9873 3.93348 27.8823C3.64228 27.7977 3.41264 27.6545 3.13613 27.3852C2.88516 27.1407 2.71296 26.8905 2.64912 26.6776L2.55052 26.3483L6.92038 21.973C9.32385 19.5667 11.3905 17.5447 11.5129 17.4797L11.7356 17.3615L13.4275 19.042C14.3581 19.9663 15.2183 20.7601 15.3391 20.806C15.4599 20.852 15.6994 20.8896 15.8714 20.8896C16.0433 20.8896 16.2607 20.8507 16.3546 20.8031C16.4485 20.7555 18.5828 18.6635 21.0977 16.1541C24.0349 13.2232 25.7249 11.5917 25.8235 11.5917C25.9226 11.5917 28.0208 13.6348 31.7406 17.3533Z" fill="#4095DA"/>
</svg>
