<svg width="25" height="26" viewBox="0 0 25 26" fill="none" xmlns="http://www.w3.org/2000/svg">
<path d="M12.614 10.324C12.7073 10.324 12.7867 10.352 12.852 10.408C12.908 10.4733 12.936 10.5527 12.936 10.646L12.936 17.478C12.936 17.5713 12.908 17.646 12.852 17.702C12.7867 17.7673 12.7073 17.8 12.614 17.8L11.956 17.8C11.8627 17.8 11.788 17.7673 11.732 17.702C11.676 17.646 11.648 17.5713 11.648 17.478L11.648 10.646C11.648 10.5527 11.676 10.4733 11.732 10.408C11.788 10.352 11.8627 10.324 11.956 10.324L12.614 10.324ZM12.74 8C12.8333 8 12.9127 8.028 12.978 8.084C13.034 8.14933 13.062 8.22867 13.062 8.322L13.062 9.204C13.062 9.30667 13.034 9.386 12.978 9.442C12.9127 9.50733 12.8333 9.54 12.74 9.54L11.844 9.54C11.7507 9.54 11.676 9.50733 11.62 9.442C11.5547 9.386 11.522 9.30667 11.522 9.204L11.522 8.322C11.522 8.22867 11.5547 8.14933 11.62 8.084C11.676 8.028 11.7507 8 11.844 8L12.74 8Z" fill="#4095DA"/>
<path d="M0.750001 13.4955C0.750002 7.00339 6.01091 1.74097 12.5 1.74097C18.9891 1.74097 24.25 7.00339 24.25 13.4955C24.25 19.9876 18.9891 25.25 12.5 25.25C6.01091 25.25 0.750001 19.9876 0.750001 13.4955Z" stroke="#4095DA" stroke-width="1.5"/>
</svg>
