<svg width="13" height="22" viewBox="0 0 13 22" fill="none" xmlns="http://www.w3.org/2000/svg">
<path fill-rule="evenodd" clip-rule="evenodd" d="M3.90035 0.0922596C3.65202 0.24735 2.65771 1.29344 2.62155 1.43762C2.52517 1.82159 2.88899 2.18561 3.27281 2.08928C3.34852 2.07026 3.63286 1.83284 3.92643 1.54354L4.44614 1.03145H5.09435H5.74257V1.57183V2.11222L5.38641 2.1133C5.00951 2.11448 4.87712 2.17382 4.7658 2.39145C4.72925 2.46298 4.71092 2.95885 4.71092 3.87751V5.25627H4.03191C3.15555 5.25627 2.97609 5.31311 2.57007 5.71909C2.20413 6.08508 2.10725 6.33272 2.10725 6.90224V7.30256L1.77565 7.3622C0.908188 7.51818 0.220721 8.16512 0.046078 8.98984C0.00392804 9.1889 -0.00712548 10.7283 0.00412435 14.8358L0.0194027 20.4116L0.197288 20.7801C0.427442 21.2568 0.74622 21.5756 1.22299 21.8058L1.59143 21.9836L6.1341 21.9971C9.19052 22.0062 10.7576 21.9937 10.9239 21.9587C11.5314 21.831 12.078 21.3851 12.3692 20.7801L12.5465 20.4116L12.5618 14.8358C12.5732 10.6849 12.5622 9.19101 12.519 8.98984C12.3398 8.1548 11.6699 7.52029 10.8042 7.36559L10.4587 7.30384V6.90288C10.4587 6.33267 10.3619 6.08518 9.99584 5.71909C9.58981 5.31311 9.41036 5.25627 8.534 5.25627H7.85498V3.87751C7.85498 2.95885 7.83666 2.46298 7.80011 2.39145C7.68879 2.17382 7.55639 2.11448 7.1795 2.1133L6.82334 2.11222V1.57183V1.03145H8.22264H9.62194L9.77182 0.896352C10.0494 0.646154 9.97884 0.174693 9.64483 0.0477021C9.56844 0.0186687 8.44199 -0.000146518 6.7833 8.59579e-07C4.19432 0.000148237 4.03982 0.00511024 3.90035 0.0922596ZM6.81204 4.18779L6.79877 5.23171H6.28295H5.76713L5.75387 4.18779L5.7406 3.14386H6.28295H6.8253L6.81204 4.18779ZM9.26534 6.44772C9.38407 6.56651 9.40284 6.62792 9.41915 6.95126L9.43777 7.31956H6.28295H3.12814L3.14656 6.95544C3.16577 6.57521 3.24167 6.42375 3.45821 6.33375C3.51225 6.3113 4.81055 6.2973 6.34328 6.3027L9.13009 6.31248L9.26534 6.44772ZM11.0368 8.55891C11.1481 8.6326 11.3013 8.7984 11.3771 8.92735L11.5149 9.16178V14.6639C11.5149 19.9411 11.5111 20.173 11.4231 20.3379C11.2943 20.5795 11.153 20.7237 10.9253 20.8462L10.7288 20.952H6.28295H1.83706L1.64056 20.8462C1.41286 20.7237 1.27162 20.5795 1.14276 20.3379C1.05517 20.1737 1.05036 19.9316 1.03601 14.9341C1.02776 12.0565 1.03508 9.56383 1.05227 9.39479C1.09202 9.0036 1.29977 8.67681 1.61285 8.51293L1.83077 8.39881L6.33257 8.41187L10.8343 8.42489L11.0368 8.55891ZM4.87795 11.171L4.71092 11.3381V12.2272V13.1164H3.82744H2.94397L2.78352 13.2597L2.62307 13.403L2.60834 14.5857C2.58702 16.2908 2.56363 16.2605 3.89877 16.2605H4.71092V17.0989C4.71092 18.3845 4.63001 18.3216 6.28295 18.3216C7.93589 18.3216 7.85498 18.3845 7.85498 17.0989V16.2605H8.67042C10.0016 16.2605 9.97894 16.29 9.95757 14.5818L9.94283 13.403L9.78239 13.2597L9.62194 13.1164H8.73846H7.85498V12.2272V11.3381L7.68795 11.171L7.52093 11.004H6.28295H5.04498L4.87795 11.171ZM6.81101 12.9199C6.81887 13.4765 6.84427 13.82 6.88293 13.8943C6.99798 14.1152 7.1488 14.1481 8.04903 14.1481H8.88662V14.6608V15.1735L7.99823 15.1889L7.10979 15.2043L6.96659 15.3647L6.82334 15.5252V16.4086V17.2921H6.28295H5.74257V16.4086V15.5252L5.59932 15.3647L5.45612 15.2043L4.56767 15.1889L3.67928 15.1735V14.6608V14.1481H4.51766C5.76079 14.1481 5.73996 14.1682 5.74149 12.965C5.74208 12.4899 5.75804 12.0857 5.77691 12.0668C5.79582 12.0479 6.03349 12.0387 6.30501 12.0463L6.79877 12.0602L6.81101 12.9199Z" fill="#757575"/>
</svg>
