<svg width="20" height="20" viewBox="0 0 20 20" fill="none" xmlns="http://www.w3.org/2000/svg">
<path fill-rule="evenodd" clip-rule="evenodd" d="M0.789101 0.0342855C0.51279 0.101575 0.238186 0.32438 0.104706 0.589633C-0.0625611 0.922053 -0.00279444 1.41889 0.239649 1.71147C0.495307 2.02002 1.00349 2.15968 1.39739 2.0297L1.55107 1.97896L2.15602 2.58293L2.76101 3.18691V9.97781V16.7687L2.13858 17.3902C1.52408 18.0037 1.51456 18.0111 1.39657 17.9653C1.33079 17.9398 1.16478 17.9192 1.0276 17.9197C0.572679 17.9209 0.183744 18.2073 0.0560783 18.6352C-0.0200741 18.8905 -0.019139 18.9982 0.0617704 19.2709C0.181142 19.6734 0.625372 20 1.05338 20C1.25451 20 1.5649 19.8801 1.73041 19.7384C2.02502 19.4862 2.16619 18.951 2.03076 18.5997C1.9853 18.4819 1.99311 18.4717 2.58578 17.8781L3.18691 17.2759H10.0185H16.8501L17.4337 17.8606L18.0173 18.4452L17.9666 18.5989C17.7834 19.1539 18.0947 19.78 18.6334 19.9399C18.8908 20.0163 18.998 20.0154 19.2709 19.9345C19.6734 19.8151 20 19.3709 20 18.9429C20 18.564 19.7334 18.1593 19.3851 18.0095C19.157 17.9113 18.7994 17.8885 18.6138 17.9602C18.5142 17.9987 18.4734 17.9661 17.8921 17.3839L17.2759 16.7668V9.97683V3.18691L17.8781 2.58578C18.4717 1.99311 18.4819 1.9853 18.5997 2.03076C18.951 2.16619 19.4862 2.02502 19.7384 1.73041C19.8801 1.5649 20 1.25451 20 1.05338C20 0.625371 19.6734 0.181142 19.2709 0.0617704C18.9982 -0.019139 18.8905 -0.0200741 18.6352 0.0560783C18.2073 0.183744 17.9209 0.572679 17.9197 1.0276C17.9192 1.16478 17.9398 1.33079 17.9653 1.39657C18.0111 1.51456 18.0037 1.52408 17.3902 2.13858L16.7687 2.76101H10.0194H3.27017L2.63274 2.12451C2.031 1.52367 1.99758 1.48212 2.03608 1.3825C2.10776 1.1969 2.08495 0.839314 1.9868 0.611182C1.79388 0.162724 1.27944 -0.0850863 0.789101 0.0342855ZM1.2589 0.688676C1.35673 0.741003 1.45996 0.935917 1.45996 1.06818C1.45996 1.12819 1.40129 1.22878 1.31367 1.319C1.17978 1.45687 1.15315 1.46768 0.998653 1.44695C0.775766 1.41706 0.646799 1.27086 0.646799 1.04797C0.646799 0.743279 0.98739 0.543324 1.2589 0.688676ZM19.2306 0.765641C19.4685 1.00349 19.3446 1.39369 19.0145 1.44626C18.8769 1.46817 18.847 1.45496 18.6994 1.30737C18.5235 1.13148 18.5019 1.03459 18.5973 0.850088C18.6756 0.698759 18.7629 0.649563 18.9562 0.648018C19.0749 0.647083 19.1399 0.674933 19.2306 0.765641ZM5.03786 4.18404V4.9972H4.20437H3.37088V4.18404V3.37088H4.20437H5.03786V4.18404ZM7.35537 4.18404V4.9972H6.54221H5.72905V4.18404V3.37088H6.54221H7.35537V4.18404ZM9.67287 4.18404V4.9972H8.85971H8.04655V4.18404V3.37088H8.85971H9.67287V4.18404ZM11.9497 4.18404V4.9972H11.1366H10.3234V4.18404V3.37088H11.1366H11.9497V4.18404ZM14.2672 4.18404V4.9972H13.4541H12.6409V4.18404V3.37088H13.4541H14.2672V4.18404ZM16.666 4.18404V4.9972H15.8122H14.9584V4.18404V3.37088H15.8122H16.666V4.18404ZM5.03786 6.52188V7.35537H4.20437H3.37088V6.52188V5.68839H4.20437H5.03786V6.52188ZM7.35537 6.52188V7.35537H6.54221H5.72905V6.52188V5.68839H6.54221H7.35537V6.52188ZM9.67287 6.52188V7.35537H8.85971H8.04655V6.52188V5.68839H8.85971H9.67287V6.52188ZM11.9497 6.52188V7.35537H11.1366H10.3234V6.52188V5.68839H11.1366H11.9497V6.52188ZM14.2672 6.52188V7.35537H13.4541H12.6409V6.52188V5.68839H13.4541H14.2672V6.52188ZM16.666 6.52188V7.35537H15.8122H14.9584V6.52188V5.68839H15.8122H16.666V6.52188ZM5.03786 8.85971V9.67287H4.20437H3.37088V8.85971V8.04655H4.20437H5.03786V8.85971ZM7.35537 8.85971V9.67287H6.54221H5.72905V8.85971V8.04655H6.54221H7.35537V8.85971ZM9.67287 8.85971V9.67287H8.85971H8.04655V8.85971V8.04655H8.85971H9.67287V8.85971ZM11.9497 8.85971V9.67287H11.1366H10.3234V8.85971V8.04655H11.1366H11.9497V8.85971ZM14.2672 8.85971V9.67287H13.4541H12.6409V8.85971V8.04655H13.4541H14.2672V8.85971ZM16.666 8.85971V9.67287H15.8122H14.9584V8.85971V8.04655H15.8122H16.666V8.85971ZM5.03786 11.1366V11.9497H4.20437H3.37088V11.1366V10.3234H4.20437H5.03786V11.1366ZM7.35537 11.1366V11.9497H6.54221H5.72905V11.1366V10.3234H6.54221H7.35537V11.1366ZM9.67287 11.1366V11.9497H8.85971H8.04655V11.1366V10.3234H8.85971H9.67287V11.1366ZM11.9497 11.1366V11.9497H11.1366H10.3234V11.1366V10.3234H11.1366H11.9497V11.1366ZM14.2672 11.1366V11.9497H13.4541H12.6409V11.1366V10.3234H13.4541H14.2672V11.1366ZM16.666 11.1366V11.9497H15.8122H14.9584V11.1366V10.3234H15.8122H16.666V11.1366ZM5.03786 13.4337V14.2266H4.20437H3.37088V13.4337V12.6409H4.20437H5.03786V13.4337ZM7.35537 13.4337V14.2266H6.54221H5.72905V13.4337V12.6409H6.54221H7.35537V13.4337ZM9.67287 13.4337V14.2266H8.85971H8.04655V13.4337V12.6409H8.85971H9.67287V13.4337ZM11.9497 13.4337V14.2266H11.1366H10.3234V13.4337V12.6409H11.1366H11.9497V13.4337ZM14.2672 13.4337V14.2266H13.4541H12.6409V13.4337V12.6409H13.4541H14.2672V13.4337ZM16.666 13.4337V14.2266H15.8122H14.9584V13.4337V12.6409H15.8122H16.666V13.4337ZM5.03786 15.7919V16.666H4.20437H3.37088V15.7919V14.9178H4.20437H5.03786V15.7919ZM7.35537 15.7919V16.666H6.54221H5.72905V15.7919V14.9178H6.54221H7.35537V15.7919ZM9.67287 15.7919V16.666H8.85971H8.04655V15.7919V14.9178H8.85971H9.67287V15.7919ZM11.9497 15.7919V16.666H11.1366H10.3234V15.7919V14.9178H11.1366H11.9497V15.7919ZM14.2672 15.7919V16.666H13.4541H12.6409V15.7919V14.9178H13.4541H14.2672V15.7919ZM16.666 15.7919V16.666H15.8122H14.9584V15.7919V14.9178H15.8122H16.666V15.7919ZM1.32693 18.6798C1.45752 18.8103 1.46829 18.8386 1.44735 18.9948C1.41861 19.209 1.27053 19.3495 1.07334 19.3495C0.795159 19.3495 0.646799 19.2065 0.646799 18.9383C0.646799 18.776 0.705874 18.673 0.84094 18.5997C1.02833 18.498 1.1682 18.521 1.32693 18.6798ZM19.147 18.5977C19.2892 18.6713 19.3495 18.7727 19.3495 18.9383C19.3495 19.2065 19.2011 19.3495 18.9229 19.3495C18.7259 19.3495 18.5777 19.209 18.549 18.9953C18.5279 18.8383 18.5383 18.8122 18.6742 18.6802C18.8376 18.5216 18.9588 18.5004 19.147 18.5977Z" fill="#757575"/>
</svg>
