<svg width="16" height="11" viewBox="0 0 16 11" fill="none" xmlns="http://www.w3.org/2000/svg">
<path fill-rule="evenodd" clip-rule="evenodd" d="M13.7683 0.0396328C13.7025 0.060509 13.5881 0.108004 13.5141 0.145211C13.417 0.194021 12.284 1.30734 9.4465 4.14234L5.51352 8.07185L3.73396 6.29705C2.11955 4.68695 1.93607 4.51336 1.75679 4.42636C1.64811 4.3736 1.48316 4.32012 1.3902 4.30753C1.29728 4.29491 1.13807 4.29596 1.03645 4.30986C0.934816 4.32374 0.783508 4.36657 0.700183 4.405C0.616857 4.4434 0.480355 4.53663 0.39685 4.61215C0.313315 4.68764 0.203222 4.82779 0.152168 4.92359C0.101114 5.01938 0.0426123 5.18846 0.0221847 5.29933C-0.0073949 5.45985 -0.0073949 5.54192 0.0221847 5.70244C0.0426123 5.81331 0.0991695 5.97879 0.147891 6.07019C0.218116 6.20197 0.711458 6.71021 2.53104 8.52551C4.69675 10.6861 4.83648 10.8194 5.01868 10.8988C5.14158 10.9524 5.28442 10.9882 5.41165 10.9973C5.52285 11.0053 5.68268 10.9949 5.7719 10.9738C5.86007 10.9531 5.99954 10.903 6.08179 10.8626C6.20088 10.8041 7.13301 9.88689 10.6598 6.35797C14.4523 2.56311 15.1 1.90273 15.1699 1.75908C15.2148 1.66684 15.2666 1.50088 15.2849 1.39028C15.3094 1.2428 15.3094 1.14158 15.285 1.01076C15.2668 0.912635 15.2195 0.761507 15.1798 0.674922C15.1402 0.588336 15.0378 0.447556 14.9523 0.362048C14.8668 0.276539 14.7419 0.178589 14.6749 0.144373C14.6079 0.110188 14.4909 0.0633207 14.4149 0.0402612C14.3389 0.0172017 14.1893 -0.000893066 14.0823 3.41003e-05C13.9754 0.000961267 13.8341 0.0187865 13.7683 0.0396328Z" fill="#4095DA"/>
</svg>
