<svg width="22" height="22" viewBox="0 0 22 22" fill="none" xmlns="http://www.w3.org/2000/svg">
<path fill-rule="evenodd" clip-rule="evenodd" d="M6.39762 1.06143C6.32233 1.09405 6.2107 1.16817 6.14956 1.22613C6.08847 1.2841 6.00484 1.39686 5.96378 1.47665C5.92263 1.55672 5.88915 1.7014 5.88915 1.79934V1.97691L5.52735 1.97777C5.25958 1.9784 5.12488 1.99741 5.0091 2.05084C4.92305 2.09054 4.81389 2.1652 4.76652 2.21675C4.71912 2.26827 4.65313 2.37563 4.61985 2.45535C4.58617 2.53592 4.5593 2.71357 4.5593 2.85571V3.1112H2.87567H1.19201L1.09602 3.20722C1.03864 3.26456 1 3.34842 1 3.4155C1 3.4823 1.03665 3.56225 1.09051 3.61286C1.18059 3.69746 1.18974 3.69789 2.87016 3.69789H4.5593V4.24548V4.79306H2.86073H1.16212L1.08108 4.89612C1.03649 4.9528 1 5.04159 1 5.09345C1 5.14531 1.04322 5.23093 1.09602 5.28374L1.19201 5.37976H2.87164H4.55128L4.56505 5.70862C4.57757 6.00686 4.59 6.05125 4.69846 6.18522C4.76425 6.26649 4.86669 6.36932 4.92618 6.41372C5.01446 6.4797 5.11072 6.49808 5.45194 6.51404L5.86959 6.5336L5.8938 6.75877C5.91003 6.90999 5.95232 7.03346 6.02252 7.13477C6.08002 7.21777 6.21234 7.33206 6.31654 7.38877C6.42074 7.44548 6.53397 7.49187 6.56815 7.49187C6.62451 7.49187 6.63136 7.95043 6.64188 12.4495L6.6535 17.4071L6.76098 17.7745C6.82008 17.9766 6.93601 18.286 7.01858 18.4622C7.10115 18.6384 7.2619 18.9219 7.37584 19.0922C7.48974 19.2625 7.73713 19.5552 7.92554 19.7427C8.11398 19.9302 8.42036 20.1828 8.60646 20.3041C8.79252 20.4253 9.08591 20.5858 9.2584 20.6605C9.43092 20.7353 9.74226 20.8423 9.95027 20.8982C10.2897 20.9896 10.3987 21 11.013 21C11.6273 21 11.7362 20.9896 12.0757 20.8982C12.2837 20.8423 12.5973 20.7343 12.7726 20.6583C12.9479 20.5823 13.2441 20.4188 13.4309 20.2949C13.6176 20.1709 13.9218 19.9193 14.1067 19.7357C14.2917 19.5521 14.5362 19.2625 14.6501 19.0922C14.764 18.9219 14.9264 18.6351 15.0108 18.4549C15.0953 18.2746 15.2103 17.9564 15.2664 17.7476C15.362 17.3922 15.3695 17.3002 15.3843 16.3075L14.7954 16.3315C14.7824 17.1687 14.7697 17.3292 14.6944 17.6026C14.6471 17.7747 14.5216 18.0915 14.4155 18.3067C14.3095 18.5218 14.1175 18.8298 13.9888 18.9911C13.8602 19.1525 13.6413 19.3813 13.5025 19.4996C13.3636 19.6179 13.1087 19.8 12.936 19.9042C12.7634 20.0085 12.4757 20.1442 12.2967 20.2058C12.1177 20.2674 11.804 20.347 11.5997 20.3826C11.3343 20.4289 11.1164 20.4409 10.837 20.4245C10.6218 20.4118 10.305 20.3669 10.1329 20.3245C9.96083 20.2822 9.69197 20.1945 9.53543 20.1296C9.3789 20.0648 9.10038 19.9136 8.91651 19.7938C8.73268 19.6739 8.46272 19.4547 8.31663 19.3065C8.17054 19.1584 7.96872 18.9135 7.86816 18.7622C7.76764 18.611 7.62569 18.3581 7.55275 18.2002C7.4798 18.0423 7.37944 17.7729 7.32965 17.6015L7.23914 17.2897L7.22819 12.3908L7.21724 7.49187H8.03658H8.85592L8.86859 8.49904C8.88076 9.46235 8.8853 9.5143 8.97275 9.69187C9.02305 9.794 9.13668 9.93961 9.22527 10.0155C9.31386 10.0913 9.47391 10.1793 9.58096 10.2111C9.73472 10.2568 10.0353 10.2689 11.013 10.2689C11.9906 10.2689 12.2912 10.2568 12.445 10.2111C12.552 10.1793 12.7121 10.0913 12.8007 10.0155C12.8893 9.93961 13.0029 9.794 13.0532 9.69187C13.1407 9.5143 13.1452 9.46235 13.1574 8.49904L13.17 7.49187H13.9878H14.8057L14.8161 10.82L14.7954 16.3315L15.3843 16.3075C15.3843 16.3075 15.3937 14.089 15.3937 10.8165C15.3937 7.7824 15.3992 7.49187 15.4568 7.49187C15.4916 7.49187 15.6052 7.44548 15.7094 7.38877C15.8136 7.33206 15.9459 7.21777 16.0034 7.13477C16.0736 7.03346 16.1159 6.90999 16.1321 6.75877L16.1564 6.5336L16.574 6.51404C16.9152 6.49808 17.0115 6.4797 17.0998 6.41372C17.1593 6.36932 17.2617 6.26649 17.3275 6.18522C17.4359 6.05125 17.4484 6.00686 17.4609 5.70862L17.4747 5.37976H19.1543H20.8339L20.9299 5.28374C20.9827 5.23093 21.0259 5.14531 21.0259 5.09345C21.0259 5.04159 20.9895 4.9528 20.9449 4.89612L20.8638 4.79306H19.1652H17.4667V4.24548V3.69789H19.1613H20.8558L20.9409 3.60738C20.9877 3.55759 21.0259 3.46877 21.0259 3.41002C21.0259 3.34877 20.985 3.26225 20.9299 3.20722L20.8339 3.1112H19.1503H17.4667L17.4658 2.84718C17.4652 2.67465 17.4399 2.52896 17.3927 2.42671C17.353 2.34067 17.2784 2.2315 17.2268 2.18413C17.1753 2.13673 17.0679 2.07074 16.9882 2.03746C16.8938 1.99796 16.7204 1.97691 16.4901 1.97691H16.1368V1.79934C16.1368 1.7014 16.1033 1.55672 16.0622 1.47665C16.0211 1.39686 15.9375 1.28406 15.8764 1.22606C15.8153 1.16805 15.6998 1.09323 15.6198 1.05983C15.4921 1.00648 10.8793 1.00061 10.8793 1.00061L11.9098 1.58578C11.9098 1.58578 15.3948 1.58695 15.4719 1.66401C15.5485 1.74063 15.5501 1.79437 15.5501 4.25897C15.5501 6.64746 15.5465 6.77899 15.4786 6.84044C15.4129 6.89985 15.0464 6.90517 11.0062 6.90517C6.79235 6.90517 6.60257 6.90212 6.54058 6.83364C6.48175 6.76863 6.47585 6.5316 6.47585 4.23484V1.70754L6.56279 1.64668C6.62678 1.60182 6.74866 1.58578 7.02531 1.58578C7.36735 1.58578 11.9098 1.58578 11.9098 1.58578L10.8793 1.00061C10.8793 1.00061 7.34873 0.999239 6.96226 1.00061C6.66926 1.00166 6.49137 1.02083 6.39762 1.06143ZM10.7389 2.13278C10.6204 2.14784 10.4532 2.18249 10.3673 2.20979C10.2814 2.23709 10.1024 2.31923 9.96944 2.39233C9.83653 2.46544 9.62454 2.62846 9.49839 2.7546C9.37229 2.8807 9.2142 3.08738 9.14712 3.21379C9.08004 3.3402 8.99383 3.54926 8.95562 3.67834C8.91111 3.82845 8.88631 4.03982 8.88678 4.26503C8.88725 4.49572 8.91166 4.69121 8.95762 4.83217C8.99622 4.95049 9.08282 5.1529 9.15009 5.28198C9.21741 5.41105 9.38012 5.62465 9.51169 5.75665C9.68027 5.92574 9.84783 6.04421 10.0788 6.15772C10.3037 6.26818 10.502 6.33322 10.7098 6.36475C10.9421 6.39999 11.0838 6.39999 11.3161 6.36475C11.524 6.33322 11.7222 6.26818 11.9471 6.15772C12.1781 6.04421 12.3457 5.92574 12.5143 5.75665C12.6458 5.62465 12.8092 5.41105 12.8771 5.28198C12.9452 5.1529 13.032 4.94169 13.07 4.81262C13.1123 4.66899 13.1392 4.44894 13.1392 4.24548C13.1392 4.04201 13.1123 3.82196 13.07 3.67834C13.032 3.54926 12.9454 3.3393 12.8777 3.21176C12.8101 3.08417 12.6476 2.87272 12.5166 2.74181C12.3857 2.61086 12.1743 2.44838 12.0467 2.38072C11.9191 2.31301 11.718 2.23123 11.5997 2.19892C11.4814 2.16661 11.2877 2.13235 11.1694 2.1228C11.0511 2.11322 10.8574 2.11772 10.7389 2.13278ZM5.88915 4.24548V5.92734H5.56451C5.36417 5.92734 5.22192 5.90939 5.19293 5.88041C5.15797 5.84544 5.146 5.43166 5.146 4.25999C5.146 2.88172 5.15362 2.67892 5.20744 2.62506C5.25301 2.57953 5.34927 2.56361 5.57902 2.56361H5.88915V4.24548ZM16.8185 2.62506C16.8723 2.67892 16.88 2.88172 16.88 4.25999C16.88 5.43166 16.868 5.84544 16.833 5.88041C16.804 5.90939 16.6618 5.92734 16.4614 5.92734H16.1368V4.24548V2.56361H16.4469C16.6767 2.56361 16.7729 2.57953 16.8185 2.62506ZM11.686 2.86795C11.8385 2.94305 12.0142 3.07208 12.1248 3.19032C12.2262 3.29878 12.3564 3.48813 12.414 3.61114C12.5071 3.80968 12.5188 3.88137 12.5188 4.24986C12.5188 4.62859 12.5088 4.68597 12.4037 4.90575C12.3404 5.03818 12.2763 5.14183 12.2612 5.13604C12.2461 5.13026 11.9923 4.86593 11.6972 4.5486C11.191 4.00442 11.1522 3.97168 11.0146 3.97168C10.918 3.97168 10.8446 3.99832 10.7974 4.05042C10.7582 4.09372 10.7262 4.18043 10.7262 4.24309C10.7262 4.3194 10.7767 4.4155 10.8793 4.53409C10.9636 4.63145 11.213 4.90359 11.4337 5.13882L11.8349 5.56649L11.6662 5.64573C11.5735 5.6893 11.3947 5.74402 11.2688 5.76729C11.1087 5.79686 10.9644 5.79749 10.788 5.76933C10.6494 5.74719 10.4365 5.67835 10.3149 5.61635C10.1933 5.55436 10.0111 5.41856 9.90998 5.3146C9.80884 5.21059 9.67683 5.01992 9.61663 4.89084C9.51854 4.68065 9.50712 4.6133 9.50712 4.24548C9.50712 3.88251 9.5192 3.80901 9.61116 3.61282C9.66842 3.49075 9.79061 3.30907 9.88272 3.20913C9.97483 3.1092 10.1267 2.98263 10.2201 2.92787C10.3135 2.87311 10.4641 2.80416 10.5548 2.77459C10.6588 2.74071 10.851 2.72491 11.0756 2.7318C11.3845 2.7413 11.4653 2.75929 11.686 2.86795ZM12.5579 8.43458C12.5579 9.14949 12.5456 9.38073 12.5034 9.45954C12.4734 9.51551 12.3915 9.58853 12.3215 9.62178C12.2154 9.67212 11.9972 9.68221 11.013 9.68221C10.0442 9.68221 9.80962 9.67165 9.70824 9.62354C9.64026 9.59127 9.55839 9.52529 9.52632 9.47687C9.47997 9.40697 9.46534 9.20542 9.45498 8.49653C9.44786 8.00578 9.45177 7.57874 9.46374 7.54761C9.48228 7.49926 9.71015 7.49246 11.0217 7.50118L12.5579 7.51143V8.43458ZM10.7844 11.9801C10.74 12.0177 10.3243 12.7079 9.86066 13.5138C9.39697 14.3197 8.98296 15.0717 8.9406 15.1849C8.8982 15.2982 8.8445 15.5101 8.82123 15.6558C8.79792 15.8015 8.7899 16.0088 8.80339 16.1163C8.81685 16.2239 8.85467 16.4087 8.88745 16.527C8.92019 16.6453 9.00784 16.8584 9.08223 17.0004C9.15662 17.1425 9.31785 17.3585 9.44051 17.4804C9.56321 17.6023 9.71637 17.7379 9.78091 17.7818C9.84545 17.8257 9.98676 17.9018 10.0949 17.951C10.2031 18.0002 10.3879 18.0638 10.5056 18.0923C10.6233 18.1208 10.8516 18.1441 11.013 18.1441C11.1743 18.1441 11.4031 18.1214 11.5214 18.0937C11.6398 18.066 11.8484 17.9907 11.985 17.9266C12.1406 17.8535 12.3395 17.7092 12.5172 17.5405C12.6885 17.3777 12.8498 17.1791 12.9245 17.039C12.9925 16.9114 13.0749 16.7312 13.1076 16.6386C13.1403 16.5459 13.1839 16.3509 13.2046 16.2052C13.2289 16.0342 13.2285 15.8444 13.2037 15.6695C13.1826 15.5206 13.1302 15.3049 13.0873 15.1904C13.0444 15.0758 12.6297 14.322 12.1658 13.5153C11.7018 12.7086 11.2859 12.0177 11.2415 11.9801C11.1957 11.9412 11.0969 11.9117 11.013 11.9117C10.9291 11.9117 10.8303 11.9412 10.7844 11.9801ZM11.7259 13.9394C12.1073 14.6021 12.4593 15.231 12.5082 15.337C12.5827 15.4985 12.5971 15.5959 12.5971 15.9403C12.5971 16.3185 12.5875 16.3712 12.4757 16.6071C12.409 16.7479 12.2962 16.9294 12.2252 17.0103C12.1541 17.0912 12.0192 17.2102 11.9254 17.2748C11.8316 17.3394 11.6555 17.4263 11.5342 17.4681C11.3908 17.5174 11.2087 17.544 11.0138 17.544C10.8383 17.544 10.6341 17.5171 10.5212 17.4791C10.4152 17.4435 10.2405 17.3585 10.1329 17.2902C10.0254 17.222 9.87756 17.098 9.80449 17.0147C9.73139 16.9314 9.61699 16.7479 9.55026 16.6071C9.43847 16.3712 9.42889 16.3185 9.42889 15.9403C9.42889 15.5959 9.44321 15.4985 9.51776 15.337C9.56661 15.231 9.91863 14.6021 10.3 13.9394C10.6814 13.2767 11.0022 12.7345 11.013 12.7345C11.0237 12.7345 11.3446 13.2767 11.7259 13.9394Z" fill="#757575"/>
<path d="M15.3843 16.3075C15.3695 17.3002 15.362 17.3922 15.2664 17.7476C15.2103 17.9564 15.0953 18.2746 15.0108 18.4549C14.9264 18.6351 14.764 18.9219 14.6501 19.0922C14.5362 19.2625 14.2917 19.5521 14.1067 19.7357C13.9218 19.9193 13.6176 20.1709 13.4309 20.2949C13.2441 20.4188 12.9479 20.5823 12.7726 20.6583C12.5973 20.7343 12.2837 20.8423 12.0757 20.8982C11.7362 20.9896 11.6273 21 11.013 21C10.3987 21 10.2897 20.9896 9.95027 20.8982C9.74227 20.8423 9.43092 20.7353 9.2584 20.6605C9.08591 20.5858 8.79252 20.4253 8.60646 20.3041C8.42036 20.1828 8.11398 19.9302 7.92554 19.7427C7.73713 19.5552 7.48974 19.2625 7.37584 19.0922C7.2619 18.9219 7.10115 18.6384 7.01858 18.4622C6.93601 18.286 6.82008 17.9766 6.76098 17.7745L6.6535 17.4071L6.64188 12.4495C6.63136 7.95043 6.62451 7.49187 6.56815 7.49187C6.53397 7.49187 6.42074 7.44548 6.31654 7.38877C6.21234 7.33206 6.08002 7.21777 6.02252 7.13477C5.95232 7.03346 5.91003 6.90998 5.8938 6.75877L5.86959 6.5336L5.45194 6.51404C5.11072 6.49808 5.01446 6.4797 4.92618 6.41372C4.86669 6.36932 4.76425 6.26649 4.69846 6.18522C4.59 6.05125 4.57757 6.00686 4.56505 5.70862L4.55128 5.37976H2.87164H1.19201L1.09602 5.28374C1.04322 5.23093 1 5.14531 1 5.09345C1 5.04159 1.03649 4.9528 1.08108 4.89612L1.16212 4.79306H2.86073H4.5593V4.24548V3.69789H2.87016C1.18974 3.69789 1.18059 3.69746 1.09051 3.61286C1.03665 3.56225 1 3.4823 1 3.4155C1 3.34842 1.03864 3.26456 1.09602 3.20722L1.19201 3.11119H2.87567H4.5593V2.85571C4.5593 2.71357 4.58617 2.53592 4.61985 2.45535C4.65313 2.37563 4.71912 2.26827 4.76652 2.21675C4.81389 2.1652 4.92305 2.09054 5.0091 2.05084C5.12488 1.99741 5.25958 1.9784 5.52735 1.97777L5.88915 1.97691V1.79934C5.88915 1.7014 5.92263 1.55672 5.96378 1.47665C6.00484 1.39686 6.08847 1.2841 6.14956 1.22613C6.2107 1.16817 6.32233 1.09405 6.39762 1.06143C6.49137 1.02083 6.66926 1.00166 6.96226 1.00061C7.34873 0.999239 10.8793 1.00061 10.8793 1.00061M15.3843 16.3075C15.3843 16.3075 15.3937 14.089 15.3937 10.8165C15.3937 7.7824 15.3992 7.49187 15.4568 7.49187C15.4916 7.49187 15.6052 7.44548 15.7094 7.38877C15.8136 7.33206 15.9459 7.21777 16.0034 7.13477C16.0736 7.03346 16.1159 6.90998 16.1321 6.75877L16.1564 6.5336L16.574 6.51404C16.9152 6.49808 17.0115 6.4797 17.0998 6.41372C17.1593 6.36932 17.2617 6.26649 17.3275 6.18522C17.4359 6.05125 17.4484 6.00686 17.4609 5.70862L17.4747 5.37976H19.1543H20.8339L20.9299 5.28374C20.9827 5.23093 21.0259 5.14531 21.0259 5.09345C21.0259 5.04159 20.9895 4.9528 20.9449 4.89612L20.8638 4.79306H19.1652H17.4666V4.24548V3.69789H19.1613H20.8558L20.9409 3.60738C20.9877 3.55759 21.0259 3.46877 21.0259 3.41002C21.0259 3.34877 20.985 3.26225 20.9299 3.20722L20.8339 3.11119H19.1503H17.4666L17.4658 2.84718C17.4652 2.67465 17.4399 2.52896 17.3927 2.42671C17.353 2.34067 17.2784 2.2315 17.2268 2.18413C17.1753 2.13673 17.0679 2.07075 16.9882 2.03746C16.8938 1.99796 16.7204 1.97691 16.4901 1.97691H16.1368V1.79934C16.1368 1.7014 16.1033 1.55672 16.0622 1.47665C16.0211 1.39686 15.9375 1.28406 15.8764 1.22606C15.8153 1.16805 15.6998 1.09323 15.6198 1.05983C15.4921 1.00648 10.8793 1.00061 10.8793 1.00061M15.3843 16.3075L14.7954 16.3315M14.7954 16.3315C14.7824 17.1687 14.7697 17.3292 14.6944 17.6026C14.6471 17.7747 14.5216 18.0915 14.4155 18.3067C14.3095 18.5218 14.1175 18.8298 13.9888 18.9911C13.8602 19.1525 13.6413 19.3813 13.5025 19.4996C13.3636 19.6179 13.1087 19.8 12.936 19.9042C12.7634 20.0085 12.4757 20.1442 12.2967 20.2058C12.1177 20.2674 11.804 20.347 11.5997 20.3826C11.3343 20.4289 11.1164 20.4409 10.837 20.4245C10.6218 20.4118 10.305 20.3669 10.1329 20.3245C9.96083 20.2822 9.69197 20.1945 9.53544 20.1296C9.3789 20.0648 9.10038 19.9136 8.91651 19.7938C8.73268 19.6739 8.46272 19.4547 8.31663 19.3065C8.17054 19.1584 7.96872 18.9135 7.86816 18.7622C7.76764 18.611 7.62569 18.3581 7.55275 18.2002C7.4798 18.0423 7.37944 17.7729 7.32965 17.6015L7.23914 17.2897L7.22819 12.3908L7.21724 7.49187H8.03658H8.85592L8.86859 8.49904C8.88076 9.46235 8.8853 9.5143 8.97275 9.69187C9.02305 9.794 9.13668 9.93961 9.22527 10.0155C9.31386 10.0913 9.47391 10.1793 9.58096 10.2111C9.73472 10.2568 10.0353 10.2689 11.013 10.2689C11.9906 10.2689 12.2912 10.2568 12.445 10.2111C12.552 10.1793 12.7121 10.0913 12.8007 10.0155C12.8893 9.93961 13.0029 9.794 13.0532 9.69187C13.1407 9.5143 13.1452 9.46235 13.1574 8.49904L13.17 7.49187H13.9878H14.8057L14.8161 10.82L14.7954 16.3315ZM10.8793 1.00061L11.9098 1.58578M11.9098 1.58578C11.9098 1.58578 15.3948 1.58695 15.4719 1.66401C15.5485 1.74063 15.5501 1.79437 15.5501 4.25897C15.5501 6.64746 15.5465 6.77899 15.4786 6.84044C15.4129 6.89985 15.0464 6.90517 11.0062 6.90517C6.79235 6.90517 6.60257 6.90212 6.54058 6.83364C6.48175 6.76863 6.47585 6.5316 6.47585 4.23484V1.70754L6.56279 1.64668C6.62678 1.60182 6.74866 1.58578 7.02531 1.58578C7.36735 1.58578 11.9098 1.58578 11.9098 1.58578ZM10.7389 2.13278C10.6204 2.14784 10.4532 2.18249 10.3673 2.20979C10.2814 2.23709 10.1024 2.31923 9.96944 2.39233C9.83653 2.46544 9.62454 2.62846 9.4984 2.7546C9.37229 2.8807 9.2142 3.08738 9.14712 3.21379C9.08004 3.3402 8.99383 3.54926 8.95562 3.67834C8.91111 3.82845 8.88631 4.03982 8.88678 4.26503C8.88725 4.49572 8.91166 4.69121 8.95762 4.83217C8.99622 4.95049 9.08282 5.1529 9.15009 5.28198C9.21741 5.41105 9.38012 5.62465 9.51169 5.75665C9.68027 5.92574 9.84783 6.04421 10.0788 6.15772C10.3037 6.26818 10.502 6.33322 10.7098 6.36475C10.9421 6.39999 11.0838 6.39999 11.3161 6.36475C11.524 6.33322 11.7222 6.26818 11.9471 6.15772C12.1781 6.04421 12.3457 5.92574 12.5143 5.75665C12.6458 5.62465 12.8092 5.41105 12.8771 5.28198C12.9452 5.1529 13.032 4.94169 13.07 4.81262C13.1123 4.66899 13.1392 4.44894 13.1392 4.24548C13.1392 4.04201 13.1123 3.82196 13.07 3.67834C13.032 3.54926 12.9454 3.3393 12.8777 3.21175C12.8101 3.08417 12.6476 2.87272 12.5166 2.74181C12.3857 2.61086 12.1743 2.44838 12.0467 2.38072C11.9191 2.31301 11.718 2.23123 11.5997 2.19892C11.4814 2.16661 11.2877 2.13235 11.1694 2.1228C11.0511 2.11322 10.8574 2.11772 10.7389 2.13278ZM5.88915 4.24548V5.92734H5.56451C5.36417 5.92734 5.22192 5.90939 5.19293 5.88041C5.15797 5.84544 5.146 5.43166 5.146 4.25999C5.146 2.88172 5.15362 2.67892 5.20744 2.62506C5.25301 2.57953 5.34927 2.56361 5.57902 2.56361H5.88915V4.24548ZM16.8185 2.62506C16.8723 2.67892 16.88 2.88172 16.88 4.25999C16.88 5.43166 16.868 5.84544 16.833 5.88041C16.804 5.90939 16.6618 5.92734 16.4614 5.92734H16.1368V4.24548V2.56361H16.4469C16.6767 2.56361 16.7729 2.57953 16.8185 2.62506ZM11.686 2.86795C11.8385 2.94305 12.0142 3.07208 12.1248 3.19032C12.2262 3.29878 12.3564 3.48813 12.414 3.61114C12.5071 3.80968 12.5188 3.88137 12.5188 4.24986C12.5188 4.62859 12.5088 4.68597 12.4037 4.90575C12.3404 5.03818 12.2763 5.14183 12.2612 5.13604C12.2461 5.13026 11.9923 4.86593 11.6972 4.5486C11.191 4.00442 11.1522 3.97168 11.0146 3.97168C10.918 3.97168 10.8446 3.99832 10.7974 4.05042C10.7582 4.09372 10.7262 4.18043 10.7262 4.24309C10.7262 4.3194 10.7767 4.4155 10.8793 4.53409C10.9636 4.63145 11.213 4.90359 11.4337 5.13882L11.8349 5.56649L11.6662 5.64573C11.5735 5.6893 11.3947 5.74402 11.2688 5.76729C11.1087 5.79686 10.9644 5.79749 10.788 5.76933C10.6494 5.74719 10.4365 5.67835 10.3149 5.61635C10.1933 5.55436 10.0111 5.41856 9.90998 5.3146C9.80884 5.21059 9.67683 5.01992 9.61663 4.89084C9.51854 4.68065 9.50712 4.6133 9.50712 4.24548C9.50712 3.88251 9.5192 3.80901 9.61116 3.61282C9.66842 3.49075 9.79061 3.30907 9.88272 3.20913C9.97483 3.1092 10.1267 2.98263 10.2201 2.92787C10.3135 2.87311 10.4641 2.80416 10.5548 2.77459C10.6588 2.74071 10.851 2.72491 11.0756 2.7318C11.3845 2.7413 11.4653 2.75929 11.686 2.86795ZM12.5579 8.43458C12.5579 9.14949 12.5456 9.38073 12.5034 9.45954C12.4734 9.51551 12.3915 9.58853 12.3215 9.62178C12.2154 9.67212 11.9972 9.68221 11.013 9.68221C10.0442 9.68221 9.80962 9.67165 9.70824 9.62354C9.64026 9.59127 9.55839 9.52529 9.52632 9.47687C9.47997 9.40697 9.46534 9.20542 9.45498 8.49653C9.44786 8.00578 9.45177 7.57874 9.46374 7.54761C9.48228 7.49926 9.71015 7.49246 11.0217 7.50118L12.5579 7.51143V8.43458ZM10.7844 11.9801C10.74 12.0177 10.3243 12.7079 9.86066 13.5138C9.39697 14.3197 8.98296 15.0717 8.9406 15.1849C8.8982 15.2982 8.8445 15.5101 8.82123 15.6558C8.79792 15.8015 8.7899 16.0088 8.80339 16.1163C8.81685 16.2239 8.85467 16.4087 8.88745 16.527C8.92019 16.6453 9.00784 16.8584 9.08223 17.0004C9.15662 17.1425 9.31785 17.3585 9.44051 17.4804C9.56321 17.6023 9.71637 17.7379 9.78091 17.7818C9.84545 17.8257 9.98676 17.9018 10.0949 17.951C10.2031 18.0002 10.3879 18.0638 10.5056 18.0923C10.6233 18.1208 10.8516 18.1442 11.013 18.1442C11.1743 18.1442 11.4031 18.1214 11.5214 18.0937C11.6398 18.066 11.8484 17.9908 11.985 17.9266C12.1406 17.8535 12.3395 17.7092 12.5172 17.5405C12.6885 17.3777 12.8498 17.1791 12.9245 17.039C12.9925 16.9114 13.0749 16.7312 13.1076 16.6386C13.1403 16.5459 13.1839 16.3509 13.2046 16.2052C13.2289 16.0342 13.2285 15.8444 13.2037 15.6695C13.1826 15.5206 13.1302 15.3049 13.0873 15.1904C13.0444 15.0758 12.6297 14.322 12.1658 13.5153C11.7018 12.7086 11.2859 12.0177 11.2415 11.9801C11.1957 11.9412 11.0969 11.9117 11.013 11.9117C10.9291 11.9117 10.8303 11.9412 10.7844 11.9801ZM11.7259 13.9394C12.1073 14.6021 12.4593 15.231 12.5082 15.337C12.5827 15.4985 12.5971 15.5959 12.5971 15.9403C12.5971 16.3185 12.5875 16.3712 12.4757 16.6071C12.409 16.7479 12.2962 16.9294 12.2252 17.0103C12.1541 17.0912 12.0192 17.2102 11.9254 17.2748C11.8316 17.3394 11.6555 17.4263 11.5342 17.4681C11.3908 17.5174 11.2087 17.544 11.0138 17.544C10.8383 17.544 10.6341 17.5171 10.5212 17.4791C10.4152 17.4435 10.2405 17.3585 10.1329 17.2902C10.0254 17.222 9.87756 17.098 9.80449 17.0147C9.73139 16.9314 9.61699 16.7479 9.55026 16.6071C9.43847 16.3712 9.42889 16.3185 9.42889 15.9403C9.42889 15.5959 9.44321 15.4985 9.51776 15.337C9.56661 15.231 9.91863 14.6021 10.3 13.9394C10.6814 13.2767 11.0022 12.7345 11.013 12.7345C11.0237 12.7345 11.3446 13.2767 11.7259 13.9394Z" stroke="#757575" stroke-width="0.25"/>
</svg>
