<svg width="21" height="20" viewBox="0 0 21 20" fill="none" xmlns="http://www.w3.org/2000/svg">
<path fill-rule="evenodd" clip-rule="evenodd" d="M3.49531 0.105165C2.52763 0.36145 1.66631 0.95526 0.944113 1.8641C0.00796635 3.0421 -0.247624 4.52523 0.247468 5.90623C0.537745 6.71581 0.670779 6.88439 2.36717 8.59153L3.76084 9.99406L2.33735 11.4243C0.802422 12.9664 0.531118 13.3094 0.262219 14.0478C-0.147996 15.1742 -0.0699079 16.3698 0.483335 17.4332C0.937272 18.3057 1.94846 19.2676 2.81534 19.6515C4.10644 20.2233 5.70299 20.081 6.87484 19.2898C7.01504 19.1952 7.77978 18.4725 8.57418 17.6839L10.0185 16.2502L11.3535 17.5888C12.0877 18.325 12.8327 19.0377 13.0091 19.1724C14.2388 20.1116 15.9737 20.2656 17.3919 19.5615C18.2343 19.1433 19.1653 18.2041 19.5851 17.349C19.9377 16.631 20.0109 16.301 20.0073 15.4468C20.0045 14.7769 19.9918 14.6888 19.8307 14.2174C19.5302 13.3384 19.3243 13.0688 17.7193 11.4515L16.2738 9.99502L17.7182 8.53856C18.5317 7.71834 19.254 6.942 19.3717 6.7614C19.6378 6.35327 19.9099 5.63199 19.9892 5.12482C20.0618 4.66014 20.0244 3.90096 19.9065 3.44761C19.6939 2.62985 19.0831 1.71743 18.3065 1.05751C17.7871 0.616024 17.4144 0.39726 16.8446 0.199287C16.442 0.0594133 16.2786 0.0331169 15.6792 0.0117911C14.8906 -0.0162693 14.3671 0.0811668 13.747 0.371338C13.168 0.642321 12.9389 0.835911 11.4578 2.30611L10.0135 3.73986L8.67851 2.40125C7.94429 1.665 7.19927 0.952374 7.0229 0.817684C6.61225 0.50405 6.06654 0.244398 5.53115 0.107944C4.97085 -0.0348695 4.02883 -0.0361524 3.49531 0.105165ZM5.56776 0.901278C6.41161 1.20091 6.09236 0.90534 12.6138 7.42528L18.6857 13.4959L18.9045 13.9502C19.3226 14.8183 19.3884 15.6948 19.1001 16.5539C18.8994 17.1518 18.6399 17.5463 18.088 18.0924C17.3034 18.8691 16.6587 19.1756 15.7015 19.2274C15.0509 19.2626 14.5325 19.1541 13.9291 18.8566C13.4925 18.6414 13.458 18.6081 7.54076 12.7008C3.11016 8.27768 1.5244 6.66199 1.3291 6.37203C0.934011 5.78533 0.779813 5.25838 0.778316 4.48985C0.777301 3.95644 0.796542 3.81875 0.924177 3.44814C1.10938 2.91045 1.34401 2.52295 1.75765 2.07147C2.3435 1.43213 2.95067 1.04019 3.64828 0.850876C4.15625 0.713033 5.10816 0.738046 5.56776 0.901278ZM16.5634 0.900796C17.1036 1.07509 17.5603 1.37381 18.0872 1.89761C18.6402 2.44743 18.9012 2.84396 19.1001 3.43612C19.3892 4.29738 19.3226 5.175 18.9027 6.03985C18.6921 6.47364 18.6155 6.56129 17.2085 7.97863L15.735 9.46316L13.1427 6.86824L10.5505 4.27333L12.0203 2.81537C13.6297 1.21887 13.8185 1.07808 14.6508 0.853174C15.1657 0.713995 16.0529 0.736122 16.5634 0.900796ZM3.6587 3.70004C3.54715 3.85927 3.55389 3.96547 3.68446 4.10561C3.81311 4.24372 3.93497 4.25366 4.09804 4.13939C4.23915 4.04062 4.25753 3.78989 4.13289 3.6652C4.0082 3.54055 3.75747 3.55894 3.6587 3.70004ZM15.8991 3.6652C15.7655 3.79887 15.7928 4.04516 15.9529 4.15008C16.2489 4.34399 16.5779 4.01496 16.384 3.71896C16.2791 3.55889 16.0328 3.53157 15.8991 3.6652ZM5.21394 3.73243C5.0971 3.86151 5.10154 4.07744 5.22324 4.1876C5.43361 4.37798 5.73121 4.2419 5.73121 3.95537C5.73121 3.66439 5.40336 3.52308 5.21394 3.73243ZM14.4 3.70726C14.3382 3.75253 14.3008 3.84606 14.3008 3.95537C14.3008 4.27274 14.649 4.38974 14.8464 4.13869C15.0827 3.83837 14.7115 3.47957 14.4 3.70726ZM3.81065 5.11739C3.59087 5.26902 3.62449 5.63573 3.86367 5.69575C4.1911 5.77795 4.41686 5.4958 4.2276 5.24107C4.1253 5.10344 3.91942 5.04234 3.81065 5.11739ZM15.8606 5.1688C15.7181 5.33439 15.7051 5.3865 15.7702 5.52937C15.8849 5.78111 16.258 5.77325 16.3553 5.51707C16.4634 5.23273 16.0536 4.94427 15.8606 5.1688ZM5.29774 5.21445C5.15664 5.31322 5.13826 5.56395 5.2629 5.68864C5.38759 5.81328 5.63832 5.7949 5.73709 5.65379C5.84906 5.49393 5.84185 5.36656 5.71341 5.23813C5.58498 5.10969 5.45761 5.10247 5.29774 5.21445ZM14.3186 5.23813C14.1902 5.36656 14.1829 5.49393 14.2949 5.65379C14.3937 5.7949 14.6444 5.81328 14.7691 5.68864C14.8937 5.56395 14.8754 5.31322 14.7343 5.21445C14.5744 5.10247 14.447 5.10969 14.3186 5.23813ZM6.81749 5.29451C6.73561 5.35892 6.67548 5.45951 6.67548 5.53209C6.67548 5.69698 6.9207 5.89287 7.07137 5.84835C7.21563 5.80569 7.31686 5.67528 7.31686 5.53209C7.31686 5.25731 7.03519 5.12326 6.81749 5.29451ZM12.8904 5.23919C12.6546 5.33407 12.6707 5.73803 12.914 5.83055C13.0613 5.88656 13.2809 5.78576 13.3385 5.63573C13.3911 5.49853 13.3092 5.31151 13.1682 5.24727C13.0926 5.21284 13.0259 5.18623 13.02 5.18804C13.014 5.18992 12.9557 5.21295 12.8904 5.23919ZM8.97376 6.31094C8.80155 6.3886 8.39705 6.75622 7.54909 7.60589C6.41407 8.74327 6.36121 8.80548 6.27398 9.1065C6.17109 9.4615 6.19418 9.73591 6.35255 10.04C6.48248 10.2894 9.7951 13.5888 10.0371 13.7098C10.2698 13.8263 10.758 13.8274 11.0338 13.7122C11.1764 13.6527 11.6261 13.246 12.4138 12.4642C13.6497 11.2376 13.8359 10.9887 13.837 10.5624C13.8384 10.0452 13.8273 10.031 11.971 8.15838C10.8199 6.99716 10.1573 6.36808 10.016 6.30217C9.72909 6.16845 9.28157 6.17219 8.97376 6.31094ZM14.3716 6.69924C14.199 6.78668 14.1366 6.90849 14.1786 7.07573C14.2463 7.34543 14.6418 7.38589 14.7562 7.13485C14.8852 6.85178 14.6333 6.56653 14.3716 6.69924ZM5.31635 6.7652C5.13697 6.94462 5.29748 7.32261 5.55307 7.32261C5.69813 7.32261 5.87376 7.13688 5.87376 6.98348C5.87376 6.72581 5.50154 6.58005 5.31635 6.7652ZM11.376 8.63017C13.0356 10.2873 13.0601 10.3151 13.0601 10.5298C13.0601 10.7425 13.0324 10.7754 11.9097 11.8947C10.8038 12.9972 10.7511 13.0416 10.5499 13.0416C10.3466 13.0416 10.2925 12.9936 8.67322 11.3772C7.57448 10.2805 6.99687 9.66626 6.97966 9.5761C6.96522 9.50079 6.97672 9.37786 7.0051 9.30292C7.06405 9.14723 8.97077 7.20235 9.21428 7.04949C9.57457 6.82335 9.54459 6.80143 11.376 8.63017ZM8.01169 17.1746C6.45233 18.7215 6.2913 18.8458 5.49962 19.1143C5.05391 19.2654 3.99922 19.256 3.49531 19.0963C2.93485 18.9188 2.48417 18.6271 1.94397 18.0924C1.39217 17.5463 1.13594 17.1567 0.924177 16.5419C0.796542 16.1713 0.777301 16.0336 0.778316 15.5002C0.779332 14.9821 0.801726 14.8177 0.920863 14.4538C1.15128 13.7502 1.38271 13.4551 2.89861 11.9319L4.29564 10.5282L6.88858 13.1224L9.48152 15.7166L8.01169 17.1746ZM14.3949 12.7229C14.1191 12.825 14.0896 13.0936 14.3344 13.2756C14.4723 13.3782 14.495 13.3805 14.6284 13.306C14.9679 13.1164 14.7568 12.589 14.3949 12.7229ZM5.31346 12.8077C5.18032 12.9409 5.22869 13.2083 5.40363 13.306C5.53698 13.3805 5.55975 13.3782 5.69759 13.2756C5.7798 13.2145 5.855 13.1108 5.86467 13.0452C5.90385 12.7807 5.51009 12.6112 5.31346 12.8077ZM6.76394 14.2617C6.7153 14.3155 6.67548 14.4117 6.67548 14.4755C6.67548 14.621 6.85475 14.8054 6.99617 14.8054C7.14123 14.8054 7.31686 14.6196 7.31686 14.4662C7.31686 14.2007 6.94401 14.0628 6.76394 14.2617ZM12.8036 14.2617C12.755 14.3155 12.7151 14.4117 12.7151 14.4755C12.7151 14.621 12.8944 14.8054 13.0358 14.8054C13.1809 14.8054 13.3565 14.6196 13.3565 14.4662C13.3565 14.2007 12.9837 14.0628 12.8036 14.2617ZM5.2629 14.3014C5.07492 14.4894 5.22436 14.8588 5.48839 14.8588C5.62458 14.8588 5.82031 14.6638 5.82031 14.528C5.82031 14.2813 5.43837 14.126 5.2629 14.3014ZM14.3186 14.3243C14.1953 14.4476 14.1882 14.5006 14.2732 14.6619C14.3503 14.8086 14.4222 14.8569 14.5642 14.858C14.8096 14.8598 14.949 14.4813 14.7691 14.3014C14.6534 14.1857 14.4467 14.1962 14.3186 14.3243ZM3.73582 14.3778C3.67703 14.4366 3.62893 14.5328 3.62893 14.5916C3.62893 14.7383 3.8153 14.9123 3.97255 14.9123C4.1447 14.9123 4.27031 14.7789 4.27031 14.5961C4.27031 14.3045 3.94288 14.1707 3.73582 14.3778ZM15.8502 14.3686C15.7384 14.4921 15.7362 14.7188 15.8457 14.8283C15.9704 14.9529 16.2211 14.9346 16.3199 14.7935C16.4318 14.6336 16.4246 14.5062 16.2962 14.3778C16.1628 14.2444 15.9662 14.2404 15.8502 14.3686ZM5.18283 15.8548C5.05012 16.0235 5.046 16.0806 5.15525 16.2366C5.24483 16.3645 5.43901 16.3916 5.61004 16.3001C5.74607 16.2273 5.74954 15.9236 5.61565 15.8024C5.4737 15.674 5.30945 15.6938 5.18283 15.8548ZM14.4093 15.8092C14.2945 15.9361 14.2926 16.1614 14.4054 16.2743C14.5386 16.4074 14.806 16.3591 14.9037 16.1841C14.9782 16.0508 14.9759 16.028 14.8734 15.8902C14.7379 15.7078 14.5333 15.6721 14.4093 15.8092ZM3.75079 15.822C3.61391 15.877 3.53497 16.1184 3.61295 16.2434C3.70408 16.3894 3.90157 16.463 4.02642 16.3974C4.17346 16.32 4.21504 16.25 4.21606 16.0778C4.21654 15.989 4.17137 15.902 4.09804 15.8507C3.9648 15.7573 3.9206 15.7536 3.75079 15.822ZM15.922 15.8743C15.71 16.0864 15.8363 16.4088 16.1313 16.4088C16.3043 16.4088 16.4565 16.263 16.4565 16.0973C16.4565 15.9518 16.2773 15.7674 16.1358 15.7674C16.077 15.7674 15.9808 15.8155 15.922 15.8743Z" fill="#757575"/>
</svg>
