<svg width="16" height="20" viewBox="0 0 16 20" fill="none" xmlns="http://www.w3.org/2000/svg">
<path fill-rule="evenodd" clip-rule="evenodd" d="M1.05815 0.0747967C0.930879 0.118719 0.754019 0.204648 0.66512 0.265803C0.57626 0.326957 0.43664 0.451025 0.354931 0.541487C0.273183 0.631988 0.159901 0.804901 0.103162 0.925804L0 1.14561V9.97689V18.8082L0.124029 19.07C0.192256 19.214 0.325624 19.4094 0.420424 19.5042C0.515223 19.599 0.670396 19.722 0.765313 19.7776C0.86019 19.8332 1.04264 19.906 1.17073 19.9394C1.37647 19.9929 2.12408 20 7.58083 20C13.0203 20 13.7859 19.9928 13.9909 19.9397C14.119 19.9066 14.3181 19.8231 14.4334 19.7541C14.5487 19.6852 14.7047 19.5584 14.7802 19.4725C14.8557 19.3865 14.9723 19.2019 15.0395 19.0622L15.1617 18.8082V9.99643V1.18469L15.038 0.923655C14.97 0.780127 14.84 0.582009 14.7492 0.483458C14.6463 0.371856 14.4726 0.249234 14.2887 0.158342L13.9934 0.0123916L7.64148 0.00367729C1.33556 -0.0049586 1.28784 -0.00445033 1.05815 0.0747967ZM13.8566 0.896926C13.9296 0.921349 14.0374 0.985864 14.0961 1.04034C14.1549 1.09481 14.23 1.2111 14.2631 1.29879C14.3168 1.44095 14.3222 2.38922 14.3127 10.0579L14.302 18.6576L14.198 18.8147C14.1408 18.9011 14.0265 19.0053 13.944 19.0463C13.7987 19.1184 13.6036 19.1211 7.73714 19.1324C4.40587 19.1388 1.58885 19.1333 1.47709 19.1201C1.36537 19.1069 1.2159 19.0576 1.14494 19.0104C1.07402 18.9633 0.976403 18.8465 0.928066 18.7507L0.840144 18.5767V10.0064C0.840144 2.38238 0.846787 1.42028 0.900243 1.2923C0.933302 1.21321 0.990471 1.11458 1.02724 1.07312C1.06405 1.0317 1.16448 0.965505 1.25045 0.926038C1.39999 0.857342 1.67294 0.854216 7.56524 0.853395C12.0607 0.85277 13.7596 0.864532 13.8566 0.896926ZM4.95958 2.44799C4.89339 2.48957 4.81664 2.57811 4.78905 2.64478C4.75943 2.71629 4.74924 2.82136 4.7642 2.90104C4.77944 2.98244 4.83677 3.07587 4.90843 3.13616C4.99288 3.20721 5.07287 3.2362 5.18455 3.2362C5.31123 3.2362 5.36754 3.21041 5.47461 3.10334C5.58235 2.99561 5.60747 2.94027 5.60747 2.81089C5.60747 2.69198 5.58008 2.62063 5.50001 2.53103C5.42416 2.44615 5.34656 2.40512 5.23625 2.3916C5.12386 2.37781 5.0461 2.39367 4.95958 2.44799ZM7.36126 2.43525C7.30499 2.46585 7.22825 2.55557 7.19069 2.6347C7.13368 2.75486 7.12977 2.80296 7.16697 2.9271C7.19144 3.00885 7.2574 3.11182 7.31351 3.15594C7.37119 3.2013 7.47353 3.2362 7.54899 3.2362C7.62237 3.2362 7.7305 3.21131 7.78931 3.18091C7.84812 3.15051 7.91685 3.08458 7.94213 3.03437C7.96738 2.9842 7.99082 2.91675 7.99422 2.88451C7.99762 2.85227 7.99833 2.78455 7.99575 2.73407C7.99321 2.68358 7.93135 2.58245 7.85828 2.50938C7.75883 2.40993 7.69251 2.37691 7.59451 2.37808C7.52249 2.37894 7.41757 2.40465 7.36126 2.43525ZM9.80381 2.41481C9.75845 2.43314 9.68369 2.49597 9.63774 2.55439C9.5826 2.62446 9.55451 2.71527 9.55505 2.8214C9.55556 2.9144 9.5844 3.01733 9.62344 3.06555C9.6606 3.11139 9.72937 3.16856 9.7763 3.19255C9.82327 3.21654 9.92198 3.2362 9.99572 3.2362C10.0698 3.2362 10.1735 3.20185 10.2275 3.15938C10.2812 3.11713 10.3476 3.02827 10.3751 2.96196C10.4146 2.86661 10.4152 2.80874 10.3782 2.68522C10.3468 2.58014 10.2906 2.50418 10.2066 2.45295C10.1379 2.41106 10.0378 2.37785 9.98404 2.37914C9.93031 2.38042 9.84922 2.39649 9.80381 2.41481ZM7.164 7.18456C6.95624 7.20004 6.64851 7.2433 6.48017 7.28065C6.31183 7.31805 6.02461 7.40128 5.84193 7.46564C5.65925 7.52996 5.40427 7.6355 5.27532 7.70014C5.14637 7.76477 4.90019 7.90928 4.72825 8.02127C4.55631 8.1333 4.2938 8.32896 4.14484 8.45615C3.99592 8.58331 3.74095 8.84793 3.57823 9.04421C3.41556 9.24045 3.19958 9.54064 3.09833 9.71121C2.99709 9.88181 2.85098 10.1693 2.77365 10.35C2.69628 10.5307 2.59851 10.802 2.55634 10.9529C2.51418 11.1039 2.45377 11.3856 2.42208 11.579C2.39039 11.7725 2.36444 12.1329 2.36444 12.3801C2.36444 12.6272 2.39019 12.9882 2.42168 13.1823C2.45314 13.3764 2.5241 13.6911 2.57936 13.8818C2.63461 14.0725 2.73992 14.3586 2.81339 14.5176C2.88689 14.6767 3.01233 14.9158 3.09216 15.049C3.17199 15.1823 3.34788 15.4343 3.48304 15.609C3.61817 15.7838 3.86497 16.0522 4.03148 16.2056C4.19795 16.3591 4.458 16.5701 4.60938 16.6746C4.76072 16.7791 5.04282 16.9439 5.23625 17.0409C5.42967 17.1378 5.71571 17.2627 5.87186 17.3184C6.02805 17.3741 6.33578 17.4576 6.5557 17.504C6.86503 17.5692 7.09281 17.5885 7.56129 17.5891C8.03322 17.5896 8.2533 17.5714 8.55774 17.5065C8.77267 17.4608 9.06281 17.3868 9.20251 17.3423C9.3422 17.2977 9.66752 17.157 9.92542 17.0296C10.1833 16.9023 10.5451 16.6843 10.7294 16.5454C10.9137 16.4065 11.2126 16.1369 11.3937 15.9463C11.5748 15.7557 11.8079 15.4728 11.9116 15.3176C12.0154 15.1625 12.1758 14.882 12.2681 14.6945C12.3604 14.5069 12.4813 14.2128 12.5369 14.0408C12.5925 13.8689 12.6691 13.5788 12.7073 13.3961C12.7584 13.1514 12.7767 12.8838 12.7768 12.3801C12.7769 11.8064 12.7623 11.6302 12.6857 11.2865C12.6356 11.0611 12.5443 10.7389 12.4829 10.5705C12.4214 10.4022 12.2932 10.1179 12.198 9.93891C12.1028 9.7599 11.9289 9.48421 11.8116 9.32627C11.6942 9.16828 11.5152 8.94715 11.4136 8.83484C11.312 8.72253 11.0939 8.5218 10.9289 8.38882C10.7638 8.25584 10.5321 8.085 10.4139 8.00919C10.2957 7.93338 10.0495 7.79783 9.86681 7.70791C9.68412 7.61804 9.42204 7.5062 9.28441 7.45939C9.14678 7.41257 8.89236 7.34036 8.71901 7.29898C8.54571 7.2576 8.27143 7.21387 8.10958 7.20184C7.94772 7.18984 7.75375 7.17472 7.67852 7.16823C7.6033 7.16174 7.37177 7.16909 7.164 7.18456ZM8.66626 8.17339C8.87641 8.22822 9.21462 8.35185 9.41786 8.44814C9.62109 8.54442 9.91839 8.71374 10.0785 8.82445C10.2386 8.93511 10.5162 9.17817 10.6955 9.36452C10.8747 9.55088 11.1067 9.83223 11.2111 9.98971C11.3154 10.1472 11.4678 10.4286 11.5497 10.6149C11.6315 10.8013 11.7353 11.0945 11.7802 11.2664C11.8252 11.4383 11.8816 11.7626 11.9055 11.9869C11.9381 12.2919 11.9375 12.5011 11.9032 12.8168C11.8781 13.0488 11.8133 13.3911 11.7594 13.5773C11.7054 13.7635 11.6005 14.0474 11.5261 14.2082C11.4519 14.3691 11.2939 14.6466 11.1752 14.8251C11.0565 15.0035 10.8301 15.28 10.6722 15.4395C10.5142 15.599 10.2728 15.8092 10.1357 15.9068C9.99853 16.0043 9.77205 16.146 9.63235 16.2217C9.49265 16.2974 9.2256 16.4127 9.03893 16.4779C8.85222 16.5431 8.55575 16.6237 8.38006 16.657C8.19851 16.6914 7.85015 16.7176 7.5729 16.7176C7.23473 16.7176 6.96432 16.693 6.69126 16.6373C6.47462 16.5932 6.16107 16.5045 5.99452 16.4403C5.82794 16.376 5.54073 16.2319 5.35629 16.12C5.17181 16.0081 4.89151 15.8081 4.73337 15.6755C4.57527 15.543 4.32784 15.288 4.18357 15.1089C4.01647 14.9015 3.83774 14.613 3.69128 14.3144C3.56483 14.0565 3.42591 13.7075 3.38261 13.5389C3.33932 13.3704 3.28356 13.0802 3.2587 12.8942C3.23342 12.7051 3.22346 12.3836 3.23604 12.1652C3.24846 11.9502 3.28512 11.6513 3.31755 11.5009C3.34995 11.3504 3.41876 11.1042 3.47046 10.9538C3.52212 10.8034 3.62684 10.5572 3.70316 10.4067C3.77944 10.2563 3.92922 10.0101 4.03597 9.85966C4.14273 9.70921 4.33592 9.47819 4.46535 9.34627C4.59473 9.21439 4.81754 9.01791 4.96052 8.90967C5.1035 8.80143 5.37403 8.63356 5.56164 8.53665C5.74928 8.43974 6.03688 8.31544 6.20081 8.26042C6.36473 8.2054 6.63678 8.13435 6.80536 8.10251C7.0193 8.0621 7.28897 8.04901 7.69806 8.05913C8.16718 8.07074 8.36049 8.09356 8.66626 8.17339ZM7.33399 9.62848C7.281 9.66561 6.98808 10.2053 6.6024 10.9764C6.1275 11.9259 5.95916 12.2993 5.95916 12.4033C5.95916 12.5115 5.99007 12.5751 6.09202 12.6771L6.22488 12.8099H7.14626H8.06769L7.59275 13.7652C7.11957 14.7169 7.11797 14.721 7.16463 14.8768C7.19042 14.9627 7.2574 15.0692 7.31351 15.1133C7.37912 15.165 7.47329 15.1936 7.57739 15.1936C7.66645 15.1936 7.77907 15.1657 7.82768 15.1317C7.88067 15.0946 8.17358 14.5549 8.55927 13.7838C9.02236 12.858 9.20251 12.4596 9.20251 12.3614C9.20251 12.2659 9.16831 12.1867 9.08856 12.0974L8.97457 11.9698L8.03432 11.9581L7.09402 11.9463L7.54707 11.0409C7.88903 10.3575 7.99962 10.0998 7.99809 9.99021C7.997 9.9103 7.96835 9.80261 7.93447 9.75087C7.90056 9.69913 7.82826 9.63649 7.77383 9.61168C7.7194 9.58687 7.61803 9.56659 7.54859 9.56659C7.47919 9.56659 7.3826 9.59445 7.33399 9.62848Z" fill="#757575"/>
</svg>
