<svg width="27" height="22" viewBox="0 0 27 22" fill="none" xmlns="http://www.w3.org/2000/svg">
<path fill-rule="evenodd" clip-rule="evenodd" d="M1.03908 1.03954C1.0171 1.06152 0.999533 5.53032 1.00001 10.9702C1.00055 16.41 1.0224 20.8946 1.04866 20.9359C1.086 20.9948 1.59958 21.0077 3.41491 20.9955L5.73352 20.9799L5.74877 16.2902L5.76401 11.6004H7.19291H8.6218L8.6227 16.2306C8.62323 18.7772 8.64509 20.8946 8.67135 20.936C8.70946 20.996 10.0577 21.0081 15.336 20.9956C21.9169 20.98 21.9537 20.9792 22.1175 20.8569C22.2081 20.7893 22.3641 20.6328 22.4642 20.5091L22.6464 20.2841L22.6631 17.8572L22.6799 15.4303L22.9797 15.2899C23.1446 15.2127 23.3652 15.0544 23.4698 14.9382C23.5745 14.822 24.0994 14.0042 24.6363 13.1208C25.1732 12.2374 25.6681 11.3933 25.7361 11.2449C25.8257 11.0494 25.86 10.8522 25.8609 10.5285C25.862 10.149 25.8342 10.0237 25.676 9.69475C25.5736 9.48185 24.6048 7.75334 23.5231 5.85363C22.4183 3.91341 21.4462 2.27442 21.305 2.11404C21.1668 1.957 20.9296 1.76644 20.7781 1.69057C20.6265 1.6147 19.9397 1.42824 19.2519 1.2762C18.564 1.12423 17.9464 0.999881 17.8794 1C17.8123 1.00006 17.6515 1.10958 17.5221 1.24339C17.3926 1.3772 17.0723 1.6496 16.8102 1.84874C16.5482 2.04782 16.0867 2.32831 15.7846 2.47195C15.4825 2.61559 14.9867 2.7961 14.6829 2.87298C14.379 2.9498 13.9696 3.02216 13.7731 3.03371L13.4158 3.05467L13.386 2.04228L13.3562 1.0299L7.21762 1.01471C3.84142 1.00637 1.06111 1.01757 1.03908 1.03954ZM12.9691 1.8934V2.36982H7.19255H1.41598V1.8934V1.41698H7.19255H12.9691V1.8934ZM19.2898 1.74339C19.9471 1.89019 20.5697 2.06271 20.6733 2.12679C20.777 2.19087 20.9188 2.30527 20.9884 2.38102C21.058 2.45671 22.0747 4.20677 23.2476 6.27002C25.2571 9.80474 25.3816 10.041 25.4049 10.3622C25.4185 10.5497 25.4128 10.791 25.3924 10.8987C25.3719 11.0062 24.8925 11.8518 24.327 12.7777C23.7615 13.7037 23.2198 14.5449 23.1233 14.6472C23.0268 14.7495 22.8607 14.8696 22.7543 14.9141C22.6048 14.9765 22.1203 14.9949 20.6235 14.9949H18.6861V12.8808V10.7667H20.8823C22.8134 10.7667 23.0879 10.7553 23.1567 10.6724C23.2135 10.6039 23.2178 10.5508 23.1724 10.4788C23.1174 10.3916 22.9409 10.3777 21.713 10.3636L20.3161 10.3477L19.3076 8.57707C18.4268 7.03085 18.281 6.80646 18.1567 6.80646C18.0783 6.80646 17.9883 6.84761 17.9566 6.89793C17.9128 6.96731 18.1161 7.37191 18.7966 8.56998C19.2903 9.43927 19.7114 10.1949 19.7322 10.2492C19.7668 10.3392 19.6333 10.3492 18.2008 10.3637L16.6316 10.3796L16.616 12.8441C16.6048 14.6139 16.6195 15.3315 16.668 15.39C16.7233 15.4566 17.2355 15.4713 19.4974 15.4713H22.2593V17.7064C22.2593 19.517 22.2429 19.9806 22.1735 20.1468C22.1263 20.2597 21.9991 20.406 21.8906 20.4722C21.6979 20.5897 21.601 20.5924 17.5395 20.5926L13.3855 20.5928L13.4006 13.015L13.4158 5.43724L13.7731 5.39311C13.9696 5.36881 14.317 5.29253 14.5452 5.2235C14.7733 5.15448 15.1216 5.01698 15.3193 4.91794C15.517 4.81891 15.8402 4.6234 16.0375 4.48345C16.2349 4.3435 16.5757 4.03901 16.7948 3.80676C17.0138 3.5745 17.312 3.18134 17.4573 2.93301C17.6027 2.68473 17.7952 2.25548 17.8851 1.97904C17.975 1.70266 18.0589 1.47654 18.0716 1.47654C18.0843 1.47654 18.6325 1.59665 19.2898 1.74339ZM17.371 2.11506C17.3371 2.20421 17.2278 2.43003 17.1282 2.6169C17.0286 2.80378 16.8029 3.13161 16.6265 3.34546C16.4501 3.55926 16.1246 3.87149 15.903 4.03937C15.6814 4.20725 15.3125 4.43426 15.0832 4.54389C14.8539 4.65353 14.5056 4.78359 14.309 4.8329C14.1125 4.88221 13.8311 4.93104 13.6837 4.94146L13.4158 4.96034V4.24572V3.53109L13.8028 3.48875C14.0157 3.46546 14.3909 3.40222 14.6366 3.3482C14.8822 3.29419 15.3093 3.15925 15.5857 3.0483C15.862 2.93735 16.264 2.7419 16.4789 2.61393C16.6939 2.48595 16.9904 2.28514 17.1378 2.1677C17.2852 2.0502 17.4118 1.95385 17.4192 1.95355C17.4265 1.95319 17.4049 2.02591 17.371 2.11506ZM4.02139 7.12477L5.34643 11.4032V15.046V18.6887L3.39609 18.6731L1.44576 18.6574L1.43063 10.7518L1.41556 2.84624L2.05593 2.84636L2.69635 2.84642L4.02139 7.12477ZM11.2421 2.86387C11.2421 2.87357 10.6688 4.72934 9.96804 6.98786L8.69392 11.0942L7.20911 11.1101L5.72429 11.126L5.5024 10.4087L5.28057 9.69141L5.55421 9.38043C5.7047 9.2094 5.90664 8.90866 6.00299 8.71213C6.09935 8.51561 6.22203 8.18081 6.27562 7.96809C6.34697 7.68533 6.36537 7.42122 6.34417 6.98548C6.32243 6.54003 6.2764 6.28848 6.16152 5.98911C6.07708 5.76882 5.90033 5.43009 5.76871 5.23631C5.63716 5.04258 5.40122 4.77424 5.24442 4.64001C5.08762 4.50572 4.80575 4.3139 4.61811 4.21374C4.4304 4.11351 4.09947 3.99446 3.88264 3.94909C3.66581 3.90371 3.48197 3.85809 3.47399 3.84773C3.46607 3.83737 3.39151 3.60773 3.30831 3.33754L3.15705 2.84624H7.19958C9.42296 2.84624 11.2421 2.85416 11.2421 2.86387ZM12.9691 10.7675V18.6887L11.0188 18.6731L9.06844 18.6574L9.05308 15.0673L9.03772 11.4771L10.2322 7.62322C10.8891 5.50358 11.4945 3.56158 11.5774 3.30777L11.7283 2.84624H12.3487H12.9691V10.7675ZM4.32142 4.57724C4.54361 4.67842 4.84113 4.88632 5.05325 5.08862C5.29587 5.32004 5.47655 5.56456 5.61584 5.84999C5.73644 6.09708 5.85 6.45111 5.89127 6.70832C5.94481 7.04277 5.94505 7.25376 5.89205 7.6016C5.84875 7.88614 5.74585 8.21392 5.61787 8.47512C5.5052 8.70511 5.34726 8.95499 5.26687 9.0305L5.12079 9.16777L5.02824 8.88037C4.97739 8.72232 4.64949 7.66848 4.29968 6.53848C3.94987 5.40847 3.65032 4.44909 3.634 4.40645C3.61197 4.34892 3.64842 4.33897 3.77568 4.36786C3.86989 4.38924 4.11542 4.48345 4.32142 4.57724ZM18.2097 12.8808V14.9949H17.6142H17.0187V12.8808V10.7667H17.6142H18.2097V12.8808ZM5.34643 19.8484V20.5928H3.38121H1.41598V19.8484V19.104H3.38121H5.34643V19.8484ZM12.9691 19.8484V20.5928H11.0039H9.03867V19.8484V19.104H11.0039H12.9691V19.8484Z" fill="#757575" stroke="#757575" stroke-width="0.5"/>
</svg>
