<svg width="13" height="17" viewBox="0 0 13 17" fill="none" xmlns="http://www.w3.org/2000/svg">
<path fill-rule="evenodd" clip-rule="evenodd" d="M6.06906 1.00713C4.67345 1.14628 3.55997 1.65851 2.60502 2.60066C1.76335 3.43099 1.24876 4.42612 1.05956 5.58921C0.994237 5.99063 0.980329 6.65565 1.0294 7.03121C1.2736 8.90054 2.59842 11.4341 4.79643 14.2354C5.31983 14.9025 6.01049 15.7217 6.16678 15.8608C6.37521 16.0464 6.62479 16.0464 6.83322 15.8608C6.98951 15.7217 7.68017 14.9025 8.20357 14.2354C10.4016 11.4341 11.7264 8.90054 11.9706 7.03121C12.0197 6.65565 12.0058 5.99063 11.9404 5.58921C11.7512 4.42612 11.2366 3.43099 10.395 2.60066C9.54521 1.76227 8.54395 1.25357 7.36187 1.05961C7.10857 1.01806 6.29193 0.984902 6.06906 1.00713ZM7.1563 3.77703C7.69999 3.90416 8.2858 4.26929 8.63694 4.69992C9.09174 5.25765 9.29336 5.86819 9.25437 6.5695C9.21532 7.27123 8.95188 7.85928 8.45844 8.34612C7.99654 8.80179 7.42268 9.07323 6.78507 9.13756C5.42111 9.27525 4.17844 8.42264 3.81969 7.10302C3.74382 6.82392 3.71752 6.3016 3.76477 6.01242C3.96122 4.81048 4.92239 3.88792 6.15739 3.71589C6.41039 3.68065 6.86252 3.70833 7.1563 3.77703Z" stroke="#757575"/>
</svg>
