<svg width="15" height="14" viewBox="0 0 15 14" fill="none" xmlns="http://www.w3.org/2000/svg">
<path fill-rule="evenodd" clip-rule="evenodd" d="M1.0089 0.0469871C0.674683 0.134233 0.372822 0.36843 0.180197 0.689983C-0.01303 1.01252 -0.000996032 0.588077 0.000754362 7.01749C0.00220391 12.4022 0.00562264 12.823 0.0493004 12.9903C0.173168 13.4647 0.600948 13.8683 1.08767 13.9698C1.18965 13.9911 2.42174 14 5.24633 14H9.26003L9.39547 13.9325C9.79869 13.7316 9.79861 13.1764 9.39533 12.9739L9.26003 12.906H7.85794H6.45588L6.44797 12.0079L6.44007 11.1098L6.36447 11.0008C6.17376 10.7257 5.80509 10.6749 5.56022 10.8899C5.36653 11.0599 5.36103 11.0919 5.36035 12.0513L5.35975 12.906H3.31945H1.27914L1.18615 12.813L1.09316 12.72V10.1327V7.54543H3.22646H5.35975L5.36035 8.40011C5.36103 9.35949 5.36653 9.39152 5.56022 9.56155C5.80511 9.7766 6.17382 9.7257 6.36447 9.45059L6.44007 9.34152V6.99843V4.65533L6.36447 4.54626C6.17382 4.27115 5.80511 4.22025 5.56022 4.4353C5.36653 4.60534 5.36103 4.63737 5.36035 5.59675L5.35975 6.45143H3.22646H1.09316V3.86413V1.27683L1.18615 1.18384L1.27914 1.09085H3.31945H5.35975L5.36035 1.94553C5.36103 2.90491 5.36653 2.93694 5.56022 3.10698C5.80509 3.322 6.17376 3.27116 6.36447 2.99607L6.44007 2.88705L6.44797 1.98894L6.45588 1.09085H9.58911H12.7223L12.8153 1.18384L12.9083 1.27683V3.8778V6.47878H10.4385H7.96874L7.8333 6.54628C7.43008 6.74719 7.43016 7.30242 7.83344 7.50487L7.96874 7.57278H10.4385H12.9083V10.1464V12.72L12.8153 12.813L12.7223 12.906H11.9592C11.2026 12.906 11.1948 12.9066 11.0606 12.9735C10.6574 13.1744 10.6574 13.7296 11.0607 13.9321C11.1954 13.9997 11.1996 14 11.9824 14C12.4509 14 12.8275 13.9878 12.9138 13.9698C13.4264 13.8629 13.8652 13.424 13.9721 12.9115C14.0149 12.7062 14.0149 1.29064 13.9721 1.08535C13.8706 0.598634 13.467 0.170855 12.9926 0.0469871C12.8252 0.00328198 12.4065 0 7.00074 0C1.59498 0 1.17631 0.00328198 1.0089 0.0469871Z" fill="#757575"/>
</svg>
