<svg width="40" height="41" viewBox="0 0 40 41" fill="none" xmlns="http://www.w3.org/2000/svg">
<circle cx="20" cy="20.5" r="20" fill="#4095DA"/>
<path d="M7.28 25.5C7.14133 25.5 7.02933 25.4627 6.944 25.388C6.86933 25.3133 6.816 25.2067 6.784 25.068L4.72 14.796C4.70933 14.7533 4.704 14.716 4.704 14.684C4.704 14.652 4.704 14.6307 4.704 14.62C4.704 14.5347 4.736 14.46 4.8 14.396C4.864 14.332 4.93867 14.3 5.024 14.3H5.856C6.08 14.3 6.208 14.3907 6.24 14.572L7.872 22.828L9.6 17.164C9.632 17.068 9.68533 16.9827 9.76 16.908C9.84533 16.8227 9.96267 16.78 10.112 16.78H10.704C10.864 16.78 10.9813 16.8227 11.056 16.908C11.1307 16.9827 11.1787 17.068 11.2 17.164L12.944 22.828L14.56 14.572C14.592 14.3907 14.7253 14.3 14.96 14.3H15.792C15.8773 14.3 15.952 14.332 16.016 14.396C16.08 14.46 16.112 14.5347 16.112 14.62C16.112 14.6307 16.1067 14.652 16.096 14.684C16.096 14.716 16.096 14.7533 16.096 14.796L14.032 25.068C14 25.2067 13.9413 25.3133 13.856 25.388C13.7813 25.4627 13.6747 25.5 13.536 25.5H12.912C12.7627 25.5 12.6453 25.4627 12.56 25.388C12.4747 25.3133 12.416 25.2173 12.384 25.1L10.4 19.004L8.432 25.1C8.38933 25.2173 8.32533 25.3133 8.24 25.388C8.16533 25.4627 8.05333 25.5 7.904 25.5H7.28ZM20.9808 25.66C19.8714 25.66 18.9914 25.324 18.3408 24.652C17.6901 23.9693 17.3328 23.0413 17.2688 21.868C17.2581 21.7293 17.2528 21.5533 17.2528 21.34C17.2528 21.116 17.2581 20.9347 17.2688 20.796C17.3114 20.0387 17.4874 19.3773 17.7968 18.812C18.1061 18.236 18.5274 17.7933 19.0608 17.484C19.6048 17.1747 20.2394 17.02 20.9648 17.02C21.7754 17.02 22.4528 17.1907 22.9968 17.532C23.5514 17.8733 23.9728 18.3587 24.2608 18.988C24.5488 19.6173 24.6927 20.3533 24.6927 21.196V21.468C24.6927 21.5853 24.6554 21.676 24.5808 21.74C24.5168 21.804 24.4314 21.836 24.3248 21.836H18.7888C18.7888 21.8467 18.7888 21.868 18.7888 21.9C18.7888 21.932 18.7888 21.9587 18.7888 21.98C18.8101 22.4173 18.9061 22.828 19.0768 23.212C19.2474 23.5853 19.4928 23.8893 19.8128 24.124C20.1434 24.3587 20.5274 24.476 20.9648 24.476C21.3488 24.476 21.6688 24.4173 21.9248 24.3C22.1808 24.1827 22.3888 24.0547 22.5488 23.916C22.7088 23.7667 22.8154 23.6493 22.8688 23.564C22.9648 23.436 23.0394 23.3613 23.0928 23.34C23.1461 23.308 23.2314 23.292 23.3488 23.292H24.1328C24.2288 23.292 24.3088 23.324 24.3728 23.388C24.4474 23.4413 24.4794 23.5213 24.4688 23.628C24.4581 23.788 24.3728 23.9853 24.2128 24.22C24.0528 24.444 23.8234 24.668 23.5248 24.892C23.2368 25.116 22.8741 25.3027 22.4368 25.452C22.0101 25.5907 21.5248 25.66 20.9808 25.66ZM18.7888 20.732H23.1728V20.684C23.1728 20.204 23.0821 19.7773 22.9008 19.404C22.7301 19.0307 22.4794 18.7373 22.1488 18.524C21.8181 18.3 21.4234 18.188 20.9648 18.188C20.5061 18.188 20.1114 18.3 19.7808 18.524C19.4608 18.7373 19.2154 19.0307 19.0448 19.404C18.8741 19.7773 18.7888 20.204 18.7888 20.684V20.732ZM29.6459 25.66C29.0592 25.66 28.5525 25.5587 28.1259 25.356C27.6992 25.1427 27.3472 24.86 27.0699 24.508C26.8032 24.1453 26.6005 23.7347 26.4619 23.276C26.3339 22.8173 26.2592 22.332 26.2379 21.82C26.2272 21.6493 26.2219 21.4893 26.2219 21.34C26.2219 21.1907 26.2272 21.0307 26.2379 20.86C26.2592 20.3587 26.3339 19.8787 26.4619 19.42C26.6005 18.9613 26.8032 18.5507 27.0699 18.188C27.3472 17.8253 27.6992 17.5427 28.1259 17.34C28.5525 17.1267 29.0592 17.02 29.6459 17.02C30.2752 17.02 30.7979 17.132 31.2139 17.356C31.6299 17.58 31.9712 17.8573 32.2379 18.188V14.508C32.2379 14.4013 32.2699 14.316 32.3339 14.252C32.4085 14.1773 32.4992 14.14 32.6059 14.14H33.3739C33.4805 14.14 33.5659 14.1773 33.6299 14.252C33.7045 14.316 33.7419 14.4013 33.7419 14.508V25.132C33.7419 25.2387 33.7045 25.3293 33.6299 25.404C33.5659 25.468 33.4805 25.5 33.3739 25.5H32.6539C32.5365 25.5 32.4459 25.468 32.3819 25.404C32.3179 25.3293 32.2859 25.2387 32.2859 25.132V24.46C32.0192 24.8013 31.6725 25.0893 31.2459 25.324C30.8192 25.548 30.2859 25.66 29.6459 25.66ZM29.9819 24.364C30.5152 24.364 30.9419 24.2413 31.2619 23.996C31.5819 23.7507 31.8219 23.4413 31.9819 23.068C32.1419 22.684 32.2272 22.2947 32.2379 21.9C32.2485 21.7293 32.2539 21.5267 32.2539 21.292C32.2539 21.0467 32.2485 20.8387 32.2379 20.668C32.2272 20.2947 32.1365 19.9267 31.9659 19.564C31.8059 19.2013 31.5605 18.9027 31.2299 18.668C30.9099 18.4333 30.4939 18.316 29.9819 18.316C29.4379 18.316 29.0059 18.4387 28.6859 18.684C28.3659 18.9187 28.1365 19.2333 27.9979 19.628C27.8592 20.012 27.7792 20.428 27.7579 20.876C27.7472 21.1853 27.7472 21.4947 27.7579 21.804C27.7792 22.252 27.8592 22.6733 27.9979 23.068C28.1365 23.452 28.3659 23.7667 28.6859 24.012C29.0059 24.2467 29.4379 24.364 29.9819 24.364Z" fill="white"/>
</svg>
