<svg width="13" height="12" viewBox="0 0 13 12" fill="none" xmlns="http://www.w3.org/2000/svg">
<path fill-rule="evenodd" clip-rule="evenodd" d="M0.86477 0.0402747C0.5783 0.115057 0.319562 0.315798 0.154455 0.591414C-0.0111686 0.867875 -0.000853741 0.504066 0.000646596 6.01499C0.00188906 10.6304 0.00481941 10.9911 0.0422575 11.1345C0.14843 11.5412 0.515098 11.8871 0.932286 11.9741C1.0197 11.9923 2.07578 12 4.49685 12H7.93717L8.05326 11.9421C8.39888 11.7699 8.39881 11.294 8.05314 11.1205L7.93717 11.0623H6.73538H5.53361L5.52683 10.2925L5.52006 9.52269L5.45526 9.42924C5.2918 9.19346 4.97579 9.14988 4.7659 9.33418C4.59988 9.47993 4.59517 9.50738 4.59459 10.3297L4.59407 11.0623H2.84524H1.09641L1.0167 10.9826L0.936998 10.9029V8.68519V6.46751H2.76553H4.59407L4.59459 7.20009C4.59517 8.02242 4.59988 8.04987 4.7659 8.19561C4.97581 8.37994 5.29184 8.33632 5.45526 8.10051L5.52006 8.00702V5.99865V3.99029L5.45526 3.8968C5.29184 3.66099 4.97581 3.61736 4.7659 3.80169C4.59988 3.94743 4.59517 3.97488 4.59459 4.79721L4.59407 5.5298H2.76553H0.936998V3.31211V1.09443L1.0167 1.01472L1.09641 0.935015H2.84524H4.59407L4.59459 1.6676C4.59517 2.48993 4.59988 2.51738 4.7659 2.66312C4.97579 2.84743 5.2918 2.80385 5.45526 2.56806L5.52006 2.47462L5.52683 1.7048L5.53361 0.935015H8.21924H10.9049L10.9846 1.01472L11.0643 1.09443V3.32383V5.55324H8.9473H6.83035L6.71426 5.6111C6.36864 5.78331 6.36871 6.25922 6.71437 6.43274L6.83035 6.49095H8.9473H11.0643V8.69691V10.9029L10.9846 10.9826L10.9049 11.0623H10.2507C9.60224 11.0623 9.59558 11.0628 9.4805 11.1201C9.13489 11.2924 9.13496 11.7683 9.48062 11.9418C9.59605 11.9997 9.59964 12 10.2707 12C10.6722 12 10.995 11.9895 11.069 11.9741C11.5083 11.8825 11.8845 11.5063 11.9761 11.067C12.0128 10.891 12.0128 1.10626 11.9761 0.930303C11.8891 0.513115 11.5432 0.146447 11.1365 0.0402747C10.993 0.00281313 10.6341 0 6.00064 0C1.36713 0 1.00826 0.00281313 0.86477 0.0402747Z" fill="#757575"/>
</svg>
