<svg width="9" height="16" viewBox="0 0 9 16" fill="none" xmlns="http://www.w3.org/2000/svg">
<path fill-rule="evenodd" clip-rule="evenodd" d="M0.0173753 8.46791C0.0324325 8.55072 0.0864126 8.67908 0.137381 8.75317C0.18835 8.82725 1.79695 10.446 3.71204 12.3505C6.45573 15.079 7.23392 15.8326 7.38223 15.9048C7.63983 16.0303 8.05062 16.0319 8.32704 15.9085C8.73889 15.7245 8.99351 15.3277 8.99505 14.8672C8.99674 14.3519 9.07105 14.4427 6.70142 12.0628L2.74349 8.02816C2.74349 8.02816 6.7417 4.16149 6.7417 4.12014C9.1015 1.75036 9.00356 1.87048 8.99814 1.35337C8.99456 1.01312 8.88378 0.753834 8.64757 0.532907C8.42261 0.322483 8.16939 0.224083 7.85277 0.224083C7.34229 0.224083 7.60723 -0.00971827 3.72412 3.86744C1.21849 6.36923 0.187898 7.42233 0.116075 7.55427C0.0374766 7.69867 0.0127828 7.80208 0.00280745 8.02816C-0.00419415 8.1872 0.00235575 8.38509 0.0173753 8.46791Z" fill="#757575"/>
</svg>
