<svg width="15" height="15" viewBox="0 0 15 15" fill="none" xmlns="http://www.w3.org/2000/svg">
<path d="M14.5 0.00367084C14.6909 0.0881015 14.8671 0.183545 14.9479 0.400128C15.0213 0.594686 14.9883 0.770889 14.9149 0.950763C13.9898 3.21204 13.0647 5.46964 12.1433 7.73091C11.2183 9.99218 10.2932 12.2498 9.3718 14.5111C9.27636 14.7497 9.13687 14.9369 8.86522 14.9883C8.52383 15.0507 8.2118 14.8598 8.14205 14.5147C8.02825 13.9384 7.92547 13.3547 7.81901 12.7747C7.54002 11.244 7.26104 9.71687 6.98939 8.1861C6.96736 8.06863 6.91964 8.03193 6.80952 8.0099C5.49533 7.77496 4.18115 7.53635 2.87064 7.29775C2.10342 7.15825 1.33621 7.01509 0.568989 6.88293C0.28633 6.83521 0.117469 6.66268 0 6.4204C0 6.31394 0 6.20382 0 6.09736C0.102785 5.86977 0.264305 5.72293 0.499242 5.62382C5.09154 3.75166 9.68016 1.87583 14.2688 0C14.3459 0.0036709 14.423 0.00367084 14.5 0.00367084Z" fill="#4095DA"/>
</svg>
