<svg width="18" height="18" viewBox="0 0 18 18" fill="none" xmlns="http://www.w3.org/2000/svg">
<path fill-rule="evenodd" clip-rule="evenodd" d="M11.1225 0.0500781C11.0064 0.0755712 10.8402 0.125432 10.7533 0.160806C10.6664 0.196215 10.4924 0.280149 10.3667 0.347345C10.2204 0.425583 10.0289 0.578963 9.83469 0.773555C9.58831 1.02043 9.50057 1.13886 9.36797 1.40371C9.2782 1.58311 9.18738 1.79876 9.16617 1.88298L9.12764 2.03604H4.79662H0.465643L0.308887 2.11516C0.207196 2.1665 0.123789 2.24368 0.0713964 2.33493C0.0092284 2.44323 -0.00606739 2.51458 0.00483311 2.64521C0.0126744 2.73965 0.0498417 2.85657 0.0886264 2.90893C0.126954 2.96069 0.210641 3.03861 0.274568 3.08214L0.390816 3.16126H4.75675H9.12268L9.16997 3.34576C9.19596 3.44724 9.27588 3.64359 9.34755 3.78206C9.41921 3.92053 9.55047 4.1263 9.63929 4.23928C9.72808 4.35226 9.87351 4.50553 9.96251 4.5799C10.0515 4.65427 10.2226 4.77481 10.3428 4.84781C10.4629 4.92081 10.6739 5.02116 10.8115 5.07081C10.9491 5.12046 11.1941 5.17926 11.3559 5.20148C11.5177 5.2237 11.753 5.23172 11.8787 5.21923C12.0044 5.20679 12.225 5.16508 12.369 5.12655C12.5129 5.08804 12.7582 4.99071 12.914 4.91026C13.1293 4.79911 13.2736 4.68768 13.5152 4.44611C13.7574 4.20387 13.8673 4.06132 13.9773 3.84693C14.0567 3.69222 14.1499 3.47463 14.1845 3.36344L14.2474 3.16126H15.9236H17.5998L17.7161 3.08214C17.78 3.03861 17.8637 2.96069 17.902 2.90893C17.9408 2.85657 17.978 2.73965 17.9858 2.64521C17.9967 2.51458 17.9814 2.44323 17.9192 2.33493C17.8668 2.24368 17.7834 2.1665 17.6817 2.11516C17.5259 2.0365 17.5159 2.03604 15.8848 2.03604H14.2445L14.1669 1.79869C14.1242 1.66813 14.034 1.46211 13.9664 1.34084C13.8989 1.21956 13.7668 1.02813 13.673 0.915472C13.5793 0.80281 13.4022 0.634591 13.2796 0.541655C13.157 0.44872 12.93 0.313097 12.7753 0.240239C12.6206 0.167417 12.372 0.0827796 12.223 0.0521879C12.0739 0.0216313 11.8129 -0.00182244 11.6428 0.000111524C11.4728 0.00208065 11.2386 0.0245498 11.1225 0.0500781ZM12.1321 1.1915C12.2562 1.22983 12.4451 1.32375 12.5518 1.40016C12.6586 1.4766 12.7858 1.59158 12.8347 1.65572C12.8836 1.71986 12.9653 1.85474 13.0163 1.95549C13.0674 2.05623 13.128 2.24888 13.1511 2.38359C13.1834 2.57214 13.1836 2.67967 13.1517 2.85091C13.129 2.97324 13.0623 3.171 13.0035 3.29037C12.9351 3.42934 12.8243 3.57368 12.6954 3.69172C12.5846 3.7931 12.4111 3.91409 12.3097 3.96061C12.2084 4.00713 12.0244 4.06195 11.9008 4.08242C11.7408 4.10893 11.6133 4.10858 11.458 4.08122C11.3381 4.06009 11.1537 4.00334 11.0483 3.95509C10.943 3.90689 10.7645 3.77942 10.6518 3.67186C10.5079 3.53462 10.4131 3.40325 10.3337 3.23102C10.2511 3.05186 10.2152 2.91441 10.2006 2.72144C10.1859 2.52723 10.1971 2.39639 10.2427 2.228C10.2768 2.10197 10.3639 1.90721 10.4363 1.79521C10.5087 1.68325 10.6374 1.53546 10.7222 1.46686C10.8071 1.39822 10.9155 1.32178 10.9632 1.29699C11.0109 1.2722 11.1296 1.22318 11.2269 1.18813C11.3334 1.14976 11.5042 1.12385 11.6552 1.12307C11.8097 1.1223 11.9933 1.14864 12.1321 1.1915ZM5.67242 6.46485C5.53705 6.50047 5.33574 6.56974 5.22508 6.61879C5.11446 6.66784 4.94831 6.7599 4.85587 6.8234C4.76346 6.88691 4.61849 7.0027 4.53371 7.08072C4.44893 7.15872 4.31267 7.3096 4.23089 7.41597C4.1491 7.52233 4.0339 7.70515 3.97487 7.82217C3.91583 7.93923 3.84146 8.12471 3.80956 8.23438L3.75162 8.43376L2.05096 8.4435C0.396056 8.45303 0.347742 8.45521 0.253259 8.52578C0.199882 8.56565 0.125794 8.639 0.0886264 8.68879C0.0514592 8.73855 0.013202 8.84882 0.00363769 8.93381C-0.00712215 9.02917 0.00638032 9.13663 0.0389412 9.21448C0.0679154 9.28389 0.151427 9.38625 0.224461 9.44198L0.357271 9.54332L2.05444 9.5531L3.75162 9.56284L3.80967 9.76256C3.8416 9.87241 3.90777 10.0421 3.95676 10.1396C4.0057 10.2371 4.11464 10.4141 4.19885 10.5329C4.28307 10.6517 4.44591 10.8336 4.56068 10.9373C4.67549 11.0409 4.8577 11.1789 4.96562 11.244C5.07349 11.3091 5.3004 11.4119 5.46985 11.4725C5.76656 11.5787 5.79799 11.5827 6.32294 11.5803C6.82109 11.578 6.89026 11.5697 7.12715 11.4842C7.2697 11.4328 7.48855 11.3335 7.61349 11.2636C7.73846 11.1938 7.95031 11.0332 8.08428 10.9068C8.21829 10.7804 8.3973 10.5722 8.48212 10.4442C8.56693 10.3162 8.67572 10.1165 8.72386 10.0004C8.77203 9.8844 8.82239 9.73823 8.83575 9.67557L8.86008 9.56171L13.2502 9.5525C17.6221 9.54336 17.6406 9.54301 17.7373 9.47082C17.7908 9.43094 17.8671 9.35464 17.9069 9.30123C17.9605 9.22946 17.9794 9.15129 17.9794 9.00178C17.9794 8.83296 17.9626 8.7774 17.8781 8.66657C17.8224 8.5935 17.724 8.51168 17.6595 8.48471C17.5613 8.44371 16.8342 8.43569 13.2065 8.43569H8.87081L8.79 8.17538C8.74556 8.0322 8.63163 7.78905 8.53683 7.635C8.42867 7.45922 8.25982 7.25647 8.08344 7.09053C7.87221 6.89183 7.72123 6.78652 7.47582 6.66675C7.29621 6.57912 7.0454 6.48239 6.91846 6.45184C6.77661 6.41766 6.53947 6.39698 6.30311 6.39818C6.04779 6.39948 5.83586 6.42188 5.67242 6.46485ZM6.93727 7.64558C7.04409 7.69611 7.21843 7.81689 7.32466 7.91398C7.45617 8.03417 7.55793 8.17169 7.64345 8.34472C7.74151 8.54315 7.77348 8.65704 7.78913 8.86397C7.80147 9.02699 7.79197 9.202 7.76451 9.3186C7.73993 9.42285 7.68188 9.5839 7.6355 9.67645C7.58912 9.769 7.4933 9.90881 7.42255 9.98711C7.3518 10.0654 7.22553 10.1765 7.14188 10.2341C7.05827 10.2916 6.89912 10.37 6.78825 10.4084C6.65252 10.4553 6.49386 10.4782 6.30258 10.4784C6.10092 10.4786 5.96213 10.4576 5.82419 10.4059C5.71729 10.366 5.55625 10.2845 5.4663 10.2249C5.37635 10.1653 5.24695 10.0514 5.17874 9.97168C5.11052 9.89196 5.01449 9.74459 4.96533 9.64413C4.91621 9.54371 4.85816 9.35731 4.83632 9.22992C4.80685 9.05793 4.80685 8.93866 4.83632 8.76668C4.85816 8.63928 4.91976 8.44547 4.97328 8.33593C5.02676 8.2264 5.15416 8.05308 5.25638 7.95076C5.36946 7.8375 5.53339 7.72199 5.67524 7.65564C5.80344 7.59565 5.99765 7.53675 6.10683 7.52473C6.21601 7.51273 6.40381 7.51432 6.52418 7.52828C6.64454 7.54224 6.83044 7.59502 6.93727 7.64558ZM11.2985 12.7972C11.1825 12.815 10.9727 12.87 10.8324 12.9194C10.692 12.9689 10.4846 13.0636 10.3714 13.1299C10.2582 13.1963 10.0848 13.3183 9.98603 13.4012C9.88726 13.4841 9.72832 13.65 9.63282 13.7698C9.53732 13.8896 9.40416 14.0977 9.33693 14.2321C9.26966 14.3665 9.19395 14.5572 9.16867 14.6559L9.12268 14.8353H4.75675H0.390816L0.274568 14.9145C0.210641 14.958 0.126954 15.0359 0.0886264 15.0877C0.0498417 15.14 0.0126744 15.2569 0.00483311 15.3514C-0.00606739 15.482 0.0092284 15.5534 0.0713964 15.6617C0.123789 15.7529 0.207196 15.8301 0.308887 15.8814L0.465643 15.9606H4.79662H9.12764L9.16617 16.1136C9.18738 16.1978 9.2782 16.4135 9.36797 16.5929C9.50057 16.8577 9.58831 16.9762 9.83469 17.223C10.0289 17.4176 10.2204 17.571 10.3667 17.6493C10.4924 17.7164 10.6664 17.8006 10.7535 17.8361C10.8405 17.8717 11.0278 17.9231 11.1697 17.9504C11.3116 17.9777 11.5457 18 11.6899 18C11.834 18 12.0739 17.975 12.223 17.9444C12.372 17.9138 12.6206 17.8291 12.7753 17.7562C12.93 17.6832 13.1546 17.5508 13.2743 17.4618C13.394 17.3728 13.5811 17.1925 13.69 17.061C13.7989 16.9296 13.9491 16.6955 14.0236 16.5407C14.0981 16.386 14.1767 16.1922 14.1982 16.11L14.2373 15.9606H15.8812C17.516 15.9606 17.5259 15.9601 17.6817 15.8814C17.7834 15.8301 17.8668 15.7529 17.9192 15.6617C17.9814 15.5534 17.9967 15.482 17.9858 15.3514C17.978 15.2569 17.9408 15.14 17.902 15.0877C17.8637 15.0359 17.78 14.958 17.7161 14.9145L17.5998 14.8353H15.9236H14.2474L14.1845 14.6332C14.1499 14.5219 14.0567 14.3044 13.9773 14.1497C13.8673 13.9353 13.7574 13.7927 13.5152 13.5505C13.274 13.3093 13.1292 13.1975 12.915 13.0869C12.7598 13.0067 12.5163 12.9089 12.3739 12.8694C12.2316 12.83 11.9789 12.7903 11.8123 12.7813C11.6458 12.7723 11.4145 12.7795 11.2985 12.7972ZM11.9504 13.9214C12.0532 13.9409 12.2175 13.9936 12.3156 14.0387C12.4138 14.0837 12.5846 14.2035 12.6954 14.3049C12.8243 14.4229 12.9351 14.5673 13.0035 14.7062C13.0623 14.8256 13.129 15.0234 13.1517 15.1457C13.1836 15.3169 13.1834 15.4245 13.1511 15.613C13.128 15.7477 13.0674 15.9404 13.0163 16.0411C12.9653 16.1419 12.8836 16.2767 12.8347 16.3409C12.7858 16.405 12.6581 16.5203 12.5509 16.5971C12.4434 16.674 12.247 16.7698 12.1131 16.8104C11.9194 16.8693 11.8118 16.8805 11.5807 16.8661C11.3542 16.852 11.242 16.8245 11.0662 16.74C10.9425 16.6806 10.7797 16.5807 10.7043 16.518C10.629 16.4553 10.5082 16.3126 10.436 16.2009C10.3638 16.0891 10.2768 15.8946 10.2427 15.7686C10.1971 15.6002 10.1859 15.4694 10.2006 15.2752C10.2152 15.0822 10.2511 14.9447 10.3337 14.7656C10.4131 14.5933 10.5079 14.462 10.6518 14.3247C10.7645 14.2172 10.9431 14.0897 11.0487 14.0413C11.1542 13.993 11.309 13.94 11.3926 13.9236C11.4762 13.9071 11.5939 13.8919 11.6541 13.8898C11.7143 13.8877 11.8477 13.9019 11.9504 13.9214Z" fill="#757575"/>
</svg>
