<svg xmlns="http://www.w3.org/2000/svg" fill="none" viewBox="28.12 6.81 27.76 42.81"><ellipse cx="41.8108" cy="44.2162" rx="10.8108" ry="5.40541" fill="url(#paint0_radial_692_166)" fill-opacity="0.2"></ellipse><g filter="url(#filter0_dd_692_166)"><path d="M30.25 28.0107C24.4819 18.7819 31.1169 6.81079 42 6.81079C52.8831 6.81079 59.5181 18.7819 53.75 28.0107L44.544 42.7404C43.369 44.6204 40.631 44.6204 39.456 42.7404L30.25 28.0107Z" fill="#00996b"></path></g><circle cx="42" cy="20.8108" r="10.75" fill="white" stroke="#00996b" stroke-width="1.5"></circle><path d="M47 20.3941V21.2275C47 21.9191 46.4417 22.4775 45.75 22.4775H43.6667V24.5608C43.6667 25.2525 43.1083 25.8108 42.4167 25.8108H41.5833C40.9 25.8108 40.3333 25.2525 40.3333 24.5608V22.4775H38.25C37.5667 22.4775 37 21.9191 37 21.2275V20.3941C37 19.7108 37.5667 19.1441 38.25 19.1441H40.3333V17.0608C40.3333 16.3775 40.9 15.8108 41.5833 15.8108H42.4167C43.1083 15.8108 43.6667 16.3775 43.6667 17.0608V19.1441H45.75C46.4417 19.1441 47 19.7108 47 20.3941Z" fill="#E43F12"></path><defs><filter id="filter0_dd_692_166" x="0.121582" y="0.810791" width="83.7568" height="93.3396" filterUnits="userSpaceOnUse" color-interpolation-filters="sRGB"><feFlood flood-opacity="0" result="BackgroundImageFix"></feFlood><feColorMatrix in="SourceAlpha" type="matrix" values="0 0 0 0 0 0 0 0 0 0 0 0 0 0 0 0 0 0 127 0" result="hardAlpha"></feColorMatrix><feOffset dy="22"></feOffset><feGaussianBlur stdDeviation="14"></feGaussianBlur><feColorMatrix type="matrix" values="0 0 0 0 0.196487 0 0 0 0 0.196487 0 0 0 0 0.279476 0 0 0 0.05 0"></feColorMatrix><feBlend mode="multiply" in2="BackgroundImageFix" result="effect1_dropShadow_692_166"></feBlend><feColorMatrix in="SourceAlpha" type="matrix" values="0 0 0 0 0 0 0 0 0 0 0 0 0 0 0 0 0 0 127 0" result="hardAlpha"></feColorMatrix><feOffset dy="13"></feOffset><feGaussianBlur stdDeviation="5"></feGaussianBlur><feColorMatrix type="matrix" values="0 0 0 0 0.196487 0 0 0 0 0.196487 0 0 0 0 0.279476 0 0 0 0.05 0"></feColorMatrix><feBlend mode="multiply" in2="effect1_dropShadow_692_166" result="effect2_dropShadow_692_166"></feBlend><feBlend mode="normal" in="SourceGraphic" in2="effect2_dropShadow_692_166" result="shape"></feBlend></filter><radialGradient id="paint0_radial_692_166" cx="0" cy="0" r="1" gradientUnits="userSpaceOnUse" gradientTransform="translate(41.8108 44.2162) rotate(90) scale(5.40541 10.8108)"><stop stop-color="#02020B"></stop><stop offset="1" stop-color="#02020B" stop-opacity="0"></stop></radialGradient></defs></svg>