<svg width="12" height="15" viewBox="0 0 12 15" fill="none" xmlns="http://www.w3.org/2000/svg">
<path fill-rule="evenodd" clip-rule="evenodd" d="M5.39319 1.00618C4.18366 1.12678 3.21864 1.57071 2.39102 2.38724C1.66157 3.10686 1.21559 3.96931 1.05162 4.97731C0.995006 5.32521 0.982951 5.90156 1.02548 6.22705C1.23712 7.84713 2.3853 10.0429 4.29024 12.4707C4.74385 13.0488 5.34242 13.7588 5.47788 13.8794C5.65851 14.0402 5.87482 14.0402 6.05546 13.8794C6.19091 13.7588 6.78948 13.0488 7.24309 12.4707C9.14804 10.0429 10.2962 7.84713 10.5079 6.22705C10.5504 5.90156 10.5383 5.32521 10.4817 4.97731C10.3177 3.96931 9.87176 3.10686 9.14232 2.38724C8.40584 1.66064 7.53809 1.21976 6.51362 1.05166C6.29409 1.01566 5.58634 0.986915 5.39319 1.00618ZM6.33546 3.40676C6.80666 3.51694 7.31436 3.83338 7.61868 4.20659C8.01284 4.68996 8.18758 5.2191 8.15378 5.8269C8.11994 6.43507 7.89163 6.94471 7.46398 7.36663C7.06367 7.76155 6.56632 7.9968 6.01373 8.05255C4.83163 8.17189 3.75465 7.43296 3.44373 6.28928C3.37798 6.0474 3.35518 5.59472 3.39614 5.34409C3.56639 4.30242 4.3994 3.50286 5.46974 3.35377C5.68901 3.32323 6.08085 3.34722 6.33546 3.40676Z" stroke="#757575"/>
</svg>
