<svg width="34" height="34" viewBox="0 0 34 34" fill="none" xmlns="http://www.w3.org/2000/svg">
<circle cx="17" cy="17" r="17" fill="#4095DA" fill-opacity="0.2"/>
<circle cx="17" cy="17" r="9" fill="white" stroke="#4095DA" stroke-width="1.5"/>
<path d="M22 16.5833V17.4167C22 18.1083 21.4417 18.6667 20.75 18.6667H18.6667V20.75C18.6667 21.4417 18.1083 22 17.4167 22H16.5833C15.9 22 15.3333 21.4417 15.3333 20.75V18.6667H13.25C12.5667 18.6667 12 18.1083 12 17.4167V16.5833C12 15.9 12.5667 15.3333 13.25 15.3333H15.3333V13.25C15.3333 12.5667 15.9 12 16.5833 12H17.4167C18.1083 12 18.6667 12.5667 18.6667 13.25V15.3333H20.75C21.4417 15.3333 22 15.9 22 16.5833Z" fill="#E43F12"/>
</svg>
