<svg xmlns="http://www.w3.org/2000/svg" fill="none" viewBox="28.12 6 27.76 42.81"><ellipse cx="41.8108" cy="43.4054" rx="10.8108" ry="5.40541" fill="url(#paint0_radial_692_150)" fill-opacity="0.2"></ellipse><g filter="url(#filter0_dd_692_150)"><path d="M30.25 27.1999C24.4819 17.9711 31.1169 6 42 6C52.8831 6 59.5181 17.9711 53.75 27.2L44.544 41.9296C43.369 43.8096 40.631 43.8096 39.456 41.9296L30.25 27.1999Z" fill="#4095DA"></path></g><circle cx="42" cy="20" r="10.75" fill="white" stroke="#4095DA" stroke-width="1.5"></circle><path d="M47 19.5833V20.4167C47 21.1083 46.4417 21.6667 45.75 21.6667H43.6667V23.75C43.6667 24.4417 43.1083 25 42.4167 25H41.5833C40.9 25 40.3333 24.4417 40.3333 23.75V21.6667H38.25C37.5667 21.6667 37 21.1083 37 20.4167V19.5833C37 18.9 37.5667 18.3333 38.25 18.3333H40.3333V16.25C40.3333 15.5667 40.9 15 41.5833 15H42.4167C43.1083 15 43.6667 15.5667 43.6667 16.25V18.3333H45.75C46.4417 18.3333 47 18.9 47 19.5833Z" fill="#E43F12"></path><defs><filter id="filter0_dd_692_150" x="0.121582" y="0" width="83.7568" height="93.3396" filterUnits="userSpaceOnUse" color-interpolation-filters="sRGB"><feFlood flood-opacity="0" result="BackgroundImageFix"></feFlood><feColorMatrix in="SourceAlpha" type="matrix" values="0 0 0 0 0 0 0 0 0 0 0 0 0 0 0 0 0 0 127 0" result="hardAlpha"></feColorMatrix><feOffset dy="22"></feOffset><feGaussianBlur stdDeviation="14"></feGaussianBlur><feColorMatrix type="matrix" values="0 0 0 0 0.196487 0 0 0 0 0.196487 0 0 0 0 0.279476 0 0 0 0.05 0"></feColorMatrix><feBlend mode="multiply" in2="BackgroundImageFix" result="effect1_dropShadow_692_150"></feBlend><feColorMatrix in="SourceAlpha" type="matrix" values="0 0 0 0 0 0 0 0 0 0 0 0 0 0 0 0 0 0 127 0" result="hardAlpha"></feColorMatrix><feOffset dy="13"></feOffset><feGaussianBlur stdDeviation="5"></feGaussianBlur><feColorMatrix type="matrix" values="0 0 0 0 0.196487 0 0 0 0 0.196487 0 0 0 0 0.279476 0 0 0 0.05 0"></feColorMatrix><feBlend mode="multiply" in2="effect1_dropShadow_692_150" result="effect2_dropShadow_692_150"></feBlend><feBlend mode="normal" in="SourceGraphic" in2="effect2_dropShadow_692_150" result="shape"></feBlend></filter><radialGradient id="paint0_radial_692_150" cx="0" cy="0" r="1" gradientUnits="userSpaceOnUse" gradientTransform="translate(41.8108 43.4054) rotate(90) scale(5.40541 10.8108)"><stop stop-color="#02020B"></stop><stop offset="1" stop-color="#02020B" stop-opacity="0"></stop></radialGradient></defs></svg>