<svg width="27" height="43" viewBox="0 0 27 43" fill="none" xmlns="http://www.w3.org/2000/svg">
<ellipse cx="13" cy="38" rx="10" ry="5" fill="url(#paint0_radial_545_2147)" fill-opacity="0.2"/>
<path d="M18.6357 13.6362V14.5453C18.6357 15.2999 18.0266 15.909 17.272 15.909H14.9993V18.1817C14.9993 18.9362 14.3902 19.5453 13.6357 19.5453H12.7266C11.9811 19.5453 11.3629 18.9362 11.3629 18.1817V15.909H9.0902C8.34474 15.909 7.72656 15.2999 7.72656 14.5453V13.6362C7.72656 12.8908 8.34474 12.2726 9.0902 12.2726H11.3629V9.99987C11.3629 9.25441 11.9811 8.63623 12.7266 8.63623H13.6357C14.3902 8.63623 14.9993 9.25441 14.9993 9.99987V12.2726H17.272C18.0266 12.2726 18.6357 12.8908 18.6357 13.6362Z" fill="#E43F12"/>
<path d="M23.1539 20.5909C22.8948 20.5909 22.6403 20.5227 22.4039 20.3818C21.713 19.9682 21.4857 19.0682 21.9039 18.3773C23.8221 15.1818 23.8675 11.3409 22.0357 8.09546C20.1993 4.85455 16.8812 2.91364 13.1539 2.91364C9.42661 2.91364 6.10389 4.85 4.27207 8.09546C2.4357 11.3364 2.4857 15.1818 4.40388 18.3773C4.81752 19.0682 4.59479 19.9636 3.90388 20.3818C3.21298 20.7955 2.31752 20.5727 1.89934 19.8818C-0.573389 15.7727 -0.63248 10.8273 1.72661 6.65455C4.0857 2.49091 8.35389 0 13.1448 0C17.9357 0 22.2084 2.49091 24.5675 6.65909C26.9312 10.8273 26.8675 15.7727 24.3993 19.8818C24.1266 20.3364 23.6403 20.5909 23.1448 20.5909H23.1539Z" fill="#4095DA"/>
<path d="M13.144 35.0001C11.7758 35.0001 10.5349 34.3001 9.83038 33.1229L1.88947 19.8819C1.47583 19.191 1.69856 18.2956 2.38947 17.8774C3.08038 17.4638 3.98038 17.6865 4.39402 18.3774L12.3395 31.6183C12.5849 32.0319 12.9895 32.0774 13.1486 32.0774C13.3077 32.0774 13.7077 32.0319 13.9577 31.6183L21.9031 18.3774C22.3167 17.6819 23.2167 17.4592 23.9077 17.8774C24.5986 18.291 24.8258 19.191 24.4077 19.8819L16.4622 33.1229C15.7577 34.2956 14.5167 35.0001 13.1486 35.0001H13.144Z" fill="#FFD548"/>
<defs>
<radialGradient id="paint0_radial_545_2147" cx="0" cy="0" r="1" gradientUnits="userSpaceOnUse" gradientTransform="translate(13 38) rotate(90) scale(5 10)">
<stop stop-color="#02020B"/>
<stop offset="1" stop-color="#02020B" stop-opacity="0"/>
</radialGradient>
</defs>
</svg>
