<svg width="17" height="17" viewBox="0 0 17 17" fill="none" xmlns="http://www.w3.org/2000/svg">
<path fill-rule="evenodd" clip-rule="evenodd" d="M4.54763 1.03071C4.43903 1.081 4.34166 1.18444 4.30038 1.29339C4.28317 1.33877 4.2691 1.55227 4.2691 1.76783V2.15977L3.41151 2.17006C2.56735 2.18023 2.55017 2.18164 2.31306 2.26095C1.73697 2.4537 1.27757 2.91374 1.08031 3.49547L1 3.73231V9.08307V14.4338L1.08157 14.6747C1.27924 15.2582 1.74911 15.7198 2.34869 15.9194L2.55392 15.9878L8.40311 15.9959C14.8995 16.005 14.4671 16.0173 14.8973 15.8106C15.4229 15.558 15.7919 15.102 15.9381 14.5244C15.9957 14.2967 15.9968 14.1975 15.9968 9.08307C15.9968 3.96519 15.9958 3.86955 15.938 3.64171C15.7905 3.06014 15.4255 2.60906 14.8973 2.3558C14.5483 2.18841 14.3679 2.16373 13.4937 2.16373H12.7173L12.7078 1.72596C12.6976 1.24955 12.6835 1.20566 12.4965 1.06607C12.383 0.981311 12.1049 0.981311 11.9914 1.06607C11.8044 1.20566 11.7903 1.24955 11.78 1.72596L11.7706 2.16373H8.49107H5.21154L5.2021 1.72596C5.19186 1.25149 5.17732 1.20534 4.99513 1.0693C4.89797 0.996763 4.66447 0.97662 4.54763 1.03071ZM4.27385 3.4224C4.28455 3.76869 4.31003 3.83396 4.48562 3.96504C4.59915 4.04981 4.87727 4.04981 4.99079 3.96504C5.16638 3.83396 5.19186 3.76869 5.20257 3.4224L5.2125 3.10194H8.49107H11.7696L11.7796 3.4224C11.7903 3.76869 11.8158 3.83396 11.9914 3.96504C12.1049 4.04981 12.383 4.04981 12.4965 3.96504C12.6724 3.83378 12.6976 3.7689 12.7084 3.42032L12.7184 3.09778L13.5146 3.10719L14.3109 3.1166L14.4759 3.19764C14.6714 3.29366 14.8888 3.51567 14.9777 3.71006C15.0362 3.83792 15.0424 3.90667 15.0524 4.53126L15.0633 5.21293H8.49107H1.91884L1.92866 4.53126C1.93842 3.85571 1.93924 3.84809 2.0194 3.68464C2.15072 3.41683 2.41589 3.20087 2.70052 3.12989C2.74889 3.11781 3.12046 3.10661 3.52621 3.10493L4.26391 3.10194L4.27385 3.4224ZM15.0518 10.2339L15.0439 14.3166L14.9789 14.4561C14.8878 14.6515 14.6705 14.8729 14.4759 14.9685L14.3109 15.0495H8.49107H2.6712L2.50625 14.9685C2.31166 14.8729 2.09437 14.6515 2.00325 14.4561L1.93822 14.3166L1.93039 10.2339L1.92256 6.15115H8.49107H15.0596L15.0518 10.2339Z" fill="#02020B" stroke="#02020B" stroke-width="0.5"/>
</svg>
