<svg width="107" height="54" viewBox="0 0 107 54" fill="none" xmlns="http://www.w3.org/2000/svg">
<path d="M45.4126 52.8136C45.3714 52.8136 45.3371 52.7999 45.3097 52.7793C45.2822 52.7519 45.2754 52.7176 45.2754 52.6764V48.5748C45.2754 48.5337 45.2891 48.4994 45.3097 48.4788C45.3371 48.4514 45.3714 48.4376 45.4126 48.4376H45.7212C45.7692 48.4376 45.8035 48.4514 45.8241 48.4788C45.8515 48.5062 45.8584 48.5337 45.8584 48.5748V50.0152C45.9681 49.878 46.1053 49.7614 46.2631 49.6722C46.4208 49.5831 46.6266 49.5419 46.8735 49.5419C47.141 49.5419 47.3674 49.6036 47.5525 49.7202C47.7446 49.8369 47.8818 50.0015 47.9778 50.2072C48.0738 50.413 48.1287 50.6531 48.1287 50.9274V52.6696C48.1287 52.7107 48.115 52.745 48.0944 52.7725C48.067 52.7999 48.0327 52.8067 47.9915 52.8067H47.6829C47.6417 52.8067 47.6074 52.793 47.58 52.7725C47.5525 52.745 47.5457 52.7107 47.5457 52.6696V50.9617C47.5457 50.6736 47.4771 50.4473 47.3331 50.2895C47.1959 50.1249 46.9901 50.0426 46.7158 50.0426C46.462 50.0426 46.2562 50.1249 46.0985 50.2895C45.9407 50.4473 45.8653 50.6736 45.8653 50.9617V52.6696C45.8653 52.7107 45.8515 52.745 45.831 52.7725C45.8035 52.7999 45.7692 52.8067 45.7281 52.8067H45.4194L45.4126 52.8136ZM50.2824 52.8753C50.0217 52.8753 49.7954 52.8205 49.6102 52.7039C49.4319 52.5873 49.2947 52.4227 49.1987 52.21C49.1026 51.9974 49.0546 51.7573 49.0546 51.4898V49.7477C49.0546 49.7065 49.0684 49.6722 49.0889 49.6517C49.1164 49.6242 49.1507 49.6105 49.1918 49.6105H49.5005C49.5416 49.6105 49.5759 49.6242 49.5965 49.6517C49.6239 49.6791 49.6376 49.7065 49.6376 49.7477V51.4555C49.6376 52.066 49.9051 52.3746 50.4401 52.3746C50.6939 52.3746 50.8997 52.2923 51.0506 52.1346C51.2083 51.97 51.2838 51.7436 51.2838 51.4555V49.7477C51.2838 49.7065 51.2975 49.6722 51.3181 49.6517C51.3455 49.6242 51.3798 49.6105 51.4209 49.6105H51.7227C51.7708 49.6105 51.805 49.6242 51.8256 49.6517C51.8531 49.6791 51.8599 49.7065 51.8599 49.7477V52.6764C51.8599 52.7176 51.8462 52.7519 51.8256 52.7793C51.7982 52.8067 51.7639 52.8136 51.7227 52.8136H51.4415C51.4004 52.8136 51.3661 52.7999 51.3386 52.7793C51.3112 52.7519 51.3044 52.7176 51.3044 52.6764V52.4021C51.1946 52.5461 51.0574 52.6627 50.8997 52.745C50.7419 52.8342 50.5362 52.8753 50.2755 52.8753H50.2824ZM53.0054 52.8136C52.9642 52.8136 52.9299 52.7999 52.9025 52.7793C52.875 52.7519 52.8682 52.7176 52.8682 52.6764V49.7477C52.8682 49.7065 52.8819 49.6722 52.9025 49.6517C52.9299 49.6242 52.9642 49.6105 53.0054 49.6105H53.2797C53.3209 49.6105 53.3552 49.6242 53.3757 49.6517C53.4032 49.6791 53.4169 49.7065 53.4169 49.7477V49.9672C53.5129 49.8369 53.6295 49.7408 53.7735 49.6654C53.9176 49.5899 54.0891 49.5488 54.2948 49.5488C54.7612 49.5488 55.0905 49.734 55.2825 50.1181C55.3785 49.9466 55.5157 49.8094 55.694 49.7065C55.8724 49.6037 56.0781 49.5556 56.3113 49.5556C56.524 49.5556 56.716 49.6037 56.8943 49.7065C57.0727 49.8026 57.2098 49.9535 57.3059 50.1592C57.4088 50.3581 57.4568 50.605 57.4568 50.9068V52.6901C57.4568 52.7313 57.443 52.7656 57.4156 52.793C57.3882 52.8205 57.3607 52.8273 57.3196 52.8273H57.0315C56.9904 52.8273 56.9561 52.8136 56.9286 52.793C56.9012 52.7656 56.8943 52.7313 56.8943 52.6901V50.9617C56.8943 50.7285 56.86 50.5502 56.7983 50.4199C56.7297 50.2895 56.6474 50.1935 56.5308 50.1386C56.4211 50.0838 56.2976 50.0563 56.1673 50.0563C56.0576 50.0563 55.9478 50.0838 55.8381 50.1386C55.7283 50.1935 55.6323 50.2827 55.5637 50.4199C55.4951 50.5502 55.4608 50.7354 55.4608 50.9617V52.6901C55.4608 52.7313 55.4471 52.7656 55.4197 52.793C55.3922 52.8205 55.3648 52.8273 55.3237 52.8273H55.0356C54.9944 52.8273 54.9601 52.8136 54.9327 52.793C54.9053 52.7656 54.8984 52.7313 54.8984 52.6901V50.9617C54.8984 50.7285 54.8641 50.5502 54.7955 50.4199C54.7269 50.2895 54.6378 50.1935 54.5212 50.1386C54.4114 50.0838 54.2948 50.0563 54.1714 50.0563C54.0616 50.0563 53.9519 50.0838 53.8421 50.1386C53.7324 50.1935 53.6364 50.2827 53.5678 50.4199C53.4992 50.5502 53.4649 50.7285 53.4649 50.9549V52.6901C53.4649 52.7313 53.4512 52.7656 53.4237 52.793C53.3963 52.8205 53.3689 52.8273 53.3277 52.8273H53.0328L53.0054 52.8136ZM59.3087 52.8753C59.1029 52.8753 58.9177 52.8342 58.7462 52.7519C58.5748 52.6696 58.4444 52.5598 58.3416 52.4158C58.2387 52.2786 58.1907 52.114 58.1907 51.9425C58.1907 51.6613 58.3073 51.435 58.5336 51.2635C58.7668 51.092 59.0617 50.9823 59.4321 50.9274L60.3512 50.7971V50.6188C60.3512 50.4199 60.2963 50.269 60.1797 50.1524C60.07 50.0426 59.8848 49.9877 59.631 49.9877C59.4458 49.9877 59.2949 50.022 59.1783 50.0975C59.0686 50.1729 58.9863 50.269 58.9451 50.3787C58.9177 50.4404 58.8766 50.4747 58.8148 50.4747H58.5405C58.4925 50.4747 58.4582 50.461 58.4376 50.4404C58.417 50.413 58.4033 50.3787 58.4033 50.3444C58.4033 50.2827 58.4239 50.2072 58.4719 50.1181C58.5199 50.0289 58.5953 49.9397 58.6914 49.8506C58.7874 49.7614 58.9177 49.6928 59.0686 49.6311C59.2264 49.5694 59.4115 49.5419 59.6379 49.5419C59.8848 49.5419 60.0906 49.5762 60.2621 49.6379C60.4335 49.6997 60.5638 49.782 60.6599 49.8917C60.7559 50.0015 60.8313 50.1181 60.8725 50.2552C60.9205 50.3924 60.9411 50.5296 60.9411 50.6668V52.6696C60.9411 52.7107 60.9274 52.745 60.8999 52.7725C60.8725 52.7999 60.8451 52.8067 60.8039 52.8067H60.5227C60.4747 52.8067 60.4404 52.793 60.4198 52.7725C60.3924 52.745 60.3855 52.7107 60.3855 52.6696V52.4021C60.3306 52.4775 60.2621 52.553 60.166 52.6216C60.0769 52.6901 59.9603 52.7519 59.8231 52.7999C59.6859 52.8479 59.5213 52.8685 59.3224 52.8685L59.3087 52.8753ZM59.439 52.4158C59.6105 52.4158 59.7613 52.3815 59.9054 52.3129C60.0426 52.2375 60.1523 52.1277 60.2346 51.97C60.3169 51.8191 60.3581 51.627 60.3581 51.3938V51.2223L59.6448 51.3252C59.3498 51.3664 59.1303 51.435 58.9863 51.5379C58.8354 51.6339 58.7668 51.7573 58.7668 51.9014C58.7668 52.018 58.8011 52.114 58.8628 52.1894C58.9314 52.2649 59.0206 52.3198 59.1235 52.3541C59.2332 52.3884 59.343 52.4089 59.4527 52.4089L59.439 52.4158ZM62.0248 52.8136C61.9836 52.8136 61.9493 52.7999 61.9219 52.7793C61.8945 52.7519 61.8876 52.7176 61.8876 52.6764V49.7477C61.8876 49.7065 61.9013 49.6722 61.9219 49.6517C61.9493 49.6242 61.9836 49.6105 62.0248 49.6105H62.3129C62.354 49.6105 62.3883 49.6242 62.4089 49.6517C62.4363 49.6791 62.45 49.7065 62.45 49.7477V50.022C62.5598 49.8849 62.6901 49.7683 62.8478 49.686C63.0125 49.5968 63.2251 49.5488 63.4789 49.5488C63.7326 49.5488 63.9727 49.6105 64.1579 49.7271C64.3499 49.8437 64.4871 50.0083 64.5832 50.2141C64.6792 50.4199 64.7272 50.6599 64.7272 50.9343V52.6764C64.7272 52.7176 64.7135 52.7519 64.6929 52.7793C64.6655 52.8067 64.638 52.8136 64.5969 52.8136H64.2882C64.2471 52.8136 64.2128 52.7999 64.1853 52.7793C64.1579 52.7519 64.151 52.7176 64.151 52.6764V50.9686C64.151 50.6805 64.0825 50.4542 63.9384 50.2964C63.8012 50.1318 63.5955 50.0495 63.3211 50.0495C63.0673 50.0495 62.8616 50.1318 62.7038 50.2964C62.5529 50.4542 62.4775 50.6805 62.4775 50.9686V52.6764C62.4775 52.7176 62.4638 52.7519 62.4363 52.7793C62.4089 52.8067 62.3814 52.8136 62.3403 52.8136H62.0316H62.0248ZM65.8315 52.8136C65.7903 52.8136 65.756 52.7999 65.7286 52.7793C65.7011 52.7519 65.6943 52.7176 65.6943 52.6764V49.7477C65.6943 49.7065 65.708 49.6722 65.7286 49.6517C65.756 49.6242 65.7903 49.6105 65.8315 49.6105H66.1264C66.1676 49.6105 66.2018 49.6242 66.2224 49.6517C66.2499 49.6791 66.2567 49.7065 66.2567 49.7477V52.6764C66.2567 52.7176 66.243 52.7519 66.2224 52.7793C66.195 52.8067 66.1676 52.8136 66.1264 52.8136H65.8315ZM65.7835 49.0069C65.7423 49.0069 65.708 48.9932 65.6806 48.9726C65.6531 48.9452 65.6463 48.9109 65.6463 48.8697V48.5337C65.6463 48.4925 65.66 48.4582 65.6806 48.4376C65.708 48.4102 65.7423 48.3965 65.7835 48.3965H66.1744C66.2156 48.3965 66.2499 48.4102 66.2704 48.4376C66.2979 48.4651 66.3116 48.4925 66.3116 48.5337V48.8697C66.3116 48.9109 66.2979 48.9452 66.2704 48.9726C66.243 49.0001 66.2156 49.0069 66.1744 49.0069H65.7835ZM68.4996 52.8136C68.2664 52.8136 68.0812 52.7725 67.9371 52.6833C67.7931 52.5941 67.6902 52.4707 67.6216 52.3061C67.553 52.1414 67.5256 51.9494 67.5256 51.723V50.0906H67.0455C67.0043 50.0906 66.97 50.0769 66.9426 50.0563C66.9152 50.0289 66.9083 49.9946 66.9083 49.9535V49.7408C66.9083 49.6997 66.922 49.6654 66.9426 49.6448C66.97 49.6174 67.0043 49.6036 67.0455 49.6036H67.5256V48.5748C67.5256 48.5337 67.5393 48.4994 67.5599 48.4788C67.5873 48.4514 67.6216 48.4376 67.6628 48.4376H67.9509C67.992 48.4376 68.0263 48.4514 68.0469 48.4788C68.0743 48.5062 68.088 48.5337 68.088 48.5748V49.6036H68.8562C68.8974 49.6036 68.9317 49.6174 68.9523 49.6448C68.9797 49.6722 68.9934 49.6997 68.9934 49.7408V49.9535C68.9934 49.9946 68.9797 50.0289 68.9523 50.0563C68.9248 50.0838 68.8974 50.0906 68.8562 50.0906H68.088V51.675C68.088 51.8671 68.1223 52.018 68.1841 52.1346C68.2527 52.2443 68.3693 52.2992 68.5339 52.2992H68.9111C68.9523 52.2992 68.9866 52.3129 69.0071 52.3403C69.0346 52.3678 69.0483 52.3952 69.0483 52.4364V52.6559C69.0483 52.697 69.0346 52.7313 69.0071 52.7587C68.9797 52.7862 68.9523 52.793 68.9111 52.793H68.4859L68.4996 52.8136ZM70.6121 52.8753C70.4063 52.8753 70.2211 52.8342 70.0497 52.7519C69.8782 52.6696 69.7479 52.5598 69.645 52.4158C69.5421 52.2786 69.4941 52.114 69.4941 51.9425C69.4941 51.6613 69.6107 51.435 69.8371 51.2635C70.0703 51.092 70.3652 50.9823 70.7356 50.9274L71.6547 50.7971V50.6188C71.6547 50.4199 71.5998 50.269 71.4832 50.1524C71.3734 50.0426 71.1883 49.9877 70.9345 49.9877C70.7493 49.9877 70.5984 50.022 70.4818 50.0975C70.372 50.1729 70.2897 50.269 70.2486 50.3787C70.2211 50.4404 70.18 50.4747 70.1183 50.4747H69.8439C69.7959 50.4747 69.7616 50.461 69.741 50.4404C69.7205 50.413 69.7136 50.3787 69.7136 50.3444C69.7136 50.2827 69.7342 50.2072 69.7822 50.1181C69.8302 50.0289 69.9056 49.9397 70.0017 49.8506C70.0977 49.7614 70.228 49.6928 70.3789 49.6311C70.5367 49.5694 70.7219 49.5419 70.9482 49.5419C71.1951 49.5419 71.4009 49.5762 71.5723 49.6379C71.7438 49.6997 71.8741 49.782 71.9702 49.8917C72.0662 50.0015 72.1416 50.1181 72.1828 50.2552C72.2308 50.3924 72.2514 50.5296 72.2514 50.6668V52.6696C72.2514 52.7107 72.2377 52.745 72.2102 52.7725C72.1828 52.7999 72.1554 52.8067 72.1142 52.8067H71.833C71.785 52.8067 71.7507 52.793 71.7301 52.7725C71.7027 52.745 71.6958 52.7107 71.6958 52.6696V52.4021C71.6409 52.4775 71.5723 52.553 71.4763 52.6216C71.3872 52.6901 71.2706 52.7519 71.1334 52.7999C70.9962 52.8479 70.8316 52.8685 70.6327 52.8685L70.6121 52.8753ZM70.7424 52.4158C70.9139 52.4158 71.0648 52.3815 71.202 52.3129C71.3391 52.2375 71.4489 52.1277 71.5312 51.97C71.6135 51.8191 71.6547 51.627 71.6547 51.3938V51.2223L70.9413 51.3252C70.6464 51.3664 70.4269 51.435 70.2829 51.5379C70.132 51.6339 70.0634 51.7573 70.0634 51.9014C70.0634 52.018 70.0977 52.114 70.1594 52.1894C70.228 52.2649 70.3172 52.3198 70.4201 52.3541C70.5298 52.3884 70.6395 52.4089 70.7493 52.4089L70.7424 52.4158ZM73.3282 52.8136C73.2871 52.8136 73.2528 52.7999 73.2253 52.7793C73.1979 52.7519 73.191 52.7176 73.191 52.6764V49.7545C73.191 49.7134 73.2048 49.6791 73.2253 49.6517C73.2528 49.6242 73.2871 49.6105 73.3282 49.6105H73.6094C73.6506 49.6105 73.6849 49.6242 73.7123 49.6517C73.7398 49.6791 73.7535 49.7134 73.7535 49.7545V50.0289C73.8358 49.8917 73.9524 49.782 74.0964 49.7134C74.2405 49.6448 74.4119 49.6105 74.6177 49.6105H74.8646C74.9058 49.6105 74.9401 49.6242 74.9606 49.6517C74.9881 49.6791 74.9949 49.7065 74.9949 49.7477V50.0015C74.9949 50.0426 74.9812 50.0769 74.9606 50.0975C74.9332 50.1249 74.9058 50.1318 74.8646 50.1318H74.4942C74.2748 50.1318 74.0964 50.2004 73.973 50.3307C73.8426 50.461 73.7809 50.6325 73.7809 50.852V52.6696C73.7809 52.7107 73.7672 52.745 73.7398 52.7725C73.7123 52.7999 73.678 52.8067 73.6369 52.8067H73.3351L73.3282 52.8136ZM75.7357 52.8136C75.6945 52.8136 75.6602 52.7999 75.6328 52.7793C75.6054 52.7519 75.5985 52.7176 75.5985 52.6764V49.7477C75.5985 49.7065 75.6122 49.6722 75.6328 49.6517C75.6602 49.6242 75.6945 49.6105 75.7357 49.6105H76.0306C76.0718 49.6105 76.1061 49.6242 76.1266 49.6517C76.1541 49.6791 76.1609 49.7065 76.1609 49.7477V52.6764C76.1609 52.7176 76.1472 52.7519 76.1266 52.7793C76.0992 52.8067 76.0718 52.8136 76.0306 52.8136H75.7357ZM75.6877 49.0069C75.6465 49.0069 75.6122 48.9932 75.5848 48.9726C75.5574 48.9452 75.5505 48.9109 75.5505 48.8697V48.5337C75.5505 48.4925 75.5642 48.4582 75.5848 48.4376C75.6122 48.4102 75.6465 48.3965 75.6877 48.3965H76.0786C76.1198 48.3965 76.1541 48.4102 76.1747 48.4376C76.2021 48.4651 76.2158 48.4925 76.2158 48.5337V48.8697C76.2158 48.9109 76.2021 48.9452 76.1747 48.9726C76.1472 49.0001 76.1198 49.0069 76.0786 49.0069H75.6877ZM78.0471 52.8753C77.8414 52.8753 77.6562 52.8342 77.4847 52.7519C77.3132 52.6696 77.1829 52.5598 77.08 52.4158C76.9771 52.2786 76.9291 52.114 76.9291 51.9425C76.9291 51.6613 77.0457 51.435 77.2721 51.2635C77.5053 51.092 77.8002 50.9823 78.1706 50.9274L79.0897 50.7971V50.6188C79.0897 50.4199 79.0348 50.269 78.9182 50.1524C78.8085 50.0426 78.6233 49.9877 78.3695 49.9877C78.1843 49.9877 78.0334 50.022 77.9168 50.0975C77.8071 50.1729 77.7248 50.269 77.6836 50.3787C77.6562 50.4404 77.615 50.4747 77.5533 50.4747H77.2789C77.2309 50.4747 77.1966 50.461 77.1761 50.4404C77.1555 50.413 77.1486 50.3787 77.1486 50.3444C77.1486 50.2827 77.1692 50.2072 77.2172 50.1181C77.2652 50.0289 77.3407 49.9397 77.4367 49.8506C77.5327 49.7614 77.663 49.6928 77.8139 49.6311C77.9717 49.5694 78.1569 49.5419 78.3832 49.5419C78.6301 49.5419 78.8359 49.5762 79.0074 49.6379C79.1789 49.6997 79.3092 49.782 79.4052 49.8917C79.5012 50.0015 79.5767 50.1181 79.6178 50.2552C79.6658 50.3924 79.6864 50.5296 79.6864 50.6668V52.6696C79.6864 52.7107 79.6727 52.745 79.6453 52.7725C79.6178 52.7999 79.5904 52.8067 79.5492 52.8067H79.268C79.22 52.8067 79.1857 52.793 79.1651 52.7725C79.1377 52.745 79.1308 52.7107 79.1308 52.6696V52.4021C79.076 52.4775 79.0074 52.553 78.9114 52.6216C78.8222 52.6901 78.7056 52.7519 78.5753 52.7999C78.4381 52.8479 78.2735 52.8685 78.0746 52.8685L78.0471 52.8753ZM78.1775 52.4158C78.3489 52.4158 78.4998 52.3815 78.637 52.3129C78.7742 52.2375 78.8839 52.1277 78.9662 51.97C79.0485 51.8191 79.0897 51.627 79.0897 51.3938V51.2223L78.3764 51.3252C78.0814 51.3664 77.8619 51.435 77.7179 51.5379C77.567 51.6339 77.4984 51.7573 77.4984 51.9014C77.4984 52.018 77.5327 52.114 77.5944 52.1894C77.663 52.2649 77.7522 52.3198 77.8551 52.3541C77.9648 52.3884 78.0746 52.4089 78.1843 52.4089L78.1775 52.4158ZM80.7633 52.8136C80.7221 52.8136 80.6878 52.7999 80.6604 52.7793C80.6329 52.7519 80.6261 52.7176 80.6261 52.6764V49.7477C80.6261 49.7065 80.6398 49.6722 80.6604 49.6517C80.6878 49.6242 80.7221 49.6105 80.7633 49.6105H81.0513C81.0925 49.6105 81.1268 49.6242 81.1474 49.6517C81.1748 49.6791 81.1885 49.7065 81.1885 49.7477V50.022C81.2983 49.8849 81.4286 49.7683 81.5932 49.686C81.7578 49.5968 81.9704 49.5488 82.2242 49.5488C82.478 49.5488 82.718 49.6105 82.9032 49.7271C83.0953 49.8437 83.2325 50.0083 83.3285 50.2141C83.4245 50.4199 83.4725 50.6599 83.4725 50.9343V52.6764C83.4725 52.7176 83.4588 52.7519 83.4382 52.7793C83.4108 52.8067 83.3834 52.8136 83.3422 52.8136H83.0335C82.9924 52.8136 82.9581 52.7999 82.9307 52.7793C82.9032 52.7519 82.8964 52.7176 82.8964 52.6764V50.9686C82.8964 50.6805 82.8278 50.4542 82.6837 50.2964C82.5466 50.1318 82.3408 50.0495 82.0664 50.0495C81.8127 50.0495 81.6069 50.1318 81.4491 50.2964C81.2982 50.4542 81.2228 50.6805 81.2228 50.9686V52.6764C81.2228 52.7176 81.2091 52.7519 81.1816 52.7793C81.1542 52.8067 81.1268 52.8136 81.0856 52.8136H80.777H80.7633ZM86.1475 53.9865C86.1063 53.9865 86.072 53.9728 86.0446 53.9453C86.0172 53.9179 86.0103 53.8905 86.0103 53.8493V49.7477C86.0103 49.7065 86.024 49.6722 86.0446 49.6517C86.072 49.6242 86.1063 49.6105 86.1475 49.6105H86.4287C86.4698 49.6105 86.5041 49.6242 86.5247 49.6517C86.5522 49.6791 86.5659 49.7065 86.5659 49.7477V50.022C86.6619 49.8849 86.7991 49.7751 86.9637 49.686C87.1283 49.5968 87.3341 49.5488 87.581 49.5488C87.8142 49.5488 88.0062 49.5899 88.1709 49.6654C88.3355 49.7408 88.4658 49.8506 88.5687 49.9877C88.6784 50.1249 88.7539 50.2758 88.8087 50.4473C88.8636 50.6188 88.891 50.804 88.8979 51.0029C88.8979 51.0715 88.8979 51.14 88.8979 51.2155C88.8979 51.2909 88.8979 51.3595 88.8979 51.4281C88.8979 51.6202 88.8636 51.8054 88.8087 51.9837C88.7539 52.1552 88.6784 52.3129 88.5687 52.4432C88.4658 52.5735 88.3286 52.6833 88.1709 52.7656C88.0131 52.841 87.8142 52.8822 87.581 52.8822C87.3478 52.8822 87.142 52.841 86.9774 52.7519C86.8196 52.6627 86.6825 52.553 86.5796 52.4158V53.8493C86.5796 53.8905 86.5659 53.9247 86.5453 53.9453C86.5179 53.9728 86.4836 53.9865 86.4424 53.9865H86.1475ZM87.4575 52.3746C87.6702 52.3746 87.8348 52.3266 87.9582 52.2375C88.0817 52.1414 88.1709 52.018 88.2257 51.8739C88.2806 51.723 88.308 51.5584 88.3149 51.387C88.3149 51.2704 88.3149 51.1469 88.3149 51.0303C88.308 50.8588 88.2737 50.6942 88.2257 50.5502C88.1709 50.3993 88.0817 50.2758 87.9582 50.1867C87.8416 50.0906 87.6702 50.0426 87.4575 50.0426C87.2586 50.0426 87.094 50.0906 86.9637 50.1867C86.8402 50.2827 86.7442 50.4061 86.6893 50.5502C86.6345 50.6942 86.6002 50.8451 86.5933 50.996C86.5933 51.0646 86.5933 51.14 86.5933 51.2292C86.5933 51.3184 86.5933 51.4007 86.5933 51.4693C86.5933 51.6133 86.6276 51.7573 86.6893 51.8945C86.7579 52.0317 86.8539 52.1483 86.9774 52.2375C87.1077 52.3266 87.2655 52.3746 87.4575 52.3746ZM89.8787 52.8136C89.8376 52.8136 89.8033 52.7999 89.7758 52.7793C89.7484 52.7519 89.7415 52.7176 89.7415 52.6764V49.7545C89.7415 49.7134 89.7553 49.6791 89.7758 49.6517C89.8033 49.6242 89.8376 49.6105 89.8787 49.6105H90.1599C90.2011 49.6105 90.2354 49.6242 90.2628 49.6517C90.2902 49.6791 90.304 49.7134 90.304 49.7545V50.0289C90.3863 49.8917 90.5029 49.782 90.64 49.7134C90.7841 49.6448 90.9556 49.6105 91.1613 49.6105H91.4082C91.4494 49.6105 91.4837 49.6242 91.5043 49.6517C91.5317 49.6791 91.5386 49.7065 91.5386 49.7477V50.0015C91.5386 50.0426 91.5248 50.0769 91.5043 50.0975C91.4768 50.1249 91.4494 50.1318 91.4082 50.1318H91.0379C90.8184 50.1318 90.64 50.2004 90.5166 50.3307C90.3863 50.461 90.3245 50.6325 90.3245 50.852V52.6696C90.3245 52.7107 90.3108 52.745 90.2834 52.7725C90.256 52.7999 90.2217 52.8067 90.1805 52.8067H89.8787V52.8136ZM93.3973 52.8753C93.0818 52.8753 92.8212 52.8136 92.6154 52.697C92.4028 52.5804 92.245 52.4158 92.1353 52.2032C92.0255 51.9905 91.9638 51.7436 91.9501 51.4761C91.9501 51.4075 91.9501 51.3184 91.9501 51.2086C91.9501 51.0989 91.9501 51.0097 91.9501 50.9411C91.9638 50.6668 92.0255 50.4199 92.1353 50.2141C92.2519 50.0015 92.4165 49.8369 92.6223 49.7202C92.8349 49.6036 93.0887 49.5419 93.3973 49.5419C93.706 49.5419 93.9666 49.6036 94.1724 49.7202C94.385 49.8369 94.5428 50.0015 94.6525 50.2141C94.7691 50.4267 94.8308 50.6668 94.8445 50.9411C94.8445 51.0097 94.8445 51.092 94.8445 51.2086C94.8445 51.3252 94.8445 51.4007 94.8445 51.4761C94.8308 51.7505 94.7691 51.9905 94.6594 52.2032C94.5496 52.4158 94.385 52.5804 94.1792 52.697C93.9666 52.8136 93.706 52.8753 93.3973 52.8753ZM93.3973 52.4021C93.6511 52.4021 93.8569 52.3198 94.0078 52.162C94.1587 51.9974 94.241 51.7573 94.2547 51.4487C94.2547 51.387 94.2547 51.3115 94.2547 51.2155C94.2547 51.1195 94.2547 51.044 94.2547 50.9823C94.241 50.6668 94.1587 50.4336 94.0078 50.269C93.8569 50.1043 93.6511 50.022 93.3973 50.022C93.1435 50.022 92.9378 50.1043 92.78 50.269C92.6291 50.4267 92.5468 50.6668 92.54 50.9823C92.54 51.044 92.54 51.1195 92.54 51.2155C92.54 51.3115 92.54 51.387 92.54 51.4487C92.5468 51.7642 92.6291 51.9974 92.78 52.162C92.9378 52.3198 93.1435 52.4021 93.3973 52.4021ZM95.1669 53.9865C95.1258 53.9865 95.0915 53.9728 95.0709 53.9453C95.0435 53.9179 95.0297 53.8905 95.0297 53.8493V53.6367C95.0297 53.5955 95.0435 53.5612 95.0709 53.5338C95.0983 53.5064 95.1258 53.4995 95.1669 53.4995H95.2561C95.407 53.4995 95.5167 53.4721 95.5853 53.4103C95.6539 53.3555 95.7019 53.2869 95.7225 53.1977C95.7499 53.1085 95.7568 53.0057 95.7568 52.8891V49.7545C95.7568 49.7134 95.7705 49.6791 95.7911 49.6585C95.8185 49.6311 95.8528 49.6174 95.894 49.6174H96.1957C96.2369 49.6174 96.2712 49.6311 96.2918 49.6585C96.3192 49.686 96.3329 49.7134 96.3329 49.7545V52.8959C96.3329 53.1154 96.2986 53.3074 96.23 53.4721C96.1615 53.6367 96.0517 53.767 95.9008 53.8562C95.7499 53.9522 95.5442 54.0002 95.2767 54.0002H95.1601L95.1669 53.9865ZM95.8459 49.0069C95.8048 49.0069 95.7705 48.9932 95.7431 48.9726C95.7156 48.9452 95.7088 48.9109 95.7088 48.8697V48.5337C95.7088 48.4925 95.7225 48.4582 95.7431 48.4376C95.7705 48.4102 95.8048 48.3965 95.8459 48.3965H96.2438C96.2849 48.3965 96.3192 48.4102 96.3466 48.4376C96.3741 48.4651 96.3878 48.4925 96.3878 48.5337V48.8697C96.3878 48.9109 96.3741 48.9452 96.3466 48.9726C96.3192 49.0001 96.2849 49.0069 96.2438 49.0069H95.8459ZM98.6101 52.8753C98.1848 52.8753 97.8487 52.745 97.595 52.4844C97.3412 52.2237 97.204 51.8602 97.1834 51.4075C97.1834 51.3527 97.1834 51.2841 97.1834 51.2018C97.1834 51.1126 97.1834 51.044 97.1834 50.9891C97.1971 50.6942 97.2657 50.4404 97.3892 50.221C97.5058 50.0015 97.6704 49.83 97.8762 49.7065C98.0888 49.5899 98.3289 49.5282 98.6101 49.5282C98.9256 49.5282 99.1862 49.5968 99.392 49.7271C99.6046 49.8574 99.7692 50.0495 99.879 50.2895C99.9887 50.5296 100.044 50.8177 100.044 51.14V51.2429C100.044 51.2909 100.03 51.3252 100.002 51.3458C99.975 51.3732 99.9476 51.3801 99.9064 51.3801H97.7733V51.435C97.7801 51.6064 97.8213 51.7642 97.883 51.9082C97.9516 52.0523 98.0408 52.1689 98.1642 52.258C98.2877 52.3472 98.4386 52.3952 98.6101 52.3952C98.761 52.3952 98.8844 52.3746 98.9804 52.3266C99.0765 52.2786 99.1588 52.2306 99.2205 52.1757C99.2822 52.1209 99.3234 52.0728 99.344 52.0454C99.3783 51.9905 99.4126 51.9631 99.4331 51.9562C99.4537 51.9425 99.488 51.9357 99.5292 51.9357H99.8241C99.8652 51.9357 99.8995 51.9494 99.9201 51.97C99.9475 51.9905 99.9613 52.0248 99.9544 52.066C99.9544 52.1277 99.9201 52.2032 99.8584 52.2923C99.7967 52.3815 99.7075 52.4638 99.5909 52.553C99.4743 52.6421 99.3371 52.7107 99.1725 52.7725C99.0079 52.8273 98.8158 52.8548 98.6032 52.8548L98.6101 52.8753ZM97.7733 50.9754H99.4674V50.9549C99.4674 50.7697 99.4331 50.605 99.3645 50.461C99.296 50.317 99.1999 50.2004 99.0765 50.1181C98.9462 50.0289 98.7953 49.9877 98.6169 49.9877C98.4386 49.9877 98.2877 50.0289 98.1574 50.1181C98.0339 50.2004 97.9379 50.317 97.8762 50.461C97.8076 50.605 97.7801 50.7697 97.7801 50.9549V50.9754H97.7733ZM102.149 52.8753C101.854 52.8753 101.607 52.8205 101.388 52.7107C101.175 52.5941 101.018 52.4364 100.901 52.2237C100.784 52.0111 100.723 51.7573 100.716 51.4555C100.716 51.3938 100.716 51.3115 100.716 51.2086C100.716 51.1057 100.716 51.0234 100.716 50.9617C100.723 50.6668 100.784 50.413 100.901 50.2004C101.018 49.9877 101.175 49.8231 101.388 49.7134C101.601 49.5968 101.854 49.5419 102.149 49.5419C102.389 49.5419 102.595 49.5762 102.76 49.6379C102.931 49.7065 103.075 49.7888 103.185 49.8917C103.295 49.9946 103.377 50.1044 103.432 50.2278C103.487 50.3444 103.521 50.461 103.521 50.5708C103.521 50.6119 103.514 50.6462 103.487 50.6668C103.459 50.6942 103.425 50.7011 103.384 50.7011H103.089C103.048 50.7011 103.013 50.6942 102.993 50.6736C102.972 50.6531 102.952 50.6188 102.931 50.5776C102.856 50.3787 102.753 50.2347 102.629 50.1524C102.499 50.0701 102.341 50.0289 102.156 50.0289C101.909 50.0289 101.71 50.1043 101.553 50.2552C101.402 50.4061 101.319 50.6531 101.306 50.9891C101.306 51.14 101.306 51.2841 101.306 51.4213C101.319 51.7642 101.402 52.0111 101.553 52.162C101.71 52.3129 101.909 52.3815 102.156 52.3815C102.348 52.3815 102.506 52.3403 102.629 52.258C102.76 52.1757 102.856 52.0317 102.931 51.8328C102.952 51.7848 102.972 51.7573 102.993 51.7368C103.013 51.7162 103.041 51.7093 103.089 51.7093H103.384C103.425 51.7093 103.459 51.723 103.487 51.7436C103.514 51.7711 103.528 51.7985 103.521 51.8396C103.521 51.9288 103.5 52.0111 103.466 52.1071C103.432 52.1963 103.377 52.2923 103.308 52.3815C103.24 52.4707 103.151 52.553 103.041 52.6284C102.931 52.697 102.801 52.7587 102.65 52.7999C102.499 52.841 102.334 52.8616 102.142 52.8616L102.149 52.8753ZM105.572 52.8136C105.339 52.8136 105.153 52.7725 105.009 52.6833C104.865 52.5941 104.762 52.4707 104.694 52.3061C104.625 52.1414 104.598 51.9494 104.598 51.723V50.0906H104.118C104.077 50.0906 104.042 50.0769 104.015 50.0563C103.987 50.0289 103.981 49.9946 103.981 49.9535V49.7408C103.981 49.6997 103.994 49.6654 104.015 49.6448C104.042 49.6174 104.077 49.6036 104.118 49.6036H104.598V48.5748C104.598 48.5337 104.612 48.4994 104.632 48.4788C104.66 48.4514 104.694 48.4376 104.735 48.4376H105.023C105.064 48.4376 105.099 48.4514 105.119 48.4788C105.147 48.5062 105.16 48.5337 105.16 48.5748V49.6036H105.929C105.97 49.6036 106.004 49.6174 106.025 49.6448C106.052 49.6722 106.066 49.6997 106.066 49.7408V49.9535C106.066 49.9946 106.052 50.0289 106.025 50.0563C105.997 50.0838 105.97 50.0906 105.929 50.0906H105.16V51.675C105.16 51.8671 105.195 52.018 105.256 52.1346C105.325 52.2443 105.442 52.2992 105.606 52.2992H105.983C106.025 52.2992 106.059 52.3129 106.079 52.3403C106.107 52.3678 106.121 52.3952 106.121 52.4364V52.6559C106.121 52.697 106.107 52.7313 106.079 52.7587C106.052 52.7862 106.025 52.793 105.983 52.793H105.558L105.572 52.8136Z" fill="#02020B"/>
<path d="M46.1804 11.6601C46.0569 11.6601 45.9609 11.619 45.8855 11.5435C45.81 11.4681 45.7689 11.3652 45.7689 11.2486V0.54874C45.7689 0.42528 45.81 0.329256 45.8855 0.253808C45.9609 0.17836 46.0638 0.137207 46.1804 0.137207H50.3094C51.4069 0.137207 52.3259 0.315538 53.0598 0.665341C53.7937 1.00829 54.3562 1.50898 54.7403 2.18115C55.1381 2.83961 55.3439 3.65582 55.3644 4.63664C55.3782 5.11676 55.3781 5.54201 55.3781 5.90553C55.3781 6.26905 55.3782 6.68744 55.3644 7.15385C55.3301 8.17582 55.1312 9.01946 54.754 9.69163C54.3836 10.3638 53.8349 10.8576 53.1079 11.1869C52.3808 11.5024 51.4754 11.667 50.3917 11.667H46.1804V11.6601ZM48.389 9.53388H50.3163C50.865 9.53388 51.3177 9.45157 51.6675 9.28696C52.0173 9.12235 52.2779 8.86171 52.4425 8.51191C52.6209 8.14838 52.71 7.68198 52.7238 7.11269C52.7375 6.79718 52.7375 6.50911 52.7375 6.25533C52.7512 6.00155 52.7512 5.74778 52.7375 5.50086C52.7375 5.24708 52.7375 4.96586 52.7238 4.66407C52.7032 3.84101 52.4906 3.23742 52.079 2.85333C51.6812 2.45551 51.0708 2.26346 50.234 2.26346H48.389V9.53388ZM57.6553 11.6601C57.5456 11.6601 57.4495 11.619 57.3741 11.5435C57.2986 11.4681 57.2575 11.3652 57.2575 11.2486V3.51178C57.2575 3.40204 57.2986 3.30601 57.3741 3.23056C57.4495 3.1414 57.5456 3.10025 57.6553 3.10025H59.2671C59.3769 3.10025 59.4729 3.1414 59.5484 3.23056C59.6375 3.30601 59.6787 3.40204 59.6787 3.51178V4.17023C59.953 3.82729 60.2891 3.56665 60.6801 3.38146C61.0847 3.19627 61.5511 3.10025 62.0793 3.10025H62.7857C62.8955 3.10025 62.9915 3.1414 63.067 3.21685C63.1424 3.29229 63.1836 3.39518 63.1836 3.51178V4.92471C63.1836 5.04817 63.1424 5.14419 63.067 5.21964C62.9915 5.29509 62.8955 5.33624 62.7857 5.33624H61.3385C60.8584 5.33624 60.4743 5.47342 60.1999 5.74778C59.9256 6.00841 59.7884 6.39251 59.7884 6.88635V11.2486C59.7884 11.3721 59.7473 11.4681 59.6718 11.5435C59.5964 11.619 59.4935 11.6601 59.3769 11.6601H57.6484H57.6553ZM68.2386 11.8247C67.3263 11.8247 66.565 11.6739 65.9477 11.3789C65.3304 11.0703 64.864 10.6382 64.5348 10.0757C64.2193 9.5133 64.0409 8.86171 64.0066 8.11409C63.9929 7.89461 63.9929 7.64769 63.9929 7.37333C63.9929 7.09898 63.9929 6.83834 64.0066 6.63257C64.0409 5.87809 64.2261 5.21964 64.5691 4.67093C64.912 4.1085 65.3853 3.68325 66.0026 3.38832C66.6199 3.07967 67.3606 2.92877 68.2386 2.92877C69.1165 2.92877 69.8435 3.07967 70.4608 3.38832C71.0781 3.68325 71.5514 4.11536 71.8943 4.67093C72.2373 5.21964 72.4225 5.87123 72.4568 6.63257C72.4774 6.83834 72.4911 7.08526 72.4911 7.37333C72.4911 7.6614 72.4774 7.89461 72.4568 8.11409C72.4225 8.86171 72.2441 9.5133 71.9149 10.0757C71.5994 10.6382 71.133 11.0703 70.5157 11.3789C69.8984 11.6739 69.1439 11.8247 68.2454 11.8247H68.2386ZM68.2386 10.014C68.7736 10.014 69.1851 9.84939 69.4594 9.52016C69.7338 9.17722 69.8847 8.68338 69.9053 8.03864C69.919 7.87403 69.919 7.65454 69.919 7.38019C69.919 7.10583 69.919 6.88635 69.9053 6.72174C69.8847 6.08386 69.7338 5.59688 69.4594 5.25393C69.1851 4.91099 68.7804 4.74638 68.2386 4.74638C67.6967 4.74638 67.292 4.91785 67.004 5.25393C66.7296 5.59688 66.5787 6.08386 66.5581 6.72174C66.5444 6.88635 66.5444 7.10583 66.5444 7.38019C66.5444 7.65454 66.5444 7.87403 66.5581 8.03864C66.5787 8.68338 66.7296 9.17722 67.004 9.52016C67.292 9.84939 67.7036 10.014 68.2386 10.014ZM74.6173 14.7878C74.4939 14.7878 74.3978 14.7466 74.3224 14.6712C74.2469 14.5957 74.2058 14.4929 74.2058 14.3763V3.51178C74.2058 3.38832 74.2469 3.29229 74.3224 3.21685C74.3978 3.1414 74.5007 3.10025 74.6173 3.10025H76.1811C76.3046 3.10025 76.4006 3.1414 76.4761 3.21685C76.5515 3.29229 76.5927 3.39518 76.5927 3.51178V4.13594C76.8533 3.78613 77.1963 3.49806 77.6147 3.27858C78.0331 3.04537 78.5543 2.93563 79.1785 2.93563C79.7478 2.93563 80.2416 3.03166 80.66 3.21685C81.0853 3.39518 81.4419 3.64896 81.73 3.9919C82.0249 4.32113 82.2513 4.71894 82.4022 5.19221C82.5668 5.66547 82.6628 6.1936 82.6834 6.79033C82.6971 6.99609 82.6971 7.195 82.6971 7.38019C82.6971 7.56538 82.6971 7.77115 82.6834 7.99063C82.6697 8.55306 82.5873 9.06748 82.4227 9.54074C82.2718 10.014 82.0455 10.4187 81.7506 10.7616C81.4556 11.1046 81.0921 11.3652 80.6669 11.5504C80.2485 11.7356 79.7546 11.8316 79.1853 11.8316C78.6161 11.8316 78.1359 11.7356 77.7175 11.5367C77.3129 11.3309 76.9768 11.0497 76.7161 10.6999V14.39C76.7161 14.5134 76.675 14.6095 76.5995 14.6849C76.5241 14.7603 76.4281 14.8015 76.3183 14.8015H74.6242L74.6173 14.7878ZM78.4377 9.84939C78.8561 9.84939 79.1853 9.76022 79.4254 9.58875C79.6655 9.40356 79.8369 9.1635 79.933 8.86171C80.0427 8.56678 80.1113 8.24441 80.1319 7.88775C80.1524 7.5448 80.1524 7.20872 80.1319 6.86577C80.1113 6.51597 80.0427 6.1936 79.933 5.89181C79.8369 5.59688 79.6655 5.35682 79.4254 5.18535C79.1853 5.00016 78.8561 4.90413 78.4377 4.90413C78.0193 4.90413 77.7038 5.00016 77.45 5.18535C77.1963 5.37054 77.0179 5.6106 76.9082 5.89181C76.7984 6.17988 76.7299 6.48168 76.7093 6.8109C76.6956 7.00981 76.6956 7.20872 76.6956 7.42134C76.6956 7.63397 76.6956 7.83973 76.7093 8.0455C76.723 8.35415 76.7847 8.64222 76.9082 8.91658C77.0385 9.17722 77.2237 9.3967 77.4706 9.57503C77.7244 9.75336 78.0468 9.83567 78.4446 9.83567L78.4377 9.84939ZM46.1872 28.1215C46.0638 28.1215 45.9678 28.0803 45.8923 28.0049C45.8169 27.9294 45.7757 27.8265 45.7757 27.7099V17.0101C45.7757 16.8866 45.8169 16.7906 45.8923 16.7151C45.9678 16.6397 46.0706 16.5985 46.1872 16.5985H53.5263C53.6497 16.5985 53.7457 16.6397 53.8212 16.7151C53.8966 16.7906 53.9378 16.8935 53.9378 17.0101V18.4093C53.9378 18.5327 53.8966 18.6288 53.8212 18.7042C53.7457 18.7797 53.6429 18.8208 53.5263 18.8208H48.3409V21.6055H53.197C53.3205 21.6055 53.4165 21.6467 53.492 21.7221C53.5674 21.7976 53.6086 21.9004 53.6086 22.017V23.4163C53.6086 23.526 53.5674 23.622 53.492 23.6975C53.4165 23.7729 53.3136 23.8141 53.197 23.8141H48.3409V27.7168C48.3409 27.8402 48.2998 27.9363 48.2243 28.0117C48.1489 28.0872 48.046 28.1283 47.9294 28.1283H46.1872V28.1215ZM59.3837 28.2861C58.4715 28.2861 57.7102 28.1352 57.0929 27.8402C56.4756 27.5316 56.0092 27.0995 55.6799 26.5371C55.3644 25.9746 55.1861 25.323 55.1518 24.5754C55.1381 24.3559 55.1381 24.109 55.1381 23.8347C55.1381 23.5603 55.1381 23.2997 55.1518 23.0939C55.1861 22.3394 55.3713 21.681 55.7142 21.1323C56.0572 20.5698 56.5304 20.1446 57.1477 19.8496C57.765 19.541 58.5058 19.3901 59.3837 19.3901C60.2617 19.3901 60.9887 19.541 61.606 19.8496C62.2233 20.1446 62.6966 20.5767 63.0395 21.1323C63.3825 21.681 63.5677 22.3326 63.602 23.0939C63.6225 23.2997 63.6362 23.5466 63.6362 23.8347C63.6362 24.1227 63.6225 24.3559 63.602 24.5754C63.5677 25.323 63.3893 25.9746 63.0601 26.5371C62.7446 27.0995 62.2782 27.5316 61.6609 27.8402C61.0436 28.1352 60.2891 28.2861 59.3906 28.2861H59.3837ZM59.3837 26.4753C59.9187 26.4753 60.3303 26.3107 60.6046 25.9815C60.879 25.6385 61.0299 25.1447 61.0505 24.5C61.0642 24.3354 61.0642 24.1159 61.0642 23.8415C61.0642 23.5672 61.0642 23.3477 61.0505 23.1831C61.0299 22.5452 60.879 22.0582 60.6046 21.7153C60.3303 21.3723 59.9256 21.2077 59.3837 21.2077C58.8419 21.2077 58.4372 21.3792 58.1491 21.7153C57.8748 22.0582 57.7239 22.5452 57.7033 23.1831C57.6896 23.3477 57.6896 23.5672 57.6896 23.8415C57.6896 24.1159 57.6896 24.3354 57.7033 24.5C57.7239 25.1447 57.8748 25.6385 58.1491 25.9815C58.4372 26.3107 58.8487 26.4753 59.3837 26.4753ZM65.7488 28.1215C65.639 28.1215 65.543 28.0803 65.4676 28.0049C65.3921 27.9294 65.351 27.8265 65.351 27.7099V19.9731C65.351 19.8634 65.3921 19.7673 65.4676 19.6919C65.543 19.6027 65.639 19.5616 65.7488 19.5616H67.3606C67.4704 19.5616 67.5664 19.6027 67.6418 19.6919C67.731 19.7673 67.7722 19.8634 67.7722 19.9731V20.6316C68.0465 20.2886 68.3826 20.028 68.7736 19.8428C69.1782 19.6576 69.6446 19.5616 70.1728 19.5616H70.8792C70.989 19.5616 71.085 19.6027 71.1604 19.6782C71.2359 19.7536 71.277 19.8565 71.277 19.9731V21.386C71.277 21.5095 71.2359 21.6055 71.1604 21.681C71.085 21.7564 70.989 21.7976 70.8792 21.7976H69.432C68.9519 21.7976 68.5678 21.9347 68.2934 22.2091C68.0191 22.4697 67.8819 22.8538 67.8819 23.3477V27.7099C67.8819 27.8334 67.8407 27.9294 67.7653 28.0049C67.6899 28.0803 67.587 28.1215 67.4704 28.1215H65.7419H65.7488ZM50.4878 44.7474C49.5207 44.7474 48.677 44.5896 47.95 44.2673C47.2229 43.938 46.6674 43.4373 46.2696 42.772C45.8717 42.093 45.6797 41.2288 45.6797 40.1862V33.4714C45.6797 33.3479 45.7208 33.2519 45.7963 33.1765C45.8717 33.101 45.9746 33.0599 46.0912 33.0599H47.8882C48.0117 33.0599 48.1077 33.101 48.1832 33.1765C48.2586 33.2519 48.2998 33.3548 48.2998 33.4714V40.1725C48.2998 40.9819 48.4918 41.5854 48.8759 41.9833C49.26 42.3811 49.795 42.5731 50.4878 42.5731C51.1805 42.5731 51.7018 42.3742 52.0859 41.9833C52.47 41.5854 52.662 40.9819 52.662 40.1725V33.4714C52.662 33.3479 52.7032 33.2519 52.7786 33.1765C52.8678 33.101 52.9638 33.0599 53.0736 33.0599H54.8843C54.9941 33.0599 55.0901 33.101 55.1655 33.1765C55.241 33.2519 55.2821 33.3548 55.2821 33.4714V40.1862C55.2821 41.2288 55.0832 42.093 54.6923 42.772C54.2944 43.4442 53.7457 43.938 53.0324 44.2673C52.3191 44.5828 51.4754 44.7474 50.4946 44.7474H50.4878ZM57.8405 44.5828C57.717 44.5828 57.621 44.5416 57.5456 44.4662C57.4701 44.3907 57.429 44.2878 57.429 44.1712V33.3068C57.429 33.1833 57.4701 33.0873 57.5456 33.0118C57.621 32.9364 57.7239 32.8952 57.8405 32.8952H59.4523C59.5621 32.8952 59.6581 32.9364 59.7335 33.0118C59.809 33.0873 59.8501 33.1902 59.8501 33.3068V38.8693L62.3879 36.3041C62.4771 36.2287 62.5525 36.1601 62.6211 36.1052C62.6966 36.0503 62.8132 36.0229 62.9641 36.0229H64.8228C64.9326 36.0229 65.0217 36.064 65.0835 36.1395C65.1521 36.2081 65.1795 36.2904 65.1795 36.3864C65.1795 36.4276 65.1658 36.4824 65.1452 36.5373C65.1246 36.5922 65.0835 36.6333 65.0286 36.6676L61.8529 39.8639L65.4401 43.9655C65.5362 44.0546 65.591 44.1438 65.591 44.2261C65.591 44.3221 65.5499 44.4113 65.4744 44.4868C65.4058 44.5553 65.3235 44.5828 65.2275 44.5828H63.3207C63.1561 44.5828 63.0327 44.5553 62.9572 44.5005C62.8886 44.4456 62.8132 44.377 62.724 44.3016L59.8433 41.0779V44.1712C59.8433 44.2947 59.8021 44.3907 59.7267 44.4662C59.6512 44.5416 59.5552 44.5828 59.4455 44.5828H57.8336H57.8405ZM67.1617 44.5828C67.052 44.5828 66.9559 44.5416 66.8805 44.4662C66.8051 44.3907 66.7639 44.2878 66.7639 44.1712V36.4344C66.7639 36.3247 66.8051 36.2287 66.8805 36.1532C66.9559 36.064 67.052 36.0229 67.1617 36.0229H68.7736C68.8833 36.0229 68.9793 36.064 69.0548 36.1532C69.1439 36.2287 69.1851 36.3247 69.1851 36.4344V37.0929C69.4594 36.7499 69.7955 36.4893 70.1865 36.3041C70.5912 36.1189 71.0576 36.0229 71.5857 36.0229H72.2922C72.4019 36.0229 72.4979 36.064 72.5734 36.1395C72.6488 36.2149 72.69 36.3178 72.69 36.4344V37.8474C72.69 37.9708 72.6488 38.0668 72.5734 38.1423C72.4979 38.2177 72.4019 38.2589 72.2922 38.2589H70.8449C70.3648 38.2589 69.9807 38.3961 69.7064 38.6704C69.432 38.9311 69.2948 39.3152 69.2948 39.809V44.1712C69.2948 44.2947 69.2537 44.3907 69.1782 44.4662C69.1028 44.5416 68.9999 44.5828 68.8833 44.5828H67.1549H67.1617ZM76.2977 44.7474C75.7147 44.7474 75.1935 44.6377 74.7339 44.4182C74.2744 44.185 73.904 43.8832 73.6296 43.4991C73.3553 43.115 73.2181 42.6897 73.2181 42.2165C73.2181 41.4346 73.5336 40.8241 74.1578 40.3714C74.7957 39.9187 75.6256 39.6169 76.6613 39.4523L78.815 39.1368V38.8419C78.815 38.4166 78.7189 38.0874 78.52 37.8542C78.3211 37.621 77.9782 37.5113 77.4843 37.5113C77.1208 37.5113 76.8327 37.5799 76.6133 37.7239C76.3938 37.8679 76.2223 38.0531 76.1057 38.2863C76.0165 38.4304 75.8931 38.499 75.7285 38.499H74.1646C74.0412 38.499 73.952 38.4647 73.8834 38.4029C73.8148 38.3275 73.7874 38.2383 73.8011 38.1423C73.8011 37.9571 73.8697 37.7376 74.0137 37.4838C74.1578 37.2301 74.3773 36.9831 74.6722 36.7431C74.9671 36.4893 75.3444 36.2835 75.8108 36.1189C76.2703 35.9543 76.8396 35.872 77.5049 35.872C78.1702 35.872 78.7875 35.9543 79.2814 36.1189C79.7752 36.2835 80.173 36.5167 80.468 36.8117C80.7629 37.1066 80.9824 37.4564 81.1264 37.8474C81.2704 38.2315 81.339 38.6498 81.339 39.0957V44.185C81.339 44.3084 81.2979 44.4044 81.2224 44.4799C81.147 44.5553 81.0441 44.5965 80.9275 44.5965H79.3157C79.2059 44.5965 79.1099 44.5553 79.0344 44.4799C78.959 44.4044 78.9178 44.3016 78.9178 44.185V43.5745C78.7738 43.7803 78.5818 43.9792 78.3417 44.1644C78.1016 44.3427 77.8067 44.4799 77.4706 44.5896C77.1414 44.6994 76.7504 44.7543 76.3046 44.7543L76.2977 44.7474ZM76.9562 43.0327C77.3197 43.0327 77.6421 42.9572 77.9302 42.7995C78.2182 42.6486 78.4377 42.4085 78.6023 42.093C78.7669 41.7775 78.8493 41.3728 78.8493 40.8927V40.6115L77.3197 40.8584C76.7299 40.9544 76.2909 41.1053 76.0165 41.3042C75.7422 41.5031 75.605 41.7432 75.605 42.0313C75.605 42.237 75.6667 42.4222 75.7833 42.5731C75.9137 42.724 76.0851 42.8406 76.2909 42.9161C76.4967 42.9915 76.7161 43.0327 76.9493 43.0327H76.9562ZM83.7259 44.5828C83.6162 44.5828 83.5202 44.5416 83.4447 44.4662C83.3693 44.3907 83.3281 44.2878 83.3281 44.1712V36.4344C83.3281 36.311 83.3693 36.2149 83.4447 36.1395C83.5202 36.064 83.6162 36.0229 83.7259 36.0229H85.3721C85.4955 36.0229 85.5915 36.064 85.667 36.1395C85.7424 36.2149 85.7836 36.3178 85.7836 36.4344V44.1712C85.7836 44.2947 85.7424 44.3907 85.667 44.4662C85.5915 44.5416 85.4887 44.5828 85.3721 44.5828H83.7259ZM83.6779 34.706C83.5682 34.706 83.4721 34.6648 83.3967 34.5894C83.3212 34.5139 83.2801 34.4111 83.2801 34.2945V32.9775C83.2801 32.8541 83.3212 32.7581 83.3967 32.6826C83.4721 32.5934 83.5682 32.5523 83.6779 32.5523H85.4063C85.5298 32.5523 85.6258 32.5934 85.7013 32.6826C85.7904 32.7581 85.8316 32.8609 85.8316 32.9775V34.2945C85.8316 34.4179 85.7904 34.5139 85.7013 34.5894C85.6258 34.6648 85.5229 34.706 85.4063 34.706H83.6779ZM88.6643 44.5828C88.5546 44.5828 88.4586 44.5416 88.3831 44.4662C88.3077 44.3907 88.2665 44.2878 88.2665 44.1712V36.4344C88.2665 36.311 88.3077 36.2149 88.3831 36.1395C88.4586 36.064 88.5546 36.0229 88.6643 36.0229H90.2762C90.3996 36.0229 90.4956 36.064 90.5711 36.1395C90.6465 36.2149 90.6877 36.3178 90.6877 36.4344V37.0792C90.9758 36.7294 91.3393 36.4344 91.792 36.2081C92.2447 35.9817 92.7934 35.8651 93.4381 35.8651C94.0828 35.8651 94.6521 36.016 95.1322 36.311C95.6261 36.599 96.0102 37.0174 96.2845 37.5799C96.5726 38.1286 96.7098 38.8007 96.7098 39.5895V44.185C96.7098 44.3084 96.6686 44.4044 96.5795 44.4799C96.504 44.5553 96.408 44.5965 96.2983 44.5965H94.5561C94.4326 44.5965 94.3366 44.5553 94.2612 44.4799C94.1857 44.4044 94.1446 44.3016 94.1446 44.185V39.6924C94.1446 39.1094 94.0005 38.6636 93.7193 38.3412C93.445 38.012 93.0403 37.8474 92.4984 37.8474C91.9566 37.8474 91.5725 38.012 91.2638 38.3412C90.9552 38.6567 90.8043 39.1094 90.8043 39.6924V44.185C90.8043 44.3084 90.7631 44.4044 90.6877 44.4799C90.6122 44.5553 90.5162 44.5965 90.4065 44.5965H88.6643V44.5828ZM102.506 44.7474C101.244 44.7474 100.242 44.3976 99.4945 43.6911C98.7606 42.9915 98.3696 41.9695 98.3285 40.6321V39.9256C98.3696 39.082 98.5617 38.3549 98.9046 37.7513C99.2476 37.134 99.7208 36.6676 100.338 36.3521C100.955 36.0229 101.669 35.8583 102.492 35.8583C103.411 35.8583 104.179 36.0503 104.796 36.4344C105.421 36.8048 105.887 37.3261 106.196 37.9845C106.511 38.6293 106.676 39.3769 106.676 40.2205V40.5978C106.676 40.7075 106.635 40.8035 106.545 40.879C106.47 40.9544 106.374 40.9956 106.264 40.9956H100.88V41.1259C100.894 41.4757 100.955 41.7981 101.079 42.0999C101.209 42.3879 101.394 42.6143 101.621 42.7926C101.861 42.9709 102.149 43.0532 102.478 43.0532C102.752 43.0532 102.979 43.0121 103.15 42.9366C103.329 42.8612 103.466 42.7652 103.576 42.6554C103.699 42.5457 103.781 42.4497 103.836 42.3742C103.932 42.2645 104.014 42.1959 104.069 42.1753C104.138 42.141 104.234 42.1273 104.364 42.1273H106.079C106.189 42.1273 106.278 42.1616 106.34 42.2233C106.415 42.2782 106.449 42.3605 106.436 42.4702C106.422 42.6486 106.333 42.8681 106.154 43.1287C105.99 43.3825 105.743 43.6363 105.414 43.8832C105.084 44.1232 104.673 44.329 104.179 44.4936C103.699 44.6582 103.137 44.7405 102.499 44.7405L102.506 44.7474ZM100.873 39.4935H104.097V39.4592C104.097 39.0614 104.028 38.7253 103.898 38.4372C103.774 38.1423 103.596 37.9091 103.356 37.7445C103.116 37.5799 102.821 37.4976 102.485 37.4976C102.149 37.4976 101.854 37.5799 101.614 37.7445C101.374 37.9091 101.189 38.1423 101.051 38.4372C100.928 38.7253 100.873 39.0614 100.873 39.4592V39.4935Z" fill="#02020B"/>
<path d="M28.1195 20.577V21.9488C28.1195 23.0874 27.2004 24.0064 26.0619 24.0064H22.6324V27.4359C22.6324 28.5745 21.7133 29.4935 20.5748 29.4935H19.203C18.0781 29.4935 17.1453 28.5745 17.1453 27.4359V24.0064H13.7159C12.591 24.0064 11.6582 23.0874 11.6582 21.9488V20.577C11.6582 19.4521 12.591 18.5193 13.7159 18.5193H17.1453V15.0899C17.1453 13.965 18.0781 13.0322 19.203 13.0322H20.5748C21.7133 13.0322 22.6324 13.965 22.6324 15.0899V18.5193H26.0619C27.2004 18.5193 28.1195 19.4521 28.1195 20.577Z" fill="#E43F12"/>
<path d="M34.9382 31.0707C34.5472 31.0707 34.1631 30.9679 33.8064 30.7552C32.7639 30.1311 32.4209 28.773 33.052 27.7305C35.9464 22.9087 36.015 17.1129 33.2509 12.2157C30.4799 7.32529 25.4729 4.39654 19.8486 4.39654C14.2243 4.39654 9.21048 7.31843 6.44635 12.2157C3.67536 17.1061 3.75081 22.9087 6.64526 27.7305C7.26942 28.773 6.93333 30.1242 5.89078 30.7552C4.84823 31.3794 3.49703 31.0433 2.86602 30.0008C-0.865218 23.8003 -0.954384 16.3379 2.60538 10.0414C6.16514 3.75867 12.6056 0 19.8349 0C27.0642 0 33.5115 3.75867 37.0713 10.0483C40.6379 16.3379 40.5419 23.8003 36.8175 30.0008C36.406 30.6867 35.6721 31.0707 34.9244 31.0707H34.9382Z" fill="#4095DA"/>
<path d="M19.8353 52.8134C17.7707 52.8134 15.8983 51.7571 14.8351 49.9806L2.85267 30.0007C2.22851 28.9582 2.56459 27.607 3.60714 26.9759C4.64969 26.3518 6.00775 26.6879 6.63191 27.7304L18.6212 47.7103C18.9916 48.3345 19.6021 48.4031 19.8421 48.4031C20.0822 48.4031 20.6858 48.3345 21.063 47.7103L33.0523 27.7304C33.6765 26.681 35.0345 26.3449 36.0771 26.9759C37.1196 27.6001 37.4626 28.9582 36.8316 30.0007L24.8422 49.9806C23.7791 51.7502 21.9066 52.8134 19.8421 52.8134H19.8353Z" fill="#FFD548"/>
</svg>
