<svg width="14" height="24" viewBox="0 0 14 24" fill="none" xmlns="http://www.w3.org/2000/svg">
<path fill-rule="evenodd" clip-rule="evenodd" d="M2.8393 0.0522176C2.55148 0.150152 2.41376 0.247168 2.22853 0.482465C2.04901 0.710474 2.0108 0.903558 2.0108 1.5824V2.18479H1.8498C1.48777 2.18479 1.11153 2.30876 0.766626 2.54169C0.471697 2.74088 0.227188 3.07026 0.0932614 3.4489L0.0260468 3.72519L0.00344387 8.2257C-0.00425815 12.7338 -0.00381376 12.7724 0.0566471 12.9929C0.158018 13.3624 0.281072 13.5764 0.544452 13.841C0.785022 14.0827 1.00017 14.2182 1.27022 14.2981C1.64356 14.4085 1.64024 14.4069 1.6494 14.4807C1.67028 14.649 1.79476 14.9984 1.92821 15.2634C2.18513 15.7735 2.70306 16.2684 3.2183 16.4962C3.32808 16.5447 3.44456 16.5962 3.47715 16.6106C3.58743 16.6593 3.74287 16.6988 3.98074 16.7386L4.21773 16.7782L4.23369 19.3238L4.24963 21.8694L4.33335 22.1212C4.48964 22.5913 4.7662 23.046 5.04116 23.2849C5.36835 23.5692 5.73354 23.7923 5.99512 23.8677C6.06029 23.8864 6.18693 23.923 6.27654 23.949C6.4892 24.0105 7.17821 24.0184 7.38741 23.9616C7.85202 23.8356 8.14114 23.7011 8.43903 23.4723C8.93297 23.093 9.21133 22.6701 9.42592 21.9731C9.44711 21.9043 9.46337 21.0126 9.47424 19.3218L9.49065 16.7742L9.57952 16.7658C9.70992 16.7534 10.0473 16.6768 10.209 16.6229C10.588 16.4966 11.0324 16.208 11.3273 15.8969C11.713 15.4899 11.8933 15.153 12.0576 14.5326C12.0835 14.4346 12.112 14.3901 12.1551 14.38C12.3844 14.3265 12.5654 14.2633 12.716 14.1841C12.8869 14.0942 13.1435 13.8992 13.2449 13.7823C13.3728 13.6347 13.5407 13.3454 13.6154 13.1436L13.6971 12.9232V8.28717C13.6971 3.0928 13.7185 3.60155 13.4814 3.1503C13.1849 2.58607 12.5287 2.19015 11.8827 2.18583C11.7972 2.18526 11.7259 2.18147 11.7243 2.17738C11.7227 2.1733 11.7122 1.87004 11.701 1.50346L11.6806 0.836936L11.5852 0.659197C11.4287 0.367971 11.2108 0.174798 10.9126 0.0630005C10.7708 0.00988619 10.5978 0.00724968 6.88381 0.00197675C3.1536 -0.00332579 2.99684 -0.00140031 2.8393 0.0522176ZM10.7109 0.982474L10.7941 1.05395V1.61197V2.16998H6.85419H2.91431L2.90622 1.64417C2.89923 1.1899 2.90497 1.1079 2.94858 1.04137C2.97631 0.999034 3.02661 0.953236 3.06035 0.93958C3.09406 0.925924 4.81054 0.913897 6.87475 0.91286L10.6278 0.910994L10.7109 0.982474ZM12.2737 3.19059C12.462 3.28396 12.6241 3.45198 12.7187 3.65194L12.7936 3.81039L12.7933 8.29273L12.793 12.7751L12.7239 12.9232C12.6322 13.1194 12.5202 13.248 12.3579 13.3431C12.11 13.4884 11.9878 13.4999 10.6815 13.5004C9.35178 13.5009 9.36674 13.499 9.23485 13.6842C9.18491 13.7543 9.1669 13.8205 9.1669 13.934C9.1669 14.1295 9.21981 14.2278 9.37367 14.3179C9.49492 14.389 9.50217 14.3895 10.3153 14.3895C11.2501 14.3895 11.1882 14.3674 11.0705 14.6596C10.9065 15.0669 10.5213 15.4825 10.1385 15.6652C10.0375 15.7134 9.85042 15.7791 9.72275 15.8113C9.50019 15.8674 9.3822 15.8698 6.85419 15.8692C4.14589 15.8686 4.15857 15.869 3.79749 15.7571C3.2686 15.5931 2.7022 14.9963 2.58981 14.4846L2.56893 14.3895H3.38928C4.17 14.3895 4.21506 14.3865 4.32129 14.3268C4.45285 14.2529 4.55842 14.0811 4.55833 13.9412C4.55827 13.8127 4.47714 13.6548 4.37114 13.577C4.29033 13.5177 4.24391 13.5152 2.96404 13.5008C1.67366 13.4864 1.63693 13.4844 1.49743 13.42C1.28568 13.3223 1.14936 13.2015 1.03323 13.0087L0.929553 12.8366V8.30106V3.76551L1.00361 3.62104C1.1277 3.37896 1.35939 3.1918 1.61089 3.13051C1.65976 3.1186 4.04591 3.1109 6.91343 3.11339L12.1271 3.11792L12.2737 3.19059ZM1.98115 3.78266C1.8514 3.8513 1.79156 3.91955 1.7484 4.04806C1.72396 4.12084 1.71457 4.96635 1.71457 7.09729C1.71457 10.0258 1.71498 10.0467 1.77636 10.1735C1.81034 10.2437 1.88034 10.3312 1.93188 10.368L2.02561 10.4348H6.85419C11.5329 10.4348 11.6853 10.4331 11.765 10.3791C11.8102 10.3484 11.8769 10.2818 11.9131 10.231L11.979 10.1386V7.08743V4.03624L11.9099 3.93928C11.8718 3.88596 11.789 3.81599 11.7259 3.78376C11.6129 3.72611 11.5358 3.72523 6.84797 3.7265C2.27024 3.72777 2.08083 3.72994 1.98115 3.78266ZM11.0755 7.08751V9.53155L6.86159 9.52402L2.6477 9.51653L2.64005 7.11705C2.63585 5.79734 2.63875 4.70092 2.64651 4.68054C2.65774 4.65116 3.52943 4.64351 6.86808 4.64351H11.0755V7.08751ZM7.15042 5.95158C7.04994 5.98506 6.76594 6.08871 6.67645 6.12458C6.64386 6.13762 6.57055 6.16434 6.51352 6.18392C6.4565 6.2035 6.38318 6.23022 6.35059 6.24325C6.31801 6.25632 6.21137 6.29628 6.11361 6.33204C5.90171 6.40956 5.84137 6.43261 5.74332 6.47346C5.58611 6.53898 5.24852 6.66553 5.12123 6.70668C5.04792 6.73035 4.96127 6.76119 4.92868 6.77517C4.8961 6.78912 4.77612 6.8361 4.66207 6.87956C4.38711 6.98431 4.3332 7.02226 4.26255 7.16074C4.1873 7.30824 4.18742 7.39577 4.26311 7.55681C4.33263 7.70471 4.49681 7.81319 4.65114 7.81319C4.74126 7.81319 4.98514 7.73161 5.62483 7.48755C5.74702 7.44092 6.03363 7.33413 6.26172 7.25027C6.48982 7.16637 6.7963 7.05084 6.94279 6.99355C7.08928 6.93623 7.26924 6.86901 7.3427 6.84416C7.52708 6.78183 7.62294 6.70754 7.68337 6.58022C7.78948 6.35659 7.68272 6.07965 7.44958 5.97374C7.31344 5.91192 7.2775 5.90925 7.15042 5.95158ZM9.60914 7.30975C9.54913 7.33582 8.94428 7.56255 8.18723 7.84273C7.95913 7.92713 7.6392 8.04668 7.47628 8.10839C7.31335 8.17012 7.12006 8.24303 7.04674 8.2704C6.80101 8.3622 6.69126 8.50232 6.69126 8.72429C6.69126 8.96924 6.88251 9.17056 7.11881 9.17444C7.21503 9.17601 7.49203 9.08909 7.7577 8.97395C7.79843 8.95629 7.89186 8.92243 7.96532 8.89871C8.03879 8.87498 8.22542 8.80637 8.38005 8.74624C8.53468 8.6861 8.76785 8.59694 8.89819 8.54809C9.02853 8.49924 9.16183 8.44855 9.19442 8.43546C9.22701 8.42237 9.30032 8.39562 9.35735 8.37603C9.45457 8.34265 9.49355 8.32781 9.66098 8.2603C9.69766 8.24551 9.78762 8.21106 9.86094 8.18375C10.0935 8.09707 10.1869 7.96798 10.1867 7.73321C10.1865 7.54768 10.109 7.42347 9.94335 7.34328C9.80593 7.27675 9.70773 7.26688 9.60914 7.30975ZM1.98118 11.1405C1.88416 11.1893 1.82971 11.2432 1.78122 11.3385C1.721 11.4568 1.71457 11.5117 1.71457 11.9084C1.71457 12.3631 1.73599 12.4712 1.85152 12.6001C1.96642 12.7282 1.99021 12.7306 3.14193 12.7305C4.19272 12.7304 4.25212 12.7275 4.34389 12.6715C4.55019 12.5458 4.61554 12.2923 4.49636 12.0803C4.37559 11.8654 4.3454 11.8586 3.44752 11.8419L2.6477 11.8271L2.62924 11.6C2.60732 11.3305 2.53809 11.2116 2.3544 11.1282C2.1979 11.0571 2.1433 11.0589 1.98118 11.1405ZM11.3421 11.1385C11.1541 11.2387 11.0766 11.3852 11.076 11.642L11.0755 11.8419H10.2857C9.50386 11.8419 9.49462 11.8427 9.37367 11.9135C9.30648 11.9529 9.23243 12.0208 9.20914 12.0643C9.14388 12.1862 9.15846 12.44 9.23705 12.5504C9.36543 12.7307 9.36514 12.7306 10.5719 12.7306C11.7825 12.7306 11.7778 12.7313 11.91 12.5459C11.9739 12.4563 11.9798 12.4148 11.9895 11.9804C12.0021 11.423 11.9696 11.2931 11.7875 11.1726C11.6222 11.0632 11.5009 11.0539 11.3421 11.1385ZM5.56558 11.1284C5.41053 11.1608 5.29201 11.232 5.17153 11.3654C4.96761 11.5911 4.97312 11.5411 4.97312 13.1641C4.97312 14.5936 4.97457 14.6302 5.03601 14.761C5.07061 14.8345 5.16057 14.9476 5.23596 15.0121C5.47576 15.2173 5.48874 15.219 6.83929 15.219C8.21878 15.219 8.24947 15.2149 8.49096 14.9978C8.74797 14.7667 8.74901 14.7591 8.74397 13.1419C8.74107 12.2111 8.72859 11.7199 8.70576 11.635C8.66573 11.4864 8.4478 11.2393 8.29227 11.1662C8.19997 11.1228 8.03458 11.1162 6.92825 11.1118C6.23581 11.109 5.62261 11.1164 5.56558 11.1284ZM7.84002 13.1009C7.84455 13.6875 7.84091 14.1976 7.83193 14.2344L7.81561 14.3015L6.84613 14.2937L5.87662 14.2859L5.86883 13.1899C5.86457 12.5871 5.86756 12.0771 5.87547 12.0564C5.88678 12.0269 6.09844 12.0205 6.86082 12.0267L7.83175 12.0345L7.84002 13.1009ZM8.52985 16.7901C8.58575 16.82 8.58714 16.8775 8.58714 19.1525C8.58714 21.5757 8.58412 21.6442 8.46154 21.9926C8.3094 22.425 7.91816 22.8114 7.44206 22.9995C7.2632 23.0702 7.1974 23.0799 6.88381 23.0818C6.42886 23.0845 6.23927 23.0304 5.88753 22.7972C5.67255 22.6547 5.44851 22.4022 5.33176 22.1708C5.14606 21.8029 5.15086 21.8811 5.15086 19.2216C5.15086 17.8891 5.15974 16.79 5.17061 16.7792C5.20447 16.7453 8.46596 16.7559 8.52985 16.7901Z" fill="#757575"/>
</svg>
