<svg width="12" height="22" viewBox="0 0 12 22" fill="none" xmlns="http://www.w3.org/2000/svg">
<path fill-rule="evenodd" clip-rule="evenodd" d="M3.32076 0.0485973C3.11584 0.148155 3.10931 0.194132 3.08654 1.69554L3.06505 3.11174L2.93615 3.13834C2.54642 3.21865 2.15687 3.55509 2.01525 3.93373C1.93726 4.14213 1.92639 4.26777 1.92639 4.96038V5.74958L1.7008 5.87698C0.966899 6.29137 0.382054 7.0398 0.114102 7.90738L0.0149301 8.22848L0.00307078 14.9315C-0.00578075 19.9399 0.00380106 21.665 0.0410118 21.7548C0.147574 22.012 -0.0975192 21.9999 5.00079 21.9999H9.66932L9.81542 21.8538L9.96151 21.7077L9.96117 15.1615C9.96095 10.784 9.94587 8.52264 9.91562 8.3359C9.81598 7.72089 9.54519 7.12316 9.14193 6.62807C8.93869 6.37856 8.44713 5.96992 8.19632 5.84196L8.03441 5.75934L8.02041 4.90993C8.00734 4.1157 7.99987 4.04798 7.90521 3.86717C7.7146 3.5031 7.35693 3.20937 7.01816 3.13868L6.88926 3.11178L6.86777 1.68123L6.84629 0.250636L6.70595 0.125339L6.56562 0L4.98721 0.0029219C4.03378 0.00468361 3.37396 0.0227302 3.32076 0.0485973ZM9.59198 0.317968C9.45332 0.456627 9.44589 0.479572 9.44589 0.76845C9.44589 1.04358 9.45788 1.08625 9.57041 1.21219C9.67345 1.32751 9.72604 1.35158 9.87557 1.35158C10.0251 1.35158 10.0777 1.32751 10.1807 1.21219C10.2933 1.08625 10.3053 1.04358 10.3053 0.76845C10.3053 0.479572 10.2978 0.456627 10.1592 0.317968C10.0539 0.212695 9.97466 0.171874 9.87557 0.171874C9.77649 0.171874 9.69725 0.212695 9.59198 0.317968ZM6.0084 1.20312V1.54687H5.74629C5.5055 1.54687 5.47228 1.55877 5.33809 1.69296C5.17657 1.85448 5.15346 1.99219 5.25486 2.1883C5.33302 2.33951 5.40439 2.37178 5.72911 2.40297L5.98692 2.42772L5.99946 2.76073L6.01201 3.09374H4.97896H3.94591V1.97655V0.859371H4.97716H6.0084V1.20312ZM8.21699 1.69296C8.02225 1.8877 8.01486 2.09901 8.19649 2.28064C8.31315 2.3973 8.34521 2.40624 8.64697 2.40624C8.94165 2.40624 8.98432 2.39511 9.10575 2.28662C9.20862 2.19471 9.23964 2.1312 9.23964 2.01252C9.23964 1.69004 9.05139 1.54687 8.62734 1.54687C8.38409 1.54687 8.35144 1.55851 8.21699 1.69296ZM10.7083 1.62894C10.4564 1.78251 10.4316 2.10928 10.6574 2.29929C10.7681 2.39245 10.8261 2.40624 11.1068 2.40624C11.4057 2.40624 11.4382 2.39713 11.5547 2.28064C11.7363 2.09901 11.7289 1.8877 11.5342 1.69296C11.3986 1.55744 11.3683 1.54687 11.1152 1.54704C10.9229 1.54713 10.8028 1.57132 10.7083 1.62894ZM9.57149 2.74668C9.45457 2.86364 9.44589 2.89496 9.44589 3.20116C9.44589 3.50735 9.45457 3.53868 9.57149 3.65564C9.75036 3.83447 10.0027 3.83262 10.1842 3.65113C10.3109 3.52441 10.3139 3.51212 10.2985 3.17435C10.2841 2.8575 10.2724 2.8187 10.1627 2.72434C9.9863 2.57261 9.7361 2.58207 9.57149 2.74668ZM6.8878 4.01417C7.12266 4.11231 7.16855 4.25471 7.16855 4.88553V5.43552H4.97716H2.78576V4.86336C2.78576 4.54122 2.80574 4.25389 2.83148 4.20581C2.85661 4.1588 2.93877 4.08283 3.01409 4.0369C3.14386 3.95779 3.24441 3.95341 4.94631 3.95328C6.40101 3.95315 6.76938 3.96471 6.8878 4.01417ZM7.14294 6.35827C7.56717 6.46681 7.91513 6.65317 8.23658 6.94407C8.56735 7.24338 8.78598 7.57755 8.94917 8.03323L9.08066 8.40036L9.09256 13.6533L9.10442 18.9062H4.97832H0.852173L0.852903 13.7607C0.853763 8.05412 0.842462 8.29448 1.13774 7.69137C1.33458 7.28936 1.82103 6.78813 2.21436 6.58206C2.76612 6.29301 2.8967 6.2784 4.95954 6.27577C6.66732 6.27358 6.83684 6.27999 7.14294 6.35827ZM3.80695 10.1799L3.66661 10.3052L3.65235 10.846L3.63813 11.3867H3.12667C2.62239 11.3867 2.61328 11.3884 2.47492 11.512L2.33459 11.6373L2.32157 12.6362C2.30344 14.024 2.29403 14.0078 3.11761 14.0078H3.64513V14.5047C3.64513 15.3526 3.62111 15.3376 4.97986 15.3388L6.0353 15.3398L6.1615 15.2081C6.28516 15.079 6.288 15.0656 6.30287 14.5421L6.31803 14.0078H6.84268H7.36733L7.49352 13.8761L7.61972 13.7445L7.63197 12.7697C7.64894 11.4141 7.63334 11.3884 6.79258 11.3873L6.30918 11.3867L6.3091 10.9248C6.30905 10.4115 6.24404 10.2059 6.05137 10.1096C5.97484 10.0714 5.65683 10.0557 4.94562 10.0553L3.94729 10.0546L3.80695 10.1799ZM5.41316 11.4546L5.42833 11.9953L5.56866 12.1207C5.70715 12.2444 5.7157 12.246 6.22393 12.246H6.73887V12.6972V13.1484H6.26407C5.5024 13.1484 5.40684 13.2464 5.40684 14.0279V14.4804H4.95567H4.5045L4.50356 13.954C4.50218 13.2005 4.44817 13.1484 3.66795 13.1484H3.16947L3.18171 12.708L3.19396 12.2675L3.74568 12.246C4.28532 12.225 4.29967 12.2219 4.40095 12.104C4.49836 11.9906 4.5045 11.9518 4.5045 11.4487V10.914H4.95125H5.39799L5.41316 11.4546ZM9.10214 20.453V21.1405H4.97716H0.852173V20.453V19.7655H4.97716H9.10214V20.453Z" fill="#757575"/>
</svg>
