<svg width="20" height="19" viewBox="0 0 20 19" fill="none" xmlns="http://www.w3.org/2000/svg">
<path fill-rule="evenodd" clip-rule="evenodd" d="M5.20131 1.5509C2.97027 1.94551 1.35631 3.71432 1.03962 6.11177C0.955024 6.75229 1.00993 7.71687 1.16594 8.33118C1.52539 9.74634 2.53146 11.2277 4.21473 12.8203C5.36811 13.9114 9.23569 17.2417 9.5272 17.3946C9.69944 17.485 9.76629 17.5 9.9965 17.5C10.2267 17.5 10.2936 17.485 10.4658 17.3946C10.7573 17.2417 14.6249 13.9114 15.7783 12.8203C16.2967 12.3298 16.9675 11.6095 17.3429 11.1402C18.0592 10.2449 18.6018 9.21785 18.827 8.33118C18.9831 7.71687 19.038 6.75229 18.9534 6.11177C18.6335 3.68994 16.9972 1.91723 14.7394 1.54644C14.2221 1.46146 13.3264 1.49697 12.8455 1.62147C12.2176 1.78405 11.7065 2.03284 11.1592 2.44234C10.8461 2.67662 10.3831 3.12955 10.175 3.40525C10.0915 3.5158 10.0112 3.60626 9.9965 3.60626C9.98181 3.60626 9.90151 3.5158 9.81804 3.40525C9.60989 3.12955 9.14692 2.67662 8.83378 2.44234C8.28695 2.03323 7.77641 1.78458 7.14752 1.62112C6.82841 1.53818 6.69983 1.52455 6.13224 1.51366C5.67717 1.50495 5.39811 1.51608 5.20131 1.5509Z" stroke="#757575" stroke-width="1.5"/>
</svg>
