<svg width="23" height="20" viewBox="0 0 23 20" fill="none" xmlns="http://www.w3.org/2000/svg">
<path fill-rule="evenodd" clip-rule="evenodd" d="M19.9932 0.0605248C19.9022 0.0929546 19.7591 0.171958 19.675 0.236113C19.5909 0.300224 19.474 0.416548 19.4153 0.494627C19.3564 0.572661 19.2766 0.731418 19.2377 0.84739C19.1843 1.00685 19.1671 1.23536 19.1671 1.78517V2.51211L18.6714 2.49964L18.1757 2.48717L18.1523 2.02451C18.1341 1.66704 18.1071 1.52062 18.0332 1.3805C17.9806 1.2807 17.8861 1.13798 17.8233 1.0633C17.7604 0.988565 17.5959 0.871932 17.4577 0.804032L17.2063 0.680614H16.0167C14.8999 0.680614 14.8147 0.686298 14.6264 0.773409C14.5162 0.824433 14.3539 0.92939 14.2659 1.00667C14.1779 1.08392 14.0601 1.24047 14.004 1.3545C13.924 1.51722 13.8973 1.6614 13.8798 2.02451L13.8576 2.48717L12.4425 2.4988L11.0274 2.51039L11.0061 2.08021C10.9906 1.7664 10.9578 1.58768 10.8851 1.41967C10.8302 1.29299 10.7021 1.11269 10.6004 1.01897C10.4988 0.925248 10.3176 0.810774 10.1978 0.764596C9.99197 0.685196 9.82885 0.680614 7.20419 0.680614H4.42826L4.22161 0.783367C4.10797 0.839855 3.92608 0.981163 3.81738 1.09736C3.68498 1.23888 3.59685 1.38579 3.55032 1.54238C3.51137 1.67365 3.48092 1.93749 3.48092 2.1441V2.51211L2.98522 2.49964L2.48952 2.48717L2.46749 1.71608C2.44925 1.07779 2.43136 0.918418 2.3635 0.79077C2.31843 0.70595 2.20937 0.5605 2.12116 0.467572C2.03295 0.374645 1.88203 0.258012 1.7858 0.208354C1.68961 0.15874 1.48909 0.108332 1.34024 0.0963915C1.14937 0.0811018 0.999994 0.0978015 0.833615 0.153056C0.668425 0.207913 0.530202 0.298902 0.372679 0.456381C0.224938 0.604122 0.122361 0.755784 0.0738484 0.898149C0.00727027 1.09352 0 1.44787 0 4.49218V11.6809L0.661596 11.6047L0.671157 4.48222C0.682878 1.13512 0.683759 1.10454 0.7751 0.981251C0.825728 0.912822 0.949675 0.827738 1.05049 0.792135C1.21167 0.735207 1.25613 0.735207 1.41956 0.792135C1.53905 0.83373 1.64132 0.910311 1.70596 1.00659L1.80655 1.15631L1.80682 7.57187C1.80695 12.0799 1.8214 14.0398 1.85524 14.1637C1.88622 14.2768 1.97809 14.4123 2.11186 14.5421C2.2559 14.6819 2.38293 14.7601 2.52354 14.7954C2.67339 14.8332 4.45122 14.8466 9.29036 14.8466H15.8539L15.7295 15.1441C15.6611 15.3077 15.5797 15.5654 15.5487 15.7169L15.4923 15.9923L9.10107 15.9919C4.84386 15.9917 2.61448 15.9761 2.42426 15.9453C2.26723 15.9198 2.00946 15.8373 1.85145 15.7621C1.66934 15.6753 1.46551 15.5266 1.29451 15.3558C1.14619 15.2077 0.972543 14.9834 0.908653 14.8573C0.844763 14.7312 0.763203 14.5037 0.727381 14.3518C0.674021 14.1255 0.662124 13.6291 0.661596 11.6047L0 11.6809C0 14.0609 0.00533153 14.2365 0.087023 14.556C0.134919 14.7432 0.234632 15.0099 0.308612 15.1487C0.382593 15.2875 0.526809 15.5025 0.629122 15.6264C0.731434 15.7504 0.913632 15.9327 1.03405 16.0317C1.15443 16.1306 1.39237 16.2799 1.5628 16.3633C1.73319 16.4468 2.0255 16.5462 2.21228 16.5842C2.39906 16.6221 2.74112 16.6532 2.97236 16.6532H3.3928V17.248V17.8429H3.07035C2.89296 17.8429 2.65008 17.8721 2.53059 17.9077C2.41105 17.9433 2.2407 18.0326 2.152 18.1059C2.06331 18.1793 1.9394 18.3424 1.87661 18.4684C1.80272 18.6166 1.76249 18.77 1.76249 18.9035C1.76249 19.0168 1.79307 19.1964 1.83048 19.3024C1.86785 19.4085 1.97196 19.5719 2.06181 19.6657C2.15165 19.7595 2.30446 19.8731 2.4014 19.9181C2.56531 19.9943 2.72265 20 4.64857 20C6.57449 20 6.73184 19.9943 6.89575 19.9181C6.99269 19.8731 7.1455 19.7595 7.23534 19.6657C7.32518 19.5719 7.4293 19.4085 7.46667 19.3024C7.50408 19.1964 7.53466 19.0168 7.53466 18.9035C7.53466 18.77 7.49443 18.6166 7.42054 18.4684C7.35775 18.3424 7.23384 18.1793 7.14515 18.1059C7.05645 18.0326 6.8861 17.9433 6.76656 17.9077C6.64707 17.8721 6.40419 17.8429 6.2268 17.8429H5.90435V17.248V16.6532H10.6791H15.4538L15.5086 16.9947C15.5388 17.1825 15.6204 17.4924 15.6899 17.6834C15.7595 17.8743 15.9049 18.1726 16.0131 18.3462C16.1213 18.5198 16.3349 18.7883 16.4878 18.9429C16.6406 19.0976 16.9103 19.3187 17.087 19.4343C17.2637 19.5499 17.5611 19.7028 17.7479 19.7742C17.9347 19.8456 18.2295 19.9289 18.4029 19.9593C18.601 19.994 18.9043 20.0056 19.2181 19.9905C19.5487 19.9745 19.8223 19.9338 20.0263 19.8702C20.196 19.8174 20.4827 19.695 20.6636 19.5984C20.8444 19.5017 21.113 19.3248 21.2604 19.2052C21.4079 19.0856 21.6004 18.9016 21.6884 18.7964C21.7764 18.6911 21.9278 18.4821 22.0249 18.3319C22.1219 18.1818 22.2511 17.9261 22.3119 17.7637C22.3728 17.6012 22.4476 17.3791 22.4782 17.2701C22.5098 17.1571 22.5345 16.8158 22.5355 16.477C22.537 15.9872 22.5199 15.8215 22.4381 15.5388C22.3835 15.35 22.2718 15.0625 22.1898 14.8999C22.1078 14.7373 21.9496 14.4807 21.8383 14.3296L21.6357 14.0548L21.6242 7.45586L21.6126 0.856863L21.5151 0.674709C21.4615 0.574512 21.3529 0.42774 21.2737 0.348516C21.1945 0.269336 21.0301 0.158211 20.9085 0.101547C20.7519 0.0286236 20.61 -0.00103025 20.4229 2.72461e-05C20.2775 0.000820368 20.0841 0.0280508 19.9932 0.0605248ZM20.6694 0.726835C20.7419 0.764332 20.84 0.858537 20.8873 0.936131C20.9715 1.07427 20.9734 1.20566 20.9735 7.27895C20.9736 10.6899 20.9663 13.4807 20.9572 13.4807C20.9481 13.4807 20.844 13.4266 20.7259 13.3604C20.6077 13.2943 20.3623 13.1876 20.1805 13.1233L19.8501 13.0065L19.8389 7.07088C19.8286 1.59826 19.8335 1.12309 19.9014 0.979841C19.942 0.89436 20.0363 0.787201 20.1109 0.741684C20.1856 0.696168 20.3121 0.658847 20.392 0.658759C20.472 0.658671 20.5968 0.689294 20.6694 0.726835ZM10.0477 1.43042C10.1187 1.46717 10.207 1.55543 10.2437 1.6265C10.2882 1.71251 10.3106 1.88197 10.3106 2.13278V2.50982L7.23724 2.49849L4.16389 2.48717L4.14988 2.20076C4.14217 2.04324 4.15737 1.84148 4.18372 1.75239C4.21002 1.66329 4.29224 1.53934 4.36635 1.477L4.5011 1.36358H7.20974C9.54469 1.36358 9.93623 1.37279 10.0477 1.43042ZM17.3061 1.51436L17.4707 1.66514L17.486 2.08717L17.5012 2.5092H16.0167H14.5321L14.5473 2.08717L14.5626 1.66514L14.7272 1.51436L14.8918 1.36358H16.0167H17.1415L17.3061 1.51436ZM19.1671 8.02964V12.8891L18.7155 12.9381C18.4671 12.9651 18.1052 13.0382 17.9113 13.1006C17.7175 13.1631 17.4101 13.3015 17.2284 13.4082C17.0466 13.515 16.7559 13.7337 16.5825 13.8944L16.267 14.1866L9.4515 14.1751L2.63594 14.1637L2.55174 14.0597C2.46982 13.9585 2.46749 13.8068 2.46749 8.56288V3.17013H10.8173H19.1671V8.02964ZM4.11983 4.24477C4.04712 4.27654 3.92234 4.35757 3.8425 4.42481C3.7627 4.49209 3.65365 4.62891 3.60016 4.72888C3.50348 4.90963 3.50295 4.92285 3.50295 7.22387C3.50295 9.52489 3.50348 9.53811 3.60016 9.71885C3.65365 9.81883 3.7627 9.95564 3.8425 10.023C3.92234 10.0903 4.05144 10.1721 4.12943 10.2048C4.24219 10.252 4.73384 10.2641 6.53083 10.2637L8.79043 10.2633L9.0159 10.1583C9.14033 10.1004 9.29503 9.98301 9.36108 9.89638C9.42696 9.81002 9.50891 9.64611 9.54319 9.53212C9.59325 9.36591 9.60559 8.90899 9.60559 7.22488C9.60559 5.50425 9.59387 5.08561 9.54077 4.9076C9.50512 4.78806 9.41647 4.61837 9.34377 4.53051C9.27106 4.44265 9.122 4.32862 9.01251 4.27716C8.8174 4.18546 8.76774 4.18361 6.53272 4.18529C4.75164 4.18665 4.22306 4.19965 4.11983 4.24477ZM10.9167 4.2609C10.8502 4.30214 10.7655 4.39974 10.7284 4.47777C10.6699 4.60115 10.6626 4.96871 10.6731 7.29111L10.6851 9.96256L10.8497 10.1133L11.0143 10.2642H12.3512H13.688L13.7838 10.1622C13.8365 10.1061 13.8796 10.0061 13.8796 9.93987C13.8796 9.87087 13.8335 9.7734 13.7715 9.71141L13.6633 9.60323H12.4936H11.324V7.22387V4.8445H14.4084H17.4927V7.22387V9.60323H16.2429C15.0452 9.60323 14.9882 9.60702 14.877 9.69457C14.7919 9.76146 14.7609 9.82623 14.7609 9.93692C14.7609 10.0292 14.7952 10.1222 14.849 10.176C14.9335 10.2605 14.9959 10.2642 16.3493 10.2642C17.5254 10.2642 17.7831 10.253 17.8908 10.1973C17.9618 10.1606 18.0501 10.0723 18.0868 10.0012C18.1444 9.8899 18.1537 9.50471 18.1537 7.22387C18.1537 4.94303 18.1444 4.55783 18.0868 4.44649C18.0501 4.37541 17.9618 4.28716 17.8908 4.25041C17.7785 4.19234 17.32 4.1837 14.3996 4.18476C11.3122 4.18581 11.0277 4.19203 10.9167 4.2609ZM8.81581 4.95823L8.92262 5.07191V7.23123V9.39054L8.79898 9.49691L8.67534 9.60323L6.52977 9.60182C4.91264 9.60077 4.36697 9.58719 4.31427 9.54675C4.27585 9.51722 4.2213 9.44976 4.1931 9.39684C4.15622 9.32758 4.14186 8.71837 4.14186 7.22457C4.14186 5.47852 4.15221 5.12853 4.20703 5.02256C4.24285 4.95325 4.2974 4.88641 4.3282 4.87398C4.359 4.8616 5.35727 4.84988 6.5466 4.84798L8.70896 4.8445L8.81581 4.95823ZM6.75202 5.66168C6.69849 5.69918 6.45614 6.01995 6.21345 6.37452C5.85293 6.90124 5.77216 7.04868 5.77216 7.17998C5.77216 7.29084 5.80367 7.37029 5.87382 7.43616C5.93237 7.49124 6.06201 7.54354 6.17992 7.55967L6.38437 7.58769L6.1003 8.00663C5.94405 8.23708 5.81623 8.46806 5.81623 8.51992C5.81623 8.57182 5.84601 8.65673 5.88236 8.70868C5.91876 8.76063 6.00684 8.81593 6.07809 8.83157C6.14934 8.84726 6.24711 8.83888 6.2954 8.81306C6.3437 8.7872 6.59269 8.464 6.84878 8.09485C7.20415 7.58254 7.31435 7.39012 7.31435 7.28212C7.31435 7.19783 7.27429 7.09565 7.21521 7.02924C7.14885 6.95465 7.04605 6.90649 6.90426 6.88357L6.69245 6.84934L6.9533 6.47481C7.09677 6.26882 7.22785 6.05639 7.24464 6.00281C7.26147 5.94914 7.25103 5.86001 7.22146 5.80453C7.19194 5.74906 7.13629 5.67957 7.09787 5.65005C7.0594 5.62053 6.98776 5.59572 6.93863 5.59497C6.88945 5.59418 6.80551 5.62423 6.75202 5.66168ZM12.5255 5.74906C12.4369 5.78634 12.3741 5.85027 12.3562 5.92125C12.3407 5.98338 12.3402 6.0834 12.3553 6.14355C12.3707 6.20484 12.4437 6.28442 12.5214 6.32456C12.6482 6.39016 12.6725 6.39034 12.806 6.32663C12.8977 6.28292 12.963 6.2133 12.9815 6.13941C12.9978 6.07472 12.9933 5.97153 12.9717 5.91002C12.9499 5.84829 12.8728 5.774 12.7994 5.74403C12.6923 5.70037 12.639 5.70134 12.5255 5.74906ZM14.3186 5.71738C14.2832 5.7283 14.2194 5.76748 14.177 5.8044C14.1297 5.84569 14.0999 5.9343 14.0999 6.03419C14.0999 6.14117 14.1303 6.22423 14.1886 6.27706C14.2374 6.32121 14.3397 6.35729 14.4159 6.35729C14.5121 6.35729 14.5861 6.32063 14.6577 6.23736C14.7144 6.1714 14.7609 6.08151 14.7609 6.03767C14.7609 5.99382 14.7217 5.90808 14.6738 5.84718C14.6258 5.78625 14.5408 5.72764 14.4848 5.71694C14.4288 5.70623 14.354 5.70645 14.3186 5.71738ZM16.0504 5.73002C16.0007 5.74844 15.9281 5.80898 15.8892 5.86459C15.8502 5.9202 15.8184 6.00246 15.8184 6.04736C15.8184 6.0923 15.8783 6.18906 15.9517 6.26238C16.0585 6.36924 16.1088 6.39003 16.205 6.36725C16.2711 6.35165 16.3598 6.29785 16.4022 6.24776C16.4446 6.19761 16.4793 6.10372 16.4793 6.03912C16.4793 5.97448 16.4501 5.87997 16.4145 5.82908C16.3788 5.77814 16.3027 5.72751 16.2452 5.71654C16.1878 5.70557 16.1001 5.71165 16.0504 5.73002ZM12.5357 6.92226C12.4873 6.94874 12.4228 7.00153 12.3925 7.03947C12.3623 7.07745 12.3381 7.15927 12.3389 7.22127C12.3396 7.28331 12.366 7.36795 12.3975 7.40941C12.429 7.45088 12.5036 7.50336 12.5633 7.526C12.6381 7.55447 12.715 7.54905 12.8115 7.50851C12.899 7.47167 12.9619 7.40752 12.9796 7.3368C12.9952 7.27467 12.9956 7.17465 12.9805 7.11451C12.9654 7.05436 12.8948 6.97505 12.8237 6.93826C12.7525 6.90146 12.6784 6.87199 12.6591 6.87269C12.6397 6.87344 12.5842 6.89574 12.5357 6.92226ZM14.3203 6.90305C14.2839 6.91618 14.2194 6.95716 14.177 6.99408C14.1297 7.03537 14.0999 7.12398 14.0999 7.22387C14.0999 7.32763 14.1302 7.41386 14.1836 7.4622C14.2297 7.50384 14.3321 7.53979 14.4113 7.54204C14.5163 7.54504 14.583 7.51384 14.6581 7.4266C14.7146 7.36086 14.7609 7.26965 14.7609 7.22387C14.7609 7.17809 14.7163 7.09159 14.6617 7.03162C14.6072 6.97161 14.5229 6.91279 14.4745 6.90089C14.426 6.88895 14.3566 6.88996 14.3203 6.90305ZM15.9517 6.99567C15.8783 7.06899 15.8184 7.16905 15.8184 7.21801C15.8184 7.26701 15.8648 7.36108 15.9216 7.42704C15.9952 7.5127 16.0664 7.54698 16.1708 7.54698C16.2696 7.54698 16.3431 7.51455 16.3981 7.44665C16.4427 7.39144 16.4793 7.2912 16.4793 7.22387C16.4793 7.15654 16.4446 7.06044 16.4022 7.0103C16.3598 6.9602 16.2711 6.9064 16.205 6.8908C16.1088 6.86802 16.0585 6.88882 15.9517 6.99567ZM12.5276 8.10445C12.4747 8.12631 12.4102 8.18368 12.3844 8.23193C12.3586 8.28017 12.3374 8.36676 12.3374 8.42439C12.3374 8.48198 12.3779 8.57253 12.4273 8.62554C12.4859 8.68846 12.5695 8.72199 12.6679 8.72199C12.7663 8.72199 12.8499 8.68846 12.9085 8.62554C12.9579 8.57253 12.9984 8.47559 12.9984 8.41011C12.9984 8.34468 12.9637 8.25012 12.9213 8.19998C12.8789 8.14988 12.7946 8.09895 12.734 8.08678C12.6734 8.07467 12.5805 8.0826 12.5276 8.10445ZM14.216 8.15239C14.1338 8.21708 14.0999 8.28484 14.0999 8.38491C14.0999 8.46259 14.1308 8.57019 14.1685 8.62404C14.2193 8.69656 14.2814 8.72199 14.4077 8.72199C14.5395 8.72199 14.599 8.69559 14.6695 8.60588C14.7198 8.54204 14.7609 8.45127 14.7609 8.40421C14.7609 8.35715 14.7029 8.2607 14.6321 8.18985C14.5612 8.11899 14.4648 8.06105 14.4177 8.06105C14.3707 8.06105 14.2799 8.10216 14.216 8.15239ZM16.0107 8.11261C15.9589 8.13763 15.8945 8.20663 15.8675 8.2659C15.8404 8.32516 15.8184 8.39976 15.8184 8.4317C15.8184 8.46365 15.8595 8.54204 15.9097 8.60588C15.9766 8.69097 16.0414 8.72199 16.1521 8.72199C16.2443 8.72199 16.3373 8.68771 16.3912 8.63386C16.445 8.58002 16.4793 8.487 16.4793 8.39474C16.4793 8.28405 16.4483 8.21928 16.3632 8.15239C16.2994 8.10216 16.2151 8.06237 16.1759 8.06405C16.1368 8.06568 16.0624 8.08753 16.0107 8.11261ZM19.8721 13.7272C20.0539 13.7843 20.33 13.9058 20.4858 13.9973C20.6417 14.0888 20.902 14.2972 21.0643 14.4603C21.2591 14.656 21.4199 14.8734 21.5369 15.0992C21.6344 15.2875 21.746 15.5499 21.785 15.6824C21.824 15.815 21.8682 16.0836 21.8832 16.2793C21.9028 16.5331 21.8892 16.7422 21.836 17.0077C21.7928 17.2239 21.6864 17.5364 21.5825 17.7523C21.4395 18.0494 21.3314 18.196 21.0454 18.4804C20.8022 18.7221 20.5854 18.8895 20.37 19.0019C20.1956 19.0928 19.8999 19.2063 19.7131 19.2541C19.5109 19.3058 19.2274 19.341 19.0129 19.341C18.7984 19.341 18.5149 19.3058 18.3127 19.2541C18.1259 19.2063 17.8302 19.0925 17.6558 19.0012C17.4493 18.8932 17.2216 18.7196 17.0039 18.5043C16.8063 18.309 16.6048 18.056 16.512 17.8869C16.4256 17.7294 16.3135 17.4644 16.2627 17.2981C16.2121 17.1317 16.1591 16.8343 16.1452 16.6371C16.128 16.3953 16.142 16.166 16.1882 15.9323C16.2258 15.7417 16.3216 15.4445 16.401 15.2718C16.4804 15.0992 16.6391 14.841 16.7536 14.6982C16.8681 14.5553 17.0412 14.3704 17.1383 14.2873C17.2353 14.2043 17.4267 14.0689 17.5635 13.9865C17.7002 13.9042 17.9342 13.7961 18.0834 13.7465C18.2326 13.6968 18.473 13.6384 18.6177 13.6166C18.7624 13.5948 19.0294 13.5873 19.2112 13.6002C19.3929 13.6129 19.6903 13.6701 19.8721 13.7272ZM18.3686 14.5959C18.2081 14.6506 17.9645 14.7802 17.8272 14.8838C17.6899 14.9875 17.5163 15.1554 17.4415 15.2569C17.3667 15.3584 17.2573 15.5487 17.1983 15.6798C17.1393 15.811 17.0758 16.0449 17.0572 16.1998C17.0385 16.3548 17.0396 16.6044 17.0596 16.7546C17.0811 16.9154 17.1595 17.1572 17.2504 17.3426C17.3583 17.5623 17.484 17.7306 17.667 17.9001C17.8112 18.0336 18.0342 18.1938 18.1626 18.2561C18.291 18.3185 18.5373 18.3934 18.71 18.4227C18.9574 18.4646 19.0891 18.4642 19.3307 18.421C19.4993 18.3909 19.7395 18.3189 19.8643 18.261C19.9892 18.2032 20.1931 18.0607 20.3176 17.9443C20.442 17.8279 20.5975 17.6534 20.6631 17.5565C20.7287 17.4595 20.8175 17.291 20.8605 17.182C20.9034 17.0729 20.9558 16.8647 20.9768 16.7193C21.0001 16.5586 20.9978 16.3427 20.9711 16.1685C20.947 16.011 20.8687 15.7613 20.7969 15.6137C20.7252 15.466 20.5872 15.2552 20.4903 15.145C20.3934 15.0349 20.2146 14.881 20.093 14.803C19.9714 14.7249 19.7512 14.6236 19.6037 14.5776C19.4364 14.5256 19.2085 14.4946 18.998 14.4953C18.7656 14.4961 18.5694 14.5274 18.3686 14.5959ZM19.4868 15.2429C19.6169 15.2916 19.8065 15.4124 19.912 15.5138C20.0168 15.6144 20.1496 15.798 20.2072 15.9216C20.2837 16.086 20.312 16.2243 20.3123 16.4361C20.3125 16.5953 20.2815 16.8173 20.2433 16.9293C20.2052 17.0413 20.0954 17.2222 19.9994 17.3312C19.902 17.4419 19.7143 17.5836 19.5747 17.6519C19.3719 17.7511 19.2657 17.7741 19.0145 17.773C18.7974 17.7721 18.6434 17.7443 18.5008 17.6801C18.3887 17.6297 18.2195 17.5184 18.1248 17.4328C18.03 17.3471 17.9036 17.1813 17.8438 17.0643C17.7518 16.8842 17.7352 16.7905 17.7358 16.4549C17.7364 16.1293 17.754 16.0269 17.834 15.8821C17.8875 15.7852 17.9665 15.6657 18.0095 15.6166C18.0524 15.5676 18.1588 15.4734 18.2458 15.4075C18.3328 15.3415 18.4815 15.2591 18.5763 15.2244C18.671 15.1897 18.8618 15.1599 19.0002 15.1582C19.1509 15.1563 19.3462 15.1903 19.4868 15.2429ZM5.24342 17.4904C5.24342 18.2688 5.24958 18.3337 5.33154 18.4157C5.40997 18.4941 5.4784 18.5038 5.95278 18.5038C6.34273 18.5038 6.52448 18.5222 6.62962 18.572C6.70871 18.6096 6.79595 18.6898 6.82353 18.7503C6.85116 18.8109 6.87372 18.9106 6.87372 18.9719C6.87372 19.0364 6.81939 19.1377 6.74493 19.2122L6.61613 19.341H4.65792C2.76244 19.341 2.69608 19.3382 2.58699 19.2524C2.52499 19.2036 2.46097 19.1031 2.44471 19.0291C2.42814 18.9538 2.43814 18.839 2.4674 18.7684C2.49622 18.6988 2.58509 18.6112 2.66546 18.573C2.77209 18.5224 2.94944 18.5038 3.32525 18.5038C3.60791 18.5038 3.87669 18.4838 3.92252 18.4592C3.96834 18.4347 4.02641 18.3405 4.05157 18.2499C4.07673 18.1593 4.0974 17.763 4.09753 17.3692L4.0978 16.6532H4.67061H5.24342V17.4904Z" fill="#757575"/>
</svg>
