<svg width="20" height="20" viewBox="0 0 20 20" fill="none" xmlns="http://www.w3.org/2000/svg">
<path fill-rule="evenodd" clip-rule="evenodd" d="M14.6956 0.0440039C14.4186 0.135253 14.3458 0.189913 13.846 0.682018L13.3595 1.16105L13.2671 0.938216C13.1489 0.653014 12.88 0.377009 12.5866 0.239773C12.3934 0.149412 12.3001 0.131824 12.013 0.131622C11.3701 0.131218 11.9036 -0.351326 5.7325 5.81256C1.66895 9.87139 0.209618 11.3532 0.127204 11.5045C0.0371254 11.6697 0.0160278 11.7592 0.017238 11.9712C0.0192146 12.3146 0.0971508 12.4846 0.394859 12.7947L0.638713 13.0486L0.479855 13.1537C0.027323 13.4532 -0.12847 14.0327 0.113246 14.5175C0.17428 14.64 0.982005 15.4755 2.74885 17.2438C5.60708 20.1045 5.51749 20.0293 6.01903 19.9891C6.15611 19.978 6.33094 19.9377 6.40759 19.8993C6.48423 19.861 7.27376 19.1046 8.16213 18.2185L9.77725 16.6075L12.8012 15.8003C14.4643 15.3564 15.9139 14.9669 16.0225 14.9349C16.2977 14.8536 16.5274 14.7105 16.7221 14.4992C16.9437 14.2589 17.0452 14.0493 17.1028 13.7136C17.1436 13.4756 17.1406 13.3943 17.082 13.1571C17.0429 12.9986 16.9527 12.7876 16.8719 12.6661L16.7304 12.4529L16.8312 12.3207C17.0408 12.046 17.1135 11.8166 17.1148 11.4257C17.1159 11.0956 17.1038 11.0372 16.9852 10.7962C16.8634 10.5487 16.5875 10.2378 16.3894 10.1249C16.3163 10.0833 16.4378 9.94989 17.7652 8.61488C19.4012 6.96954 19.4076 6.96103 19.4116 6.42443C19.4142 6.0721 19.3193 5.78573 19.1246 5.55825C19.0248 5.44171 18.9897 5.37104 19.015 5.33788C19.5045 4.69647 19.5612 4.14644 19.197 3.57232C19.0638 3.36236 18.7655 3.12322 18.5481 3.05214C18.4704 3.02673 18.3935 2.99389 18.3772 2.97917C18.3609 2.9644 18.3854 2.85315 18.4318 2.73193C18.5498 2.42316 18.5248 1.98427 18.3714 1.67075C18.2334 1.38853 17.9275 1.10962 17.6369 1.0009C17.3709 0.901386 16.9487 0.893157 16.7126 0.982913C16.4595 1.07912 16.4492 1.07489 16.3601 0.838779C16.2585 0.569591 15.9513 0.249575 15.6638 0.11355C15.4188 -0.00230624 14.9405 -0.0366757 14.6956 0.0440039ZM15.5379 0.770443C15.7834 0.957701 15.8813 1.23685 15.8042 1.52984C15.7631 1.68636 15.5157 1.94772 13.4419 4.02538C11.2877 6.18364 11.1255 6.35569 11.1255 6.48349C11.1255 6.67268 11.2582 6.80766 11.4442 6.80766C11.5798 6.80766 11.7245 6.67083 14.1701 4.23047C15.5907 2.81301 16.7974 1.63049 16.8518 1.60261C16.9884 1.53262 17.3352 1.53912 17.48 1.61439C17.6336 1.69427 17.7646 1.83525 17.8192 1.97959C17.8821 2.14543 17.8718 2.43579 17.7979 2.58408C17.7625 2.65508 16.5843 3.86588 15.1797 5.27475C13.775 6.68361 12.6141 7.87626 12.5997 7.92507C12.5692 8.02891 12.6658 8.23863 12.7611 8.27518C12.797 8.28894 12.8834 8.30023 12.953 8.30023C13.0666 8.30023 13.3176 8.06271 15.3802 6.00308C16.6455 4.73968 17.7319 3.68681 17.7943 3.66337C18.333 3.46143 18.8942 3.96189 18.7492 4.51499C18.708 4.67235 18.4132 4.98043 15.7957 7.60086C13.9127 9.4861 12.8533 10.5186 12.7893 10.5308C12.7159 10.5448 12.6227 10.4984 12.4283 10.3513C11.7658 9.8498 11.0714 9.64334 10.1815 9.68324C9.59758 9.70938 9.23698 9.80333 8.74471 10.0576C8.35063 10.2611 7.87289 10.6359 7.81565 10.7864C7.73275 11.0045 7.88544 11.2208 8.12235 11.2208C8.22603 11.2208 8.30029 11.1846 8.4128 11.0792C8.64899 10.8579 8.84189 10.7283 9.15989 10.5773C10.1276 10.1177 11.3353 10.2769 12.1774 10.9749C12.3232 11.0958 12.4802 11.2067 12.5262 11.2213C12.575 11.2368 13.2103 11.1128 14.0514 10.9237C14.8443 10.7455 15.5638 10.5996 15.6503 10.5996C16.1067 10.5996 16.4679 10.9755 16.4649 11.4473C16.4641 11.5696 16.4402 11.7148 16.4118 11.77C16.314 11.9599 16.0747 12.1706 15.8883 12.2307C15.787 12.2634 14.3085 12.664 12.6027 13.1209L9.50121 13.9516L8.22578 15.2016L6.95036 16.4516L6.87077 16.3393C6.73454 16.1471 1.83636 11.2491 1.66584 11.1345C1.5771 11.0749 1.49618 11.0202 1.48601 11.0129C1.45459 10.9904 11.5828 0.876053 11.6984 0.814615C11.8602 0.72857 12.1959 0.740995 12.3713 0.839505C12.6658 1.00506 12.8066 1.37808 12.6983 1.70621C12.6597 1.82323 12.2779 2.23151 11.0497 3.46942C10.1706 4.35544 9.43654 5.10665 9.41831 5.13876C9.3678 5.22779 9.42718 5.42868 9.52412 5.49657C9.57168 5.52985 9.67386 5.55712 9.75119 5.55712C9.88331 5.55712 10.0365 5.41234 12.2937 3.1536C13.6147 1.83166 14.741 0.723972 14.7965 0.692023C14.8626 0.653982 14.9825 0.63829 15.1446 0.646519C15.3406 0.656443 15.4222 0.68218 15.5379 0.770443ZM18.6673 6.04677C18.7702 6.22975 18.7902 6.53266 18.7099 6.69067C18.6298 6.84808 15.5098 9.95416 15.4317 9.95416C15.3678 9.95416 14.3701 10.1659 14.1712 10.2217C14.1268 10.2341 15.0781 9.25487 16.2852 8.04557C17.4923 6.83626 18.5015 5.85511 18.5278 5.8652C18.5541 5.87532 18.6169 5.95701 18.6673 6.04677ZM1.21468 11.6123C1.34418 11.6777 6.23881 16.5697 6.3111 16.7059C6.42489 16.9203 6.29762 17.1997 6.05215 17.2741C5.83993 17.3385 5.7137 17.2349 4.46773 15.9738C3.79421 15.2922 2.66591 14.1526 1.96033 13.4415C0.732826 12.2044 0.67752 12.1421 0.67752 11.9967C0.67752 11.8062 0.729881 11.7068 0.870142 11.6306C1.00338 11.5583 1.09794 11.5533 1.21468 11.6123ZM16.3687 13.1187C16.4566 13.3003 16.4774 13.6295 16.4119 13.8019C16.3404 13.9898 16.0916 14.2223 15.8932 14.2868C15.6932 14.3517 9.52388 16.0051 9.48156 16.0051C9.46797 16.0051 8.88615 16.5724 8.18867 17.2658C7.31297 18.1362 6.91377 18.5077 6.89872 18.4659C6.88674 18.4326 6.76032 18.2843 6.61776 18.1363C6.36091 17.8698 6.35938 17.8669 6.45273 17.8191C6.50456 17.7926 7.27748 17.0428 8.17032 16.1528L9.79363 14.5347L12.9708 13.6827C16.5087 12.7339 16.2066 12.784 16.3687 13.1187ZM1.21331 13.6814C1.32816 13.7313 2.32584 14.721 5.517 17.951C6.31186 18.7555 6.34345 18.7935 6.34345 18.9471C6.34345 19.227 6.07999 19.4103 5.81778 19.3128C5.64452 19.2484 0.729195 14.326 0.675341 14.1631C0.615154 13.9807 0.712535 13.762 0.887811 13.6859C1.05433 13.6135 1.05671 13.6135 1.21331 13.6814Z" fill="#757575"/>
</svg>
