<svg width="14" height="14" viewBox="0 0 14 14" fill="none" xmlns="http://www.w3.org/2000/svg">
<path fill-rule="evenodd" clip-rule="evenodd" d="M5.56708 0.0377406C4.92305 0.110535 4.1643 0.334576 3.53956 0.636448C2.00777 1.37663 0.786902 2.78971 0.289668 4.39806C-0.410939 6.66427 0.178089 9.04871 1.85354 10.7287C2.94016 11.8183 4.36368 12.4642 5.87775 12.5548C6.66293 12.6018 7.51903 12.4952 8.23229 12.2616C8.80085 12.0754 9.53998 11.6874 10.0732 11.2952L10.1973 11.204L11.5448 12.5495C12.4606 13.464 12.9313 13.9113 13.0139 13.9456C13.5875 14.1838 14.1748 13.5966 13.9376 13.0222C13.9033 12.9392 13.4602 12.4729 12.5408 11.5527L11.1943 10.2048L11.2746 10.0975C11.7754 9.42792 12.1545 8.64781 12.3677 7.84812C12.6215 6.89629 12.6268 5.74025 12.3818 4.76429C11.9325 2.97418 10.6697 1.42663 9.00079 0.62085C7.95858 0.117664 6.72051 -0.0925768 5.56708 0.0377406ZM6.78651 1.44007C9.04402 1.6836 10.8139 3.40451 11.1128 5.64665C11.162 6.01609 11.1326 6.92828 11.0607 7.25948C10.8531 8.21624 10.4019 9.04776 9.72069 9.72894C9.03562 10.414 8.25169 10.8411 7.28004 11.0587C6.98664 11.1244 6.85181 11.1347 6.28653 11.1347C5.55436 11.1347 5.33143 11.1014 4.72481 10.9016C4.30017 10.7618 3.85127 10.5378 3.48446 10.2827C3.09341 10.0108 2.50356 9.40692 2.23861 9.00721C1.14783 7.36168 1.13636 5.24239 2.20937 3.60827C3.20878 2.08629 4.98351 1.24559 6.78651 1.44007Z" fill="#757575"/>
</svg>
