<svg width="21" height="20" viewBox="0 0 21 20" fill="none" xmlns="http://www.w3.org/2000/svg">
<path fill-rule="evenodd" clip-rule="evenodd" d="M8.74386 0.0244909C7.80154 0.076444 6.8056 0.285981 6.23894 0.551567C5.76024 0.775849 5.57769 0.90778 5.09865 1.37557C4.55907 1.90243 4.40312 2.02501 4.04437 2.20428C3.48939 2.48151 2.77007 2.63172 1.62995 2.70842C1.27425 2.73235 0.812581 2.75222 0.604035 2.75261C0.253298 2.75321 0.216349 2.76171 0.1124 2.86566L0 2.97806L0.0276795 3.6525C0.0818314 4.97228 0.237647 5.67699 0.828015 7.27223C1.33888 8.65254 1.48202 9.6212 1.34802 10.7909C1.29374 11.2649 1.19824 11.488 0.9186 11.794C0.503061 12.2486 0.325127 12.7017 0.187592 13.655C0.0571268 14.5596 0.0131496 15.601 0.0131496 17.7854V19.7875L0.118996 19.8933L0.224799 19.9991H3.08912C6.38907 19.9991 6.09541 20.0408 6.20566 19.5566C6.34496 18.9449 6.70471 18.6384 7.27688 18.6439C7.67289 18.6476 7.83608 18.734 8.35703 19.2154C8.58166 19.423 8.86729 19.6544 8.99177 19.7295C9.45723 20.0104 9.21441 19.9991 14.7694 19.9991H19.8067L19.9148 19.891L20.0229 19.7829L20.0074 17.2934C19.9926 14.9211 19.9876 14.7875 19.9005 14.4589C19.4653 12.8165 18.2236 11.5754 16.5907 11.1508C16.2755 11.0688 16.077 11.0587 14.2841 11.0329C12.4268 11.0061 12.3073 10.9996 12.039 10.9108C11.3287 10.6756 10.7226 10.0705 10.4786 9.3529L10.3823 9.06955L10.3607 4.61413L10.3391 0.15875L10.2373 0.0763148C10.1473 0.00345114 10.0699 -0.00512867 9.56903 0.00207147C9.25748 0.00655539 8.88614 0.0166441 8.74386 0.0244909ZM9.67082 2.40834V4.13292H8.74192C7.8131 4.13292 7.81297 4.13293 7.70717 4.23877C7.64042 4.30547 7.60132 4.39385 7.60132 4.47784C7.60132 4.56183 7.64042 4.65021 7.70717 4.71691C7.81297 4.82276 7.8131 4.82276 8.74192 4.82276H9.67082V5.38325V5.94374H8.74192C7.8131 5.94374 7.81297 5.94374 7.70717 6.04958C7.64042 6.11628 7.60132 6.20467 7.60132 6.28866C7.60132 6.37264 7.64042 6.46103 7.70717 6.52773C7.81297 6.63357 7.8131 6.63357 8.74192 6.63357H9.67082V7.19406V7.75455H8.74192C7.8131 7.75455 7.81297 7.75455 7.70717 7.8604C7.64042 7.9271 7.60132 8.01548 7.60132 8.09947C7.60132 8.18346 7.64042 8.27184 7.70717 8.33854C7.81297 8.44439 7.8131 8.44439 8.74192 8.44439H9.67082L9.67919 8.72463C9.6838 8.87877 9.68867 9.06674 9.68996 9.14237L9.69238 9.27986L8.85164 9.50707C7.95068 9.75059 7.86001 9.79991 7.86001 10.0464C7.86001 10.1999 8.0301 10.3845 8.1716 10.3845C8.22652 10.3845 8.62999 10.2878 9.06817 10.1694C9.50634 10.0511 9.88726 9.95409 9.91463 9.95383C9.94201 9.95361 10.0244 10.0552 10.0979 10.1797C10.1713 10.3042 10.2552 10.4396 10.2844 10.4806C10.3308 10.5457 10.2553 10.6378 9.68078 11.2167C9.09528 11.8065 9.0241 11.894 9.0241 12.0232C9.0241 12.2225 9.16685 12.3678 9.36264 12.3678C9.49966 12.3678 9.57485 12.3071 10.1753 11.7111C10.7541 11.1366 10.8462 11.0611 10.9114 11.1075C10.9523 11.1367 11.0877 11.2207 11.2122 11.294C11.3366 11.3675 11.4385 11.4459 11.4385 11.4682C11.4385 11.4906 11.3415 11.872 11.223 12.3156C11.1044 12.7593 11.0081 13.1611 11.0088 13.2085C11.0129 13.4775 11.4435 13.6259 11.6161 13.418C11.6459 13.382 11.7699 12.9828 11.8916 12.5307L12.1129 11.7088L13.9422 11.7173C14.9484 11.7219 15.8976 11.7439 16.0518 11.7662C17.5868 11.9879 18.7819 13.048 19.2079 14.5658C19.2875 14.8494 19.3013 15.0373 19.3178 16.0649L19.3366 17.2398L15.3553 17.2394C11.2755 17.239 10.764 17.2216 10.4234 17.0709C10.3239 17.0269 10.0972 16.8456 9.91959 16.6679C9.68647 16.4349 9.50802 16.3018 9.27805 16.1895C8.61727 15.8668 8.8826 15.8848 4.58032 15.8704L0.718591 15.8575L0.733379 15.4816C0.7752 14.4208 0.886048 13.5008 1.03104 13.0118C1.1309 12.675 1.23868 12.4823 1.47034 12.2265C1.58252 12.1027 1.71527 11.9334 1.76537 11.8504C1.9812 11.4929 2.08312 10.9053 2.08179 10.0257C2.08032 9.02234 1.92765 8.222 1.54109 7.19126C0.976502 5.68574 0.815556 5.02048 0.726998 3.82647L0.699491 3.45538L1.3156 3.42464C2.93796 3.34367 3.97823 3.10335 4.69729 2.64336C4.83418 2.55579 5.16043 2.27719 5.42222 2.02428C5.95292 1.51164 6.18703 1.33677 6.58252 1.15741C7.16578 0.892992 8.19824 0.724327 9.44447 0.690008L9.67082 0.683756V2.40834ZM8.3497 16.6133C8.82306 16.6977 9.11559 16.8545 9.49733 17.2286C9.8845 17.6081 10.0749 17.7284 10.4475 17.8287C10.703 17.8975 11.0983 17.9052 15.0278 17.9184L19.3285 17.9327V18.6219V19.3111L14.4889 19.2994L9.64926 19.2877L9.43774 19.1799C9.32142 19.1206 9.03471 18.8932 8.80064 18.6744C8.56657 18.4557 8.29266 18.2285 8.1919 18.1694C7.90054 17.9987 7.50367 17.9153 7.11046 17.9421C6.68173 17.9714 6.22239 18.1819 5.98245 18.459C5.8425 18.6206 5.62068 19.0249 5.55739 19.2338C5.53596 19.3045 5.38204 19.3093 3.11874 19.3093H0.702983V17.9296V16.5499L4.35695 16.5514C7.2943 16.5526 8.07735 16.5648 8.3497 16.6133Z" fill="#757575"/>
</svg>
