<svg width="40" height="41" viewBox="0 0 40 41" fill="none" xmlns="http://www.w3.org/2000/svg">
<circle cx="20" cy="20.5" r="20" fill="#4095DA"/>
<path d="M5.76 25.5C5.65333 25.5 5.56267 25.468 5.488 25.404C5.424 25.3293 5.392 25.2387 5.392 25.132V14.684C5.392 14.5667 5.424 14.476 5.488 14.412C5.56267 14.3373 5.65333 14.3 5.76 14.3H6.56C6.688 14.3 6.784 14.332 6.848 14.396C6.912 14.46 6.94933 14.5133 6.96 14.556L10.352 21.02L13.76 14.556C13.7813 14.5133 13.8187 14.46 13.872 14.396C13.936 14.332 14.032 14.3 14.16 14.3H14.944C15.0613 14.3 15.152 14.3373 15.216 14.412C15.2907 14.476 15.328 14.5667 15.328 14.684V25.132C15.328 25.2387 15.2907 25.3293 15.216 25.404C15.152 25.468 15.0613 25.5 14.944 25.5H14.16C14.0533 25.5 13.9627 25.468 13.888 25.404C13.824 25.3293 13.792 25.2387 13.792 25.132V17.26L11.12 22.476C11.0773 22.5827 11.0133 22.668 10.928 22.732C10.8427 22.7853 10.736 22.812 10.608 22.812H10.112C9.97333 22.812 9.86133 22.7853 9.776 22.732C9.70133 22.668 9.63733 22.5827 9.584 22.476L6.912 17.26V25.132C6.912 25.2387 6.87467 25.3293 6.8 25.404C6.736 25.468 6.65067 25.5 6.544 25.5H5.76ZM21.2951 25.66C20.4845 25.66 19.8071 25.5053 19.2631 25.196C18.7191 24.8867 18.3031 24.46 18.0151 23.916C17.7271 23.3613 17.5671 22.732 17.5351 22.028C17.5245 21.8467 17.5191 21.6173 17.5191 21.34C17.5191 21.052 17.5245 20.8227 17.5351 20.652C17.5671 19.9373 17.7271 19.308 18.0151 18.764C18.3138 18.22 18.7351 17.7933 19.2791 17.484C19.8231 17.1747 20.4951 17.02 21.2951 17.02C22.0951 17.02 22.7671 17.1747 23.3111 17.484C23.8551 17.7933 24.2711 18.22 24.5591 18.764C24.8578 19.308 25.0231 19.9373 25.0551 20.652C25.0658 20.8227 25.0711 21.052 25.0711 21.34C25.0711 21.6173 25.0658 21.8467 25.0551 22.028C25.0231 22.732 24.8631 23.3613 24.5751 23.916C24.2871 24.46 23.8711 24.8867 23.3271 25.196C22.7831 25.5053 22.1058 25.66 21.2951 25.66ZM21.2951 24.428C21.9565 24.428 22.4845 24.22 22.8791 23.804C23.2738 23.3773 23.4871 22.7587 23.5191 21.948C23.5298 21.788 23.5351 21.5853 23.5351 21.34C23.5351 21.0947 23.5298 20.892 23.5191 20.732C23.4871 19.9213 23.2738 19.308 22.8791 18.892C22.4845 18.4653 21.9565 18.252 21.2951 18.252C20.6338 18.252 20.1005 18.4653 19.6951 18.892C19.3005 19.308 19.0925 19.9213 19.0711 20.732C19.0605 20.892 19.0551 21.0947 19.0551 21.34C19.0551 21.5853 19.0605 21.788 19.0711 21.948C19.0925 22.7587 19.3005 23.3773 19.6951 23.804C20.1005 24.22 20.6338 24.428 21.2951 24.428ZM27.4426 25.5C27.336 25.5 27.2453 25.468 27.1706 25.404C27.1066 25.3293 27.0746 25.2387 27.0746 25.132V17.548C27.0746 17.4413 27.1066 17.356 27.1706 17.292C27.2453 17.2173 27.336 17.18 27.4426 17.18H28.1946C28.3013 17.18 28.3866 17.2173 28.4506 17.292C28.5253 17.356 28.5626 17.4413 28.5626 17.548V18.252C28.84 17.8893 29.1866 17.596 29.6026 17.372C30.0293 17.1373 30.5733 17.02 31.2346 17.02C31.928 17.02 32.5146 17.1747 32.9946 17.484C33.4853 17.7827 33.8533 18.204 34.0986 18.748C34.344 19.2813 34.4666 19.9053 34.4666 20.62V25.132C34.4666 25.2387 34.4346 25.3293 34.3706 25.404C34.3066 25.468 34.2213 25.5 34.1146 25.5H33.3146C33.208 25.5 33.1173 25.468 33.0426 25.404C32.9786 25.3293 32.9466 25.2387 32.9466 25.132V20.7C32.9466 19.9533 32.7653 19.372 32.4026 18.956C32.04 18.5293 31.5066 18.316 30.8026 18.316C30.1413 18.316 29.608 18.5293 29.2026 18.956C28.808 19.372 28.6106 19.9533 28.6106 20.7V25.132C28.6106 25.2387 28.5733 25.3293 28.4986 25.404C28.4346 25.468 28.3493 25.5 28.2426 25.5H27.4426Z" fill="white"/>
</svg>
