<svg width="40" height="41" viewBox="0 0 40 41" fill="none" xmlns="http://www.w3.org/2000/svg">
<circle cx="20" cy="20.5" r="20" fill="#4095DA"/>
<path d="M10.208 25.5C10.1013 25.5 10.0107 25.468 9.936 25.404C9.872 25.3293 9.84 25.2387 9.84 25.132V15.724H6.768C6.66133 15.724 6.57067 15.692 6.496 15.628C6.432 15.5533 6.4 15.4627 6.4 15.356V14.684C6.4 14.5667 6.432 14.476 6.496 14.412C6.57067 14.3373 6.66133 14.3 6.768 14.3H14.48C14.5973 14.3 14.688 14.3373 14.752 14.412C14.8267 14.476 14.864 14.5667 14.864 14.684V15.356C14.864 15.4627 14.8267 15.5533 14.752 15.628C14.688 15.692 14.5973 15.724 14.48 15.724H11.424V25.132C11.424 25.2387 11.3867 25.3293 11.312 25.404C11.248 25.468 11.1573 25.5 11.04 25.5H10.208ZM18.288 25.66C17.6053 25.66 17.024 25.5107 16.544 25.212C16.0747 24.9027 15.7173 24.476 15.472 23.932C15.2267 23.388 15.104 22.764 15.104 22.06V17.548C15.104 17.4413 15.136 17.356 15.2 17.292C15.2747 17.2173 15.3653 17.18 15.472 17.18H16.272C16.3787 17.18 16.464 17.2173 16.528 17.292C16.6027 17.356 16.64 17.4413 16.64 17.548V21.98C16.64 23.5693 17.3333 24.364 18.72 24.364C19.3813 24.364 19.9093 24.156 20.304 23.74C20.7093 23.3133 20.912 22.7267 20.912 21.98V17.548C20.912 17.4413 20.944 17.356 21.008 17.292C21.0827 17.2173 21.1733 17.18 21.28 17.18H22.064C22.1813 17.18 22.272 17.2173 22.336 17.292C22.4 17.356 22.432 17.4413 22.432 17.548V25.132C22.432 25.2387 22.4 25.3293 22.336 25.404C22.272 25.468 22.1813 25.5 22.064 25.5H21.328C21.2213 25.5 21.1307 25.468 21.056 25.404C20.992 25.3293 20.96 25.2387 20.96 25.132V24.428C20.672 24.8013 20.32 25.1 19.904 25.324C19.4987 25.548 18.96 25.66 18.288 25.66ZM28.121 25.66C27.0223 25.66 26.1477 25.324 25.497 24.652C24.8463 23.9693 24.489 23.0413 24.425 21.868C24.4143 21.7293 24.409 21.5533 24.409 21.34C24.409 21.116 24.4143 20.9347 24.425 20.796C24.4677 20.0387 24.6437 19.3773 24.953 18.812C25.2623 18.236 25.6837 17.7933 26.217 17.484C26.761 17.1747 27.3957 17.02 28.121 17.02C28.9317 17.02 29.609 17.1907 30.153 17.532C30.7077 17.8733 31.129 18.3587 31.417 18.988C31.705 19.6173 31.849 20.3533 31.849 21.196V21.468C31.849 21.5853 31.8117 21.676 31.737 21.74C31.673 21.804 31.5877 21.836 31.481 21.836H25.945C25.945 21.8467 25.945 21.868 25.945 21.9C25.945 21.932 25.945 21.9587 25.945 21.98C25.9663 22.4173 26.0623 22.828 26.233 23.212C26.4037 23.5853 26.649 23.8893 26.969 24.124C27.289 24.3587 27.673 24.476 28.121 24.476C28.505 24.476 28.825 24.4173 29.081 24.3C29.337 24.1827 29.545 24.0547 29.705 23.916C29.865 23.7667 29.9717 23.6547 30.025 23.58C30.121 23.4413 30.1957 23.3613 30.249 23.34C30.3023 23.308 30.3877 23.292 30.505 23.292H31.273C31.3797 23.292 31.465 23.324 31.529 23.388C31.6037 23.4413 31.6357 23.5213 31.625 23.628C31.6143 23.788 31.529 23.9853 31.369 24.22C31.209 24.444 30.9797 24.668 30.681 24.892C30.3823 25.116 30.0197 25.3027 29.593 25.452C29.1663 25.5907 28.6757 25.66 28.121 25.66ZM25.945 20.732H30.329V20.684C30.329 20.204 30.2383 19.7773 30.057 19.404C29.8863 19.0307 29.6357 18.7373 29.305 18.524C28.9743 18.3 28.5797 18.188 28.121 18.188C27.6623 18.188 27.2677 18.3 26.937 18.524C26.617 18.7373 26.3717 19.0307 26.201 19.404C26.0303 19.7773 25.945 20.204 25.945 20.684V20.732Z" fill="white"/>
</svg>
