<svg width="12" height="12" viewBox="0 0 12 12" fill="none" xmlns="http://www.w3.org/2000/svg">
<path d="M10.2427 7.75734C9.58915 7.10386 8.81131 6.62009 7.96263 6.32723C8.87159 5.7012 9.46875 4.65347 9.46875 3.46875C9.46875 1.55609 7.91266 0 6 0C4.08734 0 2.53125 1.55609 2.53125 3.46875C2.53125 4.65347 3.12841 5.7012 4.03739 6.32723C3.18872 6.62009 2.41088 7.10386 1.75737 7.75734C0.735218 8.77951 0.127267 10.1055 0.0178873 11.5317C-0.00190954 11.7898 0.209867 12 0.46875 12V12C0.727633 12 0.935222 11.7895 0.958978 11.5317C1.19606 8.9589 3.36641 6.9375 6 6.9375C8.63359 6.9375 10.8039 8.9589 11.041 11.5317C11.0648 11.7895 11.2724 12 11.5313 12V12C11.7901 12 12.0019 11.7898 11.9821 11.5317C11.8727 10.1055 11.2648 8.77951 10.2427 7.75734ZM6 6C4.60427 6 3.46875 4.8645 3.46875 3.46875C3.46875 2.073 4.60427 0.9375 6 0.9375C7.39573 0.9375 8.53125 2.073 8.53125 3.46875C8.53125 4.8645 7.39573 6 6 6Z" fill="#757575"/>
</svg>
